G04*
G04 #@! TF.GenerationSoftware,Altium Limited,Altium Designer,23.4.1 (23)*
G04*
G04 Layer_Color=16711935*
%FSLAX44Y44*%
%MOMM*%
G71*
G04*
G04 #@! TF.SameCoordinates,210523F5-4B5D-4388-949E-6639FD9C488E*
G04*
G04*
G04 #@! TF.FilePolarity,Negative*
G04*
G01*
G75*
G04:AMPARAMS|DCode=208|XSize=1.4016mm|YSize=1.4016mm|CornerRadius=0.3758mm|HoleSize=0mm|Usage=FLASHONLY|Rotation=180.000|XOffset=0mm|YOffset=0mm|HoleType=Round|Shape=RoundedRectangle|*
%AMROUNDEDRECTD208*
21,1,1.4016,0.6500,0,0,180.0*
21,1,0.6500,1.4016,0,0,180.0*
1,1,0.7516,-0.3250,0.3250*
1,1,0.7516,0.3250,0.3250*
1,1,0.7516,0.3250,-0.3250*
1,1,0.7516,-0.3250,-0.3250*
%
%ADD208ROUNDEDRECTD208*%
%ADD209C,1.4016*%
%ADD210C,3.3516*%
%ADD211C,2.6016*%
%ADD212C,2.4916*%
%ADD213C,1.3016*%
%ADD214C,1.5516*%
%ADD215C,1.2032*%
%ADD216C,1.6256*%
G04:AMPARAMS|DCode=217|XSize=3.5016mm|YSize=0.9016mm|CornerRadius=0.2508mm|HoleSize=0mm|Usage=FLASHONLY|Rotation=270.000|XOffset=0mm|YOffset=0mm|HoleType=Round|Shape=RoundedRectangle|*
%AMROUNDEDRECTD217*
21,1,3.5016,0.4000,0,0,270.0*
21,1,3.0000,0.9016,0,0,270.0*
1,1,0.5016,-0.2000,-1.5000*
1,1,0.5016,-0.2000,1.5000*
1,1,0.5016,0.2000,1.5000*
1,1,0.5016,0.2000,-1.5000*
%
%ADD217ROUNDEDRECTD217*%
G04:AMPARAMS|DCode=218|XSize=2.5016mm|YSize=0.9016mm|CornerRadius=0.2508mm|HoleSize=0mm|Usage=FLASHONLY|Rotation=270.000|XOffset=0mm|YOffset=0mm|HoleType=Round|Shape=RoundedRectangle|*
%AMROUNDEDRECTD218*
21,1,2.5016,0.4000,0,0,270.0*
21,1,2.0000,0.9016,0,0,270.0*
1,1,0.5016,-0.2000,-1.0000*
1,1,0.5016,-0.2000,1.0000*
1,1,0.5016,0.2000,1.0000*
1,1,0.5016,0.2000,-1.0000*
%
%ADD218ROUNDEDRECTD218*%
%ADD219C,3.3016*%
D208*
X1764300Y1118750D02*
D03*
D209*
X1835700Y1100950D02*
D03*
X1774500D02*
D03*
X1825500Y1118750D02*
D03*
X1784700D02*
D03*
X1815300Y1100950D02*
D03*
X1794900D02*
D03*
X1805100Y1118750D02*
D03*
X1868600Y1052750D02*
D03*
X1731400D02*
D03*
X1845700D02*
D03*
X1754300D02*
D03*
D210*
X1736500Y1144150D02*
D03*
X1863500D02*
D03*
D211*
X1718750Y1109850D02*
D03*
X1881250D02*
D03*
D212*
X1200000Y834300D02*
D03*
D213*
Y720000D02*
D03*
Y745400D02*
D03*
Y770800D02*
D03*
Y694600D02*
D03*
Y669200D02*
D03*
D214*
X1174000Y1135000D02*
D03*
X666000D02*
D03*
X1165000Y226000D02*
D03*
Y494000D02*
D03*
X1406000Y1135000D02*
D03*
X1594000D02*
D03*
D215*
X223500Y25000D02*
D03*
X176500D02*
D03*
X1520000D02*
D03*
X1380000D02*
D03*
X1270000D02*
D03*
X380000D02*
D03*
X490000D02*
D03*
X600000D02*
D03*
X710000D02*
D03*
X820000D02*
D03*
X930000D02*
D03*
X1040000D02*
D03*
X1150000D02*
D03*
X1660000D02*
D03*
X1820000D02*
D03*
D216*
X244960Y68180D02*
D03*
X214990D02*
D03*
X185010D02*
D03*
X155040D02*
D03*
Y98150D02*
D03*
X185010D02*
D03*
X214990D02*
D03*
X244960D02*
D03*
X1549840D02*
D03*
X1520000D02*
D03*
X1490160D02*
D03*
Y68180D02*
D03*
X1520000D02*
D03*
X1549840D02*
D03*
X1394990D02*
D03*
X1365010D02*
D03*
Y98150D02*
D03*
X1394990D02*
D03*
X1270000D02*
D03*
Y68180D02*
D03*
X394990D02*
D03*
X365010D02*
D03*
Y98150D02*
D03*
X394990D02*
D03*
X504990Y68180D02*
D03*
X475010D02*
D03*
Y98150D02*
D03*
X504990D02*
D03*
X614990Y68180D02*
D03*
X585010D02*
D03*
Y98150D02*
D03*
X614990D02*
D03*
X724990Y68180D02*
D03*
X695010D02*
D03*
Y98150D02*
D03*
X724990D02*
D03*
X834990Y68180D02*
D03*
X805010D02*
D03*
Y98150D02*
D03*
X834990D02*
D03*
X944990Y68180D02*
D03*
X915010D02*
D03*
Y98150D02*
D03*
X944990D02*
D03*
X1054990Y68180D02*
D03*
X1025010D02*
D03*
Y98150D02*
D03*
X1054990D02*
D03*
X1164990Y68180D02*
D03*
X1135010D02*
D03*
Y98150D02*
D03*
X1164990D02*
D03*
X1674990Y68180D02*
D03*
X1645010D02*
D03*
Y98150D02*
D03*
X1674990D02*
D03*
X1834990Y68180D02*
D03*
X1805010D02*
D03*
Y98150D02*
D03*
X1834990D02*
D03*
D217*
X377650Y1058863D02*
D03*
D218*
X582650D02*
D03*
D219*
X1950000Y1150000D02*
D03*
Y50000D02*
D03*
X50000D02*
D03*
Y1150000D02*
D03*
X1350000D02*
D03*
Y150000D02*
D03*
X1250000D02*
D03*
Y1150000D02*
D03*
M02*
