G04*
G04 #@! TF.GenerationSoftware,Altium Limited,Altium Designer,23.4.1 (23)*
G04*
G04 Layer_Physical_Order=2*
G04 Layer_Color=6736896*
%FSLAX44Y44*%
%MOMM*%
G71*
G04*
G04 #@! TF.SameCoordinates,210523F5-4B5D-4388-949E-6639FD9C488E*
G04*
G04*
G04 #@! TF.FilePolarity,Positive*
G04*
G01*
G75*
%ADD16C,0.2540*%
%ADD17C,0.4064*%
%ADD220C,0.1524*%
%ADD225C,1.0000*%
%ADD227C,0.6096*%
%ADD228C,0.3048*%
%ADD229C,0.7112*%
%ADD230C,0.1016*%
G04:AMPARAMS|DCode=232|XSize=1.3mm|YSize=1.3mm|CornerRadius=0.325mm|HoleSize=0mm|Usage=FLASHONLY|Rotation=180.000|XOffset=0mm|YOffset=0mm|HoleType=Round|Shape=RoundedRectangle|*
%AMROUNDEDRECTD232*
21,1,1.3000,0.6500,0,0,180.0*
21,1,0.6500,1.3000,0,0,180.0*
1,1,0.6500,-0.3250,0.3250*
1,1,0.6500,0.3250,0.3250*
1,1,0.6500,0.3250,-0.3250*
1,1,0.6500,-0.3250,-0.3250*
%
%ADD232ROUNDEDRECTD232*%
%ADD233C,1.3000*%
%ADD234C,3.2500*%
%ADD235C,2.5000*%
%ADD236C,2.3900*%
%ADD237C,1.2000*%
%ADD238C,1.4500*%
%ADD239C,1.5240*%
G04:AMPARAMS|DCode=240|XSize=3.4mm|YSize=0.8mm|CornerRadius=0.2mm|HoleSize=0mm|Usage=FLASHONLY|Rotation=270.000|XOffset=0mm|YOffset=0mm|HoleType=Round|Shape=RoundedRectangle|*
%AMROUNDEDRECTD240*
21,1,3.4000,0.4000,0,0,270.0*
21,1,3.0000,0.8000,0,0,270.0*
1,1,0.4000,-0.2000,-1.5000*
1,1,0.4000,-0.2000,1.5000*
1,1,0.4000,0.2000,1.5000*
1,1,0.4000,0.2000,-1.5000*
%
%ADD240ROUNDEDRECTD240*%
G04:AMPARAMS|DCode=241|XSize=2.4mm|YSize=0.8mm|CornerRadius=0.2mm|HoleSize=0mm|Usage=FLASHONLY|Rotation=270.000|XOffset=0mm|YOffset=0mm|HoleType=Round|Shape=RoundedRectangle|*
%AMROUNDEDRECTD241*
21,1,2.4000,0.4000,0,0,270.0*
21,1,2.0000,0.8000,0,0,270.0*
1,1,0.4000,-0.2000,-1.0000*
1,1,0.4000,-0.2000,1.0000*
1,1,0.4000,0.2000,1.0000*
1,1,0.4000,0.2000,-1.0000*
%
%ADD241ROUNDEDRECTD241*%
%ADD242C,3.2000*%
%ADD243C,0.5500*%
%ADD244C,0.4500*%
%ADD245C,0.7500*%
G36*
X101600Y236528D02*
X100330Y236002D01*
X99777Y236555D01*
X98393Y237129D01*
X96894D01*
X95510Y236555D01*
X94451Y235496D01*
X93877Y234112D01*
Y232613D01*
X94451Y231229D01*
X95510Y230170D01*
X95831Y230037D01*
Y206525D01*
X95510Y206393D01*
X94451Y205333D01*
X93877Y203949D01*
Y202451D01*
X94451Y201067D01*
X95510Y200007D01*
X96894Y199434D01*
X98393D01*
X99777Y200007D01*
X100330Y200561D01*
X101600Y200035D01*
Y136525D01*
X230187D01*
Y47625D01*
X82550D01*
Y82550D01*
X21100D01*
Y246063D01*
X101600D01*
Y236528D01*
D02*
G37*
G36*
X1690688Y349250D02*
X1651798D01*
X1651119Y350520D01*
X1651410Y350956D01*
X1651702Y352425D01*
X1651410Y353894D01*
X1650578Y355140D01*
X1649332Y355973D01*
X1647863Y356265D01*
X1646393Y355973D01*
X1645147Y355140D01*
X1644315Y353894D01*
X1644023Y352425D01*
X1644315Y350956D01*
X1644606Y350520D01*
X1643927Y349250D01*
X1613339D01*
X1612782Y349622D01*
X1611313Y349915D01*
X1609843Y349622D01*
X1609286Y349250D01*
X1589381D01*
X1588628Y350378D01*
X1587382Y351210D01*
X1585912Y351502D01*
X1584443Y351210D01*
X1583197Y350378D01*
X1582444Y349250D01*
X1562100D01*
Y360137D01*
X1566862D01*
X1567556Y360275D01*
X1568144Y360668D01*
X1588782Y381306D01*
X1589175Y381894D01*
X1589313Y382588D01*
Y424699D01*
X1605438Y440825D01*
X1605831Y441413D01*
X1605969Y442107D01*
Y442657D01*
X1606403Y442955D01*
X1607239Y443219D01*
X1608256Y442540D01*
X1609725Y442248D01*
X1611194Y442540D01*
X1612440Y443372D01*
X1613273Y444618D01*
X1613565Y446087D01*
X1613273Y447557D01*
X1612440Y448803D01*
X1611538Y449406D01*
Y465137D01*
X1630290D01*
X1630675Y463867D01*
X1630297Y463615D01*
X1629465Y462369D01*
X1629173Y460900D01*
X1629465Y459431D01*
X1630297Y458185D01*
X1631543Y457352D01*
X1633013Y457060D01*
X1634482Y457352D01*
X1635728Y458185D01*
X1636560Y459431D01*
X1636852Y460900D01*
X1636560Y462369D01*
X1635728Y463615D01*
X1635350Y463867D01*
X1635735Y465137D01*
X1665062D01*
Y456363D01*
X1654481Y445782D01*
X1654088Y445194D01*
X1653950Y444500D01*
Y422275D01*
X1654088Y421581D01*
X1654481Y420993D01*
X1661659Y413814D01*
X1661448Y412750D01*
X1661740Y411281D01*
X1662572Y410035D01*
X1663818Y409202D01*
X1665287Y408910D01*
X1666757Y409202D01*
X1668003Y410035D01*
X1668835Y411281D01*
X1669127Y412750D01*
X1668835Y414219D01*
X1668003Y415465D01*
X1667182Y416013D01*
X1667165Y416059D01*
Y417378D01*
X1667182Y417424D01*
X1668003Y417972D01*
X1668605Y418875D01*
X1670050D01*
X1670744Y419013D01*
X1671332Y419406D01*
X1683273Y431347D01*
X1684337Y431135D01*
X1685807Y431427D01*
X1687053Y432260D01*
X1687885Y433506D01*
X1688177Y434975D01*
X1687885Y436444D01*
X1687053Y437690D01*
X1685807Y438522D01*
X1684337Y438815D01*
X1682868Y438522D01*
X1681622Y437690D01*
X1680790Y436444D01*
X1680498Y434975D01*
X1680709Y433911D01*
X1669718Y422920D01*
X1668250Y423033D01*
X1668003Y423403D01*
X1666757Y424235D01*
X1665287Y424527D01*
X1663818Y424235D01*
X1662572Y423403D01*
X1661740Y422157D01*
X1661491Y420906D01*
X1660825Y420537D01*
X1660212Y420389D01*
X1657575Y423026D01*
Y439051D01*
X1658845Y439436D01*
X1659397Y438610D01*
X1660643Y437777D01*
X1662112Y437485D01*
X1663582Y437777D01*
X1664828Y438610D01*
X1665660Y439856D01*
X1665952Y441325D01*
X1665660Y442794D01*
X1664828Y444040D01*
X1663582Y444873D01*
X1662112Y445165D01*
X1660643Y444873D01*
X1660196Y444574D01*
X1659386Y445560D01*
X1668157Y454331D01*
X1668550Y454919D01*
X1668596Y455152D01*
X1669931Y455351D01*
X1670510Y454485D01*
X1671756Y453652D01*
X1673225Y453360D01*
X1674694Y453652D01*
X1675940Y454485D01*
X1676772Y455731D01*
X1677065Y457200D01*
X1676772Y458669D01*
X1675940Y459915D01*
X1674694Y460747D01*
X1673225Y461040D01*
X1671756Y460747D01*
X1670510Y459915D01*
X1669958Y459089D01*
X1668688Y459474D01*
Y465137D01*
X1690688D01*
Y349250D01*
D02*
G37*
G36*
X1940141Y93796D02*
X1940255Y93783D01*
X1940408Y93770D01*
X1940560Y93745D01*
X1940725Y93707D01*
X1941093Y93618D01*
X1941284Y93555D01*
X1941474Y93478D01*
X1941652Y93389D01*
X1941843Y93275D01*
X1942008Y93161D01*
X1942173Y93021D01*
X1942186Y93008D01*
X1942211Y92983D01*
X1942249Y92945D01*
X1942300Y92881D01*
X1942363Y92805D01*
X1942440Y92716D01*
X1942503Y92615D01*
X1942592Y92488D01*
X1942668Y92348D01*
X1942732Y92208D01*
X1942871Y91878D01*
X1942922Y91688D01*
X1942960Y91497D01*
X1942986Y91294D01*
X1942998Y91078D01*
Y91065D01*
Y91053D01*
Y91014D01*
Y90964D01*
X1942986Y90837D01*
X1942973Y90672D01*
X1942935Y90481D01*
X1942897Y90265D01*
X1942833Y90049D01*
X1942757Y89821D01*
Y89808D01*
X1942744Y89795D01*
X1942706Y89719D01*
X1942655Y89592D01*
X1942579Y89440D01*
X1942465Y89249D01*
X1942338Y89046D01*
X1942186Y88818D01*
X1942008Y88576D01*
X1941995Y88551D01*
X1941944Y88500D01*
X1941855Y88398D01*
X1941728Y88259D01*
X1941551Y88081D01*
X1941347Y87865D01*
X1941081Y87611D01*
X1940941Y87471D01*
X1940776Y87319D01*
X1940763Y87306D01*
X1940738Y87281D01*
X1940700Y87243D01*
X1940636Y87192D01*
X1940484Y87052D01*
X1940306Y86874D01*
X1940116Y86697D01*
X1939938Y86519D01*
X1939773Y86366D01*
X1939709Y86290D01*
X1939658Y86239D01*
X1939646Y86227D01*
X1939620Y86188D01*
X1939569Y86138D01*
X1939519Y86074D01*
X1939392Y85909D01*
X1939277Y85731D01*
X1942998D01*
Y83991D01*
X1936445D01*
Y84004D01*
Y84030D01*
X1936458Y84093D01*
X1936471Y84157D01*
X1936483Y84246D01*
X1936509Y84347D01*
X1936534Y84461D01*
X1936559Y84588D01*
X1936648Y84880D01*
X1936763Y85198D01*
X1936902Y85528D01*
X1937080Y85858D01*
X1937093Y85871D01*
X1937106Y85896D01*
X1937144Y85947D01*
X1937195Y86023D01*
X1937258Y86112D01*
X1937334Y86214D01*
X1937423Y86341D01*
X1937537Y86481D01*
X1937677Y86646D01*
X1937829Y86824D01*
X1937995Y87014D01*
X1938185Y87230D01*
X1938401Y87446D01*
X1938642Y87687D01*
X1938896Y87941D01*
X1939176Y88208D01*
X1939188Y88221D01*
X1939227Y88259D01*
X1939290Y88322D01*
X1939379Y88398D01*
X1939480Y88500D01*
X1939595Y88602D01*
X1939849Y88856D01*
X1940116Y89122D01*
X1940370Y89376D01*
X1940484Y89503D01*
X1940573Y89618D01*
X1940662Y89719D01*
X1940725Y89808D01*
Y89821D01*
X1940738Y89833D01*
X1940789Y89910D01*
X1940852Y90024D01*
X1940928Y90164D01*
X1940992Y90342D01*
X1941055Y90532D01*
X1941106Y90735D01*
X1941119Y90951D01*
Y90964D01*
Y90976D01*
Y91053D01*
X1941106Y91167D01*
X1941081Y91307D01*
X1941030Y91459D01*
X1940979Y91624D01*
X1940890Y91777D01*
X1940776Y91916D01*
X1940763Y91929D01*
X1940712Y91967D01*
X1940636Y92031D01*
X1940535Y92094D01*
X1940408Y92145D01*
X1940242Y92208D01*
X1940065Y92246D01*
X1939849Y92259D01*
X1939747D01*
X1939646Y92246D01*
X1939519Y92221D01*
X1939366Y92170D01*
X1939214Y92107D01*
X1939061Y92018D01*
X1938922Y91904D01*
X1938909Y91891D01*
X1938871Y91840D01*
X1938807Y91751D01*
X1938744Y91624D01*
X1938680Y91459D01*
X1938617Y91256D01*
X1938566Y91014D01*
X1938528Y90735D01*
X1936661Y90913D01*
Y90926D01*
X1936674Y90976D01*
X1936687Y91065D01*
X1936699Y91167D01*
X1936725Y91294D01*
X1936763Y91434D01*
X1936801Y91599D01*
X1936852Y91777D01*
X1936991Y92132D01*
X1937068Y92323D01*
X1937169Y92500D01*
X1937283Y92678D01*
X1937410Y92843D01*
X1937550Y92996D01*
X1937702Y93135D01*
X1937715Y93148D01*
X1937741Y93161D01*
X1937791Y93199D01*
X1937855Y93237D01*
X1937944Y93288D01*
X1938045Y93351D01*
X1938172Y93415D01*
X1938312Y93478D01*
X1938452Y93529D01*
X1938630Y93593D01*
X1938807Y93656D01*
X1938998Y93707D01*
X1939201Y93745D01*
X1939430Y93783D01*
X1939658Y93796D01*
X1939900Y93809D01*
X1940039D01*
X1940141Y93796D01*
D02*
G37*
G36*
X1930781Y85642D02*
X1935683D01*
Y83991D01*
X1928813D01*
Y93681D01*
X1930781D01*
Y85642D01*
D02*
G37*
%LPC*%
G36*
X217022Y108124D02*
Y100182D01*
X224964D01*
X224458Y102072D01*
X223120Y104388D01*
X221228Y106280D01*
X218912Y107618D01*
X217022Y108124D01*
D02*
G37*
G36*
X212958Y108124D02*
X211068Y107618D01*
X208752Y106280D01*
X206860Y104388D01*
X205522Y102072D01*
X205016Y100182D01*
X212958D01*
Y108124D01*
D02*
G37*
G36*
X186147Y106786D02*
X183873D01*
X181677Y106198D01*
X179707Y105061D01*
X178099Y103453D01*
X176963Y101483D01*
X176374Y99287D01*
Y97013D01*
X176963Y94817D01*
X178099Y92847D01*
X179707Y91240D01*
X181677Y90103D01*
X183873Y89514D01*
X186147D01*
X188343Y90103D01*
X190313Y91240D01*
X191921Y92847D01*
X193057Y94817D01*
X193646Y97013D01*
Y99287D01*
X193057Y101483D01*
X191921Y103453D01*
X190313Y105061D01*
X188343Y106198D01*
X186147Y106786D01*
D02*
G37*
G36*
X156177D02*
X153903D01*
X151707Y106198D01*
X149737Y105061D01*
X148130Y103453D01*
X146993Y101483D01*
X146404Y99287D01*
Y97013D01*
X146993Y94817D01*
X148130Y92847D01*
X149737Y91240D01*
X151707Y90103D01*
X153903Y89514D01*
X156177D01*
X158373Y90103D01*
X160343Y91240D01*
X161950Y92847D01*
X163088Y94817D01*
X163676Y97013D01*
Y99287D01*
X163088Y101483D01*
X161950Y103453D01*
X160343Y105061D01*
X158373Y106198D01*
X156177Y106786D01*
D02*
G37*
G36*
X212958Y96118D02*
X205016D01*
X205522Y94228D01*
X206860Y91912D01*
X208752Y90020D01*
X211068Y88682D01*
X212958Y88176D01*
Y96118D01*
D02*
G37*
G36*
X224964D02*
X217022D01*
Y88176D01*
X218912Y88682D01*
X221228Y90020D01*
X223120Y91912D01*
X224458Y94228D01*
X224964Y96118D01*
D02*
G37*
G36*
X217022Y78154D02*
Y70212D01*
X224964D01*
X224458Y72102D01*
X223120Y74418D01*
X221228Y76310D01*
X218912Y77648D01*
X217022Y78154D01*
D02*
G37*
G36*
X212958Y78154D02*
X211068Y77648D01*
X208752Y76310D01*
X206860Y74418D01*
X205522Y72102D01*
X205016Y70212D01*
X212958D01*
Y78154D01*
D02*
G37*
G36*
X186147Y76816D02*
X183873D01*
X181677Y76227D01*
X179707Y75090D01*
X178099Y73483D01*
X176963Y71513D01*
X176374Y69317D01*
Y67043D01*
X176963Y64847D01*
X178099Y62877D01*
X179707Y61269D01*
X181677Y60132D01*
X183873Y59544D01*
X186147D01*
X188343Y60132D01*
X190313Y61269D01*
X191921Y62877D01*
X193057Y64847D01*
X193646Y67043D01*
Y69317D01*
X193057Y71513D01*
X191921Y73483D01*
X190313Y75090D01*
X188343Y76227D01*
X186147Y76816D01*
D02*
G37*
G36*
X156177D02*
X153903D01*
X151707Y76227D01*
X149737Y75090D01*
X148130Y73483D01*
X146993Y71513D01*
X146404Y69317D01*
Y67043D01*
X146993Y64847D01*
X148130Y62877D01*
X149737Y61269D01*
X151707Y60132D01*
X153903Y59544D01*
X156177D01*
X158373Y60132D01*
X160343Y61269D01*
X161950Y62877D01*
X163088Y64847D01*
X163676Y67043D01*
Y69317D01*
X163088Y71513D01*
X161950Y73483D01*
X160343Y75090D01*
X158373Y76227D01*
X156177Y76816D01*
D02*
G37*
G36*
X212958Y66148D02*
X205016D01*
X205522Y64258D01*
X206860Y61942D01*
X208752Y60050D01*
X211068Y58712D01*
X212958Y58206D01*
Y66148D01*
D02*
G37*
G36*
X224964D02*
X217022D01*
Y58206D01*
X218912Y58712D01*
X221228Y60050D01*
X223120Y61942D01*
X224458Y64258D01*
X224964Y66148D01*
D02*
G37*
G36*
X1684337Y461040D02*
X1682868Y460747D01*
X1681622Y459915D01*
X1680790Y458669D01*
X1680498Y457200D01*
X1680790Y455731D01*
X1681622Y454485D01*
X1682868Y453652D01*
X1684337Y453360D01*
X1685807Y453652D01*
X1687053Y454485D01*
X1687885Y455731D01*
X1688177Y457200D01*
X1687885Y458669D01*
X1687053Y459915D01*
X1685807Y460747D01*
X1684337Y461040D01*
D02*
G37*
G36*
X1619250Y449927D02*
X1617781Y449635D01*
X1616535Y448803D01*
X1615703Y447557D01*
X1615410Y446087D01*
X1615703Y444618D01*
X1616535Y443372D01*
X1617781Y442540D01*
X1619250Y442248D01*
X1620719Y442540D01*
X1621965Y443372D01*
X1622220Y443754D01*
X1623417Y443259D01*
X1623348Y442912D01*
X1623640Y441443D01*
X1624472Y440197D01*
X1625718Y439365D01*
X1627188Y439073D01*
X1628657Y439365D01*
X1629903Y440197D01*
X1630735Y441443D01*
X1631027Y442912D01*
X1630735Y444382D01*
X1629903Y445628D01*
X1628657Y446460D01*
X1627188Y446752D01*
X1625718Y446460D01*
X1624472Y445628D01*
X1624217Y445246D01*
X1623021Y445741D01*
X1623090Y446087D01*
X1622798Y447557D01*
X1621965Y448803D01*
X1620719Y449635D01*
X1619250Y449927D01*
D02*
G37*
G36*
X1597081Y428910D02*
X1595611Y428618D01*
X1594365Y427786D01*
X1593533Y426540D01*
X1593241Y425071D01*
X1593533Y423601D01*
X1594365Y422355D01*
X1595611Y421523D01*
X1597081Y421231D01*
X1598550Y421523D01*
X1599796Y422355D01*
X1600628Y423601D01*
X1600920Y425071D01*
X1600628Y426540D01*
X1599796Y427786D01*
X1598550Y428618D01*
X1597081Y428910D01*
D02*
G37*
G36*
X1597333Y408247D02*
X1595863Y407955D01*
X1594618Y407123D01*
X1593785Y405877D01*
X1593493Y404408D01*
X1593785Y402938D01*
X1594618Y401693D01*
X1595863Y400860D01*
X1597333Y400568D01*
X1598802Y400860D01*
X1600048Y401693D01*
X1600880Y402938D01*
X1601172Y404408D01*
X1600880Y405877D01*
X1600048Y407123D01*
X1598802Y407955D01*
X1597333Y408247D01*
D02*
G37*
G36*
X1684337Y416590D02*
X1682868Y416297D01*
X1681622Y415465D01*
X1680790Y414219D01*
X1680498Y412750D01*
X1680790Y411281D01*
X1681622Y410035D01*
X1681982Y409794D01*
X1681714Y408446D01*
X1681281Y408360D01*
X1680035Y407528D01*
X1679203Y406282D01*
X1678910Y404813D01*
X1679203Y403343D01*
X1680035Y402097D01*
X1680855Y401549D01*
X1680872Y401503D01*
Y400185D01*
X1680855Y400138D01*
X1680035Y399590D01*
X1679203Y398344D01*
X1678910Y396875D01*
X1679203Y395406D01*
X1680035Y394160D01*
X1681281Y393327D01*
X1682750Y393035D01*
X1684219Y393327D01*
X1685465Y394160D01*
X1686297Y395406D01*
X1686590Y396875D01*
X1686297Y398344D01*
X1685465Y399590D01*
X1684645Y400138D01*
X1684628Y400185D01*
Y401503D01*
X1684645Y401549D01*
X1685465Y402097D01*
X1686297Y403343D01*
X1686590Y404813D01*
X1686297Y406282D01*
X1685465Y407528D01*
X1685105Y407768D01*
X1685374Y409116D01*
X1685807Y409202D01*
X1687053Y410035D01*
X1687885Y411281D01*
X1688177Y412750D01*
X1687885Y414219D01*
X1687053Y415465D01*
X1685807Y416297D01*
X1684337Y416590D01*
D02*
G37*
G36*
X1673225Y394365D02*
X1671756Y394072D01*
X1670510Y393240D01*
X1669677Y391994D01*
X1669385Y390525D01*
X1669677Y389056D01*
X1670510Y387810D01*
X1671756Y386978D01*
X1673225Y386685D01*
X1674694Y386978D01*
X1675940Y387810D01*
X1676772Y389056D01*
X1677065Y390525D01*
X1676772Y391994D01*
X1675940Y393240D01*
X1674694Y394072D01*
X1673225Y394365D01*
D02*
G37*
G36*
X1598613Y389602D02*
X1597143Y389310D01*
X1595897Y388478D01*
X1595065Y387232D01*
X1594773Y385762D01*
X1595065Y384293D01*
X1595897Y383047D01*
X1597143Y382215D01*
X1598613Y381923D01*
X1600082Y382215D01*
X1601328Y383047D01*
X1602160Y384293D01*
X1602452Y385762D01*
X1602160Y387232D01*
X1601328Y388478D01*
X1600082Y389310D01*
X1598613Y389602D01*
D02*
G37*
G36*
X1658938Y384840D02*
X1657468Y384548D01*
X1656222Y383715D01*
X1655390Y382469D01*
X1655098Y381000D01*
X1655390Y379531D01*
X1656222Y378285D01*
X1657468Y377453D01*
X1658938Y377160D01*
X1660407Y377453D01*
X1661653Y378285D01*
X1662485Y379531D01*
X1662777Y381000D01*
X1662485Y382469D01*
X1661653Y383715D01*
X1660407Y384548D01*
X1658938Y384840D01*
D02*
G37*
G36*
X1666875Y376902D02*
X1665406Y376610D01*
X1664160Y375778D01*
X1663327Y374532D01*
X1663035Y373063D01*
X1663327Y371593D01*
X1664160Y370347D01*
X1665406Y369515D01*
X1666875Y369223D01*
X1668344Y369515D01*
X1669590Y370347D01*
X1670423Y371593D01*
X1670715Y373063D01*
X1670423Y374532D01*
X1669590Y375778D01*
X1668344Y376610D01*
X1666875Y376902D01*
D02*
G37*
G36*
X1619362Y380077D02*
X1617893Y379785D01*
X1616647Y378953D01*
X1615815Y377707D01*
X1615523Y376237D01*
X1615815Y374768D01*
X1616647Y373522D01*
X1617893Y372690D01*
X1619362Y372398D01*
X1620832Y372690D01*
X1622078Y373522D01*
X1622173Y373665D01*
X1623369Y373169D01*
X1623348Y373063D01*
X1623640Y371593D01*
X1624472Y370347D01*
X1625718Y369515D01*
X1627188Y369223D01*
X1628657Y369515D01*
X1629903Y370347D01*
X1630451Y371168D01*
X1630497Y371185D01*
X1631815D01*
X1631862Y371168D01*
X1632410Y370347D01*
X1633656Y369515D01*
X1635125Y369223D01*
X1636594Y369515D01*
X1637840Y370347D01*
X1638388Y371168D01*
X1638434Y371185D01*
X1639753D01*
X1639799Y371168D01*
X1640347Y370347D01*
X1641593Y369515D01*
X1643062Y369223D01*
X1644532Y369515D01*
X1645778Y370347D01*
X1646326Y371168D01*
X1646372Y371185D01*
X1647690D01*
X1647737Y371168D01*
X1648285Y370347D01*
X1649531Y369515D01*
X1651000Y369223D01*
X1652469Y369515D01*
X1653715Y370347D01*
X1654547Y371593D01*
X1654840Y373063D01*
X1654547Y374532D01*
X1653715Y375778D01*
X1652469Y376610D01*
X1651000Y376902D01*
X1649531Y376610D01*
X1648285Y375778D01*
X1647737Y374957D01*
X1647690Y374940D01*
X1646372D01*
X1646326Y374957D01*
X1645778Y375778D01*
X1644532Y376610D01*
X1643062Y376902D01*
X1641593Y376610D01*
X1640347Y375778D01*
X1639799Y374957D01*
X1639753Y374940D01*
X1638434D01*
X1638388Y374957D01*
X1637840Y375778D01*
X1636594Y376610D01*
X1635125Y376902D01*
X1633656Y376610D01*
X1632410Y375778D01*
X1631862Y374957D01*
X1631815Y374940D01*
X1630497D01*
X1630451Y374957D01*
X1629903Y375778D01*
X1628657Y376610D01*
X1627188Y376902D01*
X1625718Y376610D01*
X1624472Y375778D01*
X1624377Y375635D01*
X1623181Y376131D01*
X1623202Y376237D01*
X1622910Y377707D01*
X1622078Y378953D01*
X1620832Y379785D01*
X1619362Y380077D01*
D02*
G37*
G36*
X1674812Y368965D02*
X1673343Y368672D01*
X1672097Y367840D01*
X1671265Y366594D01*
X1670973Y365125D01*
X1671265Y363656D01*
X1672097Y362410D01*
X1673343Y361577D01*
X1674812Y361285D01*
X1676282Y361577D01*
X1677528Y362410D01*
X1678360Y363656D01*
X1678652Y365125D01*
X1678360Y366594D01*
X1677528Y367840D01*
X1676282Y368672D01*
X1674812Y368965D01*
D02*
G37*
G36*
X1611313D02*
X1609843Y368672D01*
X1608597Y367840D01*
X1607765Y366594D01*
X1607473Y365125D01*
X1607765Y363656D01*
X1608597Y362410D01*
X1609843Y361577D01*
X1611313Y361285D01*
X1612782Y361577D01*
X1614028Y362410D01*
X1614860Y363656D01*
X1615152Y365125D01*
X1614860Y366594D01*
X1614028Y367840D01*
X1612782Y368672D01*
X1611313Y368965D01*
D02*
G37*
G36*
X1598613D02*
X1597143Y368672D01*
X1595897Y367840D01*
X1595065Y366594D01*
X1594773Y365125D01*
X1595065Y363656D01*
X1595897Y362410D01*
X1597143Y361577D01*
X1598613Y361285D01*
X1600082Y361577D01*
X1601328Y362410D01*
X1602160Y363656D01*
X1602452Y365125D01*
X1602160Y366594D01*
X1601328Y367840D01*
X1600082Y368672D01*
X1598613Y368965D01*
D02*
G37*
G36*
X1674812Y359440D02*
X1673343Y359147D01*
X1672097Y358315D01*
X1671265Y357069D01*
X1670973Y355600D01*
X1671265Y354131D01*
X1672097Y352885D01*
X1673343Y352052D01*
X1674812Y351760D01*
X1676282Y352052D01*
X1677528Y352885D01*
X1678360Y354131D01*
X1678652Y355600D01*
X1678360Y357069D01*
X1677528Y358315D01*
X1676282Y359147D01*
X1674812Y359440D01*
D02*
G37*
%LPD*%
D16*
X1365010Y98150D02*
X1398587Y131728D01*
X1366837Y214312D02*
X1398587Y182563D01*
Y131728D02*
Y182563D01*
X1366837Y214312D02*
Y248437D01*
X1349375Y265899D02*
X1366837Y248437D01*
X1349375Y265899D02*
Y266700D01*
D17*
X895350Y736600D02*
X908050D01*
X915987Y603250D02*
Y728662D01*
X908050Y736600D02*
X915987Y728662D01*
X1062038Y565150D02*
X1068388Y571500D01*
X1062038Y498475D02*
Y565150D01*
Y498475D02*
X1069975Y490537D01*
X779463Y620713D02*
Y741363D01*
X773112Y747712D02*
X779463Y741363D01*
X749300Y590550D02*
X779463Y620713D01*
X749300Y517525D02*
Y590550D01*
D220*
X1779566Y1064724D02*
G03*
X1779566Y1067598I-1437J1437D01*
G01*
X1778860Y1071178D02*
G03*
X1778860Y1068304I1437J-1437D01*
G01*
X1781733Y1071178D02*
G03*
X1778860Y1071178I-1437J-1437D01*
G01*
X1783607Y1069304D02*
G03*
X1786481Y1069304I1437J1437D01*
G01*
X1786481Y1069304D02*
G03*
X1786481Y1072178I-1437J1437D01*
G01*
X1785313Y1076219D02*
G03*
X1785313Y1073345I1437J-1437D01*
G01*
X1788187Y1076219D02*
G03*
X1785313Y1076219I-1437J-1437D01*
G01*
X1788187Y1076219D02*
G03*
X1791061Y1076219I1437J1437D01*
G01*
X1913840Y818465D02*
G03*
X1913840Y821339I-1437J1437D01*
G01*
X1913122Y824931D02*
G03*
X1913122Y822057I1437J-1437D01*
G01*
X1915996Y824931D02*
G03*
X1913122Y824931I-1437J-1437D01*
G01*
X1916714Y824213D02*
G03*
X1919588Y824213I1437J1437D01*
G01*
X1870793Y838328D02*
G03*
X1872825Y836296I2032J0D01*
G01*
X1872825Y832232D02*
G03*
X1872825Y836296I0J2032D01*
G01*
X1871174Y832232D02*
G03*
X1871174Y828168I0J-2032D01*
G01*
X1871174Y824104D02*
G03*
X1871174Y828168I0J2032D01*
G01*
X1871174Y824104D02*
G03*
X1871174Y820040I0J-2032D01*
G01*
X1873702Y815976D02*
G03*
X1873702Y820040I0J2032D01*
G01*
X1872825Y815976D02*
G03*
X1870793Y813944I0J-2032D01*
G01*
X1801988Y836031D02*
G03*
X1799114Y836031I-1437J-1437D01*
G01*
X1795522Y835312D02*
G03*
X1798395Y835312I1437J1437D01*
G01*
X1795522Y838186D02*
G03*
X1795522Y835312I1437J-1437D01*
G01*
X1796240Y838904D02*
G03*
X1796240Y841778I-1437J1437D01*
G01*
X1752965Y825135D02*
G03*
X1755839Y825135I1437J1437D01*
G01*
X1759236Y825658D02*
G03*
X1756362Y825658I-1437J-1437D01*
G01*
X1759236Y822785D02*
G03*
X1759236Y825658I-1437J1437D01*
G01*
X1758712Y822261D02*
G03*
X1758712Y819388I1437J-1437D01*
G01*
X1828777Y1084707D02*
G03*
X1830809Y1082675I2032J0D01*
G01*
X1831333Y1078611D02*
G03*
X1831333Y1082675I0J2032D01*
G01*
X1829158Y1078611D02*
G03*
X1829158Y1074547I0J-2032D01*
G01*
X1831825Y1070483D02*
G03*
X1831825Y1074547I0J2032D01*
G01*
X1830809Y1070483D02*
G03*
X1828777Y1068451I0J-2032D01*
G01*
X760413Y530225D02*
X766762Y536575D01*
X760413Y401637D02*
Y530225D01*
X1287462Y298450D02*
Y342900D01*
X1293813Y255588D02*
Y292100D01*
X1290638Y252412D02*
X1293813Y255588D01*
X1287462Y298450D02*
X1293813Y292100D01*
X1335087Y214312D02*
Y271462D01*
X1298575Y196068D02*
X1316844D01*
X1335087Y214312D01*
X1330325Y276225D02*
X1335087Y271462D01*
X1290638Y225425D02*
X1298575Y233363D01*
X1303338D01*
X1312863Y242887D01*
X1290638Y220662D02*
Y225425D01*
X1296987Y295275D02*
X1312863Y311150D01*
Y347663D02*
X1333500Y368300D01*
X1312863Y311150D02*
Y347663D01*
X1298575Y301625D02*
X1309688Y312738D01*
Y349250D02*
X1320800Y360363D01*
X1309688Y312738D02*
Y349250D01*
X1300163Y323850D02*
X1302951Y321062D01*
X1303531D01*
X1300163Y323850D02*
Y344487D01*
X1301701Y239761D02*
X1306962Y245022D01*
Y254450D01*
X1300163Y246063D02*
Y253079D01*
X1292675Y235399D02*
Y238575D01*
X1292225Y234950D02*
X1292675Y235399D01*
Y238575D02*
X1300163Y246063D01*
X1306962Y254450D02*
X1312863Y260350D01*
X1409700Y198438D02*
Y265112D01*
X606425Y889000D02*
X712787D01*
X561975Y839788D02*
Y853053D01*
X547687Y825500D02*
X561975Y839788D01*
Y853053D02*
X562301Y853379D01*
X1825500Y1096074D02*
Y1118750D01*
X1824078Y1047888D02*
Y1094652D01*
X1825500Y1096074D01*
X1828777Y1092866D02*
Y1094027D01*
X1835700Y1100950D01*
X1805100Y1083613D02*
Y1118750D01*
X1733356Y1011869D02*
X1805100Y1083613D01*
X1801823Y1086981D02*
Y1092778D01*
X1794900Y1099701D02*
X1801823Y1092778D01*
X1794900Y1099701D02*
Y1100950D01*
X1737487Y1006475D02*
X1743075D01*
X1733356Y1010606D02*
X1737487Y1006475D01*
X1733356Y1010606D02*
Y1011869D01*
X1723263Y1006475D02*
X1728657Y1011869D01*
X1717675Y1006475D02*
X1723263D01*
X1798336Y1083494D02*
X1801823Y1086981D01*
X1779027Y1064185D02*
X1779566Y1064724D01*
X1779566Y1067598D02*
X1779566Y1067598D01*
X1778860Y1068304D02*
X1779566Y1067598D01*
X1778860Y1071178D02*
X1778860Y1071178D01*
X1781733Y1071178D02*
X1783607Y1069304D01*
X1783607Y1069304D02*
X1783607Y1069304D01*
X1786481Y1069304D02*
X1786481Y1069304D01*
X1786481Y1072178D02*
X1786481Y1072178D01*
X1785313Y1073345D02*
X1786481Y1072178D01*
X1785313Y1076219D02*
X1785313Y1076219D01*
X1788187Y1076219D02*
X1788187Y1076219D01*
X1788187Y1076219D02*
X1788187Y1076219D01*
X1791061D02*
X1798336Y1083494D01*
X1728657Y1013815D02*
X1779027Y1064185D01*
X1728657Y1011869D02*
Y1013815D01*
X1179512Y754062D02*
X1201738Y731837D01*
X1212125D01*
X1223962Y720000D01*
X1212850Y663200D02*
Y700088D01*
X1201738Y652087D02*
X1212850Y663200D01*
X1201738Y612775D02*
Y652087D01*
X1212850Y700088D02*
X1236663Y723900D01*
Y823815D01*
X1267667Y854820D01*
X1190625Y852487D02*
X1208087D01*
X1163637Y825500D02*
X1190625Y852487D01*
X1163637Y764800D02*
Y825500D01*
X1155700Y756862D02*
X1163637Y764800D01*
X1155700Y528638D02*
Y756862D01*
X1147763Y469900D02*
Y520700D01*
X1155700Y528638D01*
X1079500Y477837D02*
Y617395D01*
X1256616Y669200D02*
X1262787D01*
X1223962Y665911D02*
X1253326D01*
X1256616Y669200D01*
X1262787D02*
X1270903Y661084D01*
X1280331D01*
X1274787Y603274D02*
Y646797D01*
X1274762Y603250D02*
X1274787Y603274D01*
X1272259Y649325D02*
Y653476D01*
Y649325D02*
X1274787Y646797D01*
X1268412Y625475D02*
Y645331D01*
X1256518D02*
X1263650Y652462D01*
X1256518Y623082D02*
Y645331D01*
X1256616Y663575D02*
X1260475D01*
X1253344Y660303D02*
X1256616Y663575D01*
X1253344Y618319D02*
Y660303D01*
X1245494Y692850D02*
X1266125D01*
X1279525Y679450D01*
X720725Y368300D02*
X773112Y315912D01*
X720725Y368300D02*
Y577850D01*
X723900Y374650D02*
X773112Y325438D01*
X723900Y374650D02*
Y579437D01*
X488950Y621149D02*
X489731Y620367D01*
X488950Y605844D02*
X489731Y606626D01*
Y620367D01*
X488950Y621149D02*
Y649287D01*
X1744282Y487743D02*
X1753807D01*
X1739900Y492125D02*
X1744282Y487743D01*
X1739900Y492125D02*
Y549275D01*
X1747838Y557212D01*
X1092200Y581025D02*
Y744538D01*
X1087438Y749300D02*
X1092200Y744538D01*
X690563Y581025D02*
Y595312D01*
X514350Y602938D02*
Y736600D01*
X930275Y1144587D02*
Y1150938D01*
Y1144587D02*
X941387Y1133475D01*
X921569Y1142181D02*
Y1154066D01*
Y1142181D02*
X933450Y1130300D01*
X879475Y1111250D02*
Y1141115D01*
X879393Y1141198D02*
X879475Y1141115D01*
X892000Y1130475D02*
X896937Y1125537D01*
X871537Y1147763D02*
X889850D01*
X892000Y1130475D02*
Y1145612D01*
X889850Y1147763D02*
X892000Y1145612D01*
X830263Y1150938D02*
X891012D01*
X895350Y1131888D02*
X900113Y1127125D01*
X895350Y1131888D02*
Y1146600D01*
X891012Y1150938D02*
X895350Y1146600D01*
X813681Y1153931D02*
X892000D01*
X898525Y1147406D01*
Y1133475D02*
Y1147406D01*
Y1133475D02*
X930275Y1101725D01*
X868363Y1144587D02*
X871537Y1147763D01*
X821338Y1142012D02*
X830263Y1150938D01*
X806525Y1146775D02*
X813681Y1153931D01*
X930275Y1101725D02*
X1025525D01*
X1058863Y1106488D02*
X1260475D01*
X1044575Y1120775D02*
X1058863Y1106488D01*
X1044575Y1120775D02*
Y1152525D01*
X1042035Y1118593D02*
Y1151446D01*
Y1118593D02*
X1057315Y1103313D01*
X1039495Y1116330D02*
Y1150176D01*
X1035494Y1154177D02*
Y1161606D01*
Y1154177D02*
X1039495Y1150176D01*
Y1116330D02*
X1055687Y1100137D01*
X1038225Y1155256D02*
X1042035Y1151446D01*
X1038225Y1155256D02*
Y1162938D01*
X1040956Y1156144D02*
Y1165669D01*
Y1156144D02*
X1044575Y1152525D01*
X1346200Y871537D02*
Y1020762D01*
X941387Y1133475D02*
X955675D01*
X916000Y1133400D02*
X922275Y1127125D01*
X916000Y1133400D02*
Y1140425D01*
X904950Y1131813D02*
X915987Y1120775D01*
X904950Y1131813D02*
Y1146775D01*
X909638Y1131888D02*
Y1143569D01*
X913650Y1147581D01*
X814463Y1142012D02*
X821338D01*
X674688Y1117600D02*
X684000Y1126913D01*
Y1159475D01*
X677862Y1116496D02*
X692000Y1130633D01*
Y1159475D01*
X734975Y1128712D02*
X857250D01*
X718500Y1145188D02*
X734975Y1128712D01*
X896100Y1171575D02*
X1035050D01*
X1040956Y1165669D01*
X916925Y1168400D02*
X1032763D01*
X1038225Y1162938D01*
X1343025Y869950D02*
Y1019175D01*
X1031875Y1165225D02*
X1035494Y1161606D01*
X945722Y1165225D02*
X1031875D01*
X940000Y1159503D02*
X945722Y1165225D01*
X940000Y1159475D02*
Y1159503D01*
X908000Y1159475D02*
X916925Y1168400D01*
X884000Y1159475D02*
X896100Y1171575D01*
X763275Y1174750D02*
X1166813D01*
X1231900Y1109662D01*
X748000Y1159475D02*
X763275Y1174750D01*
X700000Y1159475D02*
X718450Y1177925D01*
X1167493D02*
X1232581Y1112838D01*
X718450Y1177925D02*
X1167493D01*
X1231900Y1109662D02*
X1262063D01*
X1232581Y1112838D02*
X1263650D01*
X869950Y425450D02*
Y509588D01*
X863600Y515938D02*
X869950Y509588D01*
X854075Y481110D02*
Y515938D01*
X871537Y415925D02*
X885825D01*
X864406Y423056D02*
X871537Y415925D01*
X853294Y423056D02*
X864406D01*
X833438Y442912D02*
X853294Y423056D01*
X833438Y442912D02*
Y463550D01*
X837419Y467531D01*
X840496D02*
X854075Y481110D01*
X837419Y467531D02*
X840496D01*
X857250Y474663D02*
Y500062D01*
X846137Y439738D02*
Y463550D01*
X857250Y474663D01*
X854075Y515938D02*
X863600Y525462D01*
X820738Y473075D02*
X838200D01*
X814388Y450981D02*
Y466725D01*
X820738Y473075D01*
X803275Y439869D02*
X814388Y450981D01*
X811212Y501650D02*
X869950Y560387D01*
X811212Y460375D02*
Y501650D01*
X806450Y455612D02*
X811212Y460375D01*
X798512Y455612D02*
X806450D01*
X739775Y814388D02*
X784225Y769938D01*
Y582612D02*
Y769938D01*
X774700Y573088D02*
X784225Y582612D01*
X774700Y508000D02*
Y573088D01*
X841375Y660400D02*
X870133Y631642D01*
Y620530D02*
Y631642D01*
Y620530D02*
X890587Y600075D01*
Y550863D02*
Y600075D01*
X932669Y599719D02*
Y632274D01*
X931862Y577850D02*
Y598913D01*
X932669Y599719D01*
X927100Y635000D02*
X931862Y639762D01*
X911225Y585788D02*
X927100Y601662D01*
Y635000D01*
X903288Y585788D02*
X911225D01*
X488950Y550863D02*
Y605844D01*
X750888Y628650D02*
Y666750D01*
X730250Y608013D02*
X750888Y628650D01*
X681038Y482600D02*
Y628650D01*
X1808163Y528638D02*
X1816100Y536575D01*
Y663575D01*
X1811337Y668337D02*
X1816100Y663575D01*
X923925Y998538D02*
X990600D01*
X811212Y976312D02*
X901700D01*
X923925Y998538D01*
X990600D02*
X996950Y1004887D01*
X1506537Y387350D02*
X1562100Y442912D01*
X1482725Y377825D02*
X1492250Y387350D01*
X1506537D01*
X1508125Y384175D02*
X1565275Y441325D01*
X1484312Y374650D02*
X1493837Y384175D01*
X1508125D01*
X1927225Y660400D02*
Y714375D01*
X1609725Y446087D02*
Y476250D01*
X1606550Y479425D02*
X1609725Y476250D01*
X1582737Y528638D02*
X1587066Y524309D01*
Y440891D02*
Y524309D01*
X1559731Y413556D02*
X1587066Y440891D01*
X1554065Y384175D02*
X1559731Y389841D01*
X1546225Y384175D02*
X1554065D01*
X1559731Y389841D02*
Y413556D01*
X1587500Y425450D02*
X1604156Y442107D01*
Y458006D01*
X1595437Y466725D02*
X1604156Y458006D01*
X1571625Y390525D02*
Y420687D01*
X1589606Y438669D02*
Y541856D01*
X1571625Y420687D02*
X1589606Y438669D01*
X1574800Y419100D02*
X1592263Y436562D01*
X1574800Y388937D02*
Y419100D01*
X1592263Y436562D02*
Y539750D01*
X1587500Y382588D02*
Y425450D01*
X739775Y814388D02*
Y849313D01*
X784225Y434975D02*
Y498475D01*
X774700Y508000D02*
X784225Y498475D01*
Y434975D02*
X788988Y430213D01*
X804431D02*
X814388Y440169D01*
X788988Y430213D02*
X804431D01*
X1068388Y592137D02*
Y625475D01*
X1020762Y577850D02*
X1027113Y584200D01*
X1020762Y550863D02*
Y577850D01*
X944563Y587375D02*
X968375Y611188D01*
X944563Y571500D02*
Y587375D01*
X1458913Y236537D02*
Y266700D01*
X1470025Y277812D01*
X1147763Y242887D02*
Y415925D01*
X1709738Y207962D02*
Y396875D01*
X895350Y230187D02*
Y255588D01*
X966787Y368300D02*
Y413531D01*
X938213Y339725D02*
X966787Y368300D01*
X938213Y330200D02*
Y339725D01*
X945579Y300037D02*
Y322834D01*
X938213Y330200D02*
X945579Y322834D01*
X940816Y295275D02*
X945579Y300037D01*
X930275Y295275D02*
X940816D01*
X892231Y420155D02*
Y427900D01*
X893763Y429431D01*
X885825Y415925D02*
Y415925D01*
X790575Y644525D02*
Y806450D01*
X823913Y839788D01*
Y884238D01*
X1666875Y455612D02*
Y596900D01*
X1655762Y444500D02*
X1666875Y455612D01*
X1655762Y422275D02*
Y444500D01*
Y422275D02*
X1665287Y412750D01*
X1734392Y677117D02*
X1738313Y673197D01*
X1747838Y661988D02*
X1751013Y658812D01*
Y557212D02*
Y658812D01*
Y417513D02*
Y467253D01*
X1751794Y468034D02*
Y475468D01*
X1751013Y467253D02*
X1751794Y468034D01*
X1738313Y652462D02*
Y673197D01*
Y652462D02*
X1744662Y646113D01*
Y558800D02*
Y646113D01*
X1736725Y550863D02*
X1744662Y558800D01*
X1736725Y485775D02*
X1743075Y479425D01*
X1736725Y485775D02*
Y550863D01*
X1747838Y557212D02*
Y647840D01*
X1741487Y654191D02*
X1747838Y647840D01*
X1751013Y557212D02*
X1765300Y542925D01*
Y482600D02*
Y542925D01*
Y482600D02*
X1773237Y474663D01*
Y469907D02*
Y474663D01*
X1753807Y487743D02*
X1758950Y482600D01*
X1741487Y654191D02*
Y695325D01*
X1589088Y847725D02*
Y919163D01*
Y847725D02*
X1741487Y695325D01*
X1768475Y484188D02*
Y544512D01*
X1592263Y849313D02*
Y920750D01*
Y849313D02*
X1754187Y687387D01*
Y558800D02*
Y687387D01*
Y558800D02*
X1768475Y544512D01*
X1757363Y579437D02*
X1771650Y565150D01*
X1595437Y850900D02*
Y922337D01*
Y850900D02*
X1757363Y688975D01*
Y579437D02*
Y688975D01*
X1771650Y485775D02*
Y565150D01*
X1763712Y671513D02*
Y773112D01*
X1755775Y781050D02*
Y785813D01*
Y781050D02*
X1763712Y773112D01*
X1771650Y781050D02*
Y788988D01*
X1766888Y776288D02*
X1771650Y781050D01*
X1766888Y669925D02*
Y776288D01*
X1760538Y668337D02*
X1763712Y671513D01*
X1760538Y647700D02*
Y668337D01*
Y647700D02*
X1768475Y639762D01*
Y619125D02*
Y639762D01*
X1763712Y666750D02*
X1766888Y669925D01*
X1763712Y649287D02*
Y666750D01*
Y649287D02*
X1778000Y635000D01*
Y619125D02*
Y635000D01*
X1747838Y479425D02*
X1751794Y475468D01*
X1743075Y479425D02*
X1747838D01*
X1814512Y361950D02*
Y388937D01*
X1773237Y430213D02*
Y469907D01*
Y430213D02*
X1814512Y388937D01*
X1697038Y234950D02*
Y285750D01*
X1692275Y230187D02*
X1697038Y234950D01*
X1695450Y403225D02*
Y534987D01*
X1714500Y611188D02*
X1720533Y605155D01*
X1697038Y285750D02*
X1703387Y292100D01*
X1695450Y403225D02*
X1703387Y395288D01*
Y292100D02*
Y395288D01*
X1695450Y534987D02*
X1720533Y560070D01*
Y605155D01*
X1723073Y524410D02*
Y607378D01*
X1714500Y611188D02*
Y681038D01*
X1676991Y718547D02*
X1714500Y681038D01*
X1673225Y719137D02*
X1673816Y718547D01*
X1676991D01*
X1703387Y282575D02*
X1706562Y285750D01*
Y396875D01*
X1698625Y404813D02*
Y444500D01*
Y404813D02*
X1706562Y396875D01*
X1698625Y444500D02*
X1725612Y471488D01*
X1723073Y524410D02*
X1725612Y521870D01*
Y471488D02*
Y521870D01*
X1717675Y612775D02*
X1723073Y607378D01*
X1717675Y612775D02*
Y682625D01*
X1636712Y763587D02*
X1717675Y682625D01*
X1625600Y763587D02*
X1636712D01*
X1720850Y614362D02*
Y684212D01*
X1633537Y771525D02*
X1720850Y684212D01*
X1628775Y771525D02*
X1633537D01*
X1709738Y396875D02*
X1720850Y407988D01*
Y434975D01*
X1717675Y438150D02*
Y458787D01*
Y438150D02*
X1720850Y434975D01*
X1717675Y458787D02*
X1728788Y469900D01*
Y522287D01*
X1725612Y525462D02*
X1728788Y522287D01*
X1725612Y525462D02*
Y609600D01*
X1720850Y614362D02*
X1725612Y609600D01*
X1263650Y961205D02*
Y976312D01*
X1257300Y982663D02*
X1263650Y976312D01*
X1032068Y958850D02*
X1043180Y969962D01*
X1255713D01*
X1163637Y908050D02*
Y944675D01*
X1155813Y952500D02*
X1163637Y944675D01*
X813276Y952500D02*
X1155813D01*
X814864Y955675D02*
X1258120D01*
X1263650Y961205D01*
X815975Y958850D02*
X1032068D01*
X1895574Y752475D02*
X1909763Y738287D01*
Y695325D02*
Y738287D01*
X1350963Y776288D02*
X1366837Y760413D01*
X1350963Y776288D02*
Y792162D01*
X1354138Y777875D02*
X1371600Y760413D01*
X1354138Y777875D02*
Y793750D01*
X1357312Y779463D02*
X1376362Y760413D01*
X1357312Y779463D02*
Y795338D01*
X1368425Y781978D02*
Y835025D01*
Y781978D02*
X1389991Y760413D01*
X1371600Y782950D02*
Y836612D01*
Y782950D02*
X1394138Y760413D01*
X1374775Y787775D02*
Y838200D01*
Y787775D02*
X1402137Y760413D01*
X1377950Y788988D02*
Y839788D01*
Y788988D02*
X1406525Y760413D01*
X1411288Y358775D02*
X1433513D01*
X1406525Y354012D02*
X1411288Y358775D01*
X1427348Y352239D02*
X1447800Y331787D01*
X1435100Y360363D02*
X1457325D01*
X1433513Y358775D02*
X1435100Y360363D01*
X1447800Y331787D02*
X1454150D01*
X1454781Y331787D02*
X1481138D01*
X1454150Y331787D02*
X1454781Y331787D01*
X1438275Y354012D02*
X1450212D01*
X1457325Y360363D02*
X1459694Y357994D01*
X1483531D01*
X1428750Y365125D02*
X1438275Y374650D01*
X1484312D01*
X1438275Y366712D02*
X1443038Y371475D01*
X1500188D01*
X1420813Y379412D02*
X1425575D01*
X1427162Y377825D01*
X1481138Y331787D02*
X1511300Y361950D01*
X1566862D01*
X1587500Y382588D01*
X1595437Y466725D02*
Y538162D01*
X1660525Y603250D02*
Y609600D01*
X1595437Y538162D02*
X1660525Y603250D01*
X1472430Y350032D02*
X1480332D01*
X1469280Y346881D02*
X1472430Y350032D01*
X1457343Y346881D02*
X1469280D01*
X1450212Y354012D02*
X1457343Y346881D01*
X1480332Y350032D02*
X1495425Y365125D01*
X1550988D01*
X1574800Y388937D01*
X1592263Y539750D02*
X1652587Y600075D01*
Y609600D01*
X1483531Y357994D02*
X1493837Y368300D01*
X1549400D01*
X1571625Y390525D01*
X1589606Y541856D02*
X1643062Y595312D01*
Y609600D01*
X1500188Y371475D02*
X1568450Y439738D01*
Y484188D01*
X1576387Y492125D01*
Y500062D01*
X1565275Y441325D02*
Y485775D01*
X1570038Y490537D01*
Y495300D01*
X1427162Y377825D02*
X1482725D01*
X1562100Y442912D02*
Y492125D01*
X1149350Y949325D02*
X1154112Y944563D01*
X812800Y949325D02*
X1149350D01*
X798512Y935038D02*
X812800Y949325D01*
X758825Y935038D02*
X798512D01*
X712787Y889000D02*
X758825Y935038D01*
X1907817Y812442D02*
X1913840Y818465D01*
X1913122Y822057D02*
X1913840Y821339D01*
X1913122Y822057D02*
X1913122Y822057D01*
X1913122Y824931D02*
X1913122Y824931D01*
X1915996Y824931D02*
X1915996Y824931D01*
X1916714Y824213D01*
X1916714Y824213D02*
X1916714Y824213D01*
X1919588D02*
X1923000Y827625D01*
X1887538Y792162D02*
X1907817Y812442D01*
X1923000Y827625D02*
X1928051Y832675D01*
X1866128Y792162D02*
X1887538D01*
X1928051Y832675D02*
Y864459D01*
X1932749Y830729D02*
Y864459D01*
X1889484Y787464D02*
X1932749Y830729D01*
X1808753Y829265D02*
X1819548Y818470D01*
Y805202D02*
Y818470D01*
X1796225Y848439D02*
X1824247Y820416D01*
X1870793Y838328D02*
Y841813D01*
X1872825Y836296D02*
X1872825D01*
X1871174Y832232D02*
X1872825D01*
X1871174Y828168D02*
X1871174D01*
X1871174Y824104D02*
X1871174D01*
X1871174Y820040D02*
X1873702D01*
X1872825Y815976D02*
X1873702D01*
X1870793Y809118D02*
Y813944D01*
Y841813D02*
Y845257D01*
Y806156D02*
Y809118D01*
Y806156D02*
X1873250Y803699D01*
Y803275D02*
Y803699D01*
X1866094Y802591D02*
Y843311D01*
X1863007Y846398D02*
Y865144D01*
Y846398D02*
X1866094Y843311D01*
X1801988Y836031D02*
X1808753Y829265D01*
X1798395Y835312D02*
X1799114Y836031D01*
X1798395Y835312D02*
Y835312D01*
X1795522D02*
X1795522Y835312D01*
Y838186D02*
X1796240Y838904D01*
X1792828Y845191D02*
X1796240Y841778D01*
X1791526Y846493D02*
X1792828Y845191D01*
X1791526Y846493D02*
Y864459D01*
X1741540Y836560D02*
X1752965Y825135D01*
X1752965Y825135D02*
X1752965Y825135D01*
X1755839D02*
X1756362Y825658D01*
X1759236Y825658D02*
X1759236Y825658D01*
X1759236Y825658D02*
X1759236Y825658D01*
X1759236D02*
X1759236Y825658D01*
X1758712Y822261D02*
X1759236Y822785D01*
X1758712Y819388D02*
X1758712Y819388D01*
X1762125Y815975D01*
X1738323Y839777D02*
X1741540Y836560D01*
X1762125Y815975D02*
X1775477Y802623D01*
X1735001Y836454D02*
X1772155Y799300D01*
X1790341Y781114D01*
X1737085Y841015D02*
X1738323Y839777D01*
X1775477Y802623D02*
X1792287Y785813D01*
X1733763Y837692D02*
X1735001Y836454D01*
X1792287Y785813D02*
X1816100D01*
X1790341Y781114D02*
X1818046D01*
X1732724Y845376D02*
X1737085Y841015D01*
X1732724Y845376D02*
Y864459D01*
X1733763Y837692D02*
X1733763D01*
X1728026Y843429D02*
X1733763Y837692D01*
X1728026Y843429D02*
Y864459D01*
X1932749Y884999D02*
X1936750Y889000D01*
X1943100D01*
X1932749Y875441D02*
Y884999D01*
X1917700Y889000D02*
X1924050D01*
X1928051Y875441D02*
Y884999D01*
X1924050Y889000D02*
X1928051Y884999D01*
X1873250Y889000D02*
X1879600D01*
X1869250Y875441D02*
Y884999D01*
X1873250Y889000D01*
X1864550Y875441D02*
Y884999D01*
X1854200Y889000D02*
X1860550D01*
X1864550Y884999D01*
X1800225Y889000D02*
X1806575D01*
X1796225Y884999D02*
X1800225Y889000D01*
X1796225Y875441D02*
Y884999D01*
X1791526Y875441D02*
Y884999D01*
X1781175Y889000D02*
X1787525D01*
X1791526Y884999D01*
X1728026Y875441D02*
Y884999D01*
X1717675Y889000D02*
X1724025D01*
X1728026Y884999D01*
X1732724Y875441D02*
Y884999D01*
X1736725Y889000D02*
X1743075D01*
X1732724Y884999D02*
X1736725Y889000D01*
X1836442Y802979D02*
X1836738Y803275D01*
X1818046Y781114D02*
X1836442Y799509D01*
Y802979D01*
X1816100Y785813D02*
X1829627Y799339D01*
Y807277D01*
X1867706Y848344D02*
Y862057D01*
X1861356Y866795D02*
X1863007Y865144D01*
X1861356Y872246D02*
X1864550Y875441D01*
X1861356Y866795D02*
Y872246D01*
X1872444Y866795D02*
Y872246D01*
X1867706Y862057D02*
X1872444Y866795D01*
X1869250Y875441D02*
X1872444Y872246D01*
X1867706Y848344D02*
X1870793Y845257D01*
X1866094Y802591D02*
X1870954Y797731D01*
X1878231D01*
X1880600Y800100D01*
X1881187D01*
X1853486Y798159D02*
Y799957D01*
X1858185Y800105D02*
Y801982D01*
X1860550Y804346D01*
X1864182Y787464D02*
X1889484D01*
X1858185Y800105D02*
X1866128Y792162D01*
X1850587Y802838D02*
X1850605D01*
X1853486Y799957D01*
Y798159D02*
X1864182Y787464D01*
X1860550Y804346D02*
Y804863D01*
X1932749Y875441D02*
X1935944Y872246D01*
Y867654D02*
Y872246D01*
X1932749Y864459D02*
X1935944Y867654D01*
X1924856Y872246D02*
X1928051Y875441D01*
X1924856Y867654D02*
X1928051Y864459D01*
X1924856Y867654D02*
Y872246D01*
X1829627Y807277D02*
X1830388Y808037D01*
X1732724Y875441D02*
X1735919Y872246D01*
Y867654D02*
Y872246D01*
X1732724Y864459D02*
X1735919Y867654D01*
X1724831D02*
Y872246D01*
X1728026Y875441D01*
X1724831Y867654D02*
X1728026Y864459D01*
X1796225D02*
X1799419Y867654D01*
X1796225Y848439D02*
Y864459D01*
X1824247Y803256D02*
Y820416D01*
X1817917Y796925D02*
X1824247Y803256D01*
X1809750Y796925D02*
X1817917D01*
X1788331Y872246D02*
X1791526Y875441D01*
X1788331Y867654D02*
Y872246D01*
Y867654D02*
X1791526Y864459D01*
X1814995Y803758D02*
X1818104D01*
X1796225Y875441D02*
X1799419Y872246D01*
X1814512Y803275D02*
X1814995Y803758D01*
X1818104D02*
X1819548Y805202D01*
X1799419Y867654D02*
Y872246D01*
X658812Y868363D02*
X693737D01*
X601662D02*
X658812D01*
Y809625D02*
Y854075D01*
Y809625D02*
X687387Y781050D01*
X679070Y794130D02*
X690563Y782637D01*
X679070Y794130D02*
Y862393D01*
X687387Y611188D02*
Y781050D01*
Y611188D02*
X720725Y577850D01*
X690563Y612775D02*
Y782637D01*
Y612775D02*
X723900Y579437D01*
X379412Y814388D02*
X390525Y825500D01*
X547687D01*
X1263650Y1112838D02*
X1320800Y1055687D01*
X1379538D01*
X1382713Y1052513D01*
X1365250Y1049337D02*
X1368425Y1046162D01*
X1322388Y1049337D02*
X1365250D01*
X1262063Y1109662D02*
X1322388Y1049337D01*
X879475Y1111250D02*
X922337Y1068388D01*
X1241425D01*
X896937Y1111250D02*
Y1125537D01*
Y1111250D02*
X915987Y1092200D01*
X1020762D01*
X917575Y1095375D02*
X1022350D01*
X900113Y1112838D02*
Y1127125D01*
Y1112838D02*
X917575Y1095375D01*
X920750Y1065212D02*
X1239837D01*
X857250Y1128712D02*
X920750Y1065212D01*
X855663Y1125537D02*
X919163Y1062038D01*
X712625Y1125537D02*
X855663D01*
X736600Y1122363D02*
X854075D01*
X917575Y1058863D01*
X915987Y1120775D02*
X947738D01*
X674688Y1091089D02*
X813276Y952500D01*
X681038Y1093788D02*
X815975Y958850D01*
X681038Y1093788D02*
Y1109950D01*
X674688Y1091089D02*
Y1117600D01*
X677862Y1092676D02*
X814864Y955675D01*
X677862Y1092676D02*
Y1116496D01*
X1260475Y1106488D02*
X1346200Y1020762D01*
X1057315Y1103313D02*
X1258887D01*
X1343025Y1019175D01*
X1055687Y1100137D02*
X1257300D01*
X1339850Y1017588D01*
Y868363D02*
Y1017588D01*
X1336675Y866775D02*
Y1016000D01*
X1255713Y1096963D02*
X1336675Y1016000D01*
X1052513Y1093788D02*
X1254125D01*
X1333500Y819150D02*
Y1014413D01*
X1254125Y1093788D02*
X1333500Y1014413D01*
X1252538Y1090612D02*
X1330325Y1012825D01*
Y817562D02*
Y1012825D01*
X1327150Y815975D02*
Y1011237D01*
X1049337Y1087438D02*
X1250950D01*
Y1087438D02*
X1327150Y1011237D01*
X1047750Y1084262D02*
X1249362D01*
X1323975Y1009650D01*
Y815878D02*
Y1009650D01*
X1247775Y1081087D02*
X1320800Y1008063D01*
Y817660D02*
Y1008063D01*
X1044575Y1077913D02*
X1246188D01*
X1317625Y1006475D01*
Y820738D02*
Y1006475D01*
X1042988Y1074737D02*
X1244600D01*
X1314450Y827087D02*
Y1004887D01*
X1244600Y1074737D02*
X1314450Y1004887D01*
X1243012Y1071562D02*
X1311275Y1003300D01*
X1041400Y1071562D02*
X1243012D01*
X1311275Y833438D02*
Y1003300D01*
X1308100Y835025D02*
Y1001712D01*
X1241425Y1068388D02*
X1308100Y1001712D01*
X1304925Y850900D02*
Y1000125D01*
X1239837Y1065212D02*
X1304925Y1000125D01*
X919163Y1062038D02*
X1238250D01*
X1301750Y857250D02*
Y998538D01*
X1238250Y1062038D02*
X1301750Y998538D01*
X917575Y1058863D02*
X1236663D01*
X1298575Y858838D02*
Y996950D01*
X1236663Y1058863D02*
X1298575Y996950D01*
X1295400Y860425D02*
Y995362D01*
X1235075Y1055687D02*
X1295400Y995362D01*
X1233487Y1052513D02*
X1292225Y993775D01*
Y862012D02*
Y993775D01*
X1289050Y863600D02*
Y992188D01*
X1231900Y1049337D02*
X1289050Y992188D01*
X590550Y879475D02*
X601662Y868363D01*
X693737D02*
X708025Y854075D01*
X560387Y879475D02*
X590550D01*
X557212Y876300D02*
X560387Y879475D01*
X678644Y862819D02*
X679070Y862393D01*
Y862393D02*
Y862393D01*
X559164Y862819D02*
X678644D01*
X679070Y862393D02*
X693737Y847725D01*
X547270Y874713D02*
X559164Y862819D01*
X496888Y877887D02*
X548128D01*
X549716Y876300D02*
X557212D01*
X548128Y877887D02*
X549716Y876300D01*
X519113Y874713D02*
X547270D01*
X509588Y865188D02*
X519113Y874713D01*
X498475Y871537D02*
X504825Y865188D01*
X509588D01*
X492125Y873125D02*
X496888Y877887D01*
X492125Y862012D02*
Y873125D01*
Y862012D02*
X498475Y855663D01*
X693737Y847725D02*
X727075D01*
X741363Y862012D01*
Y908050D01*
X762000Y928688D01*
X796925D01*
X738187Y909638D02*
X760413Y931862D01*
X728662Y854075D02*
X738187Y863600D01*
Y909638D01*
X760413Y931862D02*
X798512D01*
X796925Y928688D02*
X808037Y917575D01*
X882650D01*
X798512Y931862D02*
X809625Y920750D01*
X887412D01*
X882650Y917575D02*
X887412Y912812D01*
X708025Y854075D02*
X728662D01*
X774700Y1033463D02*
X785813D01*
X761194Y1031094D02*
X772331D01*
X774700Y1033463D01*
X785813D02*
X819150Y1000125D01*
X850900D01*
X868363Y982663D01*
X749300Y1042988D02*
X755650Y1036637D01*
X787400D01*
X820738Y1003300D01*
X857250D01*
X868363Y992188D01*
X887412Y920750D02*
X892175Y915987D01*
X969962D01*
X985837Y931862D01*
X1001712D01*
X1017588Y915987D01*
X1104900D01*
X1109662Y920750D01*
X1016000Y912812D02*
X1109662D01*
X1000125Y928688D02*
X1016000Y912812D01*
X987425Y928688D02*
X1000125D01*
X971550Y912812D02*
X987425Y928688D01*
X887412Y912812D02*
X971550D01*
X1416050Y920750D02*
X1427162Y931862D01*
X1416050Y900113D02*
Y920750D01*
Y900113D02*
X1422400Y893763D01*
X1485900D01*
X1409700Y990600D02*
X1417637Y998538D01*
X1409700Y896937D02*
Y990600D01*
Y896937D02*
X1425575Y881062D01*
X1473200D01*
X1479550Y874713D01*
X1412875Y981075D02*
X1417637Y985837D01*
X1412875Y898525D02*
Y981075D01*
Y898525D02*
X1427162Y884238D01*
X1482725D01*
X1430338Y909638D02*
X1509174D01*
X1422400Y901700D02*
X1430338Y909638D01*
X1509174D02*
X1518699Y919163D01*
X1528763D01*
X1477962Y957262D02*
X1543050D01*
X1525587Y949325D02*
X1538288D01*
X1500188Y923925D02*
X1525587Y949325D01*
X1500188Y915987D02*
Y923925D01*
X1574800Y1109662D02*
X1577975Y1106488D01*
Y930275D02*
Y1106488D01*
X1488890Y1167765D02*
X1559560D01*
X1584325Y1143000D01*
Y933450D02*
Y1143000D01*
Y933450D02*
X1595437Y922337D01*
X1557337Y1165225D02*
X1581150Y1141413D01*
Y931862D02*
Y1141413D01*
Y931862D02*
X1592263Y920750D01*
X1577975Y930275D02*
X1589088Y919163D01*
X1768475Y484188D02*
X1808163Y444500D01*
X1771650Y485775D02*
X1814512Y442912D01*
X1480000Y1158875D02*
X1488890Y1167765D01*
X1502350Y1165225D02*
X1557337D01*
X1496000Y1158875D02*
X1502350Y1165225D01*
X1814512Y401637D02*
Y442912D01*
X1808163Y407988D02*
Y444500D01*
X1439863Y1123989D02*
X1452523Y1136650D01*
X1524000D01*
X1454150Y1133475D02*
X1522413D01*
X1446212Y1125537D02*
X1454150Y1133475D01*
X1458913Y1108075D02*
Y1119187D01*
X1470025Y1130300D02*
X1520825D01*
X1458913Y1119187D02*
X1470025Y1130300D01*
X1439863Y1103313D02*
Y1123989D01*
X1446212Y1108075D02*
Y1125537D01*
X1450500Y1143000D02*
X1456850Y1149350D01*
X1520825D01*
X1450500Y1143000D02*
Y1143000D01*
X1520825Y1130300D02*
X1558925Y1092200D01*
Y925512D02*
Y1092200D01*
X1522413Y1133475D02*
X1562100Y1093788D01*
Y923925D02*
Y1093788D01*
X1524000Y1136650D02*
X1565275Y1095375D01*
X1512000Y1143000D02*
X1522413D01*
X1568450Y1096963D01*
Y925512D02*
Y1096963D01*
X1520825Y1149350D02*
X1571625Y1098550D01*
X1439863Y1149350D02*
X1443038Y1152525D01*
X1522413D01*
X1574800Y1100137D01*
Y928688D02*
Y1100137D01*
X1579563Y735013D02*
X1601788Y712787D01*
X1579563Y735013D02*
Y914400D01*
X1568450Y925512D02*
X1579563Y914400D01*
X1593850Y728662D02*
Y776288D01*
X1582737Y787400D02*
X1593850Y776288D01*
Y728662D02*
X1609725Y712787D01*
X1571625Y927100D02*
X1582737Y915987D01*
X1571625Y927100D02*
Y1098550D01*
X1582737Y787400D02*
Y915987D01*
X1503362Y869950D02*
X1558925Y925512D01*
X1503362Y781050D02*
Y869950D01*
X1482725Y760413D02*
X1503362Y781050D01*
X681038Y1109950D02*
X683925Y1112838D01*
X738187Y1063625D02*
X762000Y1039812D01*
X789891D02*
X822422Y1007281D01*
X762000Y1039812D02*
X789891D01*
X822422Y1007281D02*
X858031D01*
X866775Y998538D01*
X874713D01*
X884238Y989013D01*
X969962Y1049337D02*
X1231900D01*
X884238Y989013D02*
X909638D01*
X969962Y1049337D01*
X968375Y1052513D02*
X1233487D01*
X893763Y992188D02*
X908050D01*
X968375Y1052513D01*
X906912Y998987D02*
X910087D01*
X906462Y998538D02*
X906912Y998987D01*
X966787Y1055687D02*
X1235075D01*
X910087Y998987D02*
X966787Y1055687D01*
X887412Y998538D02*
X893763Y992188D01*
X731925Y1117688D02*
X736600Y1122363D01*
X731925Y1112838D02*
Y1117688D01*
X699925Y1112838D02*
X712625Y1125537D01*
X1033463Y1117600D02*
X1054100Y1096963D01*
X971550Y1117600D02*
X1033463D01*
X955675Y1133475D02*
X971550Y1117600D01*
X1031875Y1114425D02*
X1052513Y1093788D01*
X954088Y1130300D02*
X969962Y1114425D01*
X1031875D01*
X933450Y1130300D02*
X954088D01*
X1030287Y1111250D02*
X1050925Y1090612D01*
X968375Y1111250D02*
X1030287D01*
X952500Y1127125D02*
X968375Y1111250D01*
X922275Y1127125D02*
X952500D01*
X1028700Y1108075D02*
X1049337Y1087438D01*
X909638Y1131888D02*
X917575Y1123950D01*
X966787Y1108075D02*
X1028700D01*
X950912Y1123950D02*
X966787Y1108075D01*
X917575Y1123950D02*
X950912D01*
X1027113Y1104900D02*
X1047750Y1084262D01*
X963613Y1104900D02*
X1027113D01*
X947738Y1120775D02*
X963613Y1104900D01*
X1025525Y1101725D02*
X1046162Y1081087D01*
X1023938Y1098550D02*
X1044575Y1077913D01*
X907925Y1114425D02*
X923800Y1098550D01*
X1023938D01*
X1022350Y1095375D02*
X1042988Y1074737D01*
X1020762Y1092200D02*
X1041400Y1071562D01*
X1046162Y1081087D02*
X1247775D01*
X1050925Y1090612D02*
X1252538D01*
X1054100Y1096963D02*
X1255713D01*
X958850Y371475D02*
Y401637D01*
X942975Y355600D02*
X958850Y371475D01*
X404813Y254000D02*
Y338138D01*
X1330325Y817562D02*
X1354138Y793750D01*
X1312863Y815975D02*
X1317625Y820738D01*
X1313956Y806944D02*
X1314450Y806450D01*
X1312863Y811310D02*
X1313956Y810216D01*
X1312863Y811310D02*
Y815975D01*
X1313956Y806944D02*
Y810216D01*
X1324756Y805644D02*
Y815096D01*
X1323975Y815878D02*
X1324756Y815096D01*
X1319212Y800100D02*
X1324756Y805644D01*
X1281113Y831850D02*
Y846137D01*
X1295400Y860425D01*
X1303338Y815975D02*
X1314450Y827087D01*
X1336675Y866775D02*
X1368425Y835025D01*
X1293813Y849313D02*
X1301750Y857250D01*
X1293813Y841375D02*
Y849313D01*
X1300163Y846137D02*
X1304925Y850900D01*
X1287462Y847725D02*
X1298575Y858838D01*
X1287462Y836612D02*
Y847725D01*
X1319706Y816566D02*
X1320800Y817660D01*
X1319706Y813294D02*
Y816566D01*
X1319212Y812800D02*
X1319706Y813294D01*
X1271588Y846137D02*
X1289050Y863600D01*
X1271588Y841375D02*
Y846137D01*
X1268412Y838200D02*
X1271588Y841375D01*
X1260475Y838200D02*
X1268412D01*
X1339850Y868363D02*
X1371600Y836612D01*
X1333500Y819150D02*
X1357312Y795338D01*
X1327150Y815975D02*
X1350963Y792162D01*
X1343025Y869950D02*
X1374775Y838200D01*
X1274762Y844550D02*
X1292225Y862012D01*
X1274762Y827087D02*
Y844550D01*
X1346200Y871537D02*
X1377950Y839788D01*
X1293813Y815975D02*
X1311275Y833438D01*
X1293813Y808037D02*
Y815975D01*
X1285875Y801687D02*
Y812800D01*
X1308100Y835025D01*
X1285875Y801687D02*
X1290638Y796925D01*
Y606425D02*
Y796925D01*
X1279525Y595312D02*
X1290638Y606425D01*
X1279525Y552547D02*
X1282700Y549372D01*
Y527050D02*
Y549372D01*
X1279525Y552547D02*
Y595312D01*
X803275Y517525D02*
X852487Y566738D01*
Y571500D01*
X841375Y582612D02*
X852487Y571500D01*
X869950Y560387D02*
Y584200D01*
X792162Y461963D02*
X798512Y455612D01*
X803275Y461963D02*
Y517525D01*
X885825Y461963D02*
Y469900D01*
Y461963D02*
X893763Y454025D01*
Y429431D02*
Y454025D01*
X885825Y469900D02*
X889000Y473075D01*
X1597025Y733425D02*
X1617663Y712787D01*
X1585912Y788988D02*
Y917575D01*
X1574800Y928688D02*
X1585912Y917575D01*
Y788988D02*
X1597025Y777875D01*
Y733425D02*
Y777875D01*
X1565275Y923925D02*
Y1095375D01*
Y923925D02*
X1576387Y912812D01*
Y728662D02*
Y912812D01*
Y728662D02*
X1592263Y712787D01*
X1506537Y868363D02*
X1562100Y923925D01*
X1506537Y779837D02*
Y868363D01*
X1487112Y760413D02*
X1506537Y779837D01*
X1727200Y412750D02*
X1731962Y417513D01*
X1728788Y526512D02*
X1731962Y523337D01*
Y417513D02*
Y523337D01*
X1728788Y526512D02*
Y615950D01*
X1253344Y618319D02*
X1255263Y616399D01*
Y611637D02*
Y616399D01*
X1256518Y623082D02*
X1262063Y617537D01*
X1255263Y611637D02*
X1255713Y611188D01*
X1287462Y552450D02*
Y582612D01*
X1293813Y547687D02*
Y598488D01*
X1311275Y542925D02*
Y608013D01*
X1244600Y514350D02*
Y552450D01*
X1301750Y527050D02*
Y542925D01*
Y527050D02*
X1304925Y523875D01*
X668337Y561975D02*
X674688Y555625D01*
Y477837D02*
Y555625D01*
Y477837D02*
X684212Y468312D01*
Y454025D02*
Y468312D01*
X325438Y447675D02*
Y782637D01*
X290513Y412750D02*
X325438Y447675D01*
X290513Y412750D02*
Y412750D01*
X377825Y463550D02*
Y490537D01*
X390525Y439738D02*
Y450850D01*
X377825Y463550D02*
X390525Y450850D01*
X288925Y204788D02*
Y387374D01*
X291814Y390262D01*
X388937Y357188D02*
Y401637D01*
X857250Y500062D02*
X863600Y506413D01*
Y482062D02*
Y498475D01*
X865188Y465137D02*
Y480475D01*
X863600Y482062D02*
X865188Y480475D01*
X858056Y457909D02*
X860425Y460278D01*
X858056Y434169D02*
Y457909D01*
X860425Y460278D02*
Y460375D01*
X858056Y434169D02*
X860425Y431800D01*
Y460375D02*
X865188Y465137D01*
X736600Y404813D02*
Y590550D01*
X733425Y401637D02*
X736600Y404813D01*
X468312Y431800D02*
Y460375D01*
X455612Y473075D02*
X468312Y460375D01*
X528638Y625475D02*
Y628650D01*
X530225Y577850D02*
Y623887D01*
X528638Y625475D02*
X530225Y623887D01*
X723900Y590550D02*
Y611188D01*
X730250Y482600D02*
Y608013D01*
X518348Y627885D02*
X530225Y639762D01*
X501650Y585788D02*
X509457Y593595D01*
X512848D01*
X519894Y600641D01*
Y613490D01*
X518348Y615036D02*
X519894Y613490D01*
X518348Y615036D02*
Y627885D01*
X474663Y425450D02*
X485775Y414338D01*
X474663Y425450D02*
Y460375D01*
X469900Y465137D02*
X474663Y460375D01*
X409575Y447806D02*
X420819D01*
X431800Y458787D01*
Y471488D01*
X436562Y476250D01*
X401637Y439869D02*
X409575Y447806D01*
X455612Y473075D02*
Y500062D01*
X456406Y431006D02*
X460375Y427038D01*
X456406Y431006D02*
Y464247D01*
X452438Y468215D02*
X456406Y464247D01*
X452438Y468215D02*
Y504825D01*
X515541Y551259D02*
Y551956D01*
X515938Y550863D02*
Y584200D01*
X524681Y592943D01*
Y620713D01*
X723900Y611188D02*
X728662Y615950D01*
Y622300D01*
X722050Y628913D02*
X728662Y622300D01*
X455612Y500062D02*
X463550Y508000D01*
X452438Y504825D02*
X463550Y515938D01*
X877887Y379412D02*
X887412Y388937D01*
X939800D01*
X949325Y379412D01*
X890587D02*
X896937Y385762D01*
X933450D01*
X939800Y379412D01*
X903288D02*
X930275D01*
X736600Y590550D02*
X769938Y623887D01*
X1358900Y311150D02*
X1387475Y339725D01*
X1347787Y311150D02*
X1358900D01*
X1346200Y314325D02*
X1357312D01*
X1344612Y317500D02*
X1355725D01*
X1664037Y305138D02*
X1682750Y323850D01*
X1664037Y244169D02*
Y305138D01*
X1682750Y323850D02*
Y331250D01*
X1674612Y339388D02*
X1682750Y331250D01*
X1664037Y339388D02*
X1674612D01*
X1657188Y237319D02*
X1664037Y244169D01*
X1657188Y214475D02*
X1660525Y211138D01*
X1657188Y214475D02*
Y237319D01*
X1312863Y242887D02*
Y255588D01*
X1284288Y236537D02*
X1296987Y249237D01*
X1284288Y227013D02*
Y236537D01*
X1296987Y249237D02*
Y295275D01*
X1273175Y233363D02*
X1277937Y238125D01*
Y285750D01*
X1262063Y242887D02*
X1265238Y239713D01*
X1262063Y242887D02*
Y434975D01*
X1281113Y260350D02*
X1284288Y257175D01*
X1281113Y260350D02*
Y285750D01*
X1265238Y277812D02*
Y433387D01*
Y277812D02*
X1268412Y274638D01*
Y285750D02*
Y431800D01*
Y285750D02*
X1271588Y282575D01*
X1281113Y365125D02*
Y396875D01*
Y365125D02*
X1284288Y361950D01*
X1287462Y366712D02*
X1290061Y364114D01*
X1287462Y366712D02*
Y381000D01*
X1331913Y425450D01*
X1290061Y345499D02*
Y364114D01*
X1290638Y368300D02*
X1293813Y365125D01*
X1290638Y379412D02*
X1335087Y423862D01*
X1290638Y368300D02*
Y379412D01*
X1293813Y309562D02*
Y365125D01*
X1298575Y371475D02*
Y382588D01*
X1311275Y385762D02*
X1344612Y419100D01*
X1311275Y377825D02*
Y385762D01*
X1327150Y387350D02*
X1354138Y414338D01*
X1327150Y381000D02*
Y387350D01*
X1374775Y393700D02*
X1379538Y398462D01*
Y419100D01*
X1312863Y255588D02*
X1316037Y258762D01*
Y280987D01*
X1312863Y260350D02*
Y269875D01*
X1319212Y260350D02*
Y279400D01*
Y260350D02*
X1322388Y257175D01*
X1319212Y279400D02*
X1322388Y282575D01*
X1335087D01*
X1338262Y285750D01*
Y301625D01*
X1347787Y311150D01*
X1387475Y339725D02*
Y355600D01*
X1417637Y385762D01*
X1430338D01*
X1468438Y423862D01*
X1538288D01*
X1554162Y439738D01*
Y552450D01*
X1331913Y288925D02*
Y300037D01*
X1346200Y314325D01*
X1357312D02*
X1384300Y341312D01*
Y357188D01*
X1416050Y388937D01*
X1428750D01*
X1466850Y427038D01*
X1536700D01*
X1550988Y441325D01*
Y554038D01*
X1316037Y280987D02*
X1328737Y293687D01*
Y301625D01*
X1344612Y317500D01*
X1355725D02*
X1381125Y342900D01*
Y358775D01*
X1414462Y392113D01*
X1427162D01*
X1465262Y430213D02*
X1535112D01*
X1427162Y392113D02*
X1465262Y430213D01*
X1535112D02*
X1547812Y442912D01*
Y555625D01*
X1544637Y447675D02*
Y557212D01*
X1535112Y438150D02*
X1544637Y447675D01*
X1450975Y434975D02*
X1460500Y444500D01*
X1525587Y436562D02*
X1541463Y452438D01*
Y558800D01*
X1519238Y442912D02*
X1527175D01*
X1538288Y454025D02*
Y560387D01*
X1527175Y442912D02*
X1538288Y454025D01*
X1468438Y438150D02*
X1504950D01*
X1528763Y449263D02*
X1535112Y455612D01*
X1504950Y438150D02*
X1516062Y449263D01*
X1528763D01*
X1354138Y320675D02*
X1377950Y344487D01*
X1322388Y296863D02*
Y301625D01*
X1341438Y320675D01*
X1354138D01*
X1352550Y323850D02*
X1374775Y346075D01*
X1339850Y323850D02*
X1352550D01*
X1306512Y290513D02*
X1339850Y323850D01*
X1306512Y276225D02*
Y290513D01*
Y276225D02*
X1312863Y269875D01*
X1377950Y344487D02*
Y360363D01*
X1412875Y395288D02*
X1425575D01*
X1377950Y360363D02*
X1412875Y395288D01*
X1425575D02*
X1468438Y438150D01*
X1535112Y455612D02*
Y561975D01*
X1531938Y461963D02*
Y563563D01*
X1525587Y455612D02*
X1531938Y461963D01*
X1374775Y346075D02*
Y361950D01*
X1411288Y398462D01*
X1423987D01*
X1466850Y441325D01*
X1503362D01*
X1528763Y466725D01*
Y565150D01*
X1495425Y447675D02*
X1504950D01*
X1525587Y468312D01*
Y566738D01*
X1484312Y457200D02*
X1490663Y463550D01*
X1484312Y444500D02*
X1519238Y479425D01*
X1460500Y444500D02*
X1484312D01*
X1509713Y484188D02*
Y574675D01*
X1498600Y476250D02*
X1501775Y479425D01*
X1504950D01*
X1509713Y484188D01*
X1503362Y482600D02*
X1506537Y485775D01*
X1493837Y482600D02*
X1503362D01*
X1465262Y454025D02*
X1493837Y482600D01*
X1500188Y488950D02*
X1503362Y492125D01*
Y579437D01*
X1522413Y474663D02*
Y568325D01*
X1511300Y463550D02*
X1522413Y474663D01*
X1519238Y479425D02*
Y569912D01*
X1490663Y463550D02*
X1498600D01*
X1516062Y481012D02*
Y571500D01*
X1498600Y463550D02*
X1516062Y481012D01*
X1485900Y466725D02*
X1497012D01*
X1466850Y447675D02*
X1485900Y466725D01*
X1441450Y430213D02*
Y434558D01*
X1454567Y447675D01*
X1466850D01*
X1512888Y482600D02*
Y573088D01*
X1497012Y466725D02*
X1512888Y482600D01*
X1506537Y485775D02*
Y577850D01*
X1298575Y463550D02*
Y482600D01*
X1274762Y311150D02*
Y400050D01*
X1397000Y522287D01*
X1277937Y398462D02*
X1400175Y520700D01*
X1277937Y317500D02*
Y398462D01*
X1281113Y396875D02*
X1403350Y519113D01*
X1365250Y495300D02*
X1393825Y523875D01*
X1316037Y492125D02*
X1319212Y495300D01*
X1365250D01*
X1363663Y498475D02*
X1390650Y525462D01*
X1298575Y482600D02*
X1314450Y498475D01*
X1363663D01*
X1362075Y501650D02*
X1387475Y527050D01*
X1303338Y496888D02*
X1308100Y501650D01*
X1362075D01*
X1360488Y504825D02*
X1384300Y528638D01*
X1271588Y292100D02*
Y430213D01*
X1303338Y504825D02*
X1360488D01*
X1292225Y493713D02*
X1303338Y504825D01*
X1292225Y450850D02*
Y493713D01*
X1271588Y430213D02*
X1292225Y450850D01*
X1358900Y508000D02*
X1381125Y530225D01*
X1301750Y508000D02*
X1358900D01*
X1289050Y495300D02*
X1301750Y508000D01*
X1268412Y431800D02*
X1289050Y452438D01*
Y495300D01*
X1357312Y511175D02*
X1377950Y531813D01*
X1300163Y511175D02*
X1357312D01*
X1285875Y496888D02*
X1300163Y511175D01*
X1265238Y433387D02*
X1285875Y454025D01*
Y496888D01*
X1354138Y517525D02*
X1371600Y534987D01*
Y563563D01*
X1296987Y517525D02*
X1354138D01*
X1355725Y514350D02*
X1374775Y533400D01*
X1298575Y514350D02*
X1355725D01*
X1282700Y498475D02*
X1298575Y514350D01*
X1282700Y455612D02*
Y498475D01*
X1262063Y434975D02*
X1282700Y455612D01*
X1276350Y458787D02*
Y496888D01*
X1296987Y517525D01*
X1430338Y423862D02*
Y427038D01*
X1500188Y496888D02*
Y578136D01*
X1430338Y427038D02*
X1500188Y496888D01*
X1497012Y498475D02*
Y579437D01*
X1420813Y404813D02*
Y422275D01*
X1497012Y498475D01*
X1368425Y355600D02*
Y360363D01*
X1414462Y406400D02*
Y420687D01*
X1368425Y360363D02*
X1414462Y406400D01*
X1493837Y500062D02*
Y577850D01*
X1414462Y420687D02*
X1493837Y500062D01*
X1490663Y501650D02*
Y576263D01*
X1362075Y342900D02*
Y358775D01*
X1358900Y339725D02*
X1362075Y342900D01*
X1411288Y407988D02*
Y422275D01*
X1362075Y358775D02*
X1411288Y407988D01*
Y422275D02*
X1490663Y501650D01*
X1404937Y420687D02*
X1487487Y503237D01*
X1404937Y415925D02*
Y420687D01*
X1487487Y503237D02*
Y574675D01*
X1398587Y403225D02*
Y419100D01*
X1392238Y396875D02*
X1398587Y403225D01*
X1355725Y357188D02*
X1385887Y387350D01*
X1395412Y407988D02*
Y420687D01*
X1385887Y387350D02*
Y398462D01*
X1395412Y407988D01*
X1349375Y355600D02*
X1382713Y388937D01*
X1392238Y409575D02*
Y422275D01*
X1382713Y388937D02*
Y400050D01*
X1392238Y409575D01*
X1355725Y352425D02*
Y357188D01*
X1347787Y341851D02*
X1349375Y343438D01*
X1347787Y333375D02*
Y341851D01*
X1349375Y343438D02*
Y355600D01*
X1343025Y354012D02*
X1358900Y369888D01*
X1343025Y346075D02*
Y354012D01*
X1398587Y419100D02*
X1484312Y504825D01*
Y573088D01*
X1481138Y506413D02*
Y570988D01*
X1395412Y420687D02*
X1481138Y506413D01*
X1477962Y508000D02*
Y569912D01*
X1392238Y422275D02*
X1477962Y508000D01*
X1385887Y420687D02*
X1474787Y509588D01*
X1385887Y412750D02*
Y420687D01*
X1474787Y509588D02*
Y568325D01*
X1471613Y511175D02*
Y566738D01*
X1379538Y419100D02*
X1471613Y511175D01*
X1358900Y385762D02*
X1376362Y403225D01*
X1358900Y369888D02*
Y385762D01*
X1355725Y387350D02*
X1373188Y404813D01*
X1336675Y333375D02*
X1339850Y330200D01*
X1336675Y333375D02*
Y352425D01*
X1355725Y371475D01*
Y387350D01*
X1309688Y262604D02*
Y267863D01*
X1300163Y253079D02*
X1309688Y262604D01*
X1303338Y292100D02*
X1333500Y322262D01*
X1303338Y274213D02*
Y292100D01*
Y274213D02*
X1309688Y267863D01*
X1352550Y388937D02*
X1370013Y406400D01*
X1333500Y322262D02*
Y354012D01*
X1352550Y373063D02*
Y388937D01*
X1333500Y354012D02*
X1352550Y373063D01*
X1346200Y387350D02*
X1366837Y407988D01*
X1346200Y381000D02*
Y387350D01*
X1339850Y385762D02*
X1363663Y409575D01*
X1300163Y268288D02*
X1303338Y265112D01*
X1300163Y268288D02*
Y293687D01*
X1330325Y323850D02*
Y355600D01*
X1300163Y293687D02*
X1330325Y323850D01*
Y355600D02*
X1339850Y365125D01*
Y385762D01*
X1320800Y330200D02*
X1323975Y327025D01*
X1320800Y330200D02*
Y350838D01*
X1336675Y366712D01*
Y387350D01*
X1333500Y368300D02*
Y388937D01*
X1357312Y412750D01*
X1293813Y301625D02*
X1298575D01*
X1320800Y385762D02*
X1350963Y415925D01*
X1320800Y360363D02*
Y385762D01*
X1296987Y317500D02*
X1300163Y314325D01*
X1296987Y317500D02*
Y346075D01*
X1317625Y387350D02*
X1347787Y417513D01*
X1317625Y361950D02*
Y387350D01*
X1300163Y344487D02*
X1317625Y361950D01*
X1304925Y354012D02*
Y384175D01*
X1296987Y346075D02*
X1304925Y354012D01*
X1298575Y382588D02*
X1338262Y422275D01*
X1287462Y342900D02*
X1290061Y345499D01*
X1284288Y288925D02*
Y311150D01*
X1281113Y285750D02*
X1284288Y288925D01*
X1277937Y317500D02*
X1284288Y311150D01*
X1274762D02*
X1277937Y307975D01*
X1271588Y292100D02*
X1277937Y285750D01*
X1376362Y403225D02*
Y420687D01*
X1468438Y512762D01*
Y565150D01*
X1373188Y404813D02*
Y422275D01*
X1465262Y514350D02*
Y563563D01*
X1373188Y422275D02*
X1465262Y514350D01*
X1370013Y406400D02*
Y423862D01*
X1462088Y515938D02*
Y561975D01*
X1370013Y423862D02*
X1462088Y515938D01*
X1458913Y517525D02*
Y560387D01*
X1366837Y407988D02*
Y425450D01*
X1458913Y517525D01*
X1363663Y409575D02*
Y427038D01*
X1454150Y517525D01*
Y560387D01*
X1446212Y568325D02*
X1454150Y560387D01*
X1442193Y552513D02*
Y579437D01*
X1336675Y387350D02*
X1360488Y411162D01*
Y428625D01*
X1444625Y512762D01*
X1442193Y552513D02*
X1444625Y550082D01*
Y512762D02*
Y550082D01*
X1438275Y550703D02*
Y579437D01*
X1357312Y412750D02*
Y430213D01*
X1441450Y514350D01*
X1438275Y550703D02*
X1441450Y547528D01*
Y514350D02*
Y547528D01*
X1354138Y414338D02*
Y431800D01*
X1427162Y504825D02*
Y579437D01*
X1354138Y431800D02*
X1427162Y504825D01*
X1423987Y506413D02*
Y579437D01*
X1350963Y415925D02*
Y433387D01*
X1423987Y506413D01*
X1420813Y508000D02*
Y579437D01*
X1347787Y417513D02*
Y434975D01*
X1420813Y508000D01*
X1344612Y419100D02*
Y436562D01*
X1341438Y420687D02*
Y438150D01*
X1304925Y384175D02*
X1341438Y420687D01*
X1338262Y422275D02*
Y439738D01*
X1335087Y423862D02*
Y441325D01*
X1331913Y425450D02*
Y442912D01*
X1417637Y509588D02*
Y579437D01*
X1344612Y436562D02*
X1417637Y509588D01*
X1414462Y511175D02*
Y579437D01*
X1341438Y438150D02*
X1414462Y511175D01*
X1411288Y512762D02*
Y579437D01*
X1338262Y439738D02*
X1411288Y512762D01*
X1408625Y514863D02*
Y579437D01*
X1335087Y441325D02*
X1408625Y514863D01*
X1406085Y517085D02*
Y579437D01*
X1331913Y442912D02*
X1406085Y517085D01*
X1403350Y519113D02*
Y579437D01*
X1400175Y520700D02*
Y579437D01*
X1397000Y522287D02*
Y579437D01*
X1393825Y523875D02*
Y579437D01*
X1390650Y525462D02*
Y574675D01*
X1387475Y527050D02*
Y573088D01*
X1384300Y528638D02*
Y569912D01*
X1381125Y530225D02*
Y568325D01*
X1377950Y531813D02*
Y566738D01*
X1374775Y533400D02*
Y565150D01*
X1357312Y577850D02*
X1371600Y563563D01*
X1357312Y577850D02*
Y579437D01*
X1385887D02*
X1390650Y574675D01*
X1506537Y577850D02*
X1508125Y579437D01*
X1535112Y646113D02*
X1541463Y639762D01*
Y582612D02*
Y639762D01*
X1525587Y566738D02*
X1541463Y582612D01*
X1535112Y663575D02*
X1554162Y644525D01*
Y576263D02*
Y644525D01*
X1538288Y560387D02*
X1554162Y576263D01*
X1535112Y674688D02*
X1560513Y649287D01*
Y573088D02*
Y649287D01*
X1544637Y557212D02*
X1560513Y573088D01*
X1535112Y585788D02*
Y636138D01*
X1519238Y569912D02*
X1528763Y579437D01*
X1512888Y573088D02*
X1519238Y579437D01*
X1492399Y579288D02*
X1493837Y577850D01*
X1492399Y579288D02*
Y579437D01*
X1476851Y575274D02*
X1481138Y570988D01*
X1476851Y575274D02*
Y579437D01*
X1460500Y573088D02*
X1468438Y565150D01*
X1460500Y573088D02*
Y579437D01*
X1488625Y578300D02*
Y579437D01*
Y578300D02*
X1490663Y576263D01*
X1472625Y575250D02*
Y579437D01*
Y575250D02*
X1477962Y569912D01*
X1535112Y679450D02*
X1563687Y650875D01*
Y571500D02*
Y650875D01*
X1547812Y555625D02*
X1563687Y571500D01*
X1452563D02*
X1462088Y561975D01*
X1452563Y571500D02*
Y579437D01*
X1374775D02*
X1384300Y569912D01*
X1360488Y579437D02*
X1374775Y565150D01*
X1535112Y650875D02*
X1544637Y641350D01*
Y581025D02*
Y641350D01*
X1528763Y565150D02*
X1544637Y581025D01*
X1456625Y572200D02*
Y579437D01*
Y572200D02*
X1465262Y563563D01*
X1828777Y1084707D02*
Y1092866D01*
X1830809Y1082675D02*
X1831333D01*
X1829158Y1078611D02*
X1831333D01*
X1829158Y1074547D02*
X1831825D01*
X1830809Y1070483D02*
X1831825D01*
X1828777Y1063625D02*
Y1068451D01*
Y1045941D02*
Y1063625D01*
X1796225Y1013389D02*
X1828777Y1045941D01*
X1791526Y1015335D02*
X1824078Y1047888D01*
X1796225Y1011237D02*
Y1013389D01*
X1791526Y1011237D02*
Y1015335D01*
X1796225Y1011237D02*
X1800987Y1006475D01*
X1786763D02*
X1791526Y1011237D01*
X1800987Y1006475D02*
X1806575D01*
X1781175D02*
X1786763D01*
X1365250Y579437D02*
X1377950Y566738D01*
X1370013Y579437D02*
X1381125Y568325D01*
Y579437D02*
X1387475Y573088D01*
X1446212Y568325D02*
Y579437D01*
X1449388Y569912D02*
Y579437D01*
Y569912D02*
X1458913Y560387D01*
X1464625Y573725D02*
X1471613Y566738D01*
X1468438Y574675D02*
X1474787Y568325D01*
X1480625Y576775D02*
X1484312Y573088D01*
X1464625Y573725D02*
Y579437D01*
X1468438Y574675D02*
Y579437D01*
X1484399Y577763D02*
X1487487Y574675D01*
X1509713D02*
X1514475Y579437D01*
X1480625Y576775D02*
Y579437D01*
X1500188Y578136D02*
X1500399Y578347D01*
X1484399Y577763D02*
Y579437D01*
X1500399Y578347D02*
Y579437D01*
X1554162Y552450D02*
X1570038Y568325D01*
X1550988Y554038D02*
X1566862Y569912D01*
X1541463Y558800D02*
X1557337Y574675D01*
X1535112Y561975D02*
X1550988Y577850D01*
X1531938Y563563D02*
X1547812Y579437D01*
X1522413Y568325D02*
X1533525Y579437D01*
X1516062Y571500D02*
X1524000Y579437D01*
X1535112Y581025D02*
X1538288Y584200D01*
X1557337Y574675D02*
Y646113D01*
X1550988Y577850D02*
Y643763D01*
X1566862Y569912D02*
Y652462D01*
X1570038Y568325D02*
Y654050D01*
X1538288Y584200D02*
Y638175D01*
X1547812Y579437D02*
Y642937D01*
X1535112Y641350D02*
X1538288Y638175D01*
X1535112Y655638D02*
X1547812Y642937D01*
X1535112Y659638D02*
X1550988Y643763D01*
X1535112Y668337D02*
X1557337Y646113D01*
X1535112Y684212D02*
X1566862Y652462D01*
X1535112Y688975D02*
X1570038Y654050D01*
X150813Y617537D02*
X174625D01*
X147900Y620450D02*
X150813Y617537D01*
X147900Y620450D02*
Y646375D01*
X97643Y414338D02*
Y444500D01*
X157163Y439738D02*
X161925Y444500D01*
X157163Y430213D02*
X173037Y414338D01*
X157163Y430213D02*
Y439738D01*
X198438Y379412D02*
X207962D01*
X195263Y382588D02*
X198438Y379412D01*
X200025Y404813D02*
X204563Y400274D01*
Y393700D02*
Y400274D01*
X192087Y404813D02*
X200025D01*
X177800Y409575D02*
X182563Y414338D01*
X177800Y382588D02*
X184150Y376237D01*
X177800Y382588D02*
Y409575D01*
X157163Y219075D02*
X173037Y203200D01*
X157163Y228600D02*
X161925Y233363D01*
X157163Y219075D02*
Y228600D01*
X97643Y203200D02*
Y233363D01*
X1558925Y188913D02*
X1565275D01*
X1543050Y204788D02*
X1558925Y188913D01*
X195263Y171450D02*
X198438Y168275D01*
X192087Y193675D02*
X200025D01*
X204563Y189137D01*
Y182563D02*
Y189137D01*
X177800Y171450D02*
X184150Y165100D01*
X177800Y171450D02*
Y198438D01*
X182563Y203200D01*
X198438Y168275D02*
X207962D01*
X536575Y627062D02*
Y628650D01*
Y568325D02*
Y627062D01*
X539750Y560387D02*
Y565150D01*
X536575Y568325D02*
X539750Y565150D01*
X461963Y525462D02*
X469900Y517525D01*
Y465137D02*
Y517525D01*
X433387Y581025D02*
X444500Y569912D01*
X433387Y633413D02*
X439738Y639762D01*
X433387Y581025D02*
Y633413D01*
X835025Y581025D02*
X846137Y569912D01*
X835025Y581025D02*
Y633413D01*
X841375Y639762D01*
X938213Y627062D02*
Y628650D01*
Y568325D02*
Y627062D01*
X941387Y560387D02*
Y565150D01*
X938213Y568325D02*
X941387Y565150D01*
X1665287Y420687D02*
X1670050D01*
X1684337Y434975D01*
X1644650Y222250D02*
Y274638D01*
D225*
X223500Y25000D02*
D03*
X176500D02*
D03*
X1520000D02*
D03*
X1380000D02*
D03*
X1270000D02*
D03*
X380000D02*
D03*
X490000D02*
D03*
X600000D02*
D03*
X710000D02*
D03*
X820000D02*
D03*
X930000D02*
D03*
X1040000D02*
D03*
X1150000D02*
D03*
X1660000D02*
D03*
X1820000D02*
D03*
D227*
X1417637Y174625D02*
X1436687D01*
X1374775Y217488D02*
X1417637Y174625D01*
X1374775Y217488D02*
Y295275D01*
X1135427Y84137D02*
X1349052D01*
X1024651D02*
X1135427D01*
X1135010Y83720D02*
X1135427Y84137D01*
X1135010Y68180D02*
Y83720D01*
X915075Y84137D02*
X1024651D01*
X1025010Y68180D02*
Y83778D01*
X1024651Y84137D02*
X1025010Y83778D01*
X804945Y84137D02*
X915075D01*
X915010Y84073D02*
X915075Y84137D01*
X915010Y68180D02*
Y84073D01*
X694298Y84137D02*
X804945D01*
X805010Y68180D02*
Y84072D01*
X804945Y84137D02*
X805010Y84072D01*
X584355Y84137D02*
X694298D01*
X695010Y68180D02*
Y83425D01*
X694298Y84137D02*
X695010Y83425D01*
X474498Y84137D02*
X584355D01*
X585010Y83483D01*
Y68180D02*
Y83483D01*
X365347Y84137D02*
X474498D01*
X475010Y83625D01*
Y68180D02*
Y83625D01*
X338138Y84137D02*
X365347D01*
X365010Y68180D02*
Y83800D01*
X365347Y84137D01*
X228600Y193675D02*
X338138Y84137D01*
X1733550Y274638D02*
X1741487Y282575D01*
X1733550Y201612D02*
Y274638D01*
X1722437Y190500D02*
X1733550Y201612D01*
X1697038Y190500D02*
X1722437D01*
X1558925Y52387D02*
X1697038Y190500D01*
X355600Y52387D02*
X1558925D01*
X219075Y188913D02*
X355600Y52387D01*
X1349052Y84137D02*
X1365010Y68180D01*
X212725Y280987D02*
X219075Y274638D01*
Y188913D02*
Y274638D01*
X1447800Y163512D02*
X1539875D01*
X1436687Y174625D02*
X1447800Y163512D01*
X1436687Y103188D02*
Y174625D01*
X1539875Y163512D02*
X1550988Y174625D01*
X228600Y193675D02*
Y615315D01*
X301625Y688340D01*
Y706120D01*
Y723900D01*
Y741680D01*
Y759460D01*
X1416050Y82550D02*
X1436687Y103188D01*
X1365010Y68180D02*
X1379380Y82550D01*
X1416050D01*
D228*
X182563Y828675D02*
X215900Y795338D01*
X182563Y828675D02*
Y919163D01*
X188913Y757237D02*
X228600Y796925D01*
Y874713D01*
X119062Y820738D02*
Y898525D01*
X112712Y904875D02*
X119062Y898525D01*
X173037Y785813D02*
Y884238D01*
X162794Y775568D02*
X173037Y785813D01*
X55563Y855663D02*
X122238Y788988D01*
X55563Y855663D02*
Y906462D01*
X236537Y795338D02*
Y896937D01*
X246063Y906462D01*
X119062Y820738D02*
X130175Y809625D01*
Y766762D02*
Y809625D01*
X162794Y744330D02*
Y775568D01*
X206375Y763587D02*
Y765175D01*
X236537Y795338D01*
X188913Y744538D02*
Y757237D01*
D229*
X950912Y277812D02*
Y326920D01*
Y277812D02*
X973138Y255588D01*
X946825Y331007D02*
X950912Y326920D01*
X520891Y253810D02*
X530225Y244475D01*
X473080Y253810D02*
X520891D01*
X444100Y282790D02*
X473080Y253810D01*
X444100Y282790D02*
Y328212D01*
X507088Y329525D02*
X511175Y325438D01*
X507088Y329525D02*
Y331113D01*
X533400Y255588D02*
X590550D01*
X511175Y277812D02*
X533400Y255588D01*
X511175Y277812D02*
Y325438D01*
X883837Y305448D02*
X884238Y305849D01*
X960628Y253810D02*
X969962Y244475D01*
X912818Y253810D02*
X960628D01*
X884238Y305849D02*
Y328613D01*
X883837Y282790D02*
Y305448D01*
Y282790D02*
X912818Y253810D01*
X973138Y255588D02*
X1030287D01*
X946825Y331007D02*
Y331113D01*
D230*
X1366837Y760413D02*
X1387475Y739775D01*
Y725488D02*
Y739775D01*
Y725488D02*
X1389062Y723900D01*
Y710362D02*
Y723900D01*
X1384625Y705925D02*
X1389062Y710362D01*
X1371600Y760413D02*
X1397000Y735013D01*
Y710300D02*
Y735013D01*
X1392625Y705925D02*
X1397000Y710300D01*
X1376362Y760413D02*
X1400625Y736150D01*
Y705925D02*
Y736150D01*
X1417660Y728890D02*
X1424625Y721925D01*
X1389991Y760413D02*
X1417660Y732744D01*
Y728890D02*
Y732744D01*
X1394138Y760413D02*
X1424625Y729925D01*
X1402137Y760413D02*
X1430338Y732213D01*
X1406525Y760413D02*
X1432625Y734313D01*
X1457325Y735013D02*
X1482725Y760413D01*
X1445712Y735013D02*
X1457325D01*
X1440625Y729925D02*
X1445712Y735013D01*
X1430338Y725488D02*
Y732213D01*
Y725488D02*
X1433900Y721925D01*
X1440625D01*
X1432625Y729550D02*
X1436476Y725699D01*
X1432625Y729550D02*
Y734313D01*
X1436476Y725699D02*
X1442188D01*
X1446212Y628338D02*
X1456625Y617925D01*
X1446212Y628338D02*
Y721675D01*
X1442188Y725699D02*
X1446212Y721675D01*
X1484399Y668251D02*
Y709699D01*
X1487487Y665163D02*
X1511300D01*
X1484399Y668251D02*
X1487487Y665163D01*
X1476399Y665138D02*
Y709699D01*
X1479550Y661988D02*
X1509263D01*
X1476399Y665138D02*
X1479550Y661988D01*
X1456625Y729925D02*
X1487112Y760413D01*
X1396851Y678151D02*
X1400625Y681925D01*
X1396851Y670976D02*
Y678151D01*
X1388851Y662976D02*
X1396851Y670976D01*
X1388851Y634789D02*
Y662976D01*
X1385887Y631825D02*
X1388851Y634789D01*
X1378661Y631825D02*
X1385887D01*
X1376362Y588963D02*
X1385887Y579437D01*
X1376362Y629526D02*
X1378661Y631825D01*
X1376362Y588963D02*
Y629526D01*
X1382737Y701699D02*
X1396851D01*
X1400625Y697925D01*
X1357312Y676275D02*
X1382737Y701699D01*
X1357312Y579437D02*
Y676275D01*
X1505736Y630151D02*
X1516062Y619825D01*
Y587375D02*
Y619825D01*
X1488625Y633925D02*
X1492399Y630151D01*
X1505736D01*
X1508125Y579437D02*
X1516062Y587375D01*
X1512888Y668337D02*
X1535112Y646113D01*
X1488625Y673925D02*
X1494212Y668337D01*
X1512888D01*
X1512988Y685699D02*
X1535112Y663575D01*
X1488625Y689925D02*
X1492851Y685699D01*
X1512988D01*
X1508101Y701699D02*
X1535112Y674688D01*
X1488625Y705925D02*
X1492851Y701699D01*
X1508101D01*
X1509263Y661988D02*
X1535112Y636138D01*
X1528763Y579437D02*
X1535112Y585788D01*
X1476399Y709699D02*
X1480625Y713925D01*
X1463100Y646113D02*
X1505775D01*
X1528763Y623125D01*
Y588963D02*
Y623125D01*
X1519238Y579437D02*
X1528763Y588963D01*
X1460500Y709800D02*
X1464625Y713925D01*
X1460500Y648713D02*
X1463100Y646113D01*
X1460500Y648713D02*
Y709800D01*
X1488625Y617925D02*
X1492399Y614151D01*
Y579437D02*
Y614151D01*
X1476375Y615950D02*
X1476399Y615974D01*
X1476375Y611512D02*
X1476851Y611036D01*
X1476399Y615974D02*
Y622151D01*
X1476375Y611512D02*
Y615950D01*
X1476851Y579437D02*
Y611036D01*
X1472625Y625925D02*
X1476399Y622151D01*
X1456625Y625925D02*
X1460500Y622050D01*
Y579437D02*
Y622050D01*
X1488625Y579437D02*
Y609925D01*
X1472625Y579437D02*
Y609925D01*
X1508638Y705925D02*
X1535112Y679450D01*
X1504625Y705925D02*
X1508638D01*
X1428750Y603950D02*
X1438275Y594425D01*
Y579437D02*
Y594425D01*
X1428750Y603950D02*
Y621800D01*
X1424625Y625925D02*
X1428750Y621800D01*
X1440625Y625925D02*
X1452563Y613988D01*
Y579437D02*
Y613988D01*
X1370013Y659313D02*
X1384625Y673925D01*
X1370013Y584200D02*
X1374775Y579437D01*
X1370013Y584200D02*
Y659313D01*
X1360488Y673788D02*
X1384625Y697925D01*
X1360488Y579437D02*
Y673788D01*
X1512063Y673925D02*
X1535112Y650875D01*
X1504625Y673925D02*
X1512063D01*
X1396851Y598637D02*
X1406085Y589403D01*
Y579437D02*
Y589403D01*
X1396851Y598637D02*
Y613699D01*
X1392625Y617925D02*
X1396851Y613699D01*
X1384625Y596955D02*
X1397000Y584580D01*
Y579437D02*
Y584580D01*
X1384625Y596955D02*
Y609600D01*
X1400625Y599625D02*
X1408625Y591625D01*
Y579437D02*
Y591625D01*
X1400625Y599625D02*
Y609600D01*
X1414462Y579437D02*
Y595312D01*
X1408625Y601150D02*
X1414462Y595312D01*
X1408625Y601150D02*
Y609600D01*
X1420813Y579437D02*
Y596900D01*
X1416625Y601087D02*
X1420813Y596900D01*
X1416625Y601087D02*
Y609600D01*
X1442193Y579437D02*
Y596157D01*
X1432625Y605725D02*
Y609925D01*
Y605725D02*
X1442193Y596157D01*
X1456625Y579437D02*
Y609925D01*
X1400625Y617925D02*
X1404851Y613699D01*
Y600162D02*
Y613699D01*
Y600162D02*
X1411288Y593725D01*
X1408625Y617925D02*
X1412851Y613699D01*
Y600674D02*
Y613699D01*
Y600674D02*
X1417637Y595887D01*
X1363663Y581025D02*
X1365250Y579437D01*
X1366837Y582612D02*
X1370013Y579437D01*
X1373188Y587375D02*
X1381125Y579437D01*
X1393825D02*
Y584882D01*
X1400175Y579437D02*
Y585788D01*
X1403350Y579437D02*
Y587375D01*
X1411288Y579437D02*
Y593725D01*
X1380625Y598082D02*
Y627262D01*
X1383062Y629699D01*
X1384625Y617925D02*
X1388851Y613699D01*
X1380625Y598082D02*
X1393825Y584882D01*
X1383062Y629699D02*
X1393286D01*
X1388851Y597112D02*
Y613699D01*
X1363663Y668962D02*
X1384625Y689925D01*
X1366837Y664137D02*
X1384625Y681925D01*
X1373188Y655680D02*
X1388851Y671344D01*
Y684001D01*
X1390650Y685800D01*
X1392625Y598100D02*
Y609600D01*
X1388851Y597112D02*
X1400175Y585788D01*
X1393286Y629699D02*
X1396399Y632812D01*
X1392625Y598100D02*
X1403350Y587375D01*
X1390650Y685800D02*
X1396500D01*
X1396399Y632812D02*
Y659865D01*
X1400625Y664091D01*
X1396500Y685800D02*
X1400625Y689925D01*
Y664091D02*
Y673925D01*
X1417637Y579437D02*
Y595887D01*
X1446212Y579437D02*
Y596900D01*
X1423987Y579437D02*
Y598488D01*
X1427162Y579437D02*
Y600075D01*
X1449388Y579437D02*
Y601162D01*
X1464625Y579437D02*
Y609925D01*
X1420813Y601662D02*
X1423987Y598488D01*
X1468438Y579437D02*
Y622113D01*
X1424625Y602612D02*
X1427162Y600075D01*
X1436687Y606425D02*
X1446212Y596900D01*
X1440625Y609925D02*
X1449388Y601162D01*
X1424625Y602612D02*
Y609600D01*
X1503362Y579437D02*
X1512888Y588963D01*
X1497012Y579437D02*
Y609538D01*
X1480625Y579437D02*
Y609925D01*
X1484399Y579437D02*
Y611488D01*
X1500399Y579437D02*
Y614151D01*
X1512888Y588963D02*
Y615000D01*
X1496625Y609925D02*
X1497012Y609538D01*
X1533525Y579437D02*
X1535112Y581025D01*
X1524000Y579437D02*
X1531938Y587375D01*
X1514475Y579437D02*
X1525587Y590550D01*
Y618300D01*
X1531938Y587375D02*
Y630238D01*
X1420813Y601662D02*
Y621738D01*
X1436687Y606425D02*
Y621862D01*
X1416625Y625925D02*
X1420813Y621738D01*
X1432625Y625925D02*
X1436687Y621862D01*
X1484312Y611575D02*
X1484399Y611488D01*
X1484312Y611575D02*
Y612775D01*
X1484399Y612862D01*
Y622151D01*
X1464625Y625925D02*
X1468438Y622113D01*
X1480625Y625925D02*
X1484399Y622151D01*
X1470025Y654050D02*
X1508125D01*
X1468438Y655638D02*
X1470025Y654050D01*
X1468438Y655638D02*
Y709737D01*
X1484399Y709699D02*
X1488625Y713925D01*
X1468438Y709737D02*
X1472625Y713925D01*
X1496625Y617925D02*
X1500399Y614151D01*
X1505736Y622151D02*
X1512888Y615000D01*
X1492399Y622151D02*
X1505736D01*
X1488625Y625925D02*
X1492399Y622151D01*
X1505736Y638151D02*
X1525587Y618300D01*
X1492399Y638151D02*
X1505736D01*
X1488625Y641925D02*
X1492399Y638151D01*
X1508125Y654050D02*
X1531938Y630238D01*
X1511300Y665163D02*
X1535112Y641350D01*
X1512888Y677862D02*
X1535112Y655638D01*
X1492688Y677862D02*
X1512888D01*
X1488625Y681925D02*
X1492688Y677862D01*
X1504625Y681925D02*
X1512825D01*
X1492851Y693699D02*
X1509751D01*
X1488625Y697925D02*
X1492851Y693699D01*
X1500851Y709699D02*
X1509626D01*
X1496625Y713925D02*
X1500851Y709699D01*
X1504625Y713925D02*
X1510163D01*
X1512825Y681925D02*
X1535112Y659638D01*
X1509751Y693699D02*
X1535112Y668337D01*
X1509626Y709699D02*
X1535112Y684212D01*
X1510163Y713925D02*
X1535112Y688975D01*
X1363663Y581025D02*
Y668962D01*
X1366837Y582612D02*
Y664137D01*
X1373188Y587375D02*
Y655680D01*
D232*
X1764300Y1118750D02*
D03*
D233*
X1835700Y1100950D02*
D03*
X1774500D02*
D03*
X1825500Y1118750D02*
D03*
X1784700D02*
D03*
X1815300Y1100950D02*
D03*
X1794900D02*
D03*
X1805100Y1118750D02*
D03*
X1868600Y1052750D02*
D03*
X1731400D02*
D03*
X1845700D02*
D03*
X1754300D02*
D03*
D234*
X1736500Y1144150D02*
D03*
X1863500D02*
D03*
D235*
X1718750Y1109850D02*
D03*
X1881250D02*
D03*
D236*
X1200000Y834300D02*
D03*
D237*
Y720000D02*
D03*
Y745400D02*
D03*
Y770800D02*
D03*
Y694600D02*
D03*
Y669200D02*
D03*
D238*
X1174000Y1135000D02*
D03*
X666000D02*
D03*
X1165000Y226000D02*
D03*
Y494000D02*
D03*
X1406000Y1135000D02*
D03*
X1594000D02*
D03*
D239*
X244960Y68180D02*
D03*
X214990D02*
D03*
X185010D02*
D03*
X155040D02*
D03*
Y98150D02*
D03*
X185010D02*
D03*
X214990D02*
D03*
X244960D02*
D03*
X1549840D02*
D03*
X1520000D02*
D03*
X1490160D02*
D03*
Y68180D02*
D03*
X1520000D02*
D03*
X1549840D02*
D03*
X1394990D02*
D03*
X1365010D02*
D03*
Y98150D02*
D03*
X1394990D02*
D03*
X1270000D02*
D03*
Y68180D02*
D03*
X394990D02*
D03*
X365010D02*
D03*
Y98150D02*
D03*
X394990D02*
D03*
X504990Y68180D02*
D03*
X475010D02*
D03*
Y98150D02*
D03*
X504990D02*
D03*
X614990Y68180D02*
D03*
X585010D02*
D03*
Y98150D02*
D03*
X614990D02*
D03*
X724990Y68180D02*
D03*
X695010D02*
D03*
Y98150D02*
D03*
X724990D02*
D03*
X834990Y68180D02*
D03*
X805010D02*
D03*
Y98150D02*
D03*
X834990D02*
D03*
X944990Y68180D02*
D03*
X915010D02*
D03*
Y98150D02*
D03*
X944990D02*
D03*
X1054990Y68180D02*
D03*
X1025010D02*
D03*
Y98150D02*
D03*
X1054990D02*
D03*
X1164990Y68180D02*
D03*
X1135010D02*
D03*
Y98150D02*
D03*
X1164990D02*
D03*
X1674990Y68180D02*
D03*
X1645010D02*
D03*
Y98150D02*
D03*
X1674990D02*
D03*
X1834990Y68180D02*
D03*
X1805010D02*
D03*
Y98150D02*
D03*
X1834990D02*
D03*
D240*
X377650Y1058863D02*
D03*
D241*
X582650D02*
D03*
D242*
X1950000Y1150000D02*
D03*
Y50000D02*
D03*
X50000D02*
D03*
Y1150000D02*
D03*
X1350000D02*
D03*
Y150000D02*
D03*
X1250000D02*
D03*
Y1150000D02*
D03*
D243*
X1476487Y186588D02*
D03*
Y197588D02*
D03*
X1487487Y186588D02*
D03*
Y197588D02*
D03*
X1498488Y186588D02*
D03*
Y197588D02*
D03*
X531575Y865900D02*
D03*
X541575D02*
D03*
X531575Y855900D02*
D03*
X541575D02*
D03*
X531575Y845900D02*
D03*
X541575D02*
D03*
X531575Y835900D02*
D03*
X541575D02*
D03*
X1220700Y994512D02*
D03*
Y983512D02*
D03*
X1209700Y994512D02*
D03*
Y983512D02*
D03*
X939575Y318237D02*
D03*
Y307237D02*
D03*
X928575Y318237D02*
D03*
Y307237D02*
D03*
X917575Y318237D02*
D03*
Y307237D02*
D03*
X906575Y318237D02*
D03*
Y307237D02*
D03*
X895575Y318237D02*
D03*
Y307237D02*
D03*
X907175Y538875D02*
D03*
X897175D02*
D03*
X887175D02*
D03*
X877175D02*
D03*
Y508875D02*
D03*
X887175D02*
D03*
X897175D02*
D03*
X907175D02*
D03*
Y518875D02*
D03*
X897175D02*
D03*
X887175D02*
D03*
X877175D02*
D03*
Y528875D02*
D03*
X887175D02*
D03*
X897175D02*
D03*
X907175D02*
D03*
X1641362Y416662D02*
D03*
Y405662D02*
D03*
X1630363Y416662D02*
D03*
Y405662D02*
D03*
X1619362Y416662D02*
D03*
Y405662D02*
D03*
X207738Y715850D02*
D03*
Y704850D02*
D03*
Y693850D02*
D03*
X196737Y715850D02*
D03*
Y704850D02*
D03*
Y693850D02*
D03*
X185737Y715850D02*
D03*
Y704850D02*
D03*
Y693850D02*
D03*
X174737Y715850D02*
D03*
Y704850D02*
D03*
Y693850D02*
D03*
X163738Y715850D02*
D03*
Y704850D02*
D03*
Y693850D02*
D03*
X1861087Y772063D02*
D03*
Y760912D02*
D03*
Y747213D02*
D03*
Y736062D02*
D03*
X1849937Y772063D02*
D03*
Y760912D02*
D03*
Y747213D02*
D03*
Y736062D02*
D03*
X1836237Y772063D02*
D03*
Y760912D02*
D03*
Y747213D02*
D03*
Y736062D02*
D03*
X1825087Y772063D02*
D03*
Y760912D02*
D03*
Y747213D02*
D03*
Y736062D02*
D03*
X505537Y538875D02*
D03*
X495537D02*
D03*
X485537D02*
D03*
X475537D02*
D03*
Y508875D02*
D03*
X485537D02*
D03*
X495537D02*
D03*
X505537D02*
D03*
Y518875D02*
D03*
X495537D02*
D03*
X485537D02*
D03*
X475537D02*
D03*
Y528875D02*
D03*
X485537D02*
D03*
X495537D02*
D03*
X505537D02*
D03*
X499837Y318237D02*
D03*
Y307237D02*
D03*
X488838Y318237D02*
D03*
Y307237D02*
D03*
X477837Y318237D02*
D03*
Y307237D02*
D03*
X466838Y318237D02*
D03*
Y307237D02*
D03*
X455838Y318237D02*
D03*
Y307237D02*
D03*
X760413Y401637D02*
D03*
X1287462Y280987D02*
D03*
X1343806Y292100D02*
D03*
X1393825Y214312D02*
D03*
X1368425Y311150D02*
D03*
X1298575Y196068D02*
D03*
X1322388Y223838D02*
D03*
Y236537D02*
D03*
Y249237D02*
D03*
X1330325Y276225D02*
D03*
X1303531Y321062D02*
D03*
X1319212Y320675D02*
D03*
X1382713Y298450D02*
D03*
X1301701Y239761D02*
D03*
X1290638Y220662D02*
D03*
X1292225Y234950D02*
D03*
X1395412Y298450D02*
D03*
X1402072Y276225D02*
D03*
X1409700Y265112D02*
D03*
X1411288Y342900D02*
D03*
X592137Y847725D02*
D03*
X606425Y889000D02*
D03*
X568325Y847725D02*
D03*
X562301Y853379D02*
D03*
X1894840Y1163320D02*
D03*
X1902460Y1148080D02*
D03*
X1894840Y1132840D02*
D03*
X1902460Y1117600D02*
D03*
X1879600Y1163320D02*
D03*
X1887220Y1148080D02*
D03*
X1871980Y1178560D02*
D03*
X1864360Y1102360D02*
D03*
X1856740Y1178560D02*
D03*
X1849120Y1163320D02*
D03*
X1856740Y1117600D02*
D03*
X1849120Y1102360D02*
D03*
X1841500Y1178560D02*
D03*
X1833880Y1163320D02*
D03*
X1841500Y1148080D02*
D03*
X1833880Y1132840D02*
D03*
X1841500Y1117600D02*
D03*
X1826260Y1178560D02*
D03*
X1818640Y1163320D02*
D03*
X1826260Y1148080D02*
D03*
X1818640Y1132840D02*
D03*
X1811020Y1178560D02*
D03*
X1803400Y1163320D02*
D03*
X1811020Y1148080D02*
D03*
X1803400Y1132840D02*
D03*
X1795780Y1178560D02*
D03*
X1788160Y1163320D02*
D03*
X1795780Y1148080D02*
D03*
X1788160Y1132840D02*
D03*
X1780540Y1178560D02*
D03*
X1772920Y1163320D02*
D03*
X1780540Y1148080D02*
D03*
X1772920Y1132840D02*
D03*
X1765300Y1178560D02*
D03*
X1757680Y1163320D02*
D03*
X1765300Y1148080D02*
D03*
X1757680Y1132840D02*
D03*
X1750060Y1178560D02*
D03*
Y1117600D02*
D03*
X1742440Y1102360D02*
D03*
X1734820Y1178560D02*
D03*
X1727200Y1163320D02*
D03*
X1719580Y1178560D02*
D03*
X1711960Y1163320D02*
D03*
Y1132840D02*
D03*
X1955800Y1026160D02*
D03*
X1963420Y1010920D02*
D03*
X1955800Y995680D02*
D03*
X1940560Y1026160D02*
D03*
X1925320Y1056640D02*
D03*
X1917700Y1071880D02*
D03*
X1910080Y1056640D02*
D03*
X1917700Y1041400D02*
D03*
X1902460Y1071880D02*
D03*
X1894840Y1026160D02*
D03*
X1902460Y1010920D02*
D03*
X1879600Y1056640D02*
D03*
X1887220Y1041400D02*
D03*
X1879600Y1026160D02*
D03*
X1887220Y1010920D02*
D03*
X1871980Y1071880D02*
D03*
Y1041400D02*
D03*
X1856740Y1071880D02*
D03*
Y1041400D02*
D03*
X1841500Y1071880D02*
D03*
X1833880Y1026160D02*
D03*
X1841500Y1010920D02*
D03*
X1833880Y995680D02*
D03*
X1818640Y1026160D02*
D03*
X1826260Y1010920D02*
D03*
X1818640Y995680D02*
D03*
X1803400Y1056640D02*
D03*
X1788160D02*
D03*
X1795780Y1041400D02*
D03*
X1780540D02*
D03*
X1772920Y1026160D02*
D03*
X1765300Y1071880D02*
D03*
X1757680Y1026160D02*
D03*
X1765300Y1010920D02*
D03*
X1750060Y1071880D02*
D03*
X1742440Y1056640D02*
D03*
X1750060Y1010920D02*
D03*
X1734820Y1071880D02*
D03*
Y1041400D02*
D03*
X1719580Y1071880D02*
D03*
X1711960Y1056640D02*
D03*
X1719580Y1041400D02*
D03*
X1711960Y1026160D02*
D03*
X1704340Y1071880D02*
D03*
Y1041400D02*
D03*
X1696720Y1026160D02*
D03*
X1704340Y1010920D02*
D03*
X1696720Y995680D02*
D03*
X1681480Y1026160D02*
D03*
X1689100Y1010920D02*
D03*
X1681480Y995680D02*
D03*
X1666240Y1026160D02*
D03*
X1673860Y1010920D02*
D03*
X1666240Y995680D02*
D03*
X1651000Y1026160D02*
D03*
X1658620Y1010920D02*
D03*
X1651000Y995680D02*
D03*
X1635760Y1026160D02*
D03*
X1643380Y1010920D02*
D03*
X1635760Y995680D02*
D03*
X1743075Y1006475D02*
D03*
X1717675D02*
D03*
X1943100D02*
D03*
X1917700D02*
D03*
X1854200D02*
D03*
X1879600D02*
D03*
X485775Y874713D02*
D03*
X430213Y912489D02*
D03*
X414338Y879475D02*
D03*
X153988Y161925D02*
D03*
Y373063D02*
D03*
X1281113Y1113619D02*
D03*
X1206500Y1150938D02*
D03*
X1371600Y1100137D02*
D03*
X1223962Y720000D02*
D03*
X1201738Y612775D02*
D03*
X1189037Y590550D02*
D03*
X1201738Y565150D02*
D03*
X1207441Y538906D02*
D03*
X1208087Y852487D02*
D03*
X1147763Y528638D02*
D03*
Y582612D02*
D03*
X1162050Y603250D02*
D03*
X1169987Y620713D02*
D03*
X1120766Y518307D02*
D03*
X1079500Y477837D02*
D03*
X1272833Y668800D02*
D03*
X1247775Y646113D02*
D03*
X1274762Y603250D02*
D03*
X1268412Y625475D02*
D03*
Y645331D02*
D03*
X1272259Y653476D02*
D03*
X1280331Y645331D02*
D03*
X1262063Y635000D02*
D03*
X1263650Y652462D02*
D03*
X1260475Y663575D02*
D03*
X1280331Y661084D02*
D03*
X1223962Y665911D02*
D03*
Y673443D02*
D03*
Y681600D02*
D03*
X1245494Y692850D02*
D03*
X1247775Y700088D02*
D03*
X1223962Y742950D02*
D03*
X1154112Y764800D02*
D03*
X1174750Y795338D02*
D03*
X1141413Y781050D02*
D03*
X1179512Y754062D02*
D03*
X1177925Y765175D02*
D03*
Y773112D02*
D03*
Y781050D02*
D03*
X1395412Y284163D02*
D03*
X730250Y249237D02*
D03*
Y225425D02*
D03*
Y273050D02*
D03*
X731837Y290513D02*
D03*
X730250Y323850D02*
D03*
X722312Y354012D02*
D03*
X733425Y379412D02*
D03*
X730250Y392113D02*
D03*
X676275Y249237D02*
D03*
Y225425D02*
D03*
Y273050D02*
D03*
Y296863D02*
D03*
Y320675D02*
D03*
X682625Y355600D02*
D03*
X676275Y368300D02*
D03*
Y392113D02*
D03*
X763587Y201612D02*
D03*
X782637Y192087D02*
D03*
X793750D02*
D03*
X804863D02*
D03*
X827087D02*
D03*
X838200D02*
D03*
X858838Y201612D02*
D03*
X1431925Y271462D02*
D03*
X1374775Y295275D02*
D03*
X1363663Y293687D02*
D03*
X1349375Y266700D02*
D03*
X1325562D02*
D03*
X1397000Y255588D02*
D03*
Y244475D02*
D03*
X1973262Y611188D02*
D03*
X1878013Y596900D02*
D03*
X590550Y1131888D02*
D03*
X609600Y996950D02*
D03*
X790575Y644525D02*
D03*
X781050Y417513D02*
D03*
X125413Y652462D02*
D03*
X1087438Y749300D02*
D03*
X690563Y595312D02*
D03*
X946150Y736600D02*
D03*
X933450D02*
D03*
X920750D02*
D03*
X908050D02*
D03*
X895350D02*
D03*
X552450D02*
D03*
X539750D02*
D03*
X527050D02*
D03*
X514350D02*
D03*
X501650D02*
D03*
X438150D02*
D03*
X431800Y723900D02*
D03*
X1168400Y1041400D02*
D03*
Y1033463D02*
D03*
X1303338Y1093788D02*
D03*
X1347787Y1087438D02*
D03*
Y1071562D02*
D03*
X1568000Y1119513D02*
D03*
X301625Y688340D02*
D03*
Y706120D02*
D03*
Y723900D02*
D03*
Y741680D02*
D03*
Y759460D02*
D03*
X940000Y1114425D02*
D03*
X930275Y1150938D02*
D03*
X921569Y1154066D02*
D03*
X1196975Y1122363D02*
D03*
X879393Y1141198D02*
D03*
X868363Y1144587D02*
D03*
X1031875Y1147763D02*
D03*
X1055687D02*
D03*
X972000Y1149950D02*
D03*
X1011925D02*
D03*
X1123950Y736600D02*
D03*
X1073150D02*
D03*
X1060450D02*
D03*
X1022350D02*
D03*
X1047750D02*
D03*
X1111250D02*
D03*
X1098550D02*
D03*
X1085850D02*
D03*
X1035050D02*
D03*
X1550988Y174625D02*
D03*
X1558925D02*
D03*
X1068388Y571500D02*
D03*
X773112Y747712D02*
D03*
X1450625Y794411D02*
D03*
Y784225D02*
D03*
X1450975Y845356D02*
D03*
X1719263Y812800D02*
D03*
X715800Y599425D02*
D03*
X639762Y1078311D02*
D03*
X647700Y1096963D02*
D03*
X996000Y1159475D02*
D03*
X980000D02*
D03*
X1116012Y976312D02*
D03*
X1581895Y1153270D02*
D03*
X1576145Y1159020D02*
D03*
X1557281Y1148437D02*
D03*
X1560000Y1154112D02*
D03*
X1116000Y1159411D02*
D03*
X1124000D02*
D03*
X1155936D02*
D03*
X1148000Y1159475D02*
D03*
X1156000Y1140425D02*
D03*
X1148000D02*
D03*
X1124000D02*
D03*
X1116000D02*
D03*
X1046500Y1159475D02*
D03*
X1052000Y1140425D02*
D03*
X1060000D02*
D03*
X1092000D02*
D03*
X1084000D02*
D03*
X1068000D02*
D03*
X1076000D02*
D03*
X1435906Y533400D02*
D03*
Y541338D02*
D03*
X1585912Y673100D02*
D03*
X1576387D02*
D03*
X1306512Y677862D02*
D03*
X1316037D02*
D03*
X1108000Y1140425D02*
D03*
X1100000D02*
D03*
X1568000Y1146175D02*
D03*
X1560000Y1141413D02*
D03*
X1585912Y347663D02*
D03*
X932669Y632274D02*
D03*
X555625Y612775D02*
D03*
X957262D02*
D03*
X855663Y620713D02*
D03*
X879475D02*
D03*
X903288D02*
D03*
X908050Y615950D02*
D03*
X896937D02*
D03*
X885825D02*
D03*
X849313Y614362D02*
D03*
X447675D02*
D03*
X484188Y615950D02*
D03*
X495300D02*
D03*
X506413D02*
D03*
X501650Y620713D02*
D03*
X477837D02*
D03*
X454025D02*
D03*
X603250Y698500D02*
D03*
X596900Y685800D02*
D03*
Y660400D02*
D03*
X603250Y647700D02*
D03*
X590550Y698500D02*
D03*
X584200Y685800D02*
D03*
X577850Y698500D02*
D03*
X571500Y685800D02*
D03*
X565150Y698500D02*
D03*
X558800Y685800D02*
D03*
X1009650Y698500D02*
D03*
X1003300Y685800D02*
D03*
Y660400D02*
D03*
X1009650Y647700D02*
D03*
X996950Y698500D02*
D03*
X990600Y685800D02*
D03*
X984250Y698500D02*
D03*
X977900Y685800D02*
D03*
X971550Y698500D02*
D03*
X965200Y685800D02*
D03*
X958850Y698500D02*
D03*
X730250Y736600D02*
D03*
X717550D02*
D03*
X704850D02*
D03*
X679450D02*
D03*
X666750D02*
D03*
X654050D02*
D03*
X641350D02*
D03*
X628650D02*
D03*
X615950D02*
D03*
X1003300Y774700D02*
D03*
X990600D02*
D03*
X977900D02*
D03*
X965200D02*
D03*
X889000D02*
D03*
X876300D02*
D03*
X863600D02*
D03*
X850900D02*
D03*
X838200D02*
D03*
X825500D02*
D03*
X812800D02*
D03*
Y749300D02*
D03*
X800100Y774700D02*
D03*
X806450Y762000D02*
D03*
X800100Y749300D02*
D03*
X806450Y736600D02*
D03*
X609600Y774700D02*
D03*
X596900D02*
D03*
X584200D02*
D03*
X571500D02*
D03*
X558800D02*
D03*
X482600D02*
D03*
X469900D02*
D03*
X457200D02*
D03*
X444500D02*
D03*
X431800D02*
D03*
X419100D02*
D03*
X406400D02*
D03*
X412750Y762000D02*
D03*
X406400Y749300D02*
D03*
X412750Y736600D02*
D03*
X406400Y723900D02*
D03*
X412750Y711200D02*
D03*
X393700Y774700D02*
D03*
X400050Y762000D02*
D03*
X393700Y749300D02*
D03*
X400050Y711200D02*
D03*
X381000Y774700D02*
D03*
X387350Y762000D02*
D03*
X381000Y749300D02*
D03*
X387350Y711200D02*
D03*
X368300Y774700D02*
D03*
X374650Y762000D02*
D03*
X368300Y749300D02*
D03*
X374650Y711200D02*
D03*
X368300Y698500D02*
D03*
X374650Y685800D02*
D03*
X368300Y673100D02*
D03*
X355600Y774700D02*
D03*
X361950Y762000D02*
D03*
X355600Y749300D02*
D03*
X361950Y711200D02*
D03*
X355600Y698500D02*
D03*
X361950Y685800D02*
D03*
X355600Y673100D02*
D03*
X261620Y875030D02*
D03*
X270510D02*
D03*
X301625Y795020D02*
D03*
Y830580D02*
D03*
X266065Y883920D02*
D03*
X301625Y812800D02*
D03*
X243840Y875030D02*
D03*
X274955Y866140D02*
D03*
X288290Y875030D02*
D03*
X301625Y848360D02*
D03*
X283845Y866140D02*
D03*
X279400Y875030D02*
D03*
X274955Y883920D02*
D03*
X283845D02*
D03*
X301625Y873125D02*
D03*
Y879475D02*
D03*
X246063Y906462D02*
D03*
X247650Y835025D02*
D03*
X244475Y673100D02*
D03*
Y681038D02*
D03*
Y720725D02*
D03*
Y688975D02*
D03*
Y696913D02*
D03*
Y704850D02*
D03*
Y728662D02*
D03*
Y712787D02*
D03*
Y736600D02*
D03*
X247650Y819150D02*
D03*
X325438Y782637D02*
D03*
X247650Y827087D02*
D03*
Y795338D02*
D03*
Y803275D02*
D03*
X750888Y666750D02*
D03*
X681038Y628650D02*
D03*
X677862Y676275D02*
D03*
Y684212D02*
D03*
Y692150D02*
D03*
Y700088D02*
D03*
Y668337D02*
D03*
Y660400D02*
D03*
X731837Y676275D02*
D03*
Y684212D02*
D03*
Y692150D02*
D03*
Y700088D02*
D03*
Y668337D02*
D03*
Y660400D02*
D03*
X1079500D02*
D03*
Y668337D02*
D03*
Y700088D02*
D03*
Y692150D02*
D03*
Y684212D02*
D03*
Y676275D02*
D03*
X1133475Y660400D02*
D03*
Y668337D02*
D03*
Y700088D02*
D03*
Y692150D02*
D03*
Y684212D02*
D03*
Y676275D02*
D03*
X1711325Y577850D02*
D03*
X1654175Y581025D02*
D03*
X1211263Y518307D02*
D03*
Y527050D02*
D03*
X1208087Y482600D02*
D03*
X1212850Y501650D02*
D03*
X1811337Y668337D02*
D03*
X1728788Y669925D02*
D03*
X1647825Y725488D02*
D03*
Y806450D02*
D03*
X1773237Y727075D02*
D03*
X811212Y976312D02*
D03*
X1495425Y400050D02*
D03*
X1927225Y660400D02*
D03*
X1689100Y812800D02*
D03*
X1672419Y588963D02*
D03*
X1431532Y802700D02*
D03*
X1636712Y476250D02*
D03*
X1606550Y479425D02*
D03*
X1582737Y528638D02*
D03*
X1579563Y455612D02*
D03*
X1546225Y384175D02*
D03*
X1141413Y404813D02*
D03*
X1138238Y417513D02*
D03*
X739775Y849313D02*
D03*
X1068388Y592137D02*
D03*
Y625475D02*
D03*
X1079500Y617395D02*
D03*
X1020762Y550863D02*
D03*
X948580Y369045D02*
D03*
X1704975Y827087D02*
D03*
Y719137D02*
D03*
X1693862Y720725D02*
D03*
X1135062Y787400D02*
D03*
X1169987Y788988D02*
D03*
X1339850Y842962D02*
D03*
X968375Y611188D02*
D03*
X1458913Y236537D02*
D03*
X1409700Y198438D02*
D03*
X1147763Y242887D02*
D03*
Y415925D02*
D03*
X1709738Y207962D02*
D03*
X895350Y230187D02*
D03*
X966787Y413531D02*
D03*
X892231Y420155D02*
D03*
X885825Y415925D02*
D03*
X946150Y413531D02*
D03*
X823913Y884238D02*
D03*
X833438Y901700D02*
D03*
X1055687D02*
D03*
X1670050Y876300D02*
D03*
X1685925D02*
D03*
X1654175D02*
D03*
X1638300D02*
D03*
X1662112Y884238D02*
D03*
X1677988D02*
D03*
X1646237D02*
D03*
X1670050Y892175D02*
D03*
X1685925D02*
D03*
X1654175D02*
D03*
X1638300D02*
D03*
X1662112Y900113D02*
D03*
X1677988D02*
D03*
X1646237D02*
D03*
X1638300Y908050D02*
D03*
X1654175D02*
D03*
X1685925D02*
D03*
X1670050D02*
D03*
X1673225Y782637D02*
D03*
X1666875Y596900D02*
D03*
X1735137Y801687D02*
D03*
X1747838Y798512D02*
D03*
X1734392Y677117D02*
D03*
X1747838Y661988D02*
D03*
X1755775Y785813D02*
D03*
X1771650Y788988D02*
D03*
X1778000Y619125D02*
D03*
X1768475D02*
D03*
X1903412D02*
D03*
X1898650Y612775D02*
D03*
X1763712Y782637D02*
D03*
X1169987Y939800D02*
D03*
X1177925Y931862D02*
D03*
X1138238Y942975D02*
D03*
X1146175Y941387D02*
D03*
X1152525Y933450D02*
D03*
X1157288Y927100D02*
D03*
X1152525Y920750D02*
D03*
X1157288Y914400D02*
D03*
X1743075Y479425D02*
D03*
X1751013Y417513D02*
D03*
X771525Y901700D02*
D03*
X1814512Y361950D02*
D03*
X1773237Y469907D02*
D03*
X771525Y890587D02*
D03*
Y879475D02*
D03*
Y868363D02*
D03*
X1665287Y412750D02*
D03*
X911225Y868363D02*
D03*
X1930400Y742950D02*
D03*
X911225Y846137D02*
D03*
X1692275Y230187D02*
D03*
X1673225Y719137D02*
D03*
X1703387Y282575D02*
D03*
X1267667Y854820D02*
D03*
X1238250Y946150D02*
D03*
X1270000Y998538D02*
D03*
X1163637Y908050D02*
D03*
X1185863Y1042988D02*
D03*
X1192213Y1036637D02*
D03*
X1235075D02*
D03*
X1255713Y969962D02*
D03*
X1257300Y982663D02*
D03*
X1587500Y755650D02*
D03*
X1606550Y747712D02*
D03*
X1625600Y763587D02*
D03*
X1728788Y661988D02*
D03*
X1747838Y671513D02*
D03*
X1776413Y668337D02*
D03*
X1795462Y649287D02*
D03*
X1770063Y657225D02*
D03*
X1757363Y700088D02*
D03*
X1517000Y762650D02*
D03*
X1608138Y674688D02*
D03*
X1909763Y695325D02*
D03*
X1785938Y636587D02*
D03*
X1779588Y642937D02*
D03*
X1914525Y603250D02*
D03*
X1892300D02*
D03*
X1779588Y655638D02*
D03*
Y681038D02*
D03*
X1781175Y693737D02*
D03*
X1785938Y700088D02*
D03*
X1395412Y306388D02*
D03*
X1387475Y314325D02*
D03*
X1395412Y317500D02*
D03*
X1512888Y288925D02*
D03*
X1554162D02*
D03*
X1531938D02*
D03*
X1487487D02*
D03*
X1345419Y749300D02*
D03*
X1147763Y469900D02*
D03*
X1435100Y963613D02*
D03*
X1438275Y861231D02*
D03*
X1406525Y354012D02*
D03*
X1427348Y352239D02*
D03*
X1438275Y354012D02*
D03*
X1428750Y365125D02*
D03*
X1438275Y366712D02*
D03*
X1420813Y379412D02*
D03*
X1576387Y500062D02*
D03*
X1570038Y495300D02*
D03*
X1562100Y492125D02*
D03*
X1177925Y385762D02*
D03*
X1185863Y384175D02*
D03*
X1177925Y369888D02*
D03*
X1185863Y368300D02*
D03*
X1177925Y354012D02*
D03*
X1185863Y352425D02*
D03*
X1177925Y338138D02*
D03*
X1185863Y336550D02*
D03*
X1385887Y1104900D02*
D03*
X1154112Y944563D02*
D03*
X498475Y371475D02*
D03*
X1084262Y339725D02*
D03*
X1076325Y344487D02*
D03*
X725488Y817562D02*
D03*
X688975Y874713D02*
D03*
X993775Y890587D02*
D03*
X1854200Y889000D02*
D03*
X1879600D02*
D03*
X1881187Y800100D02*
D03*
X1873250Y803275D02*
D03*
X1850587Y802838D02*
D03*
X1860550Y804863D02*
D03*
X1836738Y803275D02*
D03*
X1830388Y808037D02*
D03*
X1814512Y803275D02*
D03*
X1809750Y796925D02*
D03*
X1798638Y466725D02*
D03*
X1722437Y396875D02*
D03*
X1876425Y334963D02*
D03*
X1971675Y404813D02*
D03*
X658812Y868363D02*
D03*
Y854075D02*
D03*
X708025Y823913D02*
D03*
Y836612D02*
D03*
Y830263D02*
D03*
X1410482Y1042988D02*
D03*
X1411288Y1035050D02*
D03*
X1374775Y1022350D02*
D03*
X1393825Y1028700D02*
D03*
X1395412Y1044575D02*
D03*
X1341438Y1042988D02*
D03*
X1352550D02*
D03*
Y1062038D02*
D03*
X1368425D02*
D03*
Y1071562D02*
D03*
X1382713Y1052513D02*
D03*
X1368425Y1046162D02*
D03*
X1358900Y1093788D02*
D03*
X1363663Y1100137D02*
D03*
X1384300Y1087438D02*
D03*
X1400175Y1100137D02*
D03*
X1392238Y1116012D02*
D03*
X1384300Y1014413D02*
D03*
X1392238Y1011237D02*
D03*
X1400175Y1009650D02*
D03*
X763587Y1143000D02*
D03*
X755650D02*
D03*
X904950Y1146775D02*
D03*
X781050Y1045357D02*
D03*
X814463Y1142012D02*
D03*
X806525Y1146775D02*
D03*
X947812D02*
D03*
X939875Y1149950D02*
D03*
X844550Y994581D02*
D03*
X827087D02*
D03*
X679070Y862393D02*
D03*
X498475Y855663D02*
D03*
X573088Y889000D02*
D03*
X708025Y854075D02*
D03*
X761194Y1031094D02*
D03*
X749300Y1042988D02*
D03*
X868363Y982663D02*
D03*
Y992188D02*
D03*
X755650Y1058863D02*
D03*
X1427162Y931862D02*
D03*
X1417637Y985837D02*
D03*
Y998538D02*
D03*
X1282700Y901700D02*
D03*
Y931862D02*
D03*
X1190675Y1001281D02*
D03*
X1422400Y901700D02*
D03*
X1477962Y957262D02*
D03*
X1538288Y949325D02*
D03*
X1543050Y957262D02*
D03*
X1500188Y915987D02*
D03*
X1493837Y893763D02*
D03*
X1508125Y919163D02*
D03*
X1512888Y927100D02*
D03*
X1524000Y912812D02*
D03*
X1516062Y906462D02*
D03*
X1528763Y919163D02*
D03*
X1531938Y932571D02*
D03*
X1574800Y1109662D02*
D03*
X1522500Y1119187D02*
D03*
X1512888Y1112838D02*
D03*
X1508125Y1119187D02*
D03*
X1525500Y1109662D02*
D03*
X1533500D02*
D03*
X1758950Y482600D02*
D03*
X1814512Y401637D02*
D03*
X1808163Y407988D02*
D03*
X1463675Y338138D02*
D03*
X1458913Y1108075D02*
D03*
X1477962D02*
D03*
X1480000Y1120775D02*
D03*
X1439863Y1103313D02*
D03*
X1446212Y1108075D02*
D03*
X1452563Y1103313D02*
D03*
X1501775Y1106488D02*
D03*
X1477962Y1023938D02*
D03*
X1452563Y1065212D02*
D03*
X1456000Y1158875D02*
D03*
X1450500Y1143000D02*
D03*
X1512000D02*
D03*
X1439863Y1149350D02*
D03*
X1432000Y1120775D02*
D03*
X1424000D02*
D03*
X1488000D02*
D03*
X1133475Y901700D02*
D03*
Y879475D02*
D03*
Y857250D02*
D03*
Y835025D02*
D03*
X1601788Y712787D02*
D03*
X1548618Y409575D02*
D03*
X1497012Y1047750D02*
D03*
X1420813Y1036637D02*
D03*
X1431925Y1030287D02*
D03*
X1433513Y1020762D02*
D03*
X1609725Y712787D02*
D03*
X1457325Y1057275D02*
D03*
X1463675Y363537D02*
D03*
X1544000Y1158875D02*
D03*
X1536000D02*
D03*
X1528000D02*
D03*
X1520000D02*
D03*
X1504000D02*
D03*
X1496000D02*
D03*
X1488000D02*
D03*
X1424000D02*
D03*
X1432000D02*
D03*
X1440000D02*
D03*
X1464000D02*
D03*
X1472000D02*
D03*
X1480000D02*
D03*
X1133475Y890587D02*
D03*
X1384300Y1028700D02*
D03*
X683925Y1112838D02*
D03*
X718500Y1145188D02*
D03*
X748000Y1149950D02*
D03*
X935038Y969962D02*
D03*
X963613Y971550D02*
D03*
X979488Y992188D02*
D03*
X1008063Y996950D02*
D03*
X971550Y985837D02*
D03*
X1006475Y1004887D02*
D03*
X996950D02*
D03*
X987425D02*
D03*
X1017588Y1003300D02*
D03*
X954088Y1004887D02*
D03*
X944563D02*
D03*
X1016075Y1143600D02*
D03*
X1004000Y1140425D02*
D03*
X972000D02*
D03*
X738187Y1063625D02*
D03*
X887412Y998538D02*
D03*
X906462D02*
D03*
X731925Y1112838D02*
D03*
X699925D02*
D03*
X907925Y1114425D02*
D03*
X913650Y1147581D02*
D03*
X916000Y1140425D02*
D03*
X866775Y1007281D02*
D03*
X1028700Y1008868D02*
D03*
X836612Y1013631D02*
D03*
X820738Y1016806D02*
D03*
X812800Y1025525D02*
D03*
X808037Y1034268D02*
D03*
X766762Y1061256D02*
D03*
X747712Y1068388D02*
D03*
X833438Y1040619D02*
D03*
X860425D02*
D03*
X801687Y1052513D02*
D03*
X793750Y1058081D02*
D03*
X787400Y1063625D02*
D03*
X738187Y1085850D02*
D03*
X729425Y1087438D02*
D03*
X900113Y1049337D02*
D03*
X703037Y1081087D02*
D03*
X715963D02*
D03*
X894425Y1069975D02*
D03*
X707925Y1087438D02*
D03*
X715963Y1096181D02*
D03*
X881062Y1079500D02*
D03*
X873425Y1082675D02*
D03*
X784225Y1092200D02*
D03*
X771925Y1096181D02*
D03*
X857250Y1092200D02*
D03*
X843925Y1096181D02*
D03*
X691925Y1112838D02*
D03*
X755925D02*
D03*
X947925Y1109475D02*
D03*
X1020000Y1159475D02*
D03*
X1028000D02*
D03*
X932000D02*
D03*
X1639577Y343211D02*
D03*
X1560513Y342900D02*
D03*
X478582Y464296D02*
D03*
X412750Y440169D02*
D03*
X915987Y425450D02*
D03*
X920750Y401637D02*
D03*
X1808163Y568325D02*
D03*
X958850Y401637D02*
D03*
X942975Y355600D02*
D03*
X503237Y358775D02*
D03*
X404813Y254000D02*
D03*
Y338138D02*
D03*
X500062Y401637D02*
D03*
X481012D02*
D03*
X939800D02*
D03*
X1314450Y806450D02*
D03*
X1319212Y800100D02*
D03*
X1281113Y831850D02*
D03*
X1303338Y815975D02*
D03*
X1468438Y387350D02*
D03*
X1450975Y342900D02*
D03*
X1479550Y400050D02*
D03*
X1495425Y411162D02*
D03*
X1341438Y488950D02*
D03*
X1503362Y411162D02*
D03*
X1109662Y912812D02*
D03*
X1293813Y841375D02*
D03*
X1300163Y846137D02*
D03*
X1287462Y836612D02*
D03*
X1520825Y411162D02*
D03*
X1319212Y812800D02*
D03*
X1487487Y411162D02*
D03*
X1328737Y488950D02*
D03*
X1347787Y484188D02*
D03*
X1511300Y411162D02*
D03*
X1260475Y838200D02*
D03*
X804000Y1159475D02*
D03*
X796000D02*
D03*
X788000D02*
D03*
X780000D02*
D03*
X772000D02*
D03*
X684000D02*
D03*
X692000D02*
D03*
X700000D02*
D03*
X708000D02*
D03*
X716000D02*
D03*
X724000D02*
D03*
X732000D02*
D03*
X740000D02*
D03*
X748000D02*
D03*
X1274762Y827087D02*
D03*
X1293813Y808037D02*
D03*
X1552575Y390525D02*
D03*
X1549400Y398462D02*
D03*
X940000Y1159475D02*
D03*
X908000D02*
D03*
X892000D02*
D03*
X884000D02*
D03*
X820000D02*
D03*
X828000D02*
D03*
X836000D02*
D03*
X844000D02*
D03*
X852000D02*
D03*
X860000D02*
D03*
X876000D02*
D03*
X1520825Y325417D02*
D03*
X493713Y433387D02*
D03*
X814388Y440169D02*
D03*
X930275Y401637D02*
D03*
X949325D02*
D03*
X490537D02*
D03*
X509588D02*
D03*
X1808163Y558800D02*
D03*
X1684337Y554038D02*
D03*
X1336675Y536575D02*
D03*
X1282700Y527050D02*
D03*
X1279525Y595312D02*
D03*
X1004000Y1159475D02*
D03*
X956000D02*
D03*
X964000D02*
D03*
X988000D02*
D03*
X996903Y506525D02*
D03*
X884155Y455530D02*
D03*
X892175Y465137D02*
D03*
X889000Y473075D02*
D03*
X465137Y416707D02*
D03*
X1617663Y712787D02*
D03*
X1592263D02*
D03*
X1727200Y412750D02*
D03*
X1728788Y615950D02*
D03*
Y625475D02*
D03*
Y633413D02*
D03*
Y641350D02*
D03*
X1544000Y1141413D02*
D03*
X1552000Y1158875D02*
D03*
X1132000Y1140425D02*
D03*
X1140000D02*
D03*
Y1159475D02*
D03*
X1132000D02*
D03*
X1108000D02*
D03*
X1100000D02*
D03*
X1092000D02*
D03*
X1084000D02*
D03*
X1076000D02*
D03*
X1068000D02*
D03*
X1028000Y1140425D02*
D03*
X947812Y1159475D02*
D03*
X1490663Y1003300D02*
D03*
X1423987Y1027113D02*
D03*
X1471613Y1068388D02*
D03*
X1481138D02*
D03*
X1423987Y1071562D02*
D03*
X1279525Y679450D02*
D03*
X1339850Y823913D02*
D03*
X1408112Y847725D02*
D03*
X1514475Y866775D02*
D03*
X1479550Y874713D02*
D03*
X1482725Y884238D02*
D03*
X1485900Y893763D02*
D03*
X228600Y776288D02*
D03*
X1697038Y625475D02*
D03*
Y633413D02*
D03*
Y641350D02*
D03*
X1628775Y771525D02*
D03*
X1509713Y341312D02*
D03*
X1808163Y461963D02*
D03*
X1463675Y352425D02*
D03*
X1470025Y277812D02*
D03*
X1479550Y344487D02*
D03*
Y384175D02*
D03*
Y392113D02*
D03*
X1527175Y417513D02*
D03*
X1681163Y619125D02*
D03*
X1660525Y609600D02*
D03*
X1652587D02*
D03*
X1643062D02*
D03*
X1630363Y600075D02*
D03*
X1624012Y593725D02*
D03*
X1255713Y611188D02*
D03*
X1262063Y617537D02*
D03*
X1298575Y609600D02*
D03*
X1317625Y584200D02*
D03*
X1325562Y599294D02*
D03*
X1287462Y582612D02*
D03*
X1293813Y598488D02*
D03*
X1311275Y608013D02*
D03*
X1244600Y514350D02*
D03*
X1304925Y523875D02*
D03*
X1287462Y552450D02*
D03*
X1293813Y547687D02*
D03*
X1301750Y542925D02*
D03*
X1311275D02*
D03*
X1714500Y430213D02*
D03*
X1719263Y474663D02*
D03*
X1817688Y461963D02*
D03*
X1797050Y474663D02*
D03*
X1738313Y342900D02*
D03*
X1721387Y328075D02*
D03*
X1741487Y282575D02*
D03*
Y244475D02*
D03*
X1795462Y317500D02*
D03*
X1708150Y477837D02*
D03*
Y439738D02*
D03*
X1724025Y450850D02*
D03*
Y442912D02*
D03*
X1746250Y471488D02*
D03*
X1757363Y457200D02*
D03*
X1790700Y450850D02*
D03*
Y442912D02*
D03*
X1719263Y206375D02*
D03*
X1744662Y215900D02*
D03*
Y196850D02*
D03*
X1704975Y430213D02*
D03*
X1801812Y417513D02*
D03*
X1944688Y392113D02*
D03*
Y384175D02*
D03*
X1905000Y358775D02*
D03*
X1968500Y303213D02*
D03*
X1919288Y444500D02*
D03*
X1900237Y447675D02*
D03*
X1884362Y423862D02*
D03*
X1909763Y425450D02*
D03*
X1862137Y419100D02*
D03*
X1911350Y398462D02*
D03*
X1862137Y381000D02*
D03*
X1878013Y392113D02*
D03*
Y384175D02*
D03*
X1900237Y412750D02*
D03*
X1858963Y371475D02*
D03*
X1955800Y358775D02*
D03*
X763587Y644525D02*
D03*
X920750Y369888D02*
D03*
X684212Y454025D02*
D03*
X290513Y412750D02*
D03*
X377825Y490537D02*
D03*
X488950Y649287D02*
D03*
X439738Y660400D02*
D03*
Y647700D02*
D03*
X291814Y390262D02*
D03*
X288925Y204788D02*
D03*
X527050Y419100D02*
D03*
X388937Y401637D02*
D03*
Y357188D02*
D03*
X976312Y415925D02*
D03*
X1028700Y446087D02*
D03*
X1031875Y454025D02*
D03*
X869950Y425450D02*
D03*
X863600Y506413D02*
D03*
Y515938D02*
D03*
Y498475D02*
D03*
X846137Y439738D02*
D03*
X860425Y431800D02*
D03*
X733425Y401637D02*
D03*
X696913Y422275D02*
D03*
X490537Y420687D02*
D03*
X468312Y431800D02*
D03*
X528638Y628650D02*
D03*
X730250Y482600D02*
D03*
X485775Y414338D02*
D03*
X460375Y427038D02*
D03*
X524681Y620713D02*
D03*
X723900Y590550D02*
D03*
X877887Y379412D02*
D03*
X890587D02*
D03*
X903288D02*
D03*
X930275D02*
D03*
X920750Y352425D02*
D03*
X939800Y379412D02*
D03*
X949325D02*
D03*
X438150D02*
D03*
X450850D02*
D03*
X463550D02*
D03*
X509588D02*
D03*
X500062D02*
D03*
X490537D02*
D03*
X141287Y242887D02*
D03*
X133350D02*
D03*
X125413D02*
D03*
X117475D02*
D03*
X149225Y220662D02*
D03*
X141287D02*
D03*
X133350D02*
D03*
X125413D02*
D03*
X117475D02*
D03*
X77787Y242887D02*
D03*
X69850D02*
D03*
X61912D02*
D03*
X53975D02*
D03*
X85725Y220662D02*
D03*
X77787D02*
D03*
X69850D02*
D03*
X61912D02*
D03*
X53975D02*
D03*
X163512Y454025D02*
D03*
X141287D02*
D03*
X133350D02*
D03*
X125413D02*
D03*
X149225Y431800D02*
D03*
X141287D02*
D03*
X133350D02*
D03*
X125413D02*
D03*
X117475D02*
D03*
X77787Y454025D02*
D03*
X69850D02*
D03*
X61912D02*
D03*
Y431800D02*
D03*
X85725D02*
D03*
X77787D02*
D03*
X69850D02*
D03*
X1746250Y494665D02*
D03*
X1758950D02*
D03*
X1752600D02*
D03*
X1746250Y521335D02*
D03*
X1758950D02*
D03*
X1752600D02*
D03*
X1706562Y494665D02*
D03*
X1768475Y596900D02*
D03*
X1866900Y869950D02*
D03*
X1692275Y676275D02*
D03*
X1641475Y677862D02*
D03*
Y655638D02*
D03*
X1630363Y661988D02*
D03*
X1244600Y552450D02*
D03*
X1255713Y522287D02*
D03*
X1354138Y488950D02*
D03*
X1335087Y484188D02*
D03*
X1611313Y346075D02*
D03*
X1666875Y373063D02*
D03*
X1651000D02*
D03*
X1643062D02*
D03*
X1635125D02*
D03*
X1627188D02*
D03*
X1619362Y376237D02*
D03*
X1658938Y381000D02*
D03*
X1611313Y365125D02*
D03*
X1647863Y352425D02*
D03*
X1571625Y128588D02*
D03*
X1585912D02*
D03*
X1398587Y222250D02*
D03*
X1347787Y333375D02*
D03*
X1660525Y211138D02*
D03*
X1674812Y325438D02*
D03*
X1630363D02*
D03*
X1631950Y339388D02*
D03*
X1189037Y244000D02*
D03*
X1176338Y252000D02*
D03*
Y260000D02*
D03*
X1284288Y227013D02*
D03*
X1273175Y233363D02*
D03*
X1265238Y239713D02*
D03*
X1290638Y252412D02*
D03*
X1284288Y257175D02*
D03*
X1268412Y274638D02*
D03*
X1271588Y282575D02*
D03*
X1254125Y260350D02*
D03*
X1247775Y266700D02*
D03*
X1254125Y273050D02*
D03*
X1247775Y279400D02*
D03*
X1254125Y285750D02*
D03*
X1247775Y292000D02*
D03*
X1254125Y298450D02*
D03*
X1247775Y304800D02*
D03*
X1284288Y361950D02*
D03*
X1298575Y371475D02*
D03*
X1249362Y365125D02*
D03*
X1255648Y371475D02*
D03*
X1311275Y377825D02*
D03*
X1327150Y381000D02*
D03*
X1346200D02*
D03*
X1374775Y393700D02*
D03*
X1249362Y377825D02*
D03*
X1255648Y384175D02*
D03*
X1249362Y390525D02*
D03*
X1255648Y396875D02*
D03*
X1249362Y403225D02*
D03*
X1255713Y409575D02*
D03*
X1249362Y415925D02*
D03*
Y428625D02*
D03*
X1255648Y422275D02*
D03*
X1322388Y257175D02*
D03*
X1331913Y288925D02*
D03*
X1535112Y438150D02*
D03*
X1450975Y434975D02*
D03*
X1525587Y436562D02*
D03*
X1519238Y442912D02*
D03*
X1322388Y296863D02*
D03*
X1525587Y455612D02*
D03*
X1495425Y447675D02*
D03*
X1484312Y457200D02*
D03*
X1498600Y476250D02*
D03*
X1500188Y488950D02*
D03*
X1511300Y463550D02*
D03*
X1441450Y430213D02*
D03*
X1465262Y454025D02*
D03*
X1169987Y452000D02*
D03*
Y444000D02*
D03*
Y420000D02*
D03*
Y428000D02*
D03*
Y436000D02*
D03*
X1298575Y463550D02*
D03*
X1316037Y492125D02*
D03*
X1303338Y496888D02*
D03*
X1276350Y458787D02*
D03*
X1257300Y508000D02*
D03*
X1263650Y501650D02*
D03*
X1257300Y495300D02*
D03*
X1263650Y488950D02*
D03*
X1257300Y482600D02*
D03*
X1263650Y476250D02*
D03*
X1257300Y469900D02*
D03*
X1263650Y463550D02*
D03*
X1430338Y423862D02*
D03*
X1420813Y404813D02*
D03*
X1368425Y355600D02*
D03*
X1358900Y339725D02*
D03*
X1404937Y415925D02*
D03*
X1392238Y396875D02*
D03*
X1355725Y352425D02*
D03*
X1343025Y346075D02*
D03*
X1385887Y412750D02*
D03*
X1339850Y330200D02*
D03*
X1303338Y265112D02*
D03*
X1323975Y327025D02*
D03*
X1293813Y301625D02*
D03*
X1300163Y314325D02*
D03*
X1293813Y309562D02*
D03*
X1277937Y307975D02*
D03*
X1169987Y476000D02*
D03*
Y468000D02*
D03*
Y460000D02*
D03*
Y412000D02*
D03*
Y404000D02*
D03*
Y396000D02*
D03*
Y276000D02*
D03*
Y284000D02*
D03*
Y292000D02*
D03*
Y300000D02*
D03*
Y308000D02*
D03*
Y316000D02*
D03*
Y324000D02*
D03*
Y244000D02*
D03*
Y252000D02*
D03*
Y268000D02*
D03*
Y260000D02*
D03*
X1852612Y855663D02*
D03*
X1930400Y869950D02*
D03*
X1898650Y138112D02*
D03*
Y157163D02*
D03*
X1857375Y557088D02*
D03*
X1973262Y593725D02*
D03*
X1922462D02*
D03*
X1871662Y423862D02*
D03*
X1973262Y425450D02*
D03*
X1922462D02*
D03*
X1857375Y461963D02*
D03*
X1433450Y547687D02*
D03*
X1447737Y555625D02*
D03*
X1495425Y377825D02*
D03*
Y355600D02*
D03*
X1577975Y587375D02*
D03*
Y565150D02*
D03*
X1584325Y564981D02*
D03*
X1589088Y587375D02*
D03*
X1590675Y565150D02*
D03*
X1606550Y574675D02*
D03*
X1546225Y376237D02*
D03*
X1571625Y669925D02*
D03*
X1563687Y684212D02*
D03*
X1616075Y676275D02*
D03*
X1344612Y762000D02*
D03*
X1333500D02*
D03*
X1439863Y771525D02*
D03*
X1319212Y773112D02*
D03*
X1310054D02*
D03*
X1454150Y779463D02*
D03*
X1333500Y784225D02*
D03*
X1341438D02*
D03*
X1404937Y819150D02*
D03*
X1385887Y822325D02*
D03*
X1450975D02*
D03*
X1347787Y828675D02*
D03*
X1355725D02*
D03*
X1447800Y833438D02*
D03*
X1539875Y758825D02*
D03*
X1562100D02*
D03*
X1539875Y769938D02*
D03*
X1562100D02*
D03*
X1570038D02*
D03*
X1550988Y785813D02*
D03*
X1474787Y833438D02*
D03*
X1362075D02*
D03*
X1389062D02*
D03*
X1539875Y839788D02*
D03*
X1314450Y531813D02*
D03*
X1327150Y569912D02*
D03*
Y581025D02*
D03*
X1335087Y552450D02*
D03*
X1352012Y569912D02*
D03*
X1358900Y531813D02*
D03*
X1320800Y681038D02*
D03*
X1328737Y666750D02*
D03*
X358775Y620713D02*
D03*
X534987Y434975D02*
D03*
X287337Y158750D02*
D03*
X471223Y272270D02*
D03*
X319088Y617537D02*
D03*
X128588Y673100D02*
D03*
Y681038D02*
D03*
Y688975D02*
D03*
Y696913D02*
D03*
Y736600D02*
D03*
Y728662D02*
D03*
Y720725D02*
D03*
Y712787D02*
D03*
Y704850D02*
D03*
X220662Y828675D02*
D03*
Y836612D02*
D03*
Y860425D02*
D03*
Y852487D02*
D03*
Y844550D02*
D03*
X165100Y868363D02*
D03*
X157163D02*
D03*
X149225D02*
D03*
X141287D02*
D03*
X133350Y828675D02*
D03*
Y836612D02*
D03*
Y868363D02*
D03*
Y860425D02*
D03*
Y852487D02*
D03*
Y844550D02*
D03*
X190500Y584200D02*
D03*
Y558800D02*
D03*
X177800Y584200D02*
D03*
X184150Y571500D02*
D03*
X177800Y558800D02*
D03*
X165100Y584200D02*
D03*
X171450Y571500D02*
D03*
X165100Y558800D02*
D03*
X152400Y584200D02*
D03*
X158750Y571500D02*
D03*
X152400Y558800D02*
D03*
X139700Y584200D02*
D03*
X146050Y571500D02*
D03*
X139700Y558800D02*
D03*
X127000Y584200D02*
D03*
X133350Y571500D02*
D03*
X127000Y558800D02*
D03*
X114300Y584200D02*
D03*
X120650Y571500D02*
D03*
X114300Y558800D02*
D03*
X101600Y584200D02*
D03*
X107950Y571500D02*
D03*
X101600Y558800D02*
D03*
X88900Y584200D02*
D03*
X95250Y571500D02*
D03*
X88900Y558800D02*
D03*
X76200Y584200D02*
D03*
X82550Y571500D02*
D03*
X76200Y558800D02*
D03*
X63500Y838200D02*
D03*
X69850Y825500D02*
D03*
X63500Y812800D02*
D03*
X69850Y800100D02*
D03*
X63500Y787400D02*
D03*
X69850Y774700D02*
D03*
X63500Y762000D02*
D03*
X69850Y749300D02*
D03*
X63500Y736600D02*
D03*
X69850Y723900D02*
D03*
X63500Y711200D02*
D03*
X69850Y698500D02*
D03*
X63500Y685800D02*
D03*
X69850Y673100D02*
D03*
X63500Y660400D02*
D03*
X69850Y647700D02*
D03*
X63500Y635000D02*
D03*
X69850Y622300D02*
D03*
X63500Y609600D02*
D03*
X69850Y596900D02*
D03*
X63500Y584200D02*
D03*
X69850Y571500D02*
D03*
X63500Y558800D02*
D03*
X57150Y596900D02*
D03*
X50800Y584200D02*
D03*
X57150Y571500D02*
D03*
X50800Y558800D02*
D03*
X292100Y1066800D02*
D03*
X298450Y1054100D02*
D03*
X292100Y1041400D02*
D03*
X298450Y1028700D02*
D03*
X292100Y1016000D02*
D03*
X298450Y1003300D02*
D03*
X292100Y990600D02*
D03*
X298450Y977900D02*
D03*
X292100Y965200D02*
D03*
X298450Y952500D02*
D03*
X292100Y939800D02*
D03*
X298450Y927100D02*
D03*
X279400Y1066800D02*
D03*
X285750Y1054100D02*
D03*
X279400Y1041400D02*
D03*
X285750Y1028700D02*
D03*
X279400Y1016000D02*
D03*
X285750Y1003300D02*
D03*
X279400Y990600D02*
D03*
X285750Y977900D02*
D03*
X279400Y965200D02*
D03*
X285750Y952500D02*
D03*
X279400Y939800D02*
D03*
X285750Y927100D02*
D03*
X266700Y1066800D02*
D03*
X273050Y1054100D02*
D03*
X266700Y1041400D02*
D03*
X273050Y1028700D02*
D03*
X266700Y1016000D02*
D03*
X273050Y1003300D02*
D03*
X266700Y990600D02*
D03*
X273050Y977900D02*
D03*
X266700Y965200D02*
D03*
X273050Y952500D02*
D03*
X266700Y939800D02*
D03*
X273050Y927100D02*
D03*
X254000Y1066800D02*
D03*
X260350Y1054100D02*
D03*
X254000Y1041400D02*
D03*
X260350Y1028700D02*
D03*
X254000Y1016000D02*
D03*
X260350Y1003300D02*
D03*
X254000Y990600D02*
D03*
X260350Y977900D02*
D03*
X254000Y965200D02*
D03*
X260350Y952500D02*
D03*
X254000Y939800D02*
D03*
X260350Y927100D02*
D03*
X241300Y1066800D02*
D03*
X247650Y1054100D02*
D03*
X241300Y1041400D02*
D03*
X247650Y1028700D02*
D03*
X241300Y1016000D02*
D03*
X247650Y1003300D02*
D03*
X241300Y990600D02*
D03*
X247650Y977900D02*
D03*
X241300Y965200D02*
D03*
X247650Y952500D02*
D03*
X241300Y939800D02*
D03*
X247650Y927100D02*
D03*
X241300Y914400D02*
D03*
X228600Y1066800D02*
D03*
X234950Y1054100D02*
D03*
X228600Y1041400D02*
D03*
X234950Y1028700D02*
D03*
X228600Y1016000D02*
D03*
X234950Y1003300D02*
D03*
X228600Y990600D02*
D03*
X234950Y977900D02*
D03*
X228600Y965200D02*
D03*
X234950Y952500D02*
D03*
X215900Y1066800D02*
D03*
Y965200D02*
D03*
X222250Y952500D02*
D03*
X203200Y1066800D02*
D03*
Y965200D02*
D03*
X209550Y952500D02*
D03*
X190500Y1066800D02*
D03*
Y1041400D02*
D03*
Y1016000D02*
D03*
Y990600D02*
D03*
Y965200D02*
D03*
X196850Y952500D02*
D03*
X165100Y1066800D02*
D03*
X171450Y1054100D02*
D03*
X165100Y1041400D02*
D03*
X171450Y1028700D02*
D03*
X165100Y1016000D02*
D03*
X171450Y1003300D02*
D03*
X165100Y990600D02*
D03*
X171450Y977900D02*
D03*
X165100Y965200D02*
D03*
X171450Y952500D02*
D03*
X152400Y1066800D02*
D03*
Y965200D02*
D03*
X158750Y952500D02*
D03*
X139700Y1066800D02*
D03*
Y965200D02*
D03*
X146050Y952500D02*
D03*
X127000Y1066800D02*
D03*
Y1041400D02*
D03*
Y1016000D02*
D03*
Y990600D02*
D03*
Y965200D02*
D03*
X133350Y952500D02*
D03*
X114300Y1066800D02*
D03*
X120650Y1054100D02*
D03*
X114300Y1041400D02*
D03*
X120650Y1028700D02*
D03*
X114300Y1016000D02*
D03*
X120650Y1003300D02*
D03*
X114300Y990600D02*
D03*
X120650Y977900D02*
D03*
X114300Y965200D02*
D03*
X120650Y952500D02*
D03*
X114300Y939800D02*
D03*
Y914400D02*
D03*
X101600Y1066800D02*
D03*
X107950Y1054100D02*
D03*
X101600Y1041400D02*
D03*
X107950Y1028700D02*
D03*
X101600Y1016000D02*
D03*
X107950Y1003300D02*
D03*
X101600Y990600D02*
D03*
X107950Y977900D02*
D03*
X101600Y965200D02*
D03*
X107950Y952500D02*
D03*
X101600Y939800D02*
D03*
X107950Y927100D02*
D03*
X88900Y1066800D02*
D03*
X95250Y1054100D02*
D03*
X88900Y1041400D02*
D03*
X95250Y1028700D02*
D03*
X88900Y1016000D02*
D03*
X95250Y1003300D02*
D03*
X88900Y990600D02*
D03*
X95250Y977900D02*
D03*
X88900Y965200D02*
D03*
X95250Y952500D02*
D03*
X88900Y939800D02*
D03*
X95250Y927100D02*
D03*
X76200Y1066800D02*
D03*
X82550Y1054100D02*
D03*
X76200Y1041400D02*
D03*
X82550Y1028700D02*
D03*
X76200Y1016000D02*
D03*
X82550Y1003300D02*
D03*
X76200Y990600D02*
D03*
X82550Y977900D02*
D03*
X76200Y965200D02*
D03*
X82550Y952500D02*
D03*
X76200Y939800D02*
D03*
X82550Y927100D02*
D03*
X63500Y1066800D02*
D03*
X69850Y1054100D02*
D03*
X63500Y1041400D02*
D03*
X69850Y1028700D02*
D03*
X63500Y1016000D02*
D03*
X69850Y1003300D02*
D03*
X63500Y990600D02*
D03*
X69850Y977900D02*
D03*
X63500Y965200D02*
D03*
X69850Y952500D02*
D03*
X63500Y939800D02*
D03*
X69850Y927100D02*
D03*
X50800Y1066800D02*
D03*
X57150Y1054100D02*
D03*
X50800Y1041400D02*
D03*
X57150Y1028700D02*
D03*
X50800Y1016000D02*
D03*
X57150Y1003300D02*
D03*
X50800Y990600D02*
D03*
X57150Y977900D02*
D03*
X50800Y965200D02*
D03*
X57150Y952500D02*
D03*
X50800Y939800D02*
D03*
X57150Y927100D02*
D03*
X50800Y914400D02*
D03*
X766762Y292100D02*
D03*
X779463Y295275D02*
D03*
X755650Y290513D02*
D03*
X773112Y315912D02*
D03*
Y325438D02*
D03*
X784225Y327025D02*
D03*
X1150938Y185737D02*
D03*
X1041400D02*
D03*
X930275D02*
D03*
X895350Y255588D02*
D03*
X379412Y333375D02*
D03*
X349250Y201612D02*
D03*
X357188Y203200D02*
D03*
X381000Y185737D02*
D03*
X338138Y201612D02*
D03*
X282575Y382588D02*
D03*
X298450Y374650D02*
D03*
X236537Y130175D02*
D03*
X193675Y603250D02*
D03*
X174625Y617537D02*
D03*
X182563Y919163D02*
D03*
X228600Y874713D02*
D03*
X112712Y904875D02*
D03*
X173037Y884238D02*
D03*
X55563Y906462D02*
D03*
X241300Y309562D02*
D03*
X249237D02*
D03*
X273050D02*
D03*
X265112D02*
D03*
X257175D02*
D03*
X180975D02*
D03*
X188913D02*
D03*
X212725D02*
D03*
X204788D02*
D03*
X196850D02*
D03*
X122238Y788988D02*
D03*
X130175Y766762D02*
D03*
X162794Y744330D02*
D03*
X147900Y646375D02*
D03*
X136525Y623887D02*
D03*
Y604837D02*
D03*
X215900Y795338D02*
D03*
X176213Y777875D02*
D03*
X171450Y768350D02*
D03*
X228600D02*
D03*
X206375Y763587D02*
D03*
X188913Y744538D02*
D03*
X219075Y641350D02*
D03*
X196850Y639762D02*
D03*
X185737Y638175D02*
D03*
X169247Y632189D02*
D03*
X185737Y628650D02*
D03*
X168275Y623887D02*
D03*
X204788Y520700D02*
D03*
X180975D02*
D03*
X204788Y492125D02*
D03*
X188913D02*
D03*
X180975D02*
D03*
X265112D02*
D03*
X273050D02*
D03*
X257175Y520700D02*
D03*
X273050D02*
D03*
X241300D02*
D03*
X97643Y444500D02*
D03*
X250825Y455612D02*
D03*
Y439738D02*
D03*
Y431800D02*
D03*
X260350D02*
D03*
Y439738D02*
D03*
Y447675D02*
D03*
Y463550D02*
D03*
X269875D02*
D03*
Y455612D02*
D03*
Y447675D02*
D03*
Y439738D02*
D03*
Y431800D02*
D03*
X279400Y463550D02*
D03*
Y455612D02*
D03*
Y447675D02*
D03*
Y439738D02*
D03*
Y431800D02*
D03*
X196850Y454025D02*
D03*
Y461963D02*
D03*
Y441325D02*
D03*
Y433387D02*
D03*
X163512Y431800D02*
D03*
X109537D02*
D03*
X117475Y454025D02*
D03*
X109537D02*
D03*
X53975Y431800D02*
D03*
X46038D02*
D03*
X53975Y454025D02*
D03*
X46038D02*
D03*
X103188Y471488D02*
D03*
Y479425D02*
D03*
Y487363D02*
D03*
Y495300D02*
D03*
X52387Y512762D02*
D03*
X65087D02*
D03*
X77787D02*
D03*
X90487D02*
D03*
X115887D02*
D03*
X128588D02*
D03*
X141287D02*
D03*
X153988D02*
D03*
X103188D02*
D03*
Y520700D02*
D03*
X153988D02*
D03*
X141287D02*
D03*
X128588D02*
D03*
X115887D02*
D03*
X90487D02*
D03*
X77787D02*
D03*
X65087D02*
D03*
X52387D02*
D03*
X103188Y530225D02*
D03*
X153988D02*
D03*
X141287D02*
D03*
X128588D02*
D03*
X115887D02*
D03*
X90487D02*
D03*
X77787D02*
D03*
X65087D02*
D03*
X52387D02*
D03*
X103188Y539750D02*
D03*
X153988D02*
D03*
X141287D02*
D03*
X128588D02*
D03*
X115887D02*
D03*
X90487D02*
D03*
X77787D02*
D03*
X65087D02*
D03*
X52387D02*
D03*
X196850Y492125D02*
D03*
X212725D02*
D03*
Y520700D02*
D03*
X188913D02*
D03*
X196850D02*
D03*
X257175Y492125D02*
D03*
X249237D02*
D03*
X250825Y463550D02*
D03*
X260350Y455612D02*
D03*
X241300Y492125D02*
D03*
X249237Y520700D02*
D03*
X265112D02*
D03*
X209550Y422275D02*
D03*
X169862Y355600D02*
D03*
X97643Y414338D02*
D03*
X250825Y447675D02*
D03*
X161925Y444500D02*
D03*
X173037Y414338D02*
D03*
X114300Y365125D02*
D03*
X150813Y393963D02*
D03*
X195263Y382588D02*
D03*
X207962Y379412D02*
D03*
X204563Y393700D02*
D03*
X192087Y404813D02*
D03*
X182563Y414338D02*
D03*
X184150Y376237D02*
D03*
Y396875D02*
D03*
X52387Y328613D02*
D03*
X65087D02*
D03*
X77787D02*
D03*
X90487D02*
D03*
X115887D02*
D03*
X128588D02*
D03*
X141287D02*
D03*
X153988D02*
D03*
X103188D02*
D03*
X52387Y319088D02*
D03*
X65087D02*
D03*
X77787D02*
D03*
X90487D02*
D03*
X115887D02*
D03*
X128588D02*
D03*
X141287D02*
D03*
X153988D02*
D03*
X103188D02*
D03*
X52387Y309562D02*
D03*
X65087D02*
D03*
X77787D02*
D03*
X90487D02*
D03*
X115887D02*
D03*
X128588D02*
D03*
X141287D02*
D03*
X153988D02*
D03*
X103188D02*
D03*
Y301625D02*
D03*
X153988D02*
D03*
X141287D02*
D03*
X128588D02*
D03*
X115887D02*
D03*
X90487D02*
D03*
X77787D02*
D03*
X65087D02*
D03*
X52387D02*
D03*
X103188Y284163D02*
D03*
Y276225D02*
D03*
Y268288D02*
D03*
Y260350D02*
D03*
X46038Y242887D02*
D03*
Y220662D02*
D03*
X109537Y242887D02*
D03*
Y220662D02*
D03*
X163512Y222250D02*
D03*
Y241300D02*
D03*
X196850Y222250D02*
D03*
Y230187D02*
D03*
Y250825D02*
D03*
Y242887D02*
D03*
X279400Y220662D02*
D03*
Y228600D02*
D03*
Y236537D02*
D03*
Y244475D02*
D03*
Y252412D02*
D03*
X269875Y220662D02*
D03*
Y228600D02*
D03*
Y236537D02*
D03*
Y244475D02*
D03*
Y252412D02*
D03*
X260350D02*
D03*
Y244475D02*
D03*
Y236537D02*
D03*
Y228600D02*
D03*
Y220662D02*
D03*
X250825D02*
D03*
Y228600D02*
D03*
Y252412D02*
D03*
Y244475D02*
D03*
Y236537D02*
D03*
X173037Y203200D02*
D03*
X97643D02*
D03*
X161925Y233363D02*
D03*
X97643D02*
D03*
X273050Y280987D02*
D03*
X265112D02*
D03*
X241300D02*
D03*
X249237D02*
D03*
X257175D02*
D03*
X180975D02*
D03*
X188913D02*
D03*
X212725D02*
D03*
X204788D02*
D03*
X196850D02*
D03*
X1817688Y528638D02*
D03*
X979488Y287337D02*
D03*
X1087438Y239713D02*
D03*
X979488Y234950D02*
D03*
X869950Y238125D02*
D03*
X576263Y266700D02*
D03*
X666750Y255588D02*
D03*
X433387D02*
D03*
X542925Y231775D02*
D03*
X512762Y425965D02*
D03*
X1892300Y284163D02*
D03*
X915987Y603250D02*
D03*
X514350Y602938D02*
D03*
X1581150Y385762D02*
D03*
X1692275Y557212D02*
D03*
Y549275D02*
D03*
X1684337Y527050D02*
D03*
X522287Y819150D02*
D03*
X1706562Y504825D02*
D03*
X1784337Y530225D02*
D03*
X827087Y440169D02*
D03*
X862855Y416767D02*
D03*
X508000Y431800D02*
D03*
X485775D02*
D03*
X939553Y459132D02*
D03*
X923925Y430213D02*
D03*
X936524Y438150D02*
D03*
X538162Y469900D02*
D03*
X517525Y431800D02*
D03*
X582612Y889000D02*
D03*
X150813Y182825D02*
D03*
X749300Y517525D02*
D03*
X1738313Y771525D02*
D03*
X1785938Y736600D02*
D03*
X1774825D02*
D03*
X1754187Y739775D02*
D03*
X1738313Y733425D02*
D03*
X766762Y536575D02*
D03*
X749300Y454025D02*
D03*
X881062Y576263D02*
D03*
X869950Y584200D02*
D03*
X841375Y582612D02*
D03*
X468312Y584200D02*
D03*
X439738Y582612D02*
D03*
X347663Y476250D02*
D03*
X477837Y574675D02*
D03*
X365125Y536575D02*
D03*
X1651000Y460375D02*
D03*
X1581150Y447675D02*
D03*
X1797050Y736600D02*
D03*
X1930400Y731837D02*
D03*
X598488Y857250D02*
D03*
X379412Y814388D02*
D03*
X1192213Y914400D02*
D03*
X1487487Y254000D02*
D03*
X1474787D02*
D03*
X1565275Y188913D02*
D03*
X1543050Y204788D02*
D03*
X1498600Y265112D02*
D03*
X1520825D02*
D03*
X1543050D02*
D03*
X1565275D02*
D03*
X498475Y871537D02*
D03*
X1133475Y868363D02*
D03*
X911225Y857250D02*
D03*
X931862Y927100D02*
D03*
Y938213D02*
D03*
X823913Y895350D02*
D03*
X1046162D02*
D03*
X690563Y862012D02*
D03*
X887412Y920750D02*
D03*
Y912812D02*
D03*
X1109662Y920750D02*
D03*
X449263Y860425D02*
D03*
X947738Y498475D02*
D03*
X611188Y479425D02*
D03*
X950912Y488950D02*
D03*
X519313Y511375D02*
D03*
X519113Y498475D02*
D03*
X989013Y476250D02*
D03*
X584200Y463550D02*
D03*
X769938Y623887D02*
D03*
X1781175Y1006475D02*
D03*
X1806575D02*
D03*
X838200Y473075D02*
D03*
X681038Y482600D02*
D03*
X1611313Y355600D02*
D03*
X195263Y171450D02*
D03*
X192087Y193675D02*
D03*
X1609725Y446087D02*
D03*
X1868620Y771562D02*
D03*
X1893887Y764369D02*
D03*
X1895574Y752475D02*
D03*
X1909763Y795338D02*
D03*
X1893887Y775481D02*
D03*
X1927225Y714375D02*
D03*
X1922462Y752475D02*
D03*
X1930400Y1025525D02*
D03*
X1866900D02*
D03*
X1730375D02*
D03*
X1793875D02*
D03*
X1873250Y855663D02*
D03*
X1943100Y889000D02*
D03*
X1917700D02*
D03*
X1806575D02*
D03*
X1781175D02*
D03*
X1743075D02*
D03*
X1717675D02*
D03*
X1793875Y869950D02*
D03*
X1730375D02*
D03*
X1789113Y804863D02*
D03*
X1882775Y839788D02*
D03*
X1885950Y825500D02*
D03*
X1882775Y811212D02*
D03*
X1833562Y836612D02*
D03*
X1830388Y815975D02*
D03*
X1800225Y825500D02*
D03*
X1803400Y811212D02*
D03*
X1819275Y836612D02*
D03*
X1847850D02*
D03*
X1876425Y649287D02*
D03*
X1838325D02*
D03*
X1868488Y665163D02*
D03*
X1833562Y669925D02*
D03*
X1831849Y700213D02*
D03*
X1854326D02*
D03*
X1917700Y717550D02*
D03*
X1939925Y727075D02*
D03*
X1917700Y731837D02*
D03*
X1893887Y715963D02*
D03*
X1935163Y706438D02*
D03*
X1893887D02*
D03*
X1938338Y792162D02*
D03*
Y763587D02*
D03*
Y755650D02*
D03*
X1936750Y774700D02*
D03*
Y785813D02*
D03*
X1873250Y679450D02*
D03*
X1812925D02*
D03*
X1763788Y558875D02*
D03*
X1808163Y528638D02*
D03*
X1716087D02*
D03*
X1704975D02*
D03*
X1765300Y581025D02*
D03*
X379437Y906438D02*
D03*
X398438Y814413D02*
D03*
X434950D02*
D03*
X471463D02*
D03*
X485775Y863600D02*
D03*
Y847725D02*
D03*
Y833438D02*
D03*
X554038Y882650D02*
D03*
X563563Y873125D02*
D03*
X569912Y868363D02*
D03*
Y838200D02*
D03*
Y828675D02*
D03*
Y819150D02*
D03*
X508000Y871537D02*
D03*
X592137Y819150D02*
D03*
Y828675D02*
D03*
Y838200D02*
D03*
Y868363D02*
D03*
X574675Y898525D02*
D03*
X517525D02*
D03*
X508000Y841375D02*
D03*
Y855663D02*
D03*
X406400Y349250D02*
D03*
X369888D02*
D03*
X371475Y400050D02*
D03*
X184150Y165100D02*
D03*
X182563Y203200D02*
D03*
X207962Y168275D02*
D03*
X1273175Y973138D02*
D03*
Y922337D02*
D03*
Y909638D02*
D03*
X1431925Y919163D02*
D03*
X1430338Y955675D02*
D03*
Y946150D02*
D03*
X1198562Y1041400D02*
D03*
X1230312D02*
D03*
X792162Y461963D02*
D03*
X803275D02*
D03*
Y417513D02*
D03*
X792162D02*
D03*
X803275Y439869D02*
D03*
X792162Y439738D02*
D03*
X450850Y461963D02*
D03*
X438150D02*
D03*
X461963Y455612D02*
D03*
X390525Y461963D02*
D03*
X401637D02*
D03*
Y417513D02*
D03*
X390525D02*
D03*
X401637Y439869D02*
D03*
X390525Y439738D02*
D03*
X555625Y463550D02*
D03*
X617537Y438150D02*
D03*
X574675Y450850D02*
D03*
X533400Y425450D02*
D03*
X714375Y620713D02*
D03*
X450850Y439869D02*
D03*
Y417513D02*
D03*
X388937Y622300D02*
D03*
X714375Y628650D02*
D03*
X615950Y584200D02*
D03*
X722312Y620713D02*
D03*
X706438D02*
D03*
X698500D02*
D03*
X438150Y417513D02*
D03*
X414338Y622300D02*
D03*
X706438Y628650D02*
D03*
Y636587D02*
D03*
X588963Y595312D02*
D03*
X460375Y685800D02*
D03*
X454025D02*
D03*
X460375Y679450D02*
D03*
X454025D02*
D03*
X447675Y685800D02*
D03*
Y679450D02*
D03*
X412750Y417513D02*
D03*
X390525Y490537D02*
D03*
X365125D02*
D03*
X690563Y581025D02*
D03*
X649287Y595312D02*
D03*
X390525Y534987D02*
D03*
X379412D02*
D03*
X668337Y422275D02*
D03*
X612775Y571500D02*
D03*
X425450Y461963D02*
D03*
X439738Y630238D02*
D03*
X387350Y663575D02*
D03*
X585788Y554038D02*
D03*
X603250Y546100D02*
D03*
X365125Y587375D02*
D03*
X488950Y458787D02*
D03*
X498475Y455612D02*
D03*
X585788Y498475D02*
D03*
X603250Y526256D02*
D03*
Y506413D02*
D03*
X360363Y644525D02*
D03*
X649287Y584200D02*
D03*
X430213Y512762D02*
D03*
X402363Y530950D02*
D03*
X414338Y519113D02*
D03*
X441325Y547687D02*
D03*
X430213Y557212D02*
D03*
X657225Y422275D02*
D03*
X668337Y561975D02*
D03*
Y539750D02*
D03*
X650875Y547687D02*
D03*
X627062D02*
D03*
X542925Y601662D02*
D03*
X425450Y417513D02*
D03*
X576263Y463550D02*
D03*
X668337Y490537D02*
D03*
Y512762D02*
D03*
X627062Y504825D02*
D03*
X650875D02*
D03*
X347663Y498475D02*
D03*
X668337Y454025D02*
D03*
X630238D02*
D03*
X627062Y441325D02*
D03*
X654362Y636900D02*
D03*
X530225Y577850D02*
D03*
X407988Y622300D02*
D03*
X395288D02*
D03*
X401637D02*
D03*
X454025Y576263D02*
D03*
X488950Y550863D02*
D03*
X530225Y639762D02*
D03*
X501650Y585788D02*
D03*
X696650Y628913D02*
D03*
X515938Y550863D02*
D03*
X722050Y628913D02*
D03*
X542925Y571500D02*
D03*
X539750Y560387D02*
D03*
X536575Y627062D02*
D03*
X625475Y584200D02*
D03*
X520700Y536575D02*
D03*
X525462Y455612D02*
D03*
X519113Y461963D02*
D03*
X512762Y455612D02*
D03*
X487363Y471488D02*
D03*
X436562Y476250D02*
D03*
X463550Y498475D02*
D03*
Y508000D02*
D03*
X390525Y512762D02*
D03*
X463550Y515938D02*
D03*
X379412Y512762D02*
D03*
X461963Y525462D02*
D03*
X439738Y639762D02*
D03*
X444500Y569912D02*
D03*
X1049337Y935038D02*
D03*
X1077913D02*
D03*
X1016000Y901700D02*
D03*
Y890587D02*
D03*
Y879475D02*
D03*
Y868363D02*
D03*
Y857250D02*
D03*
Y846137D02*
D03*
Y835025D02*
D03*
Y823913D02*
D03*
X1111250D02*
D03*
Y835025D02*
D03*
Y846137D02*
D03*
Y857250D02*
D03*
Y868363D02*
D03*
Y879475D02*
D03*
Y890587D02*
D03*
Y901700D02*
D03*
X992188Y922337D02*
D03*
Y912812D02*
D03*
X993775Y901700D02*
D03*
X971550D02*
D03*
Y890587D02*
D03*
X993775Y879475D02*
D03*
X971550D02*
D03*
X993775Y868363D02*
D03*
X971550D02*
D03*
X993775Y857250D02*
D03*
X971550D02*
D03*
X993775Y846137D02*
D03*
X971550D02*
D03*
X993775Y835025D02*
D03*
X971550D02*
D03*
X993775Y823913D02*
D03*
X971550D02*
D03*
X1133344D02*
D03*
X1155700D02*
D03*
Y835025D02*
D03*
X1133475Y846137D02*
D03*
X1155700D02*
D03*
Y857250D02*
D03*
Y868363D02*
D03*
Y879475D02*
D03*
Y890587D02*
D03*
Y901700D02*
D03*
X1081087Y889000D02*
D03*
X1046162Y906462D02*
D03*
X911225Y879475D02*
D03*
Y901700D02*
D03*
X827087Y935038D02*
D03*
X855663D02*
D03*
X793750Y901700D02*
D03*
Y890587D02*
D03*
Y879475D02*
D03*
Y868363D02*
D03*
Y857250D02*
D03*
Y846137D02*
D03*
Y835025D02*
D03*
Y823913D02*
D03*
X889000D02*
D03*
Y835025D02*
D03*
Y846137D02*
D03*
Y857250D02*
D03*
Y868363D02*
D03*
Y879475D02*
D03*
Y890587D02*
D03*
Y901700D02*
D03*
X769938Y922337D02*
D03*
Y912812D02*
D03*
X749300Y901700D02*
D03*
Y890587D02*
D03*
Y879475D02*
D03*
Y868363D02*
D03*
X771525Y857250D02*
D03*
X749300D02*
D03*
X771525Y846137D02*
D03*
X749300D02*
D03*
X771525Y835025D02*
D03*
X749300D02*
D03*
X771525Y823913D02*
D03*
X749300D02*
D03*
X911094D02*
D03*
X933450D02*
D03*
X911225Y835025D02*
D03*
X933450D02*
D03*
Y846137D02*
D03*
Y857250D02*
D03*
Y868363D02*
D03*
Y879475D02*
D03*
Y890587D02*
D03*
Y901700D02*
D03*
X858838Y889000D02*
D03*
X823913Y906462D02*
D03*
X862012Y685800D02*
D03*
X855663D02*
D03*
X849313D02*
D03*
X815975Y622300D02*
D03*
X790575D02*
D03*
X796925D02*
D03*
X809625D02*
D03*
X803275D02*
D03*
X849313Y679450D02*
D03*
X862012D02*
D03*
X855663D02*
D03*
X766762Y587375D02*
D03*
X1014413Y571500D02*
D03*
X917575Y550863D02*
D03*
X1100137Y620713D02*
D03*
X1108075D02*
D03*
X1116012D02*
D03*
X1123950D02*
D03*
X1116012Y628650D02*
D03*
X1108075D02*
D03*
Y636587D02*
D03*
X1123688Y628913D02*
D03*
X1098288Y628913D02*
D03*
X841375Y639762D02*
D03*
Y660400D02*
D03*
X944563Y601662D02*
D03*
X935038Y425450D02*
D03*
X957262Y461963D02*
D03*
X976312Y450850D02*
D03*
X1050925Y595312D02*
D03*
Y584200D02*
D03*
X1027113D02*
D03*
X938213Y627062D02*
D03*
X1056000Y636900D02*
D03*
X931862Y639762D02*
D03*
Y577850D02*
D03*
X944563Y571500D02*
D03*
X941387Y560387D02*
D03*
X1069975Y454025D02*
D03*
X1101725Y422275D02*
D03*
X1069975D02*
D03*
X1058863D02*
D03*
X1092200Y581025D02*
D03*
X781050Y534987D02*
D03*
X792162D02*
D03*
X781050Y512762D02*
D03*
X792162D02*
D03*
X841375Y630238D02*
D03*
Y649287D02*
D03*
X814388Y417513D02*
D03*
X827087D02*
D03*
X839788D02*
D03*
X852487D02*
D03*
X863600Y455612D02*
D03*
X852487Y461963D02*
D03*
X839788D02*
D03*
X827087D02*
D03*
X792162Y490537D02*
D03*
X766762D02*
D03*
X749300Y498475D02*
D03*
X863600Y525462D02*
D03*
X842962Y547687D02*
D03*
X804000Y530950D02*
D03*
X815975Y519113D02*
D03*
X831850Y512762D02*
D03*
Y557212D02*
D03*
X927100Y455612D02*
D03*
X920750Y461963D02*
D03*
X914400Y455612D02*
D03*
X908050Y460375D02*
D03*
X909638Y431800D02*
D03*
X887412D02*
D03*
X900113Y455612D02*
D03*
X977900Y463550D02*
D03*
X1069975Y561975D02*
D03*
Y490537D02*
D03*
Y512762D02*
D03*
X1028700Y504825D02*
D03*
X1052513D02*
D03*
X1004887Y526256D02*
D03*
X987425Y498475D02*
D03*
X1004887Y506413D02*
D03*
X1069975Y539750D02*
D03*
X1052513Y547687D02*
D03*
X1028700D02*
D03*
X1004887Y546100D02*
D03*
X987425Y554038D02*
D03*
X922337Y536575D02*
D03*
X1017588Y584200D02*
D03*
X990600Y595312D02*
D03*
X846137Y569912D02*
D03*
X855663Y576263D02*
D03*
X903288Y585788D02*
D03*
X890587Y550863D02*
D03*
X1633013Y460900D02*
D03*
X1619250Y446087D02*
D03*
X1627188Y442912D02*
D03*
X1598613Y454025D02*
D03*
Y385762D02*
D03*
X1597333Y404408D02*
D03*
X1597081Y425071D02*
D03*
X1574800Y441325D02*
D03*
X1682750Y396875D02*
D03*
X1665287Y420687D02*
D03*
X1662112Y441325D02*
D03*
X1684337Y434975D02*
D03*
X1673225Y457200D02*
D03*
X1684337D02*
D03*
Y412750D02*
D03*
X1682750Y404813D02*
D03*
X1673225Y390525D02*
D03*
X1565275Y393700D02*
D03*
X1598613Y365125D02*
D03*
X1674812D02*
D03*
Y355600D02*
D03*
X1875375Y269338D02*
D03*
X1895475Y223838D02*
D03*
Y185737D02*
D03*
X1949450Y258762D02*
D03*
X1873250Y147638D02*
D03*
X849313Y357188D02*
D03*
X428625Y277812D02*
D03*
Y284163D02*
D03*
X452438Y295275D02*
D03*
X474663D02*
D03*
X482600D02*
D03*
X490537D02*
D03*
X498475Y265112D02*
D03*
X527050Y282575D02*
D03*
Y288925D02*
D03*
X428625Y341312D02*
D03*
Y347663D02*
D03*
X481012Y330200D02*
D03*
X527050Y342900D02*
D03*
Y336550D02*
D03*
X473569Y265112D02*
D03*
X431800Y358775D02*
D03*
X444500D02*
D03*
X457200D02*
D03*
X469900Y357188D02*
D03*
X431800Y401637D02*
D03*
X444500D02*
D03*
X457200D02*
D03*
X469900D02*
D03*
X615950Y244475D02*
D03*
X584200D02*
D03*
X485438Y371138D02*
D03*
X498475Y244475D02*
D03*
X476250D02*
D03*
X590550Y361950D02*
D03*
Y368300D02*
D03*
Y393700D02*
D03*
Y374650D02*
D03*
Y381000D02*
D03*
X622300Y361950D02*
D03*
Y368300D02*
D03*
Y374650D02*
D03*
Y381000D02*
D03*
Y387350D02*
D03*
X590550D02*
D03*
X622300Y393700D02*
D03*
X590550Y274638D02*
D03*
Y293687D02*
D03*
Y280987D02*
D03*
Y287337D02*
D03*
X622300Y280987D02*
D03*
Y274638D02*
D03*
Y287337D02*
D03*
Y293687D02*
D03*
X590550Y300037D02*
D03*
X622300D02*
D03*
X428625Y271462D02*
D03*
Y290513D02*
D03*
Y328613D02*
D03*
X527050Y330200D02*
D03*
Y349250D02*
D03*
X549275Y303213D02*
D03*
X590550Y268288D02*
D03*
Y306388D02*
D03*
Y349250D02*
D03*
Y400050D02*
D03*
X614362Y349250D02*
D03*
X606425D02*
D03*
X428625Y296863D02*
D03*
Y334963D02*
D03*
X527050Y295275D02*
D03*
Y276225D02*
D03*
X549275Y296863D02*
D03*
X542925D02*
D03*
X590550Y355600D02*
D03*
X434975Y271462D02*
D03*
Y328613D02*
D03*
X520700Y330200D02*
D03*
X622300Y268288D02*
D03*
Y306388D02*
D03*
Y349250D02*
D03*
X598488D02*
D03*
X622300Y400050D02*
D03*
X434975Y296863D02*
D03*
X536575D02*
D03*
X520700Y295275D02*
D03*
X622300Y355600D02*
D03*
X868363Y277812D02*
D03*
Y284163D02*
D03*
X904875Y295275D02*
D03*
X914400D02*
D03*
X922337D02*
D03*
X930275D02*
D03*
X938213Y265112D02*
D03*
X966787Y282575D02*
D03*
Y288925D02*
D03*
X868363Y341312D02*
D03*
Y347663D02*
D03*
X966787Y336550D02*
D03*
Y342900D02*
D03*
X913306Y265112D02*
D03*
X871537Y358775D02*
D03*
X884238D02*
D03*
X896937D02*
D03*
X909638Y357188D02*
D03*
X871537Y401637D02*
D03*
X884238D02*
D03*
X896937D02*
D03*
X909638D02*
D03*
X1046162Y244475D02*
D03*
X1023938D02*
D03*
X938213D02*
D03*
X915987D02*
D03*
X1030287Y361950D02*
D03*
X1062038D02*
D03*
X1030287Y374650D02*
D03*
Y387350D02*
D03*
Y393700D02*
D03*
Y368300D02*
D03*
Y381000D02*
D03*
X1062038D02*
D03*
Y387350D02*
D03*
Y393700D02*
D03*
Y368300D02*
D03*
Y374650D02*
D03*
X1030287Y274638D02*
D03*
Y293687D02*
D03*
Y280987D02*
D03*
Y287337D02*
D03*
X1062038Y274638D02*
D03*
Y287337D02*
D03*
Y280987D02*
D03*
X1030287Y300037D02*
D03*
X1062038Y293687D02*
D03*
Y300037D02*
D03*
X868363Y271462D02*
D03*
X874713D02*
D03*
X868363Y290513D02*
D03*
Y328613D02*
D03*
X874713D02*
D03*
X960437Y330200D02*
D03*
X989013Y303213D02*
D03*
X1030287Y268288D02*
D03*
Y306388D02*
D03*
X1038225Y349250D02*
D03*
X1030287D02*
D03*
Y400050D02*
D03*
X1062038Y268288D02*
D03*
Y306388D02*
D03*
X1054100Y349250D02*
D03*
X1062038D02*
D03*
Y400050D02*
D03*
X868363Y296863D02*
D03*
X874713D02*
D03*
X868363Y334963D02*
D03*
X960437Y295275D02*
D03*
X982663Y296863D02*
D03*
X976312D02*
D03*
X989013D02*
D03*
X1030287Y355600D02*
D03*
X1062038D02*
D03*
X966787Y330200D02*
D03*
Y349250D02*
D03*
X1046162D02*
D03*
X966787Y295275D02*
D03*
Y276225D02*
D03*
X771525Y357188D02*
D03*
X782637D02*
D03*
X793750D02*
D03*
X815975D02*
D03*
X849313Y261938D02*
D03*
X815975D02*
D03*
X804863D02*
D03*
X793750D02*
D03*
X782637D02*
D03*
X771525D02*
D03*
X1614487Y231775D02*
D03*
X1565013Y204525D02*
D03*
X1558925Y180975D02*
D03*
X1497012Y254000D02*
D03*
X1503737Y210763D02*
D03*
X1509713Y254000D02*
D03*
X1468438D02*
D03*
X1452563Y180975D02*
D03*
X1436687Y212725D02*
D03*
Y174625D02*
D03*
X1593925Y268213D02*
D03*
X1606550Y306388D02*
D03*
Y268288D02*
D03*
X1550988Y206375D02*
D03*
Y244475D02*
D03*
X1644650Y274638D02*
D03*
Y222250D02*
D03*
X1664037Y339388D02*
D03*
X1600200Y314587D02*
D03*
X1611313Y314325D02*
D03*
X1622425Y314587D02*
D03*
X1653837Y339388D02*
D03*
X1681163Y220662D02*
D03*
Y231775D02*
D03*
Y242887D02*
D03*
X1633537D02*
D03*
X1657188Y237319D02*
D03*
X1528763Y239713D02*
D03*
X760413Y238125D02*
D03*
X750888D02*
D03*
X488950Y192087D02*
D03*
X598488Y188913D02*
D03*
X711200Y185737D02*
D03*
X771525Y239713D02*
D03*
X782637D02*
D03*
X793750D02*
D03*
X804863D02*
D03*
X815975D02*
D03*
X827087D02*
D03*
X838200D02*
D03*
X849313D02*
D03*
Y379281D02*
D03*
X815975Y379412D02*
D03*
X827087D02*
D03*
X838200D02*
D03*
X849313Y401637D02*
D03*
X419100Y246063D02*
D03*
X204563Y182563D02*
D03*
X209550Y211138D02*
D03*
X184150Y185737D02*
D03*
X169862Y144462D02*
D03*
X114300Y153988D02*
D03*
X738187Y295275D02*
D03*
Y323850D02*
D03*
X771525Y217488D02*
D03*
X782637D02*
D03*
X793750D02*
D03*
X804863D02*
D03*
X849313D02*
D03*
X838200D02*
D03*
X827087D02*
D03*
X815975D02*
D03*
X838200Y261938D02*
D03*
X827087D02*
D03*
X771525Y401637D02*
D03*
X782637D02*
D03*
X793750D02*
D03*
X804863D02*
D03*
X838200D02*
D03*
X827087D02*
D03*
X815975D02*
D03*
X838200Y357188D02*
D03*
X827087D02*
D03*
X804863D02*
D03*
X669925Y817562D02*
D03*
Y842962D02*
D03*
X666750Y854075D02*
D03*
D244*
X1367437Y752475D02*
D03*
Y738187D02*
D03*
X1504625Y649925D02*
D03*
Y641925D02*
D03*
X1440625Y729925D02*
D03*
X1392625Y705925D02*
D03*
X1440625Y617925D02*
D03*
X1384625Y657925D02*
D03*
X1496625Y649925D02*
D03*
Y657925D02*
D03*
X1392625Y689925D02*
D03*
X1488625Y721925D02*
D03*
X1424625D02*
D03*
X1504625Y625925D02*
D03*
X1392625Y649925D02*
D03*
X1384625D02*
D03*
X1496625Y705925D02*
D03*
X1384625Y625925D02*
D03*
X1392625Y641925D02*
D03*
Y625925D02*
D03*
X1384625Y641925D02*
D03*
X1424625Y729925D02*
D03*
X1400625Y705925D02*
D03*
X1384625D02*
D03*
X1440625Y721925D02*
D03*
X1456625Y617925D02*
D03*
X1392625Y697925D02*
D03*
X1400625Y681925D02*
D03*
Y697925D02*
D03*
X1488625Y633925D02*
D03*
Y673925D02*
D03*
Y689925D02*
D03*
Y705925D02*
D03*
X1480625Y713925D02*
D03*
X1464625D02*
D03*
X1488625Y617925D02*
D03*
X1472625Y625925D02*
D03*
X1456625D02*
D03*
X1488625Y609925D02*
D03*
X1472625D02*
D03*
X1504625Y705925D02*
D03*
X1424625Y625925D02*
D03*
X1440625D02*
D03*
X1384625Y673925D02*
D03*
Y697925D02*
D03*
X1504625Y673925D02*
D03*
X1392625Y617925D02*
D03*
X1384625Y609600D02*
D03*
X1400625D02*
D03*
X1408625D02*
D03*
X1416625D02*
D03*
X1432625Y609925D02*
D03*
X1456625D02*
D03*
X1392625Y609600D02*
D03*
X1424625D02*
D03*
X1480625Y609925D02*
D03*
X1496625D02*
D03*
X1508625Y592637D02*
D03*
X1520825Y593725D02*
D03*
X1521325Y605925D02*
D03*
X1400625Y617925D02*
D03*
Y625925D02*
D03*
X1408625Y617925D02*
D03*
Y625925D02*
D03*
X1416625Y617925D02*
D03*
Y625925D02*
D03*
X1424625Y617925D02*
D03*
X1432625D02*
D03*
Y625925D02*
D03*
X1440625Y609925D02*
D03*
X1464625D02*
D03*
Y617925D02*
D03*
Y625925D02*
D03*
X1472625Y617925D02*
D03*
X1480625D02*
D03*
Y625925D02*
D03*
X1488625D02*
D03*
X1496625Y617925D02*
D03*
Y625925D02*
D03*
X1504625Y609925D02*
D03*
Y617925D02*
D03*
X1392625Y673925D02*
D03*
X1400625Y633925D02*
D03*
Y657925D02*
D03*
Y649925D02*
D03*
Y641925D02*
D03*
Y673925D02*
D03*
X1408625Y633925D02*
D03*
Y649925D02*
D03*
Y641925D02*
D03*
Y657925D02*
D03*
Y673925D02*
D03*
X1416625Y633925D02*
D03*
X1424625D02*
D03*
Y657925D02*
D03*
Y649925D02*
D03*
Y673925D02*
D03*
X1432625Y657925D02*
D03*
Y649925D02*
D03*
Y633925D02*
D03*
X1440625D02*
D03*
Y649925D02*
D03*
Y657925D02*
D03*
Y673925D02*
D03*
X1456625Y633925D02*
D03*
Y649925D02*
D03*
Y657925D02*
D03*
X1464625Y649925D02*
D03*
Y633925D02*
D03*
Y657925D02*
D03*
Y673925D02*
D03*
X1384625Y689925D02*
D03*
X1392625Y681925D02*
D03*
X1400625Y689925D02*
D03*
X1408625Y697925D02*
D03*
Y681925D02*
D03*
Y689925D02*
D03*
Y705925D02*
D03*
X1416625D02*
D03*
X1424625Y681925D02*
D03*
Y689925D02*
D03*
Y705925D02*
D03*
X1432625Y673925D02*
D03*
Y681925D02*
D03*
Y689925D02*
D03*
Y705925D02*
D03*
X1440625D02*
D03*
Y689925D02*
D03*
Y681925D02*
D03*
X1456625Y673925D02*
D03*
Y689925D02*
D03*
Y705925D02*
D03*
Y681925D02*
D03*
X1464625Y705925D02*
D03*
Y681925D02*
D03*
Y689925D02*
D03*
X1472625Y705925D02*
D03*
Y633925D02*
D03*
X1480625Y649925D02*
D03*
Y641925D02*
D03*
Y633925D02*
D03*
Y657925D02*
D03*
X1488625Y641925D02*
D03*
X1496625D02*
D03*
Y633925D02*
D03*
Y673925D02*
D03*
X1504625Y657925D02*
D03*
Y633925D02*
D03*
X1480625Y673925D02*
D03*
Y705925D02*
D03*
Y681925D02*
D03*
Y697925D02*
D03*
Y689925D02*
D03*
X1488625Y697925D02*
D03*
Y681925D02*
D03*
X1496625D02*
D03*
Y689925D02*
D03*
Y697925D02*
D03*
X1504625Y681925D02*
D03*
Y689925D02*
D03*
Y697925D02*
D03*
X1456625Y713925D02*
D03*
X1472625D02*
D03*
X1504625D02*
D03*
X1496625D02*
D03*
X1488625D02*
D03*
X1464625Y721925D02*
D03*
X1472625D02*
D03*
X1496625D02*
D03*
X1504625D02*
D03*
X1480625D02*
D03*
X1456625Y729925D02*
D03*
X1464625D02*
D03*
X1472625D02*
D03*
X1384625Y713925D02*
D03*
X1416625D02*
D03*
X1424625D02*
D03*
X1432625D02*
D03*
X1440625D02*
D03*
X1384625Y721925D02*
D03*
X1456625D02*
D03*
X1368425Y746125D02*
D03*
X1396625Y747337D02*
D03*
X1480625Y729925D02*
D03*
X1488625D02*
D03*
X1504625D02*
D03*
X1496625D02*
D03*
X1520825Y738187D02*
D03*
X1525587Y742950D02*
D03*
X1520825Y746125D02*
D03*
X1508625Y747213D02*
D03*
X1492625Y747337D02*
D03*
X1380625Y592518D02*
D03*
X1384625Y617925D02*
D03*
Y681925D02*
D03*
D245*
X407988Y212725D02*
D03*
X936625Y233363D02*
D03*
X915987D02*
D03*
X1038225D02*
D03*
X1062038D02*
D03*
X622300D02*
D03*
X598488Y234950D02*
D03*
X496888D02*
D03*
X476250D02*
D03*
X507088Y331113D02*
D03*
X946825D02*
D03*
X444500Y328613D02*
D03*
X530225Y244475D02*
D03*
X590550Y255588D02*
D03*
X884238Y328613D02*
D03*
X969962Y244475D02*
D03*
X1030287Y255588D02*
D03*
X1679575Y153988D02*
D03*
X1156488Y134150D02*
D03*
X1046950D02*
D03*
X935825D02*
D03*
X826288D02*
D03*
X716750D02*
D03*
X605625D02*
D03*
X496087D02*
D03*
X386550D02*
D03*
M02*
