G04*
G04 #@! TF.GenerationSoftware,Altium Limited,Altium Designer,23.4.1 (23)*
G04*
G04 Layer_Physical_Order=8*
G04 Layer_Color=16711680*
%FSLAX44Y44*%
%MOMM*%
G71*
G04*
G04 #@! TF.SameCoordinates,210523F5-4B5D-4388-949E-6639FD9C488E*
G04*
G04*
G04 #@! TF.FilePolarity,Positive*
G04*
G01*
G75*
%ADD16C,0.2540*%
%ADD17C,0.4064*%
%ADD220C,0.1524*%
%ADD225C,1.0000*%
%ADD228C,0.3048*%
%ADD229C,0.7112*%
%ADD230C,0.1016*%
G04:AMPARAMS|DCode=232|XSize=1.3mm|YSize=1.3mm|CornerRadius=0.325mm|HoleSize=0mm|Usage=FLASHONLY|Rotation=180.000|XOffset=0mm|YOffset=0mm|HoleType=Round|Shape=RoundedRectangle|*
%AMROUNDEDRECTD232*
21,1,1.3000,0.6500,0,0,180.0*
21,1,0.6500,1.3000,0,0,180.0*
1,1,0.6500,-0.3250,0.3250*
1,1,0.6500,0.3250,0.3250*
1,1,0.6500,0.3250,-0.3250*
1,1,0.6500,-0.3250,-0.3250*
%
%ADD232ROUNDEDRECTD232*%
%ADD233C,1.3000*%
%ADD234C,3.2500*%
%ADD235C,2.5000*%
%ADD236C,2.3900*%
%ADD237C,1.2000*%
%ADD238C,1.4500*%
%ADD239C,1.5240*%
G04:AMPARAMS|DCode=240|XSize=3.4mm|YSize=0.8mm|CornerRadius=0.2mm|HoleSize=0mm|Usage=FLASHONLY|Rotation=270.000|XOffset=0mm|YOffset=0mm|HoleType=Round|Shape=RoundedRectangle|*
%AMROUNDEDRECTD240*
21,1,3.4000,0.4000,0,0,270.0*
21,1,3.0000,0.8000,0,0,270.0*
1,1,0.4000,-0.2000,-1.5000*
1,1,0.4000,-0.2000,1.5000*
1,1,0.4000,0.2000,1.5000*
1,1,0.4000,0.2000,-1.5000*
%
%ADD240ROUNDEDRECTD240*%
G04:AMPARAMS|DCode=241|XSize=2.4mm|YSize=0.8mm|CornerRadius=0.2mm|HoleSize=0mm|Usage=FLASHONLY|Rotation=270.000|XOffset=0mm|YOffset=0mm|HoleType=Round|Shape=RoundedRectangle|*
%AMROUNDEDRECTD241*
21,1,2.4000,0.4000,0,0,270.0*
21,1,2.0000,0.8000,0,0,270.0*
1,1,0.4000,-0.2000,-1.0000*
1,1,0.4000,-0.2000,1.0000*
1,1,0.4000,0.2000,1.0000*
1,1,0.4000,0.2000,-1.0000*
%
%ADD241ROUNDEDRECTD241*%
%ADD242C,3.2000*%
%ADD243C,0.5500*%
%ADD244C,0.4500*%
%ADD245C,0.7500*%
G36*
X1883900Y1180000D02*
X1884222Y1179222D01*
X1885000Y1178900D01*
X1914525D01*
Y1093788D01*
X1884367D01*
X1884198Y1095028D01*
X1887033Y1095888D01*
X1889646Y1097284D01*
X1891936Y1099164D01*
X1893816Y1101454D01*
X1895212Y1104067D01*
X1896072Y1106902D01*
X1896163Y1107818D01*
X1881250D01*
X1866337D01*
X1866428Y1106902D01*
X1867288Y1104067D01*
X1868684Y1101454D01*
X1870564Y1099164D01*
X1872854Y1097284D01*
X1875467Y1095888D01*
X1878302Y1095028D01*
X1878133Y1093788D01*
X1840798D01*
X1840367Y1095058D01*
X1841060Y1095590D01*
X1842265Y1097160D01*
X1843022Y1098988D01*
X1843281Y1100950D01*
X1843022Y1102912D01*
X1842265Y1104740D01*
X1841060Y1106311D01*
X1839490Y1107515D01*
X1837662Y1108272D01*
X1835700Y1108531D01*
X1833738Y1108272D01*
X1831910Y1107515D01*
X1830340Y1106311D01*
X1829135Y1104740D01*
X1828378Y1102912D01*
X1828119Y1100950D01*
X1828378Y1098988D01*
X1829135Y1097160D01*
X1830340Y1095590D01*
X1831033Y1095058D01*
X1830602Y1093788D01*
X1820398D01*
X1819967Y1095058D01*
X1820661Y1095590D01*
X1821865Y1097160D01*
X1822623Y1098988D01*
X1822881Y1100950D01*
X1822623Y1102912D01*
X1821865Y1104740D01*
X1820661Y1106311D01*
X1819090Y1107515D01*
X1817262Y1108272D01*
X1815300Y1108531D01*
X1813338Y1108272D01*
X1811510Y1107515D01*
X1809940Y1106311D01*
X1808735Y1104740D01*
X1807977Y1102912D01*
X1807719Y1100950D01*
X1807977Y1098988D01*
X1808735Y1097160D01*
X1809940Y1095590D01*
X1810633Y1095058D01*
X1810202Y1093788D01*
X1799998D01*
X1799567Y1095058D01*
X1800260Y1095590D01*
X1801465Y1097160D01*
X1802222Y1098988D01*
X1802481Y1100950D01*
X1802222Y1102912D01*
X1801465Y1104740D01*
X1800260Y1106311D01*
X1798690Y1107515D01*
X1796862Y1108272D01*
X1794900Y1108531D01*
X1792938Y1108272D01*
X1791110Y1107515D01*
X1789539Y1106311D01*
X1788335Y1104740D01*
X1787578Y1102912D01*
X1787319Y1100950D01*
X1787578Y1098988D01*
X1788335Y1097160D01*
X1789539Y1095590D01*
X1790233Y1095058D01*
X1789802Y1093788D01*
X1779598D01*
X1779167Y1095058D01*
X1779861Y1095590D01*
X1781065Y1097160D01*
X1781823Y1098988D01*
X1782081Y1100950D01*
X1781823Y1102912D01*
X1781065Y1104740D01*
X1779861Y1106311D01*
X1778290Y1107515D01*
X1776462Y1108272D01*
X1774500Y1108531D01*
X1772538Y1108272D01*
X1770710Y1107515D01*
X1769140Y1106311D01*
X1767935Y1104740D01*
X1767177Y1102912D01*
X1766919Y1100950D01*
X1767177Y1098988D01*
X1767935Y1097160D01*
X1769140Y1095590D01*
X1769833Y1095058D01*
X1769402Y1093788D01*
X1721867D01*
X1721698Y1095028D01*
X1724533Y1095888D01*
X1727146Y1097284D01*
X1729436Y1099164D01*
X1731316Y1101454D01*
X1732712Y1104067D01*
X1733572Y1106902D01*
X1733663Y1107818D01*
X1718750D01*
X1703837D01*
X1703928Y1106902D01*
X1704788Y1104067D01*
X1706184Y1101454D01*
X1708064Y1099164D01*
X1710354Y1097284D01*
X1712967Y1095888D01*
X1715802Y1095028D01*
X1715633Y1093788D01*
X1700213D01*
Y1178900D01*
X1715000D01*
X1715778Y1179222D01*
X1716100Y1180000D01*
Y1196975D01*
X1883900D01*
Y1180000D01*
D02*
G37*
G36*
X1928813Y1031875D02*
X1976438D01*
Y981075D01*
X1693862D01*
Y959334D01*
X1631322D01*
Y1031875D01*
X1700213D01*
Y1092200D01*
X1928813D01*
Y1031875D01*
D02*
G37*
G36*
X174625Y900113D02*
X21100Y900112D01*
Y1103313D01*
X174625D01*
Y900113D01*
D02*
G37*
G36*
X334962Y900112D02*
X180975Y900113D01*
Y1103313D01*
X334962D01*
Y900112D01*
D02*
G37*
G36*
X233363Y876973D02*
X232185Y876251D01*
X232092Y876264D01*
X231315Y877428D01*
X230069Y878260D01*
X228600Y878552D01*
X227131Y878260D01*
X225885Y877428D01*
X225053Y876182D01*
X224760Y874713D01*
X225053Y873243D01*
X225885Y871997D01*
X227131Y871165D01*
X228600Y870873D01*
X230069Y871165D01*
X231315Y871997D01*
X232092Y873161D01*
X232185Y873174D01*
X233363Y872452D01*
Y866775D01*
X177800D01*
Y823913D01*
X122238D01*
Y896937D01*
X233363D01*
Y876973D01*
D02*
G37*
G36*
X1135062Y712787D02*
X1104900D01*
Y657225D01*
X1077913D01*
Y712787D01*
X989013D01*
Y754062D01*
X1085177D01*
X1085899Y752885D01*
X1085886Y752793D01*
X1084722Y752015D01*
X1083890Y750769D01*
X1083598Y749300D01*
X1083890Y747831D01*
X1084722Y746585D01*
X1085968Y745752D01*
X1087438Y745460D01*
X1088907Y745752D01*
X1090153Y746585D01*
X1090985Y747831D01*
X1091277Y749300D01*
X1090985Y750769D01*
X1090153Y752015D01*
X1088989Y752793D01*
X1088976Y752885D01*
X1089698Y754062D01*
X1135062D01*
Y712787D01*
D02*
G37*
G36*
X233363Y841375D02*
X273050D01*
Y668337D01*
X246736D01*
X246014Y669515D01*
X246027Y669607D01*
X247190Y670385D01*
X248022Y671631D01*
X248315Y673100D01*
X248022Y674569D01*
X247190Y675815D01*
X245944Y676647D01*
X244475Y676940D01*
X243006Y676647D01*
X241760Y675815D01*
X240928Y674569D01*
X240635Y673100D01*
X240928Y671631D01*
X241760Y670385D01*
X242923Y669607D01*
X242936Y669515D01*
X242214Y668337D01*
X119062D01*
Y604837D01*
X87312D01*
Y841375D01*
X117475D01*
Y741363D01*
X160457D01*
X161324Y740783D01*
X162794Y740491D01*
X164263Y740783D01*
X165130Y741363D01*
X186886D01*
X187443Y740990D01*
X188913Y740698D01*
X190382Y740990D01*
X190939Y741363D01*
X254000D01*
Y792162D01*
X244475D01*
X212725Y823913D01*
X187325Y823913D01*
Y863600D01*
X233363D01*
Y841375D01*
D02*
G37*
G36*
X306388Y896937D02*
X306387Y674688D01*
X279400Y674688D01*
X279400Y844550D01*
X238125D01*
Y896937D01*
X306388Y896937D01*
D02*
G37*
G36*
X733425Y712787D02*
X703262D01*
Y657225D01*
X676275D01*
Y712787D01*
X587375D01*
Y754062D01*
X733425D01*
Y712787D01*
D02*
G37*
G36*
X1012825Y620713D02*
X941387D01*
Y706438D01*
X1012825D01*
Y620713D01*
D02*
G37*
G36*
X611188D02*
X539750D01*
Y706438D01*
X611188D01*
Y620713D01*
D02*
G37*
G36*
X1138012Y606425D02*
X1019175Y606425D01*
X1019175Y706437D01*
X1074737Y706438D01*
X1074737Y655638D01*
X1093788D01*
Y615950D01*
X1128712D01*
Y657225D01*
X1108075D01*
Y709613D01*
X1138012D01*
Y606425D01*
D02*
G37*
G36*
X736375Y619876D02*
X735318Y618819D01*
X734925Y618231D01*
X734787Y617537D01*
Y612198D01*
Y606425D01*
X617537Y606425D01*
X617537Y706437D01*
X673100Y706438D01*
X673100Y655638D01*
X692150D01*
Y615950D01*
X727075D01*
Y657225D01*
X706438D01*
Y709613D01*
X736375D01*
Y619876D01*
D02*
G37*
G36*
X117475Y844550D02*
X74612D01*
Y592137D01*
X219075D01*
Y550863D01*
X42863D01*
Y896937D01*
X117475D01*
Y844550D01*
D02*
G37*
G36*
X287337Y512762D02*
X165100D01*
Y544512D01*
X287337D01*
Y512762D01*
D02*
G37*
G36*
X163512Y458787D02*
X41275D01*
Y544512D01*
X163512D01*
Y458787D01*
D02*
G37*
G36*
X101600Y447643D02*
X100511Y447268D01*
X100330Y447234D01*
X99113Y448047D01*
X97643Y448340D01*
X96174Y448047D01*
X94928Y447215D01*
X94096Y445969D01*
X93804Y444500D01*
X94096Y443031D01*
X94928Y441785D01*
X96174Y440952D01*
X97643Y440660D01*
X99113Y440952D01*
X100330Y441766D01*
X100511Y441732D01*
X101600Y441357D01*
Y423862D01*
X41275D01*
Y457200D01*
X101600D01*
Y447643D01*
D02*
G37*
G36*
X309562Y423862D02*
X212969D01*
X212743Y424408D01*
X211683Y425468D01*
X210299Y426041D01*
X209550D01*
Y469900D01*
X165100D01*
Y500062D01*
X292100D01*
Y550863D01*
X250825D01*
Y592137D01*
X309562D01*
Y423862D01*
D02*
G37*
G36*
X203200D02*
X104775D01*
Y457200D01*
X165100D01*
Y468312D01*
X203200D01*
Y423862D01*
D02*
G37*
G36*
X1025525Y256075D02*
X1025428Y255588D01*
X1025525Y255100D01*
Y139700D01*
X803275D01*
Y187269D01*
X804545Y188311D01*
X804863Y188248D01*
X806332Y188540D01*
X807578Y189372D01*
X808410Y190618D01*
X808702Y192087D01*
X808410Y193557D01*
X807578Y194803D01*
X806332Y195635D01*
X804863Y195927D01*
X804545Y195864D01*
X803275Y196906D01*
Y234894D01*
X804545Y235936D01*
X804863Y235873D01*
X806332Y236165D01*
X807578Y236997D01*
X808410Y238243D01*
X808702Y239713D01*
X808410Y241182D01*
X807578Y242428D01*
X806332Y243260D01*
X804863Y243552D01*
X804545Y243489D01*
X803275Y244531D01*
Y257119D01*
X804545Y258161D01*
X804863Y258098D01*
X806332Y258390D01*
X807578Y259222D01*
X808410Y260468D01*
X808702Y261938D01*
X808410Y263407D01*
X807578Y264653D01*
X806332Y265485D01*
X804863Y265777D01*
X804545Y265714D01*
X803275Y266756D01*
Y352369D01*
X804545Y353411D01*
X804863Y353348D01*
X806332Y353640D01*
X807578Y354472D01*
X808410Y355718D01*
X808702Y357188D01*
X808410Y358657D01*
X807578Y359903D01*
X806332Y360735D01*
X804863Y361027D01*
X804545Y360964D01*
X803275Y362006D01*
Y404813D01*
X867602D01*
X868281Y403543D01*
X867990Y403107D01*
X867698Y401637D01*
X867990Y400168D01*
X868822Y398922D01*
X870068Y398090D01*
X871537Y397798D01*
X873007Y398090D01*
X874253Y398922D01*
X875085Y400168D01*
X875377Y401637D01*
X875085Y403107D01*
X874794Y403543D01*
X875473Y404813D01*
X880302D01*
X880981Y403543D01*
X880690Y403107D01*
X880398Y401637D01*
X880690Y400168D01*
X881522Y398922D01*
X882768Y398090D01*
X884238Y397798D01*
X885707Y398090D01*
X886953Y398922D01*
X887785Y400168D01*
X888077Y401637D01*
X887785Y403107D01*
X887494Y403543D01*
X888173Y404813D01*
X893002D01*
X893681Y403543D01*
X893390Y403107D01*
X893098Y401637D01*
X893390Y400168D01*
X894222Y398922D01*
X895468Y398090D01*
X896937Y397798D01*
X898407Y398090D01*
X899653Y398922D01*
X900485Y400168D01*
X900777Y401637D01*
X900485Y403107D01*
X900194Y403543D01*
X900873Y404813D01*
X905702D01*
X906381Y403543D01*
X906090Y403107D01*
X905798Y401637D01*
X906090Y400168D01*
X906922Y398922D01*
X908168Y398090D01*
X909638Y397798D01*
X911107Y398090D01*
X912353Y398922D01*
X913185Y400168D01*
X913477Y401637D01*
X913185Y403107D01*
X912894Y403543D01*
X913573Y404813D01*
X915011D01*
X917122Y402702D01*
X916910Y401637D01*
X917203Y400168D01*
X918035Y398922D01*
X919281Y398090D01*
X920750Y397798D01*
X922219Y398090D01*
X923465Y398922D01*
X924297Y400168D01*
X924590Y401637D01*
X924297Y403107D01*
X924007Y403543D01*
X924018Y403569D01*
X924985Y404364D01*
X926647Y402702D01*
X926435Y401637D01*
X926728Y400168D01*
X927560Y398922D01*
X928806Y398090D01*
X930275Y397798D01*
X931744Y398090D01*
X932990Y398922D01*
X933822Y400168D01*
X934115Y401637D01*
X933822Y403107D01*
X933531Y403543D01*
X933543Y403569D01*
X934510Y404364D01*
X936172Y402702D01*
X935960Y401637D01*
X936253Y400168D01*
X937085Y398922D01*
X938331Y398090D01*
X939800Y397798D01*
X941269Y398090D01*
X942515Y398922D01*
X943347Y400168D01*
X943640Y401637D01*
X943347Y403107D01*
X943056Y403543D01*
X943068Y403569D01*
X944035Y404364D01*
X945697Y402702D01*
X945485Y401637D01*
X945778Y400168D01*
X946610Y398922D01*
X947856Y398090D01*
X949325Y397798D01*
X950794Y398090D01*
X952040Y398922D01*
X952872Y400168D01*
X953165Y401637D01*
X952872Y403107D01*
X952581Y403543D01*
X953260Y404813D01*
X954915D01*
X955593Y403543D01*
X955303Y403107D01*
X955010Y401637D01*
X955303Y400168D01*
X956135Y398922D01*
X957381Y398090D01*
X958850Y397798D01*
X960319Y398090D01*
X961565Y398922D01*
X962398Y400168D01*
X962690Y401637D01*
X962398Y403107D01*
X962106Y403543D01*
X962785Y404813D01*
X1025525D01*
Y256075D01*
D02*
G37*
G36*
X585788D02*
X585691Y255588D01*
X585788Y255100D01*
Y139700D01*
X437495D01*
Y187879D01*
X437141Y189662D01*
X436130Y191175D01*
X411987Y215318D01*
X411424Y216161D01*
X409847Y217215D01*
X407988Y217584D01*
X406128Y217215D01*
X404551Y216161D01*
X403498Y214585D01*
X403128Y212725D01*
X403498Y210865D01*
X404551Y209289D01*
X405395Y208725D01*
X428172Y185948D01*
Y139700D01*
X363537D01*
Y404813D01*
X385002D01*
X385681Y403543D01*
X385390Y403107D01*
X385098Y401637D01*
X385390Y400168D01*
X386222Y398922D01*
X387468Y398090D01*
X388937Y397798D01*
X390407Y398090D01*
X391653Y398922D01*
X392485Y400168D01*
X392777Y401637D01*
X392485Y403107D01*
X392194Y403543D01*
X392873Y404813D01*
X427865D01*
X428544Y403543D01*
X428252Y403107D01*
X427960Y401637D01*
X428252Y400168D01*
X429085Y398922D01*
X430331Y398090D01*
X431800Y397798D01*
X433269Y398090D01*
X434515Y398922D01*
X435348Y400168D01*
X435640Y401637D01*
X435348Y403107D01*
X435056Y403543D01*
X435735Y404813D01*
X440565D01*
X441244Y403543D01*
X440952Y403107D01*
X440660Y401637D01*
X440952Y400168D01*
X441785Y398922D01*
X443031Y398090D01*
X444500Y397798D01*
X445969Y398090D01*
X447215Y398922D01*
X448047Y400168D01*
X448340Y401637D01*
X448047Y403107D01*
X447757Y403543D01*
X448435Y404813D01*
X453265D01*
X453943Y403543D01*
X453652Y403107D01*
X453360Y401637D01*
X453652Y400168D01*
X454485Y398922D01*
X455731Y398090D01*
X457200Y397798D01*
X458669Y398090D01*
X459915Y398922D01*
X460747Y400168D01*
X461040Y401637D01*
X460747Y403107D01*
X460457Y403543D01*
X461135Y404813D01*
X465965D01*
X466643Y403543D01*
X466353Y403107D01*
X466060Y401637D01*
X466353Y400168D01*
X467185Y398922D01*
X468431Y398090D01*
X469900Y397798D01*
X471369Y398090D01*
X472615Y398922D01*
X473447Y400168D01*
X473740Y401637D01*
X473447Y403107D01*
X473157Y403543D01*
X473835Y404813D01*
X475274D01*
X477384Y402702D01*
X477173Y401637D01*
X477465Y400168D01*
X478297Y398922D01*
X479543Y398090D01*
X481012Y397798D01*
X482482Y398090D01*
X483728Y398922D01*
X484560Y400168D01*
X484852Y401637D01*
X484560Y403107D01*
X484269Y403543D01*
X484280Y403569D01*
X485248Y404364D01*
X486909Y402702D01*
X486698Y401637D01*
X486990Y400168D01*
X487822Y398922D01*
X489068Y398090D01*
X490537Y397798D01*
X492007Y398090D01*
X493253Y398922D01*
X494085Y400168D01*
X494377Y401637D01*
X494085Y403107D01*
X493794Y403543D01*
X494473Y404813D01*
X496127D01*
X496806Y403543D01*
X496515Y403107D01*
X496223Y401637D01*
X496515Y400168D01*
X497347Y398922D01*
X498593Y398090D01*
X500062Y397798D01*
X501532Y398090D01*
X502778Y398922D01*
X503610Y400168D01*
X503902Y401637D01*
X503691Y402702D01*
X505352Y404364D01*
X506320Y403569D01*
X506331Y403543D01*
X506040Y403107D01*
X505748Y401637D01*
X506040Y400168D01*
X506872Y398922D01*
X508118Y398090D01*
X509588Y397798D01*
X511057Y398090D01*
X512303Y398922D01*
X513135Y400168D01*
X513427Y401637D01*
X513216Y402702D01*
X515326Y404813D01*
X585788D01*
Y256075D01*
D02*
G37*
G36*
X287337Y301625D02*
X165100D01*
Y333375D01*
X287337D01*
Y301625D01*
D02*
G37*
G36*
X163512Y247650D02*
X41275D01*
Y333375D01*
X163512D01*
Y247650D01*
D02*
G37*
G36*
X101600Y236506D02*
X100511Y236130D01*
X100330Y236097D01*
X99113Y236910D01*
X97643Y237202D01*
X96174Y236910D01*
X94928Y236078D01*
X94096Y234832D01*
X93804Y233363D01*
X94096Y231893D01*
X94928Y230647D01*
X96174Y229815D01*
X97643Y229523D01*
X99113Y229815D01*
X100330Y230628D01*
X100511Y230595D01*
X101600Y230219D01*
Y212725D01*
X41275D01*
Y246063D01*
X101600D01*
Y236506D01*
D02*
G37*
G36*
X287337Y212725D02*
X212969D01*
X212743Y213271D01*
X211683Y214330D01*
X210299Y214904D01*
X209550D01*
Y258762D01*
X165100D01*
Y288925D01*
X287337D01*
Y212725D01*
D02*
G37*
G36*
X203200D02*
X104775D01*
Y246063D01*
X165100D01*
Y257175D01*
X203200D01*
Y212725D01*
D02*
G37*
G36*
X1973047Y84023D02*
X1971180D01*
Y85890D01*
X1973047D01*
Y84023D01*
D02*
G37*
G36*
X1953019Y93777D02*
X1953298Y93764D01*
X1953590Y93751D01*
X1953857Y93726D01*
X1953984Y93701D01*
X1954098Y93688D01*
X1954124D01*
X1954200Y93663D01*
X1954301Y93637D01*
X1954441Y93599D01*
X1954594Y93548D01*
X1954771Y93472D01*
X1954949Y93383D01*
X1955114Y93281D01*
X1955140Y93269D01*
X1955190Y93231D01*
X1955267Y93154D01*
X1955381Y93066D01*
X1955495Y92951D01*
X1955622Y92812D01*
X1955749Y92647D01*
X1955863Y92469D01*
X1955876Y92443D01*
X1955914Y92380D01*
X1955965Y92278D01*
X1956016Y92139D01*
X1956067Y91961D01*
X1956118Y91770D01*
X1956156Y91554D01*
X1956168Y91326D01*
Y91313D01*
Y91300D01*
Y91262D01*
Y91211D01*
X1956156Y91084D01*
X1956118Y90907D01*
X1956079Y90716D01*
X1956016Y90500D01*
X1955927Y90284D01*
X1955800Y90068D01*
X1955787Y90043D01*
X1955737Y89979D01*
X1955648Y89878D01*
X1955533Y89751D01*
X1955394Y89611D01*
X1955216Y89459D01*
X1955025Y89332D01*
X1954797Y89205D01*
X1954809D01*
X1954835Y89192D01*
X1954886Y89179D01*
X1954949Y89154D01*
X1955013Y89129D01*
X1955101Y89090D01*
X1955305Y88989D01*
X1955521Y88875D01*
X1955749Y88722D01*
X1955965Y88532D01*
X1956168Y88316D01*
Y88303D01*
X1956194Y88290D01*
X1956219Y88252D01*
X1956245Y88202D01*
X1956321Y88075D01*
X1956410Y87897D01*
X1956499Y87681D01*
X1956575Y87427D01*
X1956626Y87147D01*
X1956651Y86843D01*
Y86830D01*
Y86817D01*
Y86779D01*
Y86728D01*
X1956638Y86601D01*
X1956613Y86436D01*
X1956575Y86233D01*
X1956511Y86017D01*
X1956435Y85788D01*
X1956333Y85547D01*
Y85534D01*
X1956321Y85522D01*
X1956283Y85446D01*
X1956206Y85331D01*
X1956118Y85192D01*
X1955990Y85027D01*
X1955851Y84861D01*
X1955673Y84696D01*
X1955482Y84544D01*
X1955457Y84531D01*
X1955394Y84480D01*
X1955267Y84417D01*
X1955114Y84353D01*
X1954924Y84264D01*
X1954695Y84201D01*
X1954441Y84137D01*
X1954162Y84087D01*
X1954111D01*
X1954060Y84074D01*
X1953908D01*
X1953806Y84061D01*
X1953679D01*
X1953539Y84049D01*
X1953171D01*
X1952955Y84036D01*
X1952435D01*
X1952130Y84023D01*
X1948472D01*
Y93790D01*
X1952765D01*
X1953019Y93777D01*
D02*
G37*
G36*
X1930781Y85674D02*
X1935683D01*
Y84023D01*
X1928813D01*
Y93713D01*
X1930781D01*
Y85674D01*
D02*
G37*
G36*
X1968589Y91097D02*
X1969872D01*
Y89611D01*
X1968589D01*
Y86741D01*
Y86728D01*
Y86703D01*
Y86665D01*
Y86601D01*
Y86462D01*
Y86297D01*
X1968602Y86119D01*
Y85954D01*
Y85814D01*
X1968614Y85763D01*
Y85725D01*
X1968627Y85700D01*
X1968652Y85649D01*
X1968703Y85573D01*
X1968779Y85496D01*
X1968792D01*
X1968805Y85484D01*
X1968868Y85458D01*
X1968983Y85420D01*
X1969110Y85407D01*
X1969160D01*
X1969211Y85420D01*
X1969300Y85433D01*
X1969402Y85446D01*
X1969529Y85484D01*
X1969681Y85522D01*
X1969859Y85585D01*
X1970024Y84125D01*
X1970011D01*
X1969999Y84112D01*
X1969960Y84099D01*
X1969910Y84087D01*
X1969770Y84036D01*
X1969592Y83998D01*
X1969376Y83947D01*
X1969122Y83896D01*
X1968843Y83871D01*
X1968538Y83858D01*
X1968449D01*
X1968360Y83871D01*
X1968246Y83883D01*
X1968106Y83896D01*
X1967954Y83934D01*
X1967789Y83972D01*
X1967636Y84023D01*
X1967624Y84036D01*
X1967573Y84049D01*
X1967497Y84087D01*
X1967408Y84137D01*
X1967217Y84277D01*
X1967116Y84366D01*
X1967039Y84455D01*
X1967027Y84468D01*
X1967014Y84506D01*
X1966976Y84569D01*
X1966938Y84658D01*
X1966887Y84760D01*
X1966849Y84887D01*
X1966811Y85027D01*
X1966773Y85192D01*
Y85204D01*
X1966760Y85255D01*
Y85344D01*
X1966747Y85484D01*
X1966735Y85661D01*
Y85763D01*
Y85890D01*
X1966722Y86017D01*
Y86170D01*
Y86335D01*
Y86512D01*
Y89611D01*
X1965858D01*
Y91097D01*
X1966722D01*
Y92507D01*
X1968589Y93612D01*
Y91097D01*
D02*
G37*
G36*
X1961655Y91250D02*
X1961769D01*
X1961909Y91224D01*
X1962061Y91211D01*
X1962239Y91173D01*
X1962442Y91135D01*
X1962645Y91072D01*
X1962861Y91008D01*
X1963077Y90919D01*
X1963293Y90818D01*
X1963522Y90703D01*
X1963737Y90551D01*
X1963941Y90399D01*
X1964144Y90208D01*
X1964157Y90195D01*
X1964195Y90157D01*
X1964245Y90106D01*
X1964309Y90018D01*
X1964385Y89916D01*
X1964474Y89789D01*
X1964563Y89649D01*
X1964665Y89484D01*
X1964754Y89306D01*
X1964842Y89103D01*
X1964931Y88887D01*
X1965007Y88659D01*
X1965084Y88417D01*
X1965134Y88151D01*
X1965160Y87871D01*
X1965173Y87579D01*
Y87566D01*
Y87503D01*
X1965160Y87427D01*
Y87312D01*
X1965147Y87173D01*
X1965122Y87008D01*
X1965084Y86830D01*
X1965046Y86639D01*
X1964982Y86436D01*
X1964919Y86220D01*
X1964830Y86004D01*
X1964728Y85776D01*
X1964614Y85547D01*
X1964474Y85331D01*
X1964309Y85115D01*
X1964131Y84912D01*
X1964118Y84900D01*
X1964080Y84861D01*
X1964030Y84811D01*
X1963941Y84747D01*
X1963839Y84671D01*
X1963725Y84582D01*
X1963572Y84480D01*
X1963420Y84391D01*
X1963230Y84290D01*
X1963039Y84188D01*
X1962823Y84099D01*
X1962594Y84023D01*
X1962353Y83960D01*
X1962086Y83909D01*
X1961820Y83871D01*
X1961528Y83858D01*
X1961426D01*
X1961363Y83871D01*
X1961274D01*
X1961172Y83883D01*
X1961058Y83896D01*
X1960931Y83909D01*
X1960639Y83960D01*
X1960334Y84036D01*
X1959991Y84150D01*
X1959661Y84290D01*
X1959648D01*
X1959623Y84315D01*
X1959572Y84341D01*
X1959521Y84379D01*
X1959445Y84417D01*
X1959356Y84480D01*
X1959165Y84620D01*
X1958950Y84798D01*
X1958734Y85027D01*
X1958518Y85281D01*
X1958327Y85585D01*
Y85598D01*
X1958302Y85623D01*
X1958289Y85674D01*
X1958251Y85738D01*
X1958226Y85827D01*
X1958188Y85915D01*
X1958137Y86030D01*
X1958099Y86170D01*
X1958061Y86309D01*
X1958010Y86462D01*
X1957972Y86639D01*
X1957946Y86817D01*
X1957896Y87211D01*
X1957870Y87655D01*
Y87668D01*
Y87694D01*
Y87744D01*
X1957883Y87821D01*
Y87897D01*
X1957896Y87998D01*
X1957908Y88113D01*
X1957934Y88227D01*
X1957984Y88506D01*
X1958061Y88811D01*
X1958175Y89129D01*
X1958327Y89459D01*
Y89472D01*
X1958353Y89497D01*
X1958378Y89548D01*
X1958416Y89599D01*
X1958454Y89675D01*
X1958518Y89764D01*
X1958658Y89954D01*
X1958848Y90170D01*
X1959064Y90386D01*
X1959331Y90602D01*
X1959623Y90792D01*
X1959635D01*
X1959661Y90818D01*
X1959712Y90830D01*
X1959775Y90869D01*
X1959851Y90907D01*
X1959953Y90945D01*
X1960054Y90983D01*
X1960181Y91034D01*
X1960461Y91110D01*
X1960778Y91186D01*
X1961121Y91237D01*
X1961502Y91262D01*
X1961579D01*
X1961655Y91250D01*
D02*
G37*
G36*
X1945043Y83858D02*
X1943672D01*
X1946072Y93955D01*
X1947482D01*
X1945043Y83858D01*
D02*
G37*
G36*
X1940052Y93828D02*
X1940166Y93815D01*
X1940306Y93802D01*
X1940446Y93777D01*
X1940611Y93751D01*
X1940954Y93663D01*
X1941144Y93612D01*
X1941322Y93535D01*
X1941500Y93447D01*
X1941665Y93358D01*
X1941830Y93243D01*
X1941982Y93116D01*
X1941995Y93104D01*
X1942021Y93078D01*
X1942059Y93040D01*
X1942109Y92989D01*
X1942160Y92913D01*
X1942224Y92837D01*
X1942300Y92735D01*
X1942376Y92621D01*
X1942516Y92367D01*
X1942643Y92062D01*
X1942681Y91897D01*
X1942719Y91707D01*
X1942744Y91529D01*
X1942757Y91326D01*
Y91313D01*
Y91300D01*
Y91262D01*
Y91211D01*
X1942744Y91084D01*
X1942719Y90919D01*
X1942668Y90729D01*
X1942605Y90526D01*
X1942516Y90310D01*
X1942401Y90106D01*
X1942389Y90081D01*
X1942338Y90018D01*
X1942262Y89929D01*
X1942148Y89814D01*
X1942008Y89687D01*
X1941830Y89548D01*
X1941640Y89421D01*
X1941411Y89306D01*
X1941424D01*
X1941449Y89294D01*
X1941487Y89268D01*
X1941551Y89243D01*
X1941690Y89167D01*
X1941868Y89065D01*
X1942071Y88925D01*
X1942274Y88760D01*
X1942465Y88570D01*
X1942643Y88341D01*
Y88329D01*
X1942655Y88316D01*
X1942681Y88278D01*
X1942706Y88227D01*
X1942782Y88100D01*
X1942859Y87922D01*
X1942935Y87719D01*
X1943011Y87465D01*
X1943062Y87198D01*
X1943075Y86893D01*
Y86881D01*
Y86830D01*
Y86766D01*
X1943062Y86665D01*
X1943049Y86551D01*
X1943024Y86424D01*
X1942998Y86271D01*
X1942973Y86106D01*
X1942859Y85763D01*
X1942795Y85573D01*
X1942706Y85382D01*
X1942617Y85204D01*
X1942490Y85027D01*
X1942363Y84849D01*
X1942211Y84684D01*
X1942198Y84671D01*
X1942173Y84646D01*
X1942122Y84607D01*
X1942059Y84557D01*
X1941970Y84493D01*
X1941868Y84417D01*
X1941741Y84341D01*
X1941601Y84264D01*
X1941449Y84188D01*
X1941271Y84112D01*
X1941081Y84036D01*
X1940878Y83972D01*
X1940662Y83922D01*
X1940420Y83883D01*
X1940179Y83858D01*
X1939912Y83845D01*
X1939785D01*
X1939696Y83858D01*
X1939582Y83871D01*
X1939442Y83883D01*
X1939290Y83909D01*
X1939138Y83934D01*
X1938782Y84010D01*
X1938414Y84137D01*
X1938223Y84226D01*
X1938045Y84315D01*
X1937868Y84417D01*
X1937690Y84544D01*
X1937677Y84557D01*
X1937652Y84582D01*
X1937588Y84633D01*
X1937525Y84696D01*
X1937448Y84785D01*
X1937360Y84887D01*
X1937271Y85001D01*
X1937169Y85141D01*
X1937068Y85293D01*
X1936979Y85458D01*
X1936890Y85649D01*
X1936814Y85852D01*
X1936750Y86068D01*
X1936699Y86309D01*
X1936661Y86551D01*
X1936648Y86817D01*
Y86830D01*
Y86855D01*
Y86893D01*
X1936661Y86957D01*
Y87020D01*
X1936674Y87109D01*
X1936699Y87300D01*
X1936737Y87528D01*
X1936814Y87770D01*
X1936902Y88024D01*
X1937029Y88278D01*
Y88290D01*
X1937042Y88303D01*
X1937106Y88392D01*
X1937195Y88506D01*
X1937334Y88659D01*
X1937512Y88824D01*
X1937715Y88989D01*
X1937982Y89154D01*
X1938274Y89306D01*
X1938261D01*
X1938236Y89319D01*
X1938210Y89345D01*
X1938160Y89357D01*
X1938020Y89433D01*
X1937868Y89522D01*
X1937690Y89649D01*
X1937512Y89789D01*
X1937347Y89954D01*
X1937207Y90145D01*
X1937195Y90170D01*
X1937156Y90233D01*
X1937106Y90348D01*
X1937055Y90487D01*
X1936991Y90665D01*
X1936940Y90869D01*
X1936902Y91084D01*
X1936890Y91326D01*
Y91338D01*
Y91376D01*
Y91427D01*
X1936902Y91503D01*
X1936915Y91592D01*
X1936928Y91707D01*
X1936991Y91961D01*
X1937080Y92240D01*
X1937144Y92393D01*
X1937207Y92532D01*
X1937296Y92685D01*
X1937398Y92837D01*
X1937512Y92977D01*
X1937652Y93116D01*
X1937664Y93129D01*
X1937690Y93142D01*
X1937728Y93180D01*
X1937791Y93231D01*
X1937868Y93281D01*
X1937969Y93345D01*
X1938083Y93408D01*
X1938210Y93485D01*
X1938350Y93548D01*
X1938515Y93612D01*
X1938693Y93675D01*
X1938884Y93726D01*
X1939099Y93777D01*
X1939328Y93815D01*
X1939569Y93828D01*
X1939823Y93840D01*
X1939950D01*
X1940052Y93828D01*
D02*
G37*
%LPC*%
G36*
X1863500Y1162010D02*
X1860016Y1161667D01*
X1856665Y1160650D01*
X1853578Y1159000D01*
X1850871Y1156779D01*
X1848650Y1154072D01*
X1847000Y1150985D01*
X1845983Y1147634D01*
X1845640Y1144150D01*
X1845983Y1140666D01*
X1847000Y1137315D01*
X1848650Y1134228D01*
X1850871Y1131521D01*
X1853578Y1129300D01*
X1856665Y1127650D01*
X1860016Y1126633D01*
X1863500Y1126290D01*
X1866984Y1126633D01*
X1870335Y1127650D01*
X1873423Y1129300D01*
X1876129Y1131521D01*
X1878350Y1134228D01*
X1880000Y1137315D01*
X1881017Y1140666D01*
X1881360Y1144150D01*
X1881017Y1147634D01*
X1880000Y1150985D01*
X1878350Y1154072D01*
X1876129Y1156779D01*
X1873423Y1159000D01*
X1870335Y1160650D01*
X1866984Y1161667D01*
X1863500Y1162010D01*
D02*
G37*
G36*
X1736500D02*
X1733016Y1161667D01*
X1729665Y1160650D01*
X1726577Y1159000D01*
X1723871Y1156779D01*
X1721650Y1154072D01*
X1720000Y1150985D01*
X1718983Y1147634D01*
X1718640Y1144150D01*
X1718983Y1140666D01*
X1720000Y1137315D01*
X1721650Y1134228D01*
X1723871Y1131521D01*
X1726577Y1129300D01*
X1729665Y1127650D01*
X1733016Y1126633D01*
X1736500Y1126290D01*
X1739984Y1126633D01*
X1743335Y1127650D01*
X1746422Y1129300D01*
X1749129Y1131521D01*
X1751350Y1134228D01*
X1753000Y1137315D01*
X1754017Y1140666D01*
X1754360Y1144150D01*
X1754017Y1147634D01*
X1753000Y1150985D01*
X1751350Y1154072D01*
X1749129Y1156779D01*
X1746422Y1159000D01*
X1743335Y1160650D01*
X1739984Y1161667D01*
X1736500Y1162010D01*
D02*
G37*
G36*
X1883282Y1124763D02*
Y1111882D01*
X1896163D01*
X1896072Y1112798D01*
X1895212Y1115633D01*
X1893816Y1118246D01*
X1891936Y1120536D01*
X1889646Y1122416D01*
X1887033Y1123812D01*
X1884198Y1124672D01*
X1883282Y1124763D01*
D02*
G37*
G36*
X1720782D02*
Y1111882D01*
X1733663D01*
X1733572Y1112798D01*
X1732712Y1115633D01*
X1731316Y1118246D01*
X1729436Y1120536D01*
X1727146Y1122416D01*
X1724533Y1123812D01*
X1721698Y1124672D01*
X1720782Y1124763D01*
D02*
G37*
G36*
X1716718Y1124763D02*
X1715802Y1124672D01*
X1712967Y1123812D01*
X1710354Y1122416D01*
X1708064Y1120536D01*
X1706184Y1118246D01*
X1704788Y1115633D01*
X1703928Y1112798D01*
X1703837Y1111882D01*
X1716718D01*
Y1124763D01*
D02*
G37*
G36*
X1879218D02*
X1878302Y1124672D01*
X1875467Y1123812D01*
X1872854Y1122416D01*
X1870564Y1120536D01*
X1868684Y1118246D01*
X1867288Y1115633D01*
X1866428Y1112798D01*
X1866337Y1111882D01*
X1879218D01*
Y1124763D01*
D02*
G37*
G36*
X1825500Y1126331D02*
X1823538Y1126072D01*
X1821710Y1125315D01*
X1820139Y1124110D01*
X1818935Y1122540D01*
X1818177Y1120712D01*
X1817919Y1118750D01*
X1818177Y1116788D01*
X1818935Y1114960D01*
X1820139Y1113390D01*
X1821710Y1112185D01*
X1823538Y1111428D01*
X1825500Y1111169D01*
X1827462Y1111428D01*
X1829290Y1112185D01*
X1830860Y1113390D01*
X1832065Y1114960D01*
X1832823Y1116788D01*
X1833081Y1118750D01*
X1832823Y1120712D01*
X1832065Y1122540D01*
X1830860Y1124110D01*
X1829290Y1125315D01*
X1827462Y1126072D01*
X1825500Y1126331D01*
D02*
G37*
G36*
X1805100D02*
X1803138Y1126072D01*
X1801310Y1125315D01*
X1799740Y1124110D01*
X1798535Y1122540D01*
X1797778Y1120712D01*
X1797519Y1118750D01*
X1797778Y1116788D01*
X1798535Y1114960D01*
X1799740Y1113390D01*
X1801310Y1112185D01*
X1803138Y1111428D01*
X1805100Y1111169D01*
X1807062Y1111428D01*
X1808890Y1112185D01*
X1810461Y1113390D01*
X1811665Y1114960D01*
X1812422Y1116788D01*
X1812681Y1118750D01*
X1812422Y1120712D01*
X1811665Y1122540D01*
X1810461Y1124110D01*
X1808890Y1125315D01*
X1807062Y1126072D01*
X1805100Y1126331D01*
D02*
G37*
G36*
X1784700D02*
X1782738Y1126072D01*
X1780910Y1125315D01*
X1779339Y1124110D01*
X1778135Y1122540D01*
X1777377Y1120712D01*
X1777119Y1118750D01*
X1777377Y1116788D01*
X1778135Y1114960D01*
X1779339Y1113390D01*
X1780910Y1112185D01*
X1782738Y1111428D01*
X1784700Y1111169D01*
X1786662Y1111428D01*
X1788490Y1112185D01*
X1790060Y1113390D01*
X1791265Y1114960D01*
X1792023Y1116788D01*
X1792281Y1118750D01*
X1792023Y1120712D01*
X1791265Y1122540D01*
X1790060Y1124110D01*
X1788490Y1125315D01*
X1786662Y1126072D01*
X1784700Y1126331D01*
D02*
G37*
G36*
X1767550Y1126350D02*
X1761050D01*
X1759386Y1126019D01*
X1757974Y1125076D01*
X1757032Y1123664D01*
X1756700Y1122000D01*
Y1115500D01*
X1757032Y1113836D01*
X1757974Y1112424D01*
X1759386Y1111481D01*
X1761050Y1111151D01*
X1767550D01*
X1769214Y1111481D01*
X1770626Y1112424D01*
X1771568Y1113836D01*
X1771900Y1115500D01*
Y1122000D01*
X1771568Y1123664D01*
X1770626Y1125076D01*
X1769214Y1126019D01*
X1767550Y1126350D01*
D02*
G37*
G36*
X1868600Y1060331D02*
X1866638Y1060072D01*
X1864810Y1059315D01*
X1863239Y1058111D01*
X1862035Y1056540D01*
X1861277Y1054712D01*
X1861019Y1052750D01*
X1861277Y1050788D01*
X1862035Y1048960D01*
X1863239Y1047390D01*
X1864810Y1046185D01*
X1866638Y1045427D01*
X1868600Y1045169D01*
X1870562Y1045427D01*
X1872390Y1046185D01*
X1873961Y1047390D01*
X1875165Y1048960D01*
X1875923Y1050788D01*
X1876181Y1052750D01*
X1875923Y1054712D01*
X1875165Y1056540D01*
X1873961Y1058111D01*
X1872390Y1059315D01*
X1870562Y1060072D01*
X1868600Y1060331D01*
D02*
G37*
G36*
X1845700D02*
X1843738Y1060072D01*
X1841910Y1059315D01*
X1840340Y1058111D01*
X1839135Y1056540D01*
X1838378Y1054712D01*
X1838119Y1052750D01*
X1838378Y1050788D01*
X1839135Y1048960D01*
X1840340Y1047390D01*
X1841910Y1046185D01*
X1843738Y1045427D01*
X1845700Y1045169D01*
X1847662Y1045427D01*
X1849490Y1046185D01*
X1851060Y1047390D01*
X1852265Y1048960D01*
X1853022Y1050788D01*
X1853281Y1052750D01*
X1853022Y1054712D01*
X1852265Y1056540D01*
X1851060Y1058111D01*
X1849490Y1059315D01*
X1847662Y1060072D01*
X1845700Y1060331D01*
D02*
G37*
G36*
X1754300D02*
X1752338Y1060072D01*
X1750510Y1059315D01*
X1748940Y1058111D01*
X1747735Y1056540D01*
X1746978Y1054712D01*
X1746719Y1052750D01*
X1746978Y1050788D01*
X1747735Y1048960D01*
X1748940Y1047390D01*
X1750510Y1046185D01*
X1752338Y1045427D01*
X1754300Y1045169D01*
X1756262Y1045427D01*
X1758090Y1046185D01*
X1759660Y1047390D01*
X1760865Y1048960D01*
X1761622Y1050788D01*
X1761881Y1052750D01*
X1761622Y1054712D01*
X1760865Y1056540D01*
X1759660Y1058111D01*
X1758090Y1059315D01*
X1756262Y1060072D01*
X1754300Y1060331D01*
D02*
G37*
G36*
X1731400D02*
X1729438Y1060072D01*
X1727610Y1059315D01*
X1726039Y1058111D01*
X1724835Y1056540D01*
X1724077Y1054712D01*
X1723819Y1052750D01*
X1724077Y1050788D01*
X1724835Y1048960D01*
X1726039Y1047390D01*
X1727610Y1046185D01*
X1729438Y1045427D01*
X1731400Y1045169D01*
X1733362Y1045427D01*
X1735190Y1046185D01*
X1736761Y1047390D01*
X1737965Y1048960D01*
X1738723Y1050788D01*
X1738981Y1052750D01*
X1738723Y1054712D01*
X1737965Y1056540D01*
X1736761Y1058111D01*
X1735190Y1059315D01*
X1733362Y1060072D01*
X1731400Y1060331D01*
D02*
G37*
G36*
X1943100Y1010315D02*
X1941631Y1010023D01*
X1940385Y1009190D01*
X1939552Y1007944D01*
X1939260Y1006475D01*
X1939552Y1005006D01*
X1940385Y1003760D01*
X1941631Y1002927D01*
X1943100Y1002635D01*
X1944569Y1002927D01*
X1945815Y1003760D01*
X1946647Y1005006D01*
X1946940Y1006475D01*
X1946647Y1007944D01*
X1945815Y1009190D01*
X1944569Y1010023D01*
X1943100Y1010315D01*
D02*
G37*
G36*
X1917700D02*
X1916231Y1010023D01*
X1914985Y1009190D01*
X1914153Y1007944D01*
X1913860Y1006475D01*
X1914153Y1005006D01*
X1914985Y1003760D01*
X1916231Y1002927D01*
X1917700Y1002635D01*
X1919169Y1002927D01*
X1920415Y1003760D01*
X1921248Y1005006D01*
X1921540Y1006475D01*
X1921248Y1007944D01*
X1920415Y1009190D01*
X1919169Y1010023D01*
X1917700Y1010315D01*
D02*
G37*
G36*
X1879600D02*
X1878131Y1010023D01*
X1876885Y1009190D01*
X1876053Y1007944D01*
X1875760Y1006475D01*
X1876053Y1005006D01*
X1876885Y1003760D01*
X1878131Y1002927D01*
X1879600Y1002635D01*
X1881069Y1002927D01*
X1882315Y1003760D01*
X1883147Y1005006D01*
X1883440Y1006475D01*
X1883147Y1007944D01*
X1882315Y1009190D01*
X1881069Y1010023D01*
X1879600Y1010315D01*
D02*
G37*
G36*
X1854200D02*
X1852731Y1010023D01*
X1851485Y1009190D01*
X1850652Y1007944D01*
X1850360Y1006475D01*
X1850652Y1005006D01*
X1851485Y1003760D01*
X1852731Y1002927D01*
X1854200Y1002635D01*
X1855669Y1002927D01*
X1856915Y1003760D01*
X1857747Y1005006D01*
X1858040Y1006475D01*
X1857747Y1007944D01*
X1856915Y1009190D01*
X1855669Y1010023D01*
X1854200Y1010315D01*
D02*
G37*
G36*
X1806575D02*
X1805106Y1010023D01*
X1803860Y1009190D01*
X1803027Y1007944D01*
X1802735Y1006475D01*
X1803027Y1005006D01*
X1803860Y1003760D01*
X1805106Y1002927D01*
X1806575Y1002635D01*
X1808044Y1002927D01*
X1809290Y1003760D01*
X1810123Y1005006D01*
X1810415Y1006475D01*
X1810123Y1007944D01*
X1809290Y1009190D01*
X1808044Y1010023D01*
X1806575Y1010315D01*
D02*
G37*
G36*
X1781175D02*
X1779706Y1010023D01*
X1778460Y1009190D01*
X1777628Y1007944D01*
X1777335Y1006475D01*
X1777628Y1005006D01*
X1778460Y1003760D01*
X1779706Y1002927D01*
X1781175Y1002635D01*
X1782644Y1002927D01*
X1783890Y1003760D01*
X1784722Y1005006D01*
X1785015Y1006475D01*
X1784722Y1007944D01*
X1783890Y1009190D01*
X1782644Y1010023D01*
X1781175Y1010315D01*
D02*
G37*
G36*
X1743075D02*
X1741606Y1010023D01*
X1740360Y1009190D01*
X1739527Y1007944D01*
X1739235Y1006475D01*
X1739527Y1005006D01*
X1740360Y1003760D01*
X1741606Y1002927D01*
X1743075Y1002635D01*
X1744544Y1002927D01*
X1745790Y1003760D01*
X1746622Y1005006D01*
X1746915Y1006475D01*
X1746622Y1007944D01*
X1745790Y1009190D01*
X1744544Y1010023D01*
X1743075Y1010315D01*
D02*
G37*
G36*
X1717675D02*
X1716206Y1010023D01*
X1714960Y1009190D01*
X1714128Y1007944D01*
X1713835Y1006475D01*
X1714128Y1005006D01*
X1714960Y1003760D01*
X1716206Y1002927D01*
X1717675Y1002635D01*
X1719144Y1002927D01*
X1720390Y1003760D01*
X1721223Y1005006D01*
X1721515Y1006475D01*
X1721223Y1007944D01*
X1720390Y1009190D01*
X1719144Y1010023D01*
X1717675Y1010315D01*
D02*
G37*
G36*
X55563Y910302D02*
X54093Y910010D01*
X52847Y909178D01*
X52015Y907932D01*
X51723Y906462D01*
X52015Y904993D01*
X52847Y903747D01*
X54093Y902915D01*
X55563Y902623D01*
X57032Y902915D01*
X58278Y903747D01*
X59110Y904993D01*
X59402Y906462D01*
X59110Y907932D01*
X58278Y909178D01*
X57032Y910010D01*
X55563Y910302D01*
D02*
G37*
G36*
X246063D02*
X244593Y910010D01*
X243347Y909178D01*
X242515Y907932D01*
X242223Y906462D01*
X242515Y904993D01*
X243347Y903747D01*
X244593Y902915D01*
X246063Y902623D01*
X247532Y902915D01*
X248778Y903747D01*
X249610Y904993D01*
X249902Y906462D01*
X249610Y907932D01*
X248778Y909178D01*
X247532Y910010D01*
X246063Y910302D01*
D02*
G37*
G36*
X173037Y888077D02*
X171568Y887785D01*
X170322Y886953D01*
X169490Y885707D01*
X169198Y884238D01*
X169490Y882768D01*
X170322Y881522D01*
X171568Y880690D01*
X173037Y880398D01*
X174507Y880690D01*
X175753Y881522D01*
X176585Y882768D01*
X176877Y884238D01*
X176585Y885707D01*
X175753Y886953D01*
X174507Y887785D01*
X173037Y888077D01*
D02*
G37*
G36*
X1068388Y629315D02*
X1066918Y629022D01*
X1065672Y628190D01*
X1064840Y626944D01*
X1064548Y625475D01*
X1064840Y624006D01*
X1065672Y622760D01*
X1066918Y621927D01*
X1068388Y621635D01*
X1069857Y621927D01*
X1071103Y622760D01*
X1071935Y624006D01*
X1072227Y625475D01*
X1071935Y626944D01*
X1071103Y628190D01*
X1069857Y629022D01*
X1068388Y629315D01*
D02*
G37*
G36*
X1079500Y621235D02*
X1078031Y620943D01*
X1076785Y620110D01*
X1075953Y618865D01*
X1075660Y617395D01*
X1075953Y615926D01*
X1076785Y614680D01*
X1078031Y613848D01*
X1079500Y613555D01*
X1080969Y613848D01*
X1082215Y614680D01*
X1083047Y615926D01*
X1083340Y617395D01*
X1083047Y618865D01*
X1082215Y620110D01*
X1080969Y620943D01*
X1079500Y621235D01*
D02*
G37*
G36*
X681038Y632490D02*
X679568Y632197D01*
X678322Y631365D01*
X677490Y630119D01*
X677198Y628650D01*
X677490Y627181D01*
X678322Y625935D01*
X679568Y625103D01*
X681038Y624810D01*
X682507Y625103D01*
X683753Y625935D01*
X684585Y627181D01*
X684877Y628650D01*
X684585Y630119D01*
X683753Y631365D01*
X682507Y632197D01*
X681038Y632490D01*
D02*
G37*
G36*
X161925Y448340D02*
X160456Y448047D01*
X159210Y447215D01*
X158378Y445969D01*
X158085Y444500D01*
X158378Y443031D01*
X159210Y441785D01*
X160456Y440952D01*
X161925Y440660D01*
X163394Y440952D01*
X164640Y441785D01*
X165473Y443031D01*
X165765Y444500D01*
X165473Y445969D01*
X164640Y447215D01*
X163394Y448047D01*
X161925Y448340D01*
D02*
G37*
G36*
X949325Y383252D02*
X947856Y382960D01*
X946610Y382128D01*
X945778Y380882D01*
X945485Y379412D01*
X945778Y377943D01*
X946610Y376697D01*
X947856Y375865D01*
X949325Y375573D01*
X950794Y375865D01*
X952040Y376697D01*
X952872Y377943D01*
X953165Y379412D01*
X952872Y380882D01*
X952040Y382128D01*
X950794Y382960D01*
X949325Y383252D01*
D02*
G37*
G36*
X939800D02*
X938331Y382960D01*
X937085Y382128D01*
X936253Y380882D01*
X935960Y379412D01*
X936253Y377943D01*
X937085Y376697D01*
X938331Y375865D01*
X939800Y375573D01*
X941269Y375865D01*
X942515Y376697D01*
X943347Y377943D01*
X943640Y379412D01*
X943347Y380882D01*
X942515Y382128D01*
X941269Y382960D01*
X939800Y383252D01*
D02*
G37*
G36*
X930275D02*
X928806Y382960D01*
X927560Y382128D01*
X926728Y380882D01*
X926435Y379412D01*
X926728Y377943D01*
X927560Y376697D01*
X928806Y375865D01*
X930275Y375573D01*
X931744Y375865D01*
X932990Y376697D01*
X933822Y377943D01*
X934115Y379412D01*
X933822Y380882D01*
X932990Y382128D01*
X931744Y382960D01*
X930275Y383252D01*
D02*
G37*
G36*
X903288D02*
X901818Y382960D01*
X900572Y382128D01*
X899740Y380882D01*
X899448Y379412D01*
X899740Y377943D01*
X900572Y376697D01*
X901818Y375865D01*
X903288Y375573D01*
X904757Y375865D01*
X906003Y376697D01*
X906835Y377943D01*
X907127Y379412D01*
X906835Y380882D01*
X906003Y382128D01*
X904757Y382960D01*
X903288Y383252D01*
D02*
G37*
G36*
X890587D02*
X889118Y382960D01*
X887872Y382128D01*
X887040Y380882D01*
X886748Y379412D01*
X887040Y377943D01*
X887872Y376697D01*
X889118Y375865D01*
X890587Y375573D01*
X892057Y375865D01*
X893303Y376697D01*
X894135Y377943D01*
X894427Y379412D01*
X894135Y380882D01*
X893303Y382128D01*
X892057Y382960D01*
X890587Y383252D01*
D02*
G37*
G36*
X877887D02*
X876418Y382960D01*
X875172Y382128D01*
X874340Y380882D01*
X874048Y379412D01*
X874340Y377943D01*
X875172Y376697D01*
X876418Y375865D01*
X877887Y375573D01*
X879357Y375865D01*
X880603Y376697D01*
X881435Y377943D01*
X881727Y379412D01*
X881435Y380882D01*
X880603Y382128D01*
X879357Y382960D01*
X877887Y383252D01*
D02*
G37*
G36*
X838200D02*
X836731Y382960D01*
X835485Y382128D01*
X834652Y380882D01*
X834360Y379412D01*
X834652Y377943D01*
X835485Y376697D01*
X836731Y375865D01*
X838200Y375573D01*
X839669Y375865D01*
X840915Y376697D01*
X841748Y377943D01*
X842040Y379412D01*
X841748Y380882D01*
X840915Y382128D01*
X839669Y382960D01*
X838200Y383252D01*
D02*
G37*
G36*
X827087D02*
X825618Y382960D01*
X824372Y382128D01*
X823540Y380882D01*
X823248Y379412D01*
X823540Y377943D01*
X824372Y376697D01*
X825618Y375865D01*
X827087Y375573D01*
X828557Y375865D01*
X829803Y376697D01*
X830635Y377943D01*
X830927Y379412D01*
X830635Y380882D01*
X829803Y382128D01*
X828557Y382960D01*
X827087Y383252D01*
D02*
G37*
G36*
X815975D02*
X814506Y382960D01*
X813260Y382128D01*
X812428Y380882D01*
X812135Y379412D01*
X812428Y377943D01*
X813260Y376697D01*
X814506Y375865D01*
X815975Y375573D01*
X817444Y375865D01*
X818690Y376697D01*
X819522Y377943D01*
X819815Y379412D01*
X819522Y380882D01*
X818690Y382128D01*
X817444Y382960D01*
X815975Y383252D01*
D02*
G37*
G36*
X849313Y383121D02*
X847843Y382829D01*
X846597Y381996D01*
X845765Y380751D01*
X845473Y379281D01*
X845765Y377812D01*
X846597Y376566D01*
X847843Y375734D01*
X849313Y375442D01*
X850782Y375734D01*
X852028Y376566D01*
X852860Y377812D01*
X853152Y379281D01*
X852860Y380751D01*
X852028Y381996D01*
X850782Y382829D01*
X849313Y383121D01*
D02*
G37*
G36*
X948580Y372885D02*
X947110Y372593D01*
X945865Y371760D01*
X945032Y370515D01*
X944740Y369045D01*
X945032Y367576D01*
X945865Y366330D01*
X947110Y365498D01*
X948580Y365205D01*
X950049Y365498D01*
X951295Y366330D01*
X952127Y367576D01*
X952420Y369045D01*
X952127Y370515D01*
X951295Y371760D01*
X950049Y372593D01*
X948580Y372885D01*
D02*
G37*
G36*
X849313Y361027D02*
X847843Y360735D01*
X846597Y359903D01*
X845765Y358657D01*
X845473Y357188D01*
X845765Y355718D01*
X846597Y354472D01*
X847843Y353640D01*
X849313Y353348D01*
X850782Y353640D01*
X852028Y354472D01*
X852860Y355718D01*
X853152Y357188D01*
X852860Y358657D01*
X852028Y359903D01*
X850782Y360735D01*
X849313Y361027D01*
D02*
G37*
G36*
X838200D02*
X836731Y360735D01*
X835485Y359903D01*
X834652Y358657D01*
X834360Y357188D01*
X834652Y355718D01*
X835485Y354472D01*
X836731Y353640D01*
X838200Y353348D01*
X839669Y353640D01*
X840915Y354472D01*
X841748Y355718D01*
X842040Y357188D01*
X841748Y358657D01*
X840915Y359903D01*
X839669Y360735D01*
X838200Y361027D01*
D02*
G37*
G36*
X827087D02*
X825618Y360735D01*
X824372Y359903D01*
X823540Y358657D01*
X823248Y357188D01*
X823540Y355718D01*
X824372Y354472D01*
X825618Y353640D01*
X827087Y353348D01*
X828557Y353640D01*
X829803Y354472D01*
X830635Y355718D01*
X830927Y357188D01*
X830635Y358657D01*
X829803Y359903D01*
X828557Y360735D01*
X827087Y361027D01*
D02*
G37*
G36*
X815975D02*
X814506Y360735D01*
X813260Y359903D01*
X812428Y358657D01*
X812135Y357188D01*
X812428Y355718D01*
X813260Y354472D01*
X814506Y353640D01*
X815975Y353348D01*
X817444Y353640D01*
X818690Y354472D01*
X819522Y355718D01*
X819815Y357188D01*
X819522Y358657D01*
X818690Y359903D01*
X817444Y360735D01*
X815975Y361027D01*
D02*
G37*
G36*
X942975Y359440D02*
X941506Y359147D01*
X940260Y358315D01*
X939427Y357069D01*
X939135Y355600D01*
X939427Y354131D01*
X940260Y352885D01*
X941506Y352052D01*
X942975Y351760D01*
X944444Y352052D01*
X945690Y352885D01*
X946523Y354131D01*
X946815Y355600D01*
X946523Y357069D01*
X945690Y358315D01*
X944444Y359147D01*
X942975Y359440D01*
D02*
G37*
G36*
X920750Y356265D02*
X919281Y355973D01*
X918035Y355140D01*
X917203Y353894D01*
X916910Y352425D01*
X917203Y350956D01*
X918035Y349710D01*
X919281Y348877D01*
X920750Y348585D01*
X922219Y348877D01*
X923465Y349710D01*
X924297Y350956D01*
X924590Y352425D01*
X924297Y353894D01*
X923465Y355140D01*
X922219Y355973D01*
X920750Y356265D01*
D02*
G37*
G36*
X966787Y353090D02*
X965318Y352798D01*
X964072Y351965D01*
X963240Y350719D01*
X962948Y349250D01*
X963240Y347781D01*
X964072Y346535D01*
Y345615D01*
X963240Y344369D01*
X962948Y342900D01*
X963240Y341431D01*
X964072Y340185D01*
Y339265D01*
X963240Y338019D01*
X962948Y336550D01*
X963240Y335081D01*
X963550Y334616D01*
X963256Y333732D01*
X962372Y333437D01*
X961907Y333747D01*
X960437Y334040D01*
X958968Y333747D01*
X957722Y332915D01*
X956890Y331669D01*
X956598Y330200D01*
X956890Y328731D01*
X957722Y327485D01*
X958968Y326652D01*
X960437Y326360D01*
X961907Y326652D01*
X963153Y327485D01*
X964072D01*
X965318Y326652D01*
X966787Y326360D01*
X968257Y326652D01*
X969503Y327485D01*
X970335Y328731D01*
X970627Y330200D01*
X970335Y331669D01*
X969503Y332915D01*
Y333835D01*
X970335Y335081D01*
X970627Y336550D01*
X970335Y338019D01*
X969503Y339265D01*
Y340185D01*
X970335Y341431D01*
X970627Y342900D01*
X970335Y344369D01*
X969503Y345615D01*
Y346535D01*
X970335Y347781D01*
X970627Y349250D01*
X970335Y350719D01*
X969503Y351965D01*
X968257Y352798D01*
X966787Y353090D01*
D02*
G37*
G36*
X946825Y335972D02*
X944965Y335602D01*
X943389Y334549D01*
X942336Y332972D01*
X941966Y331113D01*
X942336Y329253D01*
X943389Y327677D01*
X944965Y326623D01*
X946825Y326253D01*
X948685Y326623D01*
X950261Y327677D01*
X951314Y329253D01*
X951684Y331113D01*
X951314Y332972D01*
X950261Y334549D01*
X948685Y335602D01*
X946825Y335972D01*
D02*
G37*
G36*
X868363Y351502D02*
X866893Y351210D01*
X865647Y350378D01*
X864815Y349132D01*
X864523Y347663D01*
X864815Y346193D01*
X865647Y344947D01*
Y344028D01*
X864815Y342782D01*
X864523Y341312D01*
X864815Y339843D01*
X865647Y338597D01*
Y337678D01*
X864815Y336432D01*
X864523Y334963D01*
X864815Y333493D01*
X865647Y332247D01*
Y331328D01*
X864815Y330082D01*
X864523Y328613D01*
X864815Y327143D01*
X865647Y325897D01*
X866893Y325065D01*
X868363Y324773D01*
X869832Y325065D01*
X871078Y325897D01*
X871997D01*
X873243Y325065D01*
X874713Y324773D01*
X876182Y325065D01*
X877428Y325897D01*
X878260Y327143D01*
X878318Y327434D01*
X879613D01*
X879748Y326753D01*
X880801Y325176D01*
X882378Y324123D01*
X884238Y323753D01*
X886097Y324123D01*
X887674Y325176D01*
X888727Y326753D01*
X889097Y328613D01*
X888727Y330472D01*
X887674Y332049D01*
X886097Y333102D01*
X884238Y333472D01*
X882378Y333102D01*
X880801Y332049D01*
X879748Y330472D01*
X879613Y329791D01*
X878318D01*
X878260Y330082D01*
X877428Y331328D01*
X876182Y332160D01*
X874713Y332452D01*
X873243Y332160D01*
X872778Y331850D01*
X871894Y332144D01*
X871600Y333028D01*
X871910Y333493D01*
X872202Y334963D01*
X871910Y336432D01*
X871078Y337678D01*
Y338597D01*
X871910Y339843D01*
X872202Y341312D01*
X871910Y342782D01*
X871078Y344028D01*
Y344947D01*
X871910Y346193D01*
X872202Y347663D01*
X871910Y349132D01*
X871078Y350378D01*
X869832Y351210D01*
X868363Y351502D01*
D02*
G37*
G36*
X874713Y300702D02*
X873243Y300410D01*
X871997Y299578D01*
X871078D01*
X869832Y300410D01*
X868363Y300702D01*
X866893Y300410D01*
X865647Y299578D01*
X864815Y298332D01*
X864523Y296863D01*
X864815Y295393D01*
X865647Y294147D01*
Y293228D01*
X864815Y291982D01*
X864523Y290513D01*
X864815Y289043D01*
X865647Y287797D01*
Y286878D01*
X864815Y285632D01*
X864523Y284163D01*
X864815Y282693D01*
X865647Y281447D01*
Y280528D01*
X864815Y279282D01*
X864523Y277812D01*
X864815Y276343D01*
X865647Y275097D01*
Y274178D01*
X864815Y272932D01*
X864523Y271462D01*
X864815Y269993D01*
X865647Y268747D01*
X866893Y267915D01*
X868363Y267623D01*
X869832Y267915D01*
X871078Y268747D01*
X871997D01*
X873243Y267915D01*
X874713Y267623D01*
X876182Y267915D01*
X877428Y268747D01*
X878260Y269993D01*
X878552Y271462D01*
X878260Y272932D01*
X877428Y274178D01*
X876182Y275010D01*
X874713Y275302D01*
X873243Y275010D01*
X872778Y274699D01*
X871894Y274994D01*
X871600Y275878D01*
X871910Y276343D01*
X872202Y277812D01*
X871910Y279282D01*
X871078Y280528D01*
Y281447D01*
X871910Y282693D01*
X872202Y284163D01*
X871910Y285632D01*
X871078Y286878D01*
Y287797D01*
X871910Y289043D01*
X872202Y290513D01*
X871910Y291982D01*
X871600Y292447D01*
X871894Y293331D01*
X872778Y293626D01*
X873243Y293315D01*
X874713Y293023D01*
X876182Y293315D01*
X877428Y294147D01*
X878260Y295393D01*
X878552Y296863D01*
X878260Y298332D01*
X877428Y299578D01*
X876182Y300410D01*
X874713Y300702D01*
D02*
G37*
G36*
X966787Y299115D02*
X965318Y298822D01*
X964072Y297990D01*
X963153D01*
X961907Y298822D01*
X960437Y299115D01*
X958968Y298822D01*
X957722Y297990D01*
X956890Y296744D01*
X956598Y295275D01*
X956890Y293806D01*
X957722Y292560D01*
X958968Y291728D01*
X960437Y291435D01*
X961907Y291728D01*
X962732Y292279D01*
X962802Y292294D01*
X963114Y292134D01*
X963603Y290937D01*
X963240Y290394D01*
X962948Y288925D01*
X963240Y287456D01*
X964072Y286210D01*
Y285290D01*
X963240Y284044D01*
X962948Y282575D01*
X963240Y281106D01*
X964072Y279860D01*
Y278940D01*
X963240Y277694D01*
X962948Y276225D01*
X963240Y274756D01*
X964072Y273510D01*
X965318Y272677D01*
X966787Y272385D01*
X968257Y272677D01*
X969503Y273510D01*
X970335Y274756D01*
X970627Y276225D01*
X970335Y277694D01*
X969503Y278940D01*
Y279860D01*
X970335Y281106D01*
X970627Y282575D01*
X970335Y284044D01*
X969503Y285290D01*
Y286210D01*
X970335Y287456D01*
X970627Y288925D01*
X970335Y290394D01*
X969503Y291640D01*
Y292560D01*
X970335Y293806D01*
X970627Y295275D01*
X970335Y296744D01*
X969503Y297990D01*
X968257Y298822D01*
X966787Y299115D01*
D02*
G37*
G36*
X930275D02*
X928806Y298822D01*
X927560Y297990D01*
X927012Y297170D01*
X926965Y297153D01*
X925647D01*
X925601Y297170D01*
X925053Y297990D01*
X923807Y298822D01*
X922337Y299115D01*
X920868Y298822D01*
X919622Y297990D01*
X919074Y297170D01*
X919028Y297153D01*
X917710D01*
X917663Y297170D01*
X917115Y297990D01*
X915869Y298822D01*
X914400Y299115D01*
X912931Y298822D01*
X911685Y297990D01*
X910853Y296744D01*
X910560Y295275D01*
X910853Y293806D01*
X911685Y292560D01*
X912931Y291728D01*
X914400Y291435D01*
X915869Y291728D01*
X917115Y292560D01*
X917663Y293380D01*
X917710Y293398D01*
X919028D01*
X919074Y293380D01*
X919622Y292560D01*
X920868Y291728D01*
X922337Y291435D01*
X923807Y291728D01*
X925053Y292560D01*
X925601Y293380D01*
X925647Y293398D01*
X926965D01*
X927012Y293380D01*
X927560Y292560D01*
X928806Y291728D01*
X930275Y291435D01*
X931744Y291728D01*
X932990Y292560D01*
X933822Y293806D01*
X934115Y295275D01*
X933822Y296744D01*
X932990Y297990D01*
X931744Y298822D01*
X930275Y299115D01*
D02*
G37*
G36*
X904875D02*
X903406Y298822D01*
X902160Y297990D01*
X901328Y296744D01*
X901035Y295275D01*
X901328Y293806D01*
X902160Y292560D01*
X903406Y291728D01*
X904875Y291435D01*
X906344Y291728D01*
X907590Y292560D01*
X908422Y293806D01*
X908715Y295275D01*
X908422Y296744D01*
X907590Y297990D01*
X906344Y298822D01*
X904875Y299115D01*
D02*
G37*
G36*
X913306Y268952D02*
X911837Y268660D01*
X910591Y267828D01*
X909759Y266582D01*
X909466Y265112D01*
X909759Y263643D01*
X910591Y262397D01*
X911837Y261565D01*
X913306Y261273D01*
X914776Y261565D01*
X916021Y262397D01*
X916854Y263643D01*
X917146Y265112D01*
X916854Y266582D01*
X916021Y267828D01*
X914776Y268660D01*
X913306Y268952D01*
D02*
G37*
G36*
X849313Y265777D02*
X847843Y265485D01*
X846597Y264653D01*
X845765Y263407D01*
X845473Y261938D01*
X845765Y260468D01*
X846597Y259222D01*
X847843Y258390D01*
X849313Y258098D01*
X850782Y258390D01*
X852028Y259222D01*
X852860Y260468D01*
X853152Y261938D01*
X852860Y263407D01*
X852028Y264653D01*
X850782Y265485D01*
X849313Y265777D01*
D02*
G37*
G36*
X838200D02*
X836731Y265485D01*
X835485Y264653D01*
X834652Y263407D01*
X834360Y261938D01*
X834652Y260468D01*
X835485Y259222D01*
X836731Y258390D01*
X838200Y258098D01*
X839669Y258390D01*
X840915Y259222D01*
X841748Y260468D01*
X842040Y261938D01*
X841748Y263407D01*
X840915Y264653D01*
X839669Y265485D01*
X838200Y265777D01*
D02*
G37*
G36*
X827087D02*
X825618Y265485D01*
X824372Y264653D01*
X823540Y263407D01*
X823248Y261938D01*
X823540Y260468D01*
X824372Y259222D01*
X825618Y258390D01*
X827087Y258098D01*
X828557Y258390D01*
X829803Y259222D01*
X830635Y260468D01*
X830927Y261938D01*
X830635Y263407D01*
X829803Y264653D01*
X828557Y265485D01*
X827087Y265777D01*
D02*
G37*
G36*
X815975D02*
X814506Y265485D01*
X813260Y264653D01*
X812428Y263407D01*
X812135Y261938D01*
X812428Y260468D01*
X813260Y259222D01*
X814506Y258390D01*
X815975Y258098D01*
X817444Y258390D01*
X818690Y259222D01*
X819522Y260468D01*
X819815Y261938D01*
X819522Y263407D01*
X818690Y264653D01*
X817444Y265485D01*
X815975Y265777D01*
D02*
G37*
G36*
X895350Y259427D02*
X893881Y259135D01*
X892635Y258303D01*
X891803Y257057D01*
X891510Y255588D01*
X891803Y254118D01*
X892635Y252872D01*
X893881Y252040D01*
X895350Y251748D01*
X896819Y252040D01*
X898065Y252872D01*
X898897Y254118D01*
X899190Y255588D01*
X898897Y257057D01*
X898065Y258303D01*
X896819Y259135D01*
X895350Y259427D01*
D02*
G37*
G36*
X969962Y249334D02*
X968103Y248965D01*
X966526Y247911D01*
X965473Y246335D01*
X965103Y244475D01*
X965473Y242615D01*
X966526Y241039D01*
X968103Y239986D01*
X969962Y239616D01*
X971822Y239986D01*
X973399Y241039D01*
X974452Y242615D01*
X974822Y244475D01*
X974452Y246335D01*
X973399Y247911D01*
X971822Y248965D01*
X969962Y249334D01*
D02*
G37*
G36*
X849313Y243552D02*
X847843Y243260D01*
X846597Y242428D01*
X845765Y241182D01*
X845473Y239713D01*
X845765Y238243D01*
X846597Y236997D01*
X847843Y236165D01*
X849313Y235873D01*
X850782Y236165D01*
X852028Y236997D01*
X852860Y238243D01*
X853152Y239713D01*
X852860Y241182D01*
X852028Y242428D01*
X850782Y243260D01*
X849313Y243552D01*
D02*
G37*
G36*
X838200D02*
X836731Y243260D01*
X835485Y242428D01*
X834652Y241182D01*
X834360Y239713D01*
X834652Y238243D01*
X835485Y236997D01*
X836731Y236165D01*
X838200Y235873D01*
X839669Y236165D01*
X840915Y236997D01*
X841748Y238243D01*
X842040Y239713D01*
X841748Y241182D01*
X840915Y242428D01*
X839669Y243260D01*
X838200Y243552D01*
D02*
G37*
G36*
X827087D02*
X825618Y243260D01*
X824372Y242428D01*
X823540Y241182D01*
X823248Y239713D01*
X823540Y238243D01*
X824372Y236997D01*
X825618Y236165D01*
X827087Y235873D01*
X828557Y236165D01*
X829803Y236997D01*
X830635Y238243D01*
X830927Y239713D01*
X830635Y241182D01*
X829803Y242428D01*
X828557Y243260D01*
X827087Y243552D01*
D02*
G37*
G36*
X815975D02*
X814506Y243260D01*
X813260Y242428D01*
X812428Y241182D01*
X812135Y239713D01*
X812428Y238243D01*
X813260Y236997D01*
X814506Y236165D01*
X815975Y235873D01*
X817444Y236165D01*
X818690Y236997D01*
X819522Y238243D01*
X819815Y239713D01*
X819522Y241182D01*
X818690Y242428D01*
X817444Y243260D01*
X815975Y243552D01*
D02*
G37*
G36*
X895350Y234027D02*
X893881Y233735D01*
X892635Y232903D01*
X891803Y231657D01*
X891510Y230187D01*
X891803Y228718D01*
X892635Y227472D01*
X893881Y226640D01*
X895350Y226348D01*
X896819Y226640D01*
X898065Y227472D01*
X898897Y228718D01*
X899190Y230187D01*
X898897Y231657D01*
X898065Y232903D01*
X896819Y233735D01*
X895350Y234027D01*
D02*
G37*
G36*
X858838Y205452D02*
X857368Y205160D01*
X856122Y204328D01*
X855290Y203082D01*
X854998Y201612D01*
X855290Y200143D01*
X856122Y198897D01*
X857368Y198065D01*
X858838Y197773D01*
X860307Y198065D01*
X861553Y198897D01*
X862385Y200143D01*
X862677Y201612D01*
X862385Y203082D01*
X861553Y204328D01*
X860307Y205160D01*
X858838Y205452D01*
D02*
G37*
G36*
X838200Y195927D02*
X836731Y195635D01*
X835485Y194803D01*
X834652Y193557D01*
X834360Y192087D01*
X834652Y190618D01*
X835485Y189372D01*
X836731Y188540D01*
X838200Y188248D01*
X839669Y188540D01*
X840915Y189372D01*
X841748Y190618D01*
X842040Y192087D01*
X841748Y193557D01*
X840915Y194803D01*
X839669Y195635D01*
X838200Y195927D01*
D02*
G37*
G36*
X827087D02*
X825618Y195635D01*
X824372Y194803D01*
X823540Y193557D01*
X823248Y192087D01*
X823540Y190618D01*
X824372Y189372D01*
X825618Y188540D01*
X827087Y188248D01*
X828557Y188540D01*
X829803Y189372D01*
X830635Y190618D01*
X830927Y192087D01*
X830635Y193557D01*
X829803Y194803D01*
X828557Y195635D01*
X827087Y195927D01*
D02*
G37*
G36*
X930275Y189577D02*
X928806Y189285D01*
X927560Y188453D01*
X926728Y187207D01*
X926435Y185737D01*
X926728Y184268D01*
X927560Y183022D01*
X928806Y182190D01*
X930275Y181898D01*
X931744Y182190D01*
X932990Y183022D01*
X933822Y184268D01*
X934115Y185737D01*
X933822Y187207D01*
X932990Y188453D01*
X931744Y189285D01*
X930275Y189577D01*
D02*
G37*
G36*
X509588Y383252D02*
X508118Y382960D01*
X506872Y382128D01*
X506040Y380882D01*
X505748Y379412D01*
X506040Y377943D01*
X506872Y376697D01*
X508118Y375865D01*
X509588Y375573D01*
X511057Y375865D01*
X512303Y376697D01*
X513135Y377943D01*
X513427Y379412D01*
X513135Y380882D01*
X512303Y382128D01*
X511057Y382960D01*
X509588Y383252D01*
D02*
G37*
G36*
X490537D02*
X489068Y382960D01*
X487822Y382128D01*
X486990Y380882D01*
X486698Y379412D01*
X486990Y377943D01*
X487822Y376697D01*
X489068Y375865D01*
X490537Y375573D01*
X492007Y375865D01*
X493253Y376697D01*
X494085Y377943D01*
X494377Y379412D01*
X494085Y380882D01*
X493253Y382128D01*
X492007Y382960D01*
X490537Y383252D01*
D02*
G37*
G36*
X463550D02*
X462081Y382960D01*
X460835Y382128D01*
X460003Y380882D01*
X459710Y379412D01*
X460003Y377943D01*
X460835Y376697D01*
X462081Y375865D01*
X463550Y375573D01*
X465019Y375865D01*
X466265Y376697D01*
X467098Y377943D01*
X467390Y379412D01*
X467098Y380882D01*
X466265Y382128D01*
X465019Y382960D01*
X463550Y383252D01*
D02*
G37*
G36*
X450850D02*
X449381Y382960D01*
X448135Y382128D01*
X447303Y380882D01*
X447010Y379412D01*
X447303Y377943D01*
X448135Y376697D01*
X449381Y375865D01*
X450850Y375573D01*
X452319Y375865D01*
X453565Y376697D01*
X454398Y377943D01*
X454690Y379412D01*
X454398Y380882D01*
X453565Y382128D01*
X452319Y382960D01*
X450850Y383252D01*
D02*
G37*
G36*
X438150D02*
X436681Y382960D01*
X435435Y382128D01*
X434603Y380882D01*
X434310Y379412D01*
X434603Y377943D01*
X435435Y376697D01*
X436681Y375865D01*
X438150Y375573D01*
X439619Y375865D01*
X440865Y376697D01*
X441698Y377943D01*
X441990Y379412D01*
X441698Y380882D01*
X440865Y382128D01*
X439619Y382960D01*
X438150Y383252D01*
D02*
G37*
G36*
X500062D02*
X498593Y382960D01*
X497347Y382128D01*
X496515Y380882D01*
X496223Y379412D01*
X496515Y377943D01*
X497347Y376697D01*
X497707Y376457D01*
X497439Y375109D01*
X497006Y375023D01*
X495760Y374190D01*
X494927Y372944D01*
X494635Y371475D01*
X494927Y370006D01*
X495760Y368760D01*
X497006Y367928D01*
X498475Y367635D01*
X499944Y367928D01*
X501190Y368760D01*
X502023Y370006D01*
X502315Y371475D01*
X502023Y372944D01*
X501190Y374190D01*
X500830Y374431D01*
X501099Y375779D01*
X501532Y375865D01*
X502778Y376697D01*
X503610Y377943D01*
X503902Y379412D01*
X503610Y380882D01*
X502778Y382128D01*
X501532Y382960D01*
X500062Y383252D01*
D02*
G37*
G36*
X503237Y362615D02*
X501768Y362323D01*
X500522Y361490D01*
X499690Y360244D01*
X499398Y358775D01*
X499690Y357306D01*
X500522Y356060D01*
X501768Y355228D01*
X503237Y354935D01*
X504707Y355228D01*
X505953Y356060D01*
X506785Y357306D01*
X507077Y358775D01*
X506785Y360244D01*
X505953Y361490D01*
X504707Y362323D01*
X503237Y362615D01*
D02*
G37*
G36*
X388937Y361027D02*
X387468Y360735D01*
X386222Y359903D01*
X385390Y358657D01*
X385098Y357188D01*
X385390Y355718D01*
X386222Y354472D01*
X387468Y353640D01*
X388937Y353348D01*
X390407Y353640D01*
X391653Y354472D01*
X392485Y355718D01*
X392777Y357188D01*
X392485Y358657D01*
X391653Y359903D01*
X390407Y360735D01*
X388937Y361027D01*
D02*
G37*
G36*
X369888Y353090D02*
X368418Y352798D01*
X367172Y351965D01*
X366340Y350719D01*
X366048Y349250D01*
X366340Y347781D01*
X367172Y346535D01*
X368418Y345703D01*
X369888Y345410D01*
X371357Y345703D01*
X372603Y346535D01*
X373435Y347781D01*
X373727Y349250D01*
X373435Y350719D01*
X372603Y351965D01*
X371357Y352798D01*
X369888Y353090D01*
D02*
G37*
G36*
X404813Y341977D02*
X403343Y341685D01*
X402097Y340853D01*
X401265Y339607D01*
X400973Y338138D01*
X401265Y336668D01*
X402097Y335422D01*
X403343Y334590D01*
X404813Y334298D01*
X406282Y334590D01*
X407528Y335422D01*
X408360Y336668D01*
X408652Y338138D01*
X408360Y339607D01*
X407528Y340853D01*
X406282Y341685D01*
X404813Y341977D01*
D02*
G37*
G36*
X527050Y353090D02*
X525581Y352798D01*
X524335Y351965D01*
X523503Y350719D01*
X523210Y349250D01*
X523503Y347781D01*
X524335Y346535D01*
Y345615D01*
X523503Y344369D01*
X523210Y342900D01*
X523503Y341431D01*
X524335Y340185D01*
Y339265D01*
X523503Y338019D01*
X523210Y336550D01*
X523503Y335081D01*
X523813Y334616D01*
X523518Y333732D01*
X522634Y333437D01*
X522169Y333747D01*
X520700Y334040D01*
X519231Y333747D01*
X517985Y332915D01*
X517152Y331669D01*
X516860Y330200D01*
X517152Y328731D01*
X517985Y327485D01*
X519231Y326652D01*
X520700Y326360D01*
X522169Y326652D01*
X523415Y327485D01*
X524335D01*
X525581Y326652D01*
X527050Y326360D01*
X528519Y326652D01*
X529765Y327485D01*
X530597Y328731D01*
X530890Y330200D01*
X530597Y331669D01*
X529765Y332915D01*
Y333835D01*
X530597Y335081D01*
X530890Y336550D01*
X530597Y338019D01*
X529765Y339265D01*
Y340185D01*
X530597Y341431D01*
X530890Y342900D01*
X530597Y344369D01*
X529765Y345615D01*
Y346535D01*
X530597Y347781D01*
X530890Y349250D01*
X530597Y350719D01*
X529765Y351965D01*
X528519Y352798D01*
X527050Y353090D01*
D02*
G37*
G36*
X379412Y337215D02*
X377943Y336922D01*
X376697Y336090D01*
X375865Y334844D01*
X375573Y333375D01*
X375865Y331906D01*
X376697Y330660D01*
X377943Y329827D01*
X379412Y329535D01*
X380882Y329827D01*
X382128Y330660D01*
X382960Y331906D01*
X383252Y333375D01*
X382960Y334844D01*
X382128Y336090D01*
X380882Y336922D01*
X379412Y337215D01*
D02*
G37*
G36*
X481012Y334040D02*
X479543Y333747D01*
X478297Y332915D01*
X477465Y331669D01*
X477173Y330200D01*
X477465Y328731D01*
X478297Y327485D01*
X479543Y326652D01*
X481012Y326360D01*
X482482Y326652D01*
X483728Y327485D01*
X484560Y328731D01*
X484852Y330200D01*
X484560Y331669D01*
X483728Y332915D01*
X482482Y333747D01*
X481012Y334040D01*
D02*
G37*
G36*
X507088Y335972D02*
X505228Y335602D01*
X503651Y334549D01*
X502598Y332972D01*
X502228Y331113D01*
X502598Y329253D01*
X503651Y327677D01*
X505228Y326623D01*
X507088Y326253D01*
X508947Y326623D01*
X510524Y327677D01*
X511577Y329253D01*
X511947Y331113D01*
X511577Y332972D01*
X510524Y334549D01*
X508947Y335602D01*
X507088Y335972D01*
D02*
G37*
G36*
X428625Y351502D02*
X427156Y351210D01*
X425910Y350378D01*
X425078Y349132D01*
X424785Y347663D01*
X425078Y346193D01*
X425910Y344947D01*
Y344028D01*
X425078Y342782D01*
X424785Y341312D01*
X425078Y339843D01*
X425910Y338597D01*
Y337678D01*
X425078Y336432D01*
X424785Y334963D01*
X425078Y333493D01*
X425910Y332247D01*
Y331328D01*
X425078Y330082D01*
X424785Y328613D01*
X425078Y327143D01*
X425910Y325897D01*
X427156Y325065D01*
X428625Y324773D01*
X430094Y325065D01*
X430920Y325617D01*
X431800Y325801D01*
X432680Y325617D01*
X433506Y325065D01*
X434975Y324773D01*
X436444Y325065D01*
X437690Y325897D01*
X438522Y327143D01*
X438580Y327434D01*
X439875D01*
X440010Y326753D01*
X441064Y325176D01*
X442640Y324123D01*
X444500Y323753D01*
X446360Y324123D01*
X447936Y325176D01*
X448989Y326753D01*
X449359Y328613D01*
X448989Y330472D01*
X447936Y332049D01*
X446360Y333102D01*
X444500Y333472D01*
X442640Y333102D01*
X441064Y332049D01*
X440010Y330472D01*
X439875Y329791D01*
X438580D01*
X438522Y330082D01*
X437690Y331328D01*
X436444Y332160D01*
X434975Y332452D01*
X433506Y332160D01*
X433041Y331850D01*
X432157Y332144D01*
X431862Y333028D01*
X432173Y333493D01*
X432465Y334963D01*
X432173Y336432D01*
X431340Y337678D01*
Y338597D01*
X432173Y339843D01*
X432465Y341312D01*
X432173Y342782D01*
X431340Y344028D01*
Y344947D01*
X432173Y346193D01*
X432465Y347663D01*
X432173Y349132D01*
X431340Y350378D01*
X430094Y351210D01*
X428625Y351502D01*
D02*
G37*
G36*
X434975Y300702D02*
X433506Y300410D01*
X432260Y299578D01*
X431340D01*
X430094Y300410D01*
X428625Y300702D01*
X427156Y300410D01*
X425910Y299578D01*
X425078Y298332D01*
X424785Y296863D01*
X425078Y295393D01*
X425910Y294147D01*
Y293228D01*
X425078Y291982D01*
X424785Y290513D01*
X425078Y289043D01*
X425910Y287797D01*
Y286878D01*
X425078Y285632D01*
X424785Y284163D01*
X425078Y282693D01*
X425910Y281447D01*
Y280528D01*
X425078Y279282D01*
X424785Y277812D01*
X425078Y276343D01*
X425910Y275097D01*
Y274178D01*
X425078Y272932D01*
X424785Y271462D01*
X425078Y269993D01*
X425910Y268747D01*
X427156Y267915D01*
X428625Y267623D01*
X430094Y267915D01*
X431340Y268747D01*
X432260D01*
X433506Y267915D01*
X434975Y267623D01*
X436444Y267915D01*
X437690Y268747D01*
X438522Y269993D01*
X438815Y271462D01*
X438522Y272932D01*
X437690Y274178D01*
X436444Y275010D01*
X434975Y275302D01*
X433506Y275010D01*
X433041Y274699D01*
X432157Y274994D01*
X431862Y275878D01*
X432173Y276343D01*
X432465Y277812D01*
X432173Y279282D01*
X431340Y280528D01*
Y281447D01*
X432173Y282693D01*
X432465Y284163D01*
X432173Y285632D01*
X431340Y286878D01*
Y287797D01*
X432173Y289043D01*
X432465Y290513D01*
X432173Y291982D01*
X431810Y292524D01*
X432299Y293721D01*
X432610Y293881D01*
X432680Y293867D01*
X433506Y293315D01*
X434975Y293023D01*
X436444Y293315D01*
X437690Y294147D01*
X438522Y295393D01*
X438815Y296863D01*
X438522Y298332D01*
X437690Y299578D01*
X436444Y300410D01*
X434975Y300702D01*
D02*
G37*
G36*
X527050Y299115D02*
X525581Y298822D01*
X524335Y297990D01*
X523415D01*
X522169Y298822D01*
X520700Y299115D01*
X519231Y298822D01*
X517985Y297990D01*
X517152Y296744D01*
X516860Y295275D01*
X517152Y293806D01*
X517985Y292560D01*
X519231Y291728D01*
X520700Y291435D01*
X522169Y291728D01*
X522634Y292038D01*
X523518Y291743D01*
X523813Y290859D01*
X523503Y290394D01*
X523210Y288925D01*
X523503Y287456D01*
X524335Y286210D01*
Y285290D01*
X523503Y284044D01*
X523210Y282575D01*
X523503Y281106D01*
X524335Y279860D01*
Y278940D01*
X523503Y277694D01*
X523210Y276225D01*
X523503Y274756D01*
X524335Y273510D01*
X525581Y272677D01*
X527050Y272385D01*
X528519Y272677D01*
X529765Y273510D01*
X530597Y274756D01*
X530890Y276225D01*
X530597Y277694D01*
X529765Y278940D01*
Y279860D01*
X530597Y281106D01*
X530890Y282575D01*
X530597Y284044D01*
X529765Y285290D01*
Y286210D01*
X530597Y287456D01*
X530890Y288925D01*
X530597Y290394D01*
X529765Y291640D01*
Y292560D01*
X530597Y293806D01*
X530890Y295275D01*
X530597Y296744D01*
X529765Y297990D01*
X528519Y298822D01*
X527050Y299115D01*
D02*
G37*
G36*
X490537D02*
X489068Y298822D01*
X487822Y297990D01*
X487274Y297170D01*
X487228Y297153D01*
X485910D01*
X485863Y297170D01*
X485315Y297990D01*
X484069Y298822D01*
X482600Y299115D01*
X481131Y298822D01*
X479885Y297990D01*
X479337Y297170D01*
X479291Y297153D01*
X477972D01*
X477926Y297170D01*
X477378Y297990D01*
X476132Y298822D01*
X474663Y299115D01*
X473193Y298822D01*
X471947Y297990D01*
X471115Y296744D01*
X470823Y295275D01*
X471115Y293806D01*
X471947Y292560D01*
X473193Y291728D01*
X474663Y291435D01*
X476132Y291728D01*
X477378Y292560D01*
X477926Y293380D01*
X477972Y293398D01*
X479291D01*
X479337Y293380D01*
X479885Y292560D01*
X481131Y291728D01*
X482600Y291435D01*
X484069Y291728D01*
X485315Y292560D01*
X485863Y293380D01*
X485910Y293398D01*
X487228D01*
X487274Y293380D01*
X487822Y292560D01*
X489068Y291728D01*
X490537Y291435D01*
X492007Y291728D01*
X493253Y292560D01*
X494085Y293806D01*
X494377Y295275D01*
X494085Y296744D01*
X493253Y297990D01*
X492007Y298822D01*
X490537Y299115D01*
D02*
G37*
G36*
X452438D02*
X450968Y298822D01*
X449722Y297990D01*
X448890Y296744D01*
X448598Y295275D01*
X448890Y293806D01*
X449722Y292560D01*
X450968Y291728D01*
X452438Y291435D01*
X453907Y291728D01*
X455153Y292560D01*
X455985Y293806D01*
X456277Y295275D01*
X455985Y296744D01*
X455153Y297990D01*
X453907Y298822D01*
X452438Y299115D01*
D02*
G37*
G36*
X471223Y276110D02*
X469753Y275817D01*
X468508Y274985D01*
X467675Y273739D01*
X467383Y272270D01*
X467675Y270800D01*
X468508Y269555D01*
X469753Y268722D01*
X470006Y268672D01*
X470489Y267281D01*
X470021Y266582D01*
X469729Y265112D01*
X470021Y263643D01*
X470854Y262397D01*
X472099Y261565D01*
X473569Y261273D01*
X475038Y261565D01*
X476284Y262397D01*
X477116Y263643D01*
X477408Y265112D01*
X477116Y266582D01*
X476284Y267828D01*
X475038Y268660D01*
X474786Y268710D01*
X474303Y270101D01*
X474770Y270800D01*
X475063Y272270D01*
X474770Y273739D01*
X473938Y274985D01*
X472692Y275817D01*
X471223Y276110D01*
D02*
G37*
G36*
X404813Y257840D02*
X403343Y257547D01*
X402097Y256715D01*
X401265Y255469D01*
X400973Y254000D01*
X401265Y252531D01*
X402097Y251285D01*
X403343Y250452D01*
X404813Y250160D01*
X406282Y250452D01*
X407528Y251285D01*
X408360Y252531D01*
X408652Y254000D01*
X408360Y255469D01*
X407528Y256715D01*
X406282Y257547D01*
X404813Y257840D01*
D02*
G37*
G36*
X530225Y249334D02*
X528365Y248965D01*
X526789Y247911D01*
X525736Y246335D01*
X525366Y244475D01*
X525736Y242615D01*
X526789Y241039D01*
X528365Y239986D01*
X530225Y239616D01*
X532085Y239986D01*
X533661Y241039D01*
X534715Y242615D01*
X535084Y244475D01*
X534715Y246335D01*
X533661Y247911D01*
X532085Y248965D01*
X530225Y249334D01*
D02*
G37*
G36*
X488950Y195927D02*
X487481Y195635D01*
X486235Y194803D01*
X485402Y193557D01*
X485110Y192087D01*
X485402Y190618D01*
X486235Y189372D01*
X487481Y188540D01*
X488950Y188248D01*
X490419Y188540D01*
X491665Y189372D01*
X492497Y190618D01*
X492790Y192087D01*
X492497Y193557D01*
X491665Y194803D01*
X490419Y195635D01*
X488950Y195927D01*
D02*
G37*
G36*
X381000Y189577D02*
X379531Y189285D01*
X378285Y188453D01*
X377453Y187207D01*
X377160Y185737D01*
X377453Y184268D01*
X378285Y183022D01*
X379531Y182190D01*
X381000Y181898D01*
X382469Y182190D01*
X383715Y183022D01*
X384548Y184268D01*
X384840Y185737D01*
X384548Y187207D01*
X383715Y188453D01*
X382469Y189285D01*
X381000Y189577D01*
D02*
G37*
G36*
X161925Y237202D02*
X160456Y236910D01*
X159210Y236078D01*
X158378Y234832D01*
X158085Y233363D01*
X158378Y231893D01*
X159210Y230647D01*
X160456Y229815D01*
X161925Y229523D01*
X163394Y229815D01*
X164640Y230647D01*
X165473Y231893D01*
X165765Y233363D01*
X165473Y234832D01*
X164640Y236078D01*
X163394Y236910D01*
X161925Y237202D01*
D02*
G37*
G36*
X1952422Y92164D02*
X1950441D01*
Y89903D01*
X1952333D01*
X1952587Y89916D01*
X1953019D01*
X1953095Y89929D01*
X1953184D01*
X1953247Y89941D01*
X1953336Y89967D01*
X1953450Y89992D01*
X1953578Y90043D01*
X1953705Y90106D01*
X1953844Y90183D01*
X1953958Y90284D01*
X1953971Y90297D01*
X1954009Y90335D01*
X1954047Y90399D01*
X1954111Y90487D01*
X1954162Y90602D01*
X1954200Y90729D01*
X1954238Y90881D01*
X1954251Y91046D01*
Y91072D01*
Y91123D01*
X1954238Y91211D01*
X1954225Y91313D01*
X1954187Y91427D01*
X1954149Y91554D01*
X1954086Y91669D01*
X1953997Y91783D01*
X1953984Y91796D01*
X1953946Y91834D01*
X1953895Y91872D01*
X1953806Y91935D01*
X1953705Y91986D01*
X1953578Y92050D01*
X1953425Y92088D01*
X1953247Y92126D01*
X1953235D01*
X1953184Y92139D01*
X1953019D01*
X1952930Y92151D01*
X1952574D01*
X1952422Y92164D01*
D02*
G37*
G36*
X1952485Y88278D02*
X1950441D01*
Y85674D01*
X1952625D01*
X1952841Y85687D01*
X1953069D01*
X1953285Y85700D01*
X1953387D01*
X1953476Y85712D01*
X1953552D01*
X1953616Y85725D01*
X1953641D01*
X1953692Y85738D01*
X1953768Y85763D01*
X1953870Y85801D01*
X1953984Y85852D01*
X1954111Y85915D01*
X1954225Y86004D01*
X1954339Y86106D01*
X1954352Y86119D01*
X1954378Y86170D01*
X1954428Y86233D01*
X1954479Y86335D01*
X1954530Y86449D01*
X1954581Y86589D01*
X1954606Y86754D01*
X1954619Y86944D01*
Y86970D01*
Y87020D01*
X1954606Y87097D01*
X1954594Y87198D01*
X1954568Y87312D01*
X1954530Y87439D01*
X1954479Y87566D01*
X1954403Y87681D01*
X1954390Y87694D01*
X1954365Y87732D01*
X1954314Y87795D01*
X1954251Y87859D01*
X1954162Y87935D01*
X1954047Y88011D01*
X1953920Y88075D01*
X1953781Y88138D01*
X1953755Y88151D01*
X1953692Y88163D01*
X1953641Y88176D01*
X1953578Y88189D01*
X1953501Y88202D01*
X1953412Y88214D01*
X1953298Y88227D01*
X1953171Y88240D01*
X1953031D01*
X1952866Y88252D01*
X1952688Y88265D01*
X1952485Y88278D01*
D02*
G37*
G36*
X1961655Y89738D02*
X1961439D01*
X1961388Y89726D01*
X1961261Y89713D01*
X1961083Y89662D01*
X1960893Y89599D01*
X1960690Y89497D01*
X1960474Y89357D01*
X1960385Y89268D01*
X1960283Y89167D01*
X1960258Y89141D01*
X1960232Y89103D01*
X1960207Y89065D01*
X1960169Y89002D01*
X1960131Y88938D01*
X1960042Y88760D01*
X1959940Y88532D01*
X1959864Y88252D01*
X1959813Y87922D01*
X1959788Y87554D01*
Y87541D01*
Y87503D01*
Y87452D01*
X1959801Y87376D01*
Y87287D01*
X1959813Y87185D01*
X1959851Y86957D01*
X1959915Y86703D01*
X1959991Y86424D01*
X1960118Y86170D01*
X1960283Y85941D01*
X1960309Y85915D01*
X1960372Y85852D01*
X1960474Y85763D01*
X1960626Y85661D01*
X1960804Y85560D01*
X1961007Y85471D01*
X1961248Y85407D01*
X1961375Y85395D01*
X1961515Y85382D01*
X1961591D01*
X1961642Y85395D01*
X1961769Y85407D01*
X1961934Y85458D01*
X1962137Y85522D01*
X1962341Y85623D01*
X1962544Y85763D01*
X1962645Y85839D01*
X1962734Y85941D01*
Y85954D01*
X1962760Y85966D01*
X1962785Y86004D01*
X1962810Y86042D01*
X1962849Y86106D01*
X1962899Y86170D01*
X1962988Y86360D01*
X1963077Y86589D01*
X1963166Y86868D01*
X1963217Y87185D01*
X1963242Y87566D01*
Y87579D01*
Y87617D01*
Y87668D01*
X1963230Y87744D01*
Y87821D01*
X1963217Y87922D01*
X1963179Y88163D01*
X1963115Y88417D01*
X1963026Y88684D01*
X1962899Y88938D01*
X1962734Y89167D01*
Y89179D01*
X1962709Y89192D01*
X1962645Y89256D01*
X1962544Y89345D01*
X1962391Y89459D01*
X1962213Y89560D01*
X1962010Y89649D01*
X1961782Y89713D01*
X1961655Y89738D01*
D02*
G37*
G36*
X1939836Y92354D02*
X1939747D01*
X1939646Y92342D01*
X1939519Y92316D01*
X1939392Y92278D01*
X1939239Y92215D01*
X1939099Y92139D01*
X1938972Y92024D01*
X1938960Y92011D01*
X1938922Y91961D01*
X1938871Y91897D01*
X1938820Y91796D01*
X1938757Y91681D01*
X1938706Y91542D01*
X1938668Y91376D01*
X1938655Y91186D01*
Y91161D01*
Y91097D01*
X1938668Y90996D01*
X1938693Y90869D01*
X1938731Y90729D01*
X1938795Y90576D01*
X1938871Y90437D01*
X1938972Y90310D01*
X1938985Y90297D01*
X1939036Y90259D01*
X1939099Y90208D01*
X1939201Y90157D01*
X1939315Y90106D01*
X1939455Y90056D01*
X1939620Y90018D01*
X1939811Y90005D01*
X1939900D01*
X1940001Y90018D01*
X1940128Y90043D01*
X1940268Y90081D01*
X1940408Y90132D01*
X1940547Y90208D01*
X1940674Y90310D01*
X1940687Y90322D01*
X1940725Y90373D01*
X1940776Y90437D01*
X1940839Y90538D01*
X1940903Y90665D01*
X1940954Y90818D01*
X1940992Y90983D01*
X1941004Y91186D01*
Y91211D01*
Y91275D01*
X1940992Y91376D01*
X1940966Y91491D01*
X1940928Y91630D01*
X1940865Y91770D01*
X1940789Y91910D01*
X1940674Y92037D01*
X1940662Y92050D01*
X1940611Y92088D01*
X1940547Y92139D01*
X1940446Y92202D01*
X1940331Y92253D01*
X1940192Y92304D01*
X1940027Y92342D01*
X1939836Y92354D01*
D02*
G37*
G36*
X1939849Y88519D02*
X1939785D01*
X1939734Y88506D01*
X1939620Y88494D01*
X1939468Y88455D01*
X1939303Y88405D01*
X1939125Y88316D01*
X1938960Y88202D01*
X1938820Y88036D01*
X1938807Y88011D01*
X1938769Y87948D01*
X1938719Y87859D01*
X1938655Y87732D01*
X1938591Y87579D01*
X1938541Y87401D01*
X1938503Y87211D01*
X1938490Y87008D01*
Y86995D01*
Y86970D01*
Y86931D01*
X1938503Y86881D01*
X1938515Y86741D01*
X1938541Y86563D01*
X1938591Y86360D01*
X1938655Y86157D01*
X1938757Y85966D01*
X1938884Y85788D01*
X1938896Y85776D01*
X1938960Y85725D01*
X1939036Y85649D01*
X1939150Y85573D01*
X1939303Y85496D01*
X1939468Y85420D01*
X1939658Y85369D01*
X1939874Y85357D01*
X1939900D01*
X1939976Y85369D01*
X1940077Y85382D01*
X1940217Y85407D01*
X1940370Y85458D01*
X1940535Y85534D01*
X1940687Y85636D01*
X1940839Y85776D01*
X1940852Y85801D01*
X1940903Y85852D01*
X1940966Y85954D01*
X1941030Y86081D01*
X1941106Y86258D01*
X1941157Y86462D01*
X1941208Y86703D01*
X1941220Y86982D01*
Y86995D01*
Y87008D01*
Y87046D01*
Y87097D01*
X1941195Y87224D01*
X1941170Y87376D01*
X1941119Y87554D01*
X1941055Y87744D01*
X1940954Y87922D01*
X1940827Y88087D01*
X1940814Y88100D01*
X1940763Y88151D01*
X1940674Y88227D01*
X1940560Y88303D01*
X1940420Y88379D01*
X1940255Y88455D01*
X1940065Y88506D01*
X1939849Y88519D01*
D02*
G37*
%LPD*%
D16*
X1325562Y266700D02*
X1339850Y252412D01*
Y219075D02*
X1355725Y203200D01*
X1339850Y219075D02*
Y252412D01*
X1355725Y203200D02*
X1379538D01*
X1398587Y184150D01*
X1394990Y128165D02*
X1398587Y131763D01*
Y184150D01*
X1394990Y98150D02*
Y128165D01*
X1606550Y382588D02*
X1642096D01*
X1573212Y171450D02*
Y349250D01*
X1606550Y382588D01*
X1651000Y373063D02*
Y373684D01*
X1642096Y382588D02*
X1651000Y373684D01*
X1577975Y319088D02*
X1604962Y346075D01*
X1611313D01*
X1577975Y168275D02*
Y319088D01*
X1603375Y336550D02*
X1612900D01*
X1635125Y358775D02*
Y373063D01*
X1612900Y336550D02*
X1635125Y358775D01*
X1582737Y315912D02*
X1603375Y336550D01*
X1582737Y165100D02*
Y315912D01*
X1587500Y161925D02*
Y312612D01*
X1636414Y331489D02*
X1647863Y342938D01*
Y352425D01*
X1587500Y312612D02*
X1606378Y331489D01*
X1636414D01*
X1520000Y118237D02*
X1573212Y171450D01*
X1520000Y98150D02*
Y118237D01*
X1549840Y124265D02*
X1587500Y161925D01*
X1549840Y98150D02*
Y124265D01*
X1538288Y120650D02*
X1582737Y165100D01*
X1538288Y79732D02*
Y120650D01*
X1533525Y123825D02*
X1577975Y168275D01*
X1533525Y81705D02*
Y123825D01*
X1520000Y68180D02*
X1533525Y81705D01*
X1538288Y79732D02*
X1549840Y68180D01*
D17*
X1162050Y590550D02*
X1189037D01*
X1144587Y803275D02*
Y917575D01*
X1154112Y598488D02*
X1162050Y590550D01*
X1154112Y598488D02*
Y717550D01*
X1162050Y725488D01*
Y785813D01*
X1144587Y803275D02*
X1162050Y785813D01*
Y603250D02*
Y709613D01*
X1169987Y620713D02*
Y653836D01*
X1169523Y654300D02*
X1169987Y653836D01*
X1204665Y736352D02*
X1303802Y835489D01*
X1188790Y736352D02*
X1204665D01*
X1162050Y709613D02*
X1188790Y736352D01*
X1169523Y704386D02*
X1195387Y730250D01*
X1169523Y654300D02*
Y704386D01*
X1195387Y730250D02*
X1247775D01*
X1309688Y792162D01*
X1433513D01*
X1360023Y835489D02*
X1362075Y833438D01*
X1693862Y177800D02*
X1706562Y190500D01*
X1684337Y84137D02*
X1693862Y93663D01*
Y177800D01*
X1687513Y180975D02*
X1703387Y196850D01*
X1687513Y110673D02*
Y180975D01*
X1674990Y98150D02*
X1687513Y110673D01*
X1730375Y190500D02*
X1736725Y196850D01*
X1706562Y190500D02*
X1730375D01*
X1725612Y196850D02*
X1744662Y215900D01*
X1703387Y196850D02*
X1725612D01*
X1736725D02*
X1744662D01*
X1306512Y649287D02*
Y677862D01*
X1333500Y600075D02*
Y622300D01*
X1306512Y649287D02*
X1333500Y622300D01*
Y600075D02*
X1400175Y533400D01*
X1435906D01*
X1433513Y792162D02*
X1474787Y833438D01*
X1303802Y835489D02*
X1360023D01*
X1116012Y946150D02*
X1144587Y917575D01*
X1116012Y946150D02*
Y976312D01*
X1659023Y84137D02*
X1684337D01*
X1645010Y98150D02*
X1659023Y84137D01*
X1563687Y53975D02*
X1577975Y68263D01*
Y122238D01*
X1571625Y128588D02*
X1577975Y122238D01*
X1284205Y53975D02*
X1563687D01*
X1568450Y46038D02*
X1585912Y63500D01*
Y128588D01*
X1255713Y63500D02*
X1273175Y46038D01*
X1568450D01*
X1255713Y83862D02*
X1270000Y98150D01*
X1255713Y63500D02*
Y83862D01*
X1270000Y68180D02*
X1284205Y53975D01*
X1878013Y84137D02*
X1898650Y104775D01*
X1805010Y98150D02*
X1819023Y84137D01*
X1878013D01*
X1889125Y112712D02*
Y147638D01*
X1898650Y157163D01*
X1874563Y98150D02*
X1889125Y112712D01*
X1834990Y98150D02*
X1874563D01*
X1898650Y104775D02*
Y138112D01*
D220*
X1369231Y292979D02*
Y297725D01*
X1368425Y298531D02*
Y311150D01*
Y298531D02*
X1369231Y297725D01*
X1376362Y231775D02*
X1393825Y214312D01*
X1376362Y231775D02*
Y285847D01*
X1369231Y292979D02*
X1376362Y285847D01*
X1189037Y1122363D02*
Y1136650D01*
X1069587Y1146175D02*
X1179512D01*
X1189037Y1136650D01*
X865750Y1165225D02*
X1165225D01*
X1277937Y1052513D01*
X1331913D01*
X1166813Y1168400D02*
X1279525Y1055687D01*
X852925Y1168400D02*
X1166813D01*
X1279525Y1055687D02*
X1333500D01*
X1274762Y1046162D02*
X1323975D01*
X1195387Y1116012D02*
X1204912D01*
X1274762Y1046162D01*
X1203774Y1121913D02*
X1276350Y1049337D01*
X1197424Y1121913D02*
X1203774D01*
X1276350Y1049337D02*
X1325562D01*
X1238250Y1101725D02*
X1350963D01*
X1168400Y1171575D02*
X1238250Y1101725D01*
X840100Y1171575D02*
X1168400D01*
X1239837Y1104900D02*
X1358900D01*
X835275Y1174750D02*
X1169987D01*
X1239837Y1104900D01*
X1241425Y1108075D02*
X1363663D01*
X1171575Y1177925D02*
X1241425Y1108075D01*
X798450Y1177925D02*
X1171575D01*
X1196975Y1122363D02*
X1197424Y1121913D01*
X1363663Y1108075D02*
X1371600Y1100137D01*
X1103313Y548850D02*
X1143000Y588537D01*
X1052513Y855663D02*
X1143000Y765175D01*
Y588537D02*
Y765175D01*
X1100137Y550863D02*
X1139825Y590550D01*
X1049337Y854075D02*
X1139825Y763587D01*
Y590550D02*
Y763587D01*
X1103313Y433387D02*
Y548850D01*
X1100137Y434975D02*
Y550863D01*
X1217613Y546100D02*
Y687387D01*
X1236663Y706438D01*
X1270674D01*
X1214437Y544512D02*
Y688975D01*
X1235162Y709699D02*
X1354138D01*
X1214437Y688975D02*
X1235162Y709699D01*
X1238851Y718151D02*
X1354138D01*
X1211263Y542925D02*
Y690563D01*
X1238851Y718151D01*
X1231900Y606425D02*
Y671415D01*
X1254222Y693737D01*
X1354138D01*
X1275436Y701675D02*
X1354138D01*
X1270674Y706438D02*
X1275436Y701675D01*
X1340263Y1064038D02*
X1347787Y1071562D01*
X1340263Y1062451D02*
Y1064038D01*
X1333500Y1055687D02*
X1340263Y1062451D01*
X1009650Y1147675D02*
X1011925Y1149950D01*
Y1149950D01*
X1009650Y1129675D02*
Y1147675D01*
X1189037Y1122363D02*
X1195387Y1116012D01*
X1017704Y1153931D02*
X1061832D01*
X1069587Y1146175D01*
X1012160Y1159475D02*
X1017704Y1153931D01*
X1004000Y1159475D02*
X1012160D01*
X972000Y1149950D02*
X972538D01*
X979369Y1143119D01*
X860000Y1159475D02*
X865750Y1165225D01*
X844000Y1159475D02*
X852925Y1168400D01*
X828000Y1159475D02*
X840100Y1171575D01*
X820000Y1159475D02*
X835275Y1174750D01*
X780000Y1159475D02*
X798450Y1177925D01*
X1016000Y1136650D02*
X1016075Y1136725D01*
Y1143600D01*
X682650Y1120800D02*
X890425D01*
X990700Y1127125D02*
X1004000Y1140425D01*
X896750Y1127125D02*
X990700D01*
X890425Y1120800D02*
X896750Y1127125D01*
X972844Y1130300D02*
X979369Y1136825D01*
X681038Y1123950D02*
X889000D01*
X979369Y1136825D02*
Y1143119D01*
X895350Y1130300D02*
X972844D01*
X889000Y1123950D02*
X895350Y1130300D01*
X893763Y1134281D02*
X965856D01*
X972000Y1140425D01*
X679450Y1127125D02*
X886607D01*
X893763Y1134281D01*
X1247775Y508000D02*
X1254125Y514350D01*
X1239837Y508000D02*
X1247775D01*
X1214437Y482600D02*
X1239837Y508000D01*
X1208087Y482600D02*
X1214437D01*
X1254125Y514350D02*
X1265238D01*
X1270000Y509588D01*
X1595437D01*
X1657350Y571500D01*
X1704975D01*
X1711325Y577850D01*
X1220788Y595312D02*
X1231900Y606425D01*
X1220788Y547687D02*
Y595312D01*
Y547687D02*
X1227138Y541338D01*
Y500062D02*
Y541338D01*
X1219200Y492125D02*
X1227138Y500062D01*
X1184275Y492125D02*
X1219200D01*
X1169987Y506413D02*
X1184275Y492125D01*
X1141413Y495300D02*
X1152525Y506413D01*
X1169987D01*
X1141413Y436562D02*
Y495300D01*
X1148512Y404813D02*
X1155069Y411369D01*
Y422906D01*
X1141413Y436562D02*
X1155069Y422906D01*
X1141413Y404813D02*
X1148512D01*
X1185863Y495300D02*
X1217613D01*
X1138238Y417513D02*
Y496888D01*
X1171575Y509588D02*
X1185863Y495300D01*
X1150938Y509588D02*
X1171575D01*
X1138238Y496888D02*
X1150938Y509588D01*
X1217613Y495300D02*
X1223962Y501650D01*
Y539750D01*
X1217613Y546100D02*
X1223962Y539750D01*
X1220788Y509588D02*
Y538162D01*
X1212850Y501650D02*
X1220788Y509588D01*
X1214437Y544512D02*
X1220788Y538162D01*
X1211263Y518307D02*
X1217613Y524656D01*
Y536575D01*
X1211263Y542925D02*
X1217613Y536575D01*
X331787Y869819D02*
X331787Y422275D01*
X668337Y1116012D02*
X679450Y1127125D01*
X331787Y890587D02*
X557212Y1116012D01*
X668337D01*
X331787Y869819D02*
Y890587D01*
X334962Y880119D02*
X334963Y423862D01*
X669925Y1112838D02*
X681038Y1123950D01*
X558800Y1112838D02*
X669925D01*
X334962Y889000D02*
X558800Y1112838D01*
X334962Y880119D02*
Y889000D01*
X338137Y881755D02*
X338138Y449263D01*
X671513Y1109662D02*
X682650Y1120800D01*
X560387Y1109662D02*
X671513D01*
X338137Y887412D02*
X560387Y1109662D01*
X338137Y881755D02*
Y887412D01*
X341312Y872275D02*
X341312Y452438D01*
X561975Y1106488D02*
X760413D01*
X341312Y885825D02*
X561975Y1106488D01*
X341312Y872275D02*
Y885825D01*
X344487Y860300D02*
X344487Y522287D01*
X344487Y884237D02*
X563563Y1103313D01*
X344487Y860300D02*
Y884237D01*
X1049337Y854075D02*
Y892175D01*
X1052513Y855663D02*
Y898525D01*
X736600Y612198D02*
X736600Y469900D01*
X738187Y619125D02*
Y795338D01*
X736600Y617537D02*
X738187Y619125D01*
X736600Y612198D02*
Y617537D01*
X739775Y616168D02*
X739775Y468312D01*
X741363Y617755D02*
Y793750D01*
X739775Y616168D02*
X741363Y617755D01*
X744538Y615950D02*
Y792162D01*
X742950Y608504D02*
X742950Y466725D01*
X742950Y608504D02*
Y614362D01*
X744538Y615950D01*
X738187Y795338D02*
X760413Y817562D01*
X741363Y793750D02*
X762000Y814388D01*
X744538Y792162D02*
X763587Y811212D01*
X747712Y679450D02*
X757237Y669925D01*
X747712Y790575D02*
X765175Y808037D01*
X747712Y679450D02*
Y790575D01*
X750888Y788988D02*
X766762Y804863D01*
X750888Y681038D02*
Y788988D01*
Y681038D02*
X760413Y671513D01*
X754062Y682625D02*
X769938Y666750D01*
X754062Y787400D02*
X768350Y801687D01*
X754062Y682625D02*
Y787400D01*
X757237Y785813D02*
X769938Y798512D01*
X757237Y684212D02*
X773112Y668337D01*
X757237Y684212D02*
Y785813D01*
X760413Y685800D02*
X776288Y669925D01*
X760413Y784225D02*
X771525Y795338D01*
X760413Y685800D02*
Y784225D01*
X763587Y687387D02*
X779463Y671513D01*
X763587Y781978D02*
X773772Y792162D01*
X763587Y687387D02*
Y781978D01*
X1671638Y641350D02*
X1700213Y669925D01*
X1728788D01*
X1535112Y641350D02*
X1671638D01*
X1658938Y568325D02*
X1768475D01*
X1566862Y476250D02*
X1658938Y568325D01*
X1566862Y444500D02*
Y476250D01*
X1522413Y400050D02*
X1566862Y444500D01*
X1495425Y400050D02*
X1522413D01*
X1768475Y568325D02*
X1803400Y603250D01*
Y681038D01*
X1797050Y687387D02*
X1803400Y681038D01*
X1797050Y687387D02*
Y736600D01*
X1498600Y850900D02*
X1514475Y866775D01*
X1239837D02*
X1420813D01*
X1436687Y850900D02*
X1498600D01*
X1420813Y866775D02*
X1436687Y850900D01*
X741363Y460375D02*
X746125Y465137D01*
X741363Y454025D02*
Y460375D01*
Y454025D02*
X765175Y430213D01*
X849313D01*
X857250Y438150D01*
X889000D01*
X855663Y441325D02*
X890587D01*
X779463Y433387D02*
X847725D01*
X855663Y441325D01*
X915987Y415925D02*
X930275Y401637D01*
X911225Y415925D02*
X915987D01*
X889000Y438150D02*
X911225Y415925D01*
X921532Y419906D02*
X939800Y401637D01*
X749300Y463550D02*
X779463Y433387D01*
X890587Y441325D02*
X912007Y419906D01*
X921532D01*
X787225Y446087D02*
X911225D01*
X915987Y441325D01*
Y425450D02*
Y441325D01*
X1052513Y898525D02*
X1055687Y901700D01*
X1671638Y776288D02*
X1676400D01*
X1685925Y785813D02*
X1744461D01*
X1676400Y776288D02*
X1685925Y785813D01*
X1753180Y777094D02*
X1758168D01*
X1665287Y782637D02*
X1671638Y776288D01*
X1744461Y785813D02*
X1753180Y777094D01*
X1617663Y785813D02*
X1670050D01*
X1673225Y782637D01*
X1616075D02*
X1665287D01*
X1731962Y798512D02*
X1735137Y801687D01*
X1624012Y798512D02*
X1731962D01*
X1622425Y795338D02*
X1744662D01*
X1747838Y798512D01*
X1758168Y777094D02*
X1763712Y782637D01*
X1752600Y788988D02*
X1755775Y785813D01*
X1619250Y788988D02*
X1752600D01*
X1620838Y792162D02*
X1768475D01*
X1771650Y788988D01*
X1509713Y890587D02*
X1531938D01*
X1624012Y798512D01*
X1497012Y903288D02*
X1509713Y890587D01*
X1479550Y903288D02*
X1497012D01*
X1463675Y887412D02*
X1479550Y903288D01*
X1257300Y887412D02*
X1463675D01*
X1147763Y952500D02*
X1192213D01*
X1257300Y887412D01*
X1138238Y942975D02*
X1147763Y952500D01*
X1255713Y884238D02*
X1465262D01*
X1530350Y887412D02*
X1622425Y795338D01*
X1508125Y887412D02*
X1530350D01*
X1495425Y900113D02*
X1508125Y887412D01*
X1465262Y884238D02*
X1481138Y900113D01*
X1495425D01*
X1194606Y945344D02*
X1255713Y884238D01*
X1157789Y939018D02*
X1164115Y945344D01*
X1146763Y941387D02*
X1149132Y939018D01*
X1157789D01*
X1164115Y945344D02*
X1194606D01*
X1146175Y941387D02*
X1146763D01*
X1528763Y884238D02*
X1620838Y792162D01*
X1489075Y866775D02*
X1506537Y884238D01*
X1528763D01*
X1458913Y866775D02*
X1489075D01*
X1444625Y881062D02*
X1458913Y866775D01*
X1254125Y881062D02*
X1444625D01*
X1171478Y933450D02*
X1175434Y937406D01*
X1197781D01*
X1254125Y881062D01*
X1152525Y933450D02*
X1171478D01*
X1527175Y881062D02*
X1619250Y788988D01*
X1508125Y881062D02*
X1527175D01*
X1490663Y863600D02*
X1508125Y881062D01*
X1457325Y863600D02*
X1490663D01*
X1443038Y877887D02*
X1457325Y863600D01*
X1252538Y877887D02*
X1443038D01*
X1203325Y927100D02*
X1252538Y877887D01*
X1185863Y927100D02*
X1203325D01*
X1182688Y923925D02*
X1185863Y927100D01*
X1160462Y923925D02*
X1182688D01*
X1157288Y927100D02*
X1160462Y923925D01*
X1525587Y877887D02*
X1617663Y785813D01*
X1509713Y877887D02*
X1525587D01*
X1492250Y860425D02*
X1509713Y877887D01*
X1455737Y860425D02*
X1492250D01*
X1441450Y874713D02*
X1455737Y860425D01*
X1250950Y874713D02*
X1441450D01*
X1511300D02*
X1524000D01*
X1616075Y782637D01*
X1493837Y857250D02*
X1511300Y874713D01*
X1454150Y857250D02*
X1493837D01*
X1439863Y871537D02*
X1454150Y857250D01*
X1249362Y871537D02*
X1439863D01*
X1201738Y923925D02*
X1250950Y874713D01*
X1187450Y923925D02*
X1201738D01*
X1184275Y920750D02*
X1187450Y923925D01*
X1152525Y920750D02*
X1184275D01*
X1200150D02*
X1249362Y871537D01*
X1189037Y920750D02*
X1200150D01*
X1182688Y914400D02*
X1189037Y920750D01*
X1157288Y914400D02*
X1182688D01*
X1192213D02*
X1239837Y866775D01*
X831850Y1025525D02*
X1190625D01*
X1204912Y1011237D01*
X1189037Y1022350D02*
X1203325Y1008063D01*
X864479Y1022350D02*
X1189037D01*
X869144Y1019175D02*
X1187450D01*
X1201738Y1004887D01*
X1606550Y741363D02*
Y747712D01*
Y741363D02*
X1635125Y712787D01*
X1763712D01*
X1587500Y755650D02*
X1633537Y709613D01*
X1762125D01*
X1687513Y650875D02*
X1717675D01*
X1728788Y661988D01*
X1579563Y684212D02*
X1735137D01*
X1747838Y671513D01*
X1766788Y660500D02*
X1770063Y657225D01*
X1766788Y660500D02*
Y662087D01*
X1741487Y687387D02*
X1766788Y662087D01*
X1769438Y665787D02*
X1779588Y655638D01*
X1767851Y665787D02*
X1769438D01*
X1744662Y693737D02*
X1770063Y668337D01*
X1776413D01*
X1785938Y636587D02*
Y666653D01*
X1769281Y673882D02*
X1778709D01*
X1785938Y666653D01*
X1752600Y690563D02*
X1769281Y673882D01*
X1784350Y687387D02*
X1795462Y676275D01*
Y649287D02*
Y676275D01*
X1779588Y687387D02*
X1784350D01*
X1760538Y706438D02*
X1779588Y687387D01*
X1581150D02*
X1741487D01*
X1582737Y690563D02*
X1743075D01*
X1767851Y665787D01*
X1584325Y693737D02*
X1744662D01*
X1766888Y681038D02*
X1779588D01*
X1747838Y700088D02*
X1766888Y681038D01*
X1752600Y690563D02*
X1752600D01*
X1746250Y696913D02*
X1752600Y690563D01*
X1585912Y696913D02*
X1746250D01*
X1587500Y700088D02*
X1747838D01*
X1588452Y703897D02*
X1753553D01*
X1757363Y700088D01*
X1590675Y706438D02*
X1760538D01*
X1554162Y738187D02*
X1588452Y703897D01*
X1763712Y712787D02*
X1776413Y700088D01*
X1785938D01*
X1777551Y694187D02*
X1780726D01*
X1781175Y693737D01*
X1762125Y709613D02*
X1777551Y694187D01*
X1555750Y741363D02*
X1590675Y706438D01*
X1541463Y741363D02*
X1555750D01*
X1535112Y747712D02*
X1541463Y741363D01*
X1517000Y762650D02*
X1519238Y760413D01*
X1553174Y734414D02*
X1587500Y700088D01*
X1550988Y731837D02*
X1585912Y696913D01*
X1549400Y728662D02*
X1584325Y693737D01*
X1547812Y725488D02*
X1582737Y690563D01*
X1546613Y721925D02*
X1581150Y687387D01*
X1545624Y718151D02*
X1579563Y684212D01*
X1535112Y742950D02*
X1539875Y738187D01*
X1554162D01*
X1535112Y734414D02*
X1553174D01*
X1535112Y731837D02*
X1550988D01*
X1535112Y728662D02*
X1549400D01*
X1535112Y725488D02*
X1547812D01*
X1535112Y721925D02*
X1546613D01*
X1535112Y718151D02*
X1545624D01*
X1674812Y638175D02*
X1687513Y650875D01*
X1535112Y638175D02*
X1674812D01*
X1689100Y647700D02*
X1774825D01*
X1779588Y642937D01*
X1671099Y629699D02*
X1689100Y647700D01*
X1535112Y629699D02*
X1671099D01*
X1084262Y339725D02*
X1087438Y342900D01*
X1084262Y352425D02*
Y419100D01*
X1076325Y344487D02*
X1084262Y352425D01*
X1087438Y342900D02*
Y417513D01*
X1103313Y433387D01*
X1084262Y419100D02*
X1100137Y434975D01*
X1046162Y895350D02*
X1049337Y892175D01*
X1338262Y1036637D02*
X1387475D01*
X1395412Y1044575D01*
X1336675Y1033463D02*
X1363663D01*
X1374775Y1022350D01*
X1323975Y1046162D02*
X1336675Y1033463D01*
X1325562Y1049337D02*
X1338262Y1036637D01*
X1331913Y1052513D02*
X1341438Y1042988D01*
X1350963Y1101725D02*
X1358900Y1093788D01*
Y1104900D02*
X1363663Y1100137D01*
X1204912Y1011237D02*
X1381125D01*
X1384300Y1014413D01*
X1203325Y1008063D02*
X1389062D01*
X1392238Y1011237D01*
X1395412Y1004887D02*
X1400175Y1009650D01*
X812019Y1045357D02*
X831850Y1025525D01*
X781050Y1045357D02*
X812019D01*
X836710Y994581D02*
X864479Y1022350D01*
X827087Y994581D02*
X836710D01*
X1201738Y1004887D02*
X1395412D01*
X844550Y994581D02*
X869144Y1019175D01*
X896132Y1016000D02*
X942975D01*
X876300Y996169D02*
X896132Y1016000D01*
X876300Y981075D02*
Y996169D01*
X844550Y949325D02*
X876300Y981075D01*
X844550Y833438D02*
Y949325D01*
X828675Y817562D02*
X844550Y833438D01*
X760413Y817562D02*
X828675D01*
X762000Y814388D02*
X830263D01*
X847725Y831850D02*
Y947738D01*
X830263Y814388D02*
X847725Y831850D01*
Y947738D02*
X904875Y1004887D01*
X944563D01*
X898525Y992188D02*
X910019D01*
X862012Y955675D02*
X898525Y992188D01*
X862012Y901700D02*
Y955675D01*
X852487Y892175D02*
X862012Y901700D01*
X852487Y831850D02*
Y892175D01*
X831850Y811212D02*
X852487Y831850D01*
X763587Y811212D02*
X831850D01*
X900113Y989013D02*
X958850D01*
X765175Y808037D02*
X833438D01*
X865188Y839788D01*
Y954088D01*
X900113Y989013D01*
X901700Y985837D02*
X971550D01*
X868363Y952500D02*
X901700Y985837D01*
X868363Y838200D02*
Y952500D01*
X835025Y804863D02*
X868363Y838200D01*
X766762Y804863D02*
X835025D01*
X871537Y950912D02*
X903288Y982663D01*
X965200D01*
X871537Y836612D02*
Y950912D01*
X836612Y801687D02*
X871537Y836612D01*
X768350Y801687D02*
X836612D01*
X904875Y979488D02*
X963613D01*
X769938Y798512D02*
X838200D01*
X874713Y835025D01*
Y949325D01*
X904875Y979488D01*
X906462Y976312D02*
X958850D01*
X877887Y947738D02*
X906462Y976312D01*
X877887Y833438D02*
Y947738D01*
X839788Y795338D02*
X877887Y833438D01*
X771525Y795338D02*
X839788D01*
X907872Y973138D02*
X931862D01*
X773772Y792162D02*
X841375D01*
X881062Y831850D02*
Y946328D01*
X841375Y792162D02*
X881062Y831850D01*
Y946328D02*
X907872Y973138D01*
X931862D02*
X935038Y969962D01*
X958850Y976312D02*
X963613Y971550D01*
X962025Y992188D02*
X979488D01*
X958850Y989013D02*
X962025Y992188D01*
X981075Y998538D02*
X987425Y1004887D01*
X916369Y998538D02*
X981075D01*
X910019Y992188D02*
X916369Y998538D01*
X966787Y976312D02*
X987425D01*
X1008063Y996950D01*
X963613Y979488D02*
X966787Y976312D01*
X968375Y979488D02*
X981075D01*
X1006475Y1004887D01*
X965200Y982663D02*
X968375Y979488D01*
X971550Y985837D02*
X971550Y985837D01*
X942975Y1016000D02*
X954088Y1004887D01*
X984437Y1100137D02*
X1016000Y1131700D01*
Y1136650D01*
X983288Y1103313D02*
X1009650Y1129675D01*
X910620Y1100137D02*
X984437D01*
X896333Y1114425D02*
X910620Y1100137D01*
X773112Y1114425D02*
X896333D01*
X762000Y1103313D02*
X773112Y1114425D01*
X563563Y1103313D02*
X762000D01*
X760413Y1106488D02*
X771525Y1117600D01*
X896750D01*
X911038Y1103313D01*
X983288D01*
X462709Y464296D02*
X478582D01*
X344487Y522287D02*
X354012Y512762D01*
Y455612D02*
Y512762D01*
X450850Y452438D02*
X462709Y464296D01*
X354012Y455612D02*
X357188Y452438D01*
X450850D01*
X338138Y449263D02*
X341312Y446087D01*
X406831D02*
X412750Y440169D01*
X341312Y446087D02*
X406831D01*
X769938Y641350D02*
Y666750D01*
X763587Y635000D02*
X769938Y641350D01*
X752475Y609600D02*
X763587Y620713D01*
Y635000D01*
X752475Y534987D02*
Y609600D01*
X762000Y504825D02*
Y525462D01*
X752475Y534987D02*
X762000Y525462D01*
X773112Y460200D02*
Y493713D01*
X762000Y504825D02*
X773112Y493713D01*
Y460200D02*
X787225Y446087D01*
X914400Y407988D02*
X920750Y401637D01*
X730250Y454025D02*
X742950Y466725D01*
X730250Y414338D02*
X736600Y407988D01*
X914400D01*
X730250Y414338D02*
Y454025D01*
X958850Y401637D02*
Y431800D01*
X911225Y479425D02*
X958850Y431800D01*
X779463Y635000D02*
X782637Y631825D01*
Y617537D02*
Y631825D01*
X779463Y635000D02*
Y671513D01*
X773112Y608013D02*
X782637Y617537D01*
X798456Y520756D02*
X839788Y479425D01*
X911225D01*
X798456Y520756D02*
Y538219D01*
X773112Y563563D02*
Y608013D01*
Y563563D02*
X798456Y538219D01*
X723900Y457200D02*
X736600Y469900D01*
X723900Y417513D02*
Y457200D01*
X717550Y411162D02*
X723900Y417513D01*
X509588Y411162D02*
X717550D01*
X500062Y401637D02*
X509588Y411162D01*
X346075Y407988D02*
X474663D01*
X481012Y401637D01*
X331787Y422275D02*
X346075Y407988D01*
X760413Y622300D02*
Y636587D01*
Y660400D02*
Y671513D01*
X758825Y493713D02*
Y523875D01*
X757237Y657225D02*
X760413Y660400D01*
X757237Y639762D02*
X760413Y636587D01*
X749300Y611188D02*
X760413Y622300D01*
X757237Y639762D02*
Y657225D01*
X749300Y533400D02*
Y611188D01*
Y484188D02*
X758825Y493713D01*
X749300Y533400D02*
X758825Y523875D01*
X749300Y463550D02*
Y484188D01*
X344487Y449263D02*
X477837D01*
X341312Y452438D02*
X344487Y449263D01*
X477837D02*
X493713Y433387D01*
X754062Y638175D02*
X757237Y635000D01*
Y661988D02*
Y669925D01*
X754062Y658812D02*
X757237Y661988D01*
X754062Y638175D02*
Y658812D01*
X757237Y623887D02*
Y635000D01*
X755650Y495300D02*
Y522287D01*
X746125Y612775D02*
X757237Y623887D01*
X746125Y531813D02*
Y612775D01*
Y531813D02*
X755650Y522287D01*
X746125Y485775D02*
X755650Y495300D01*
X746125Y465137D02*
Y485775D01*
X880018Y467506D02*
X897457Y450069D01*
X785031Y467506D02*
X880018D01*
X779463Y473075D02*
X784230Y468308D01*
X779463Y619125D02*
Y630238D01*
X784230Y468308D02*
X785031Y467506D01*
X929493Y421469D02*
X949325Y401637D01*
X911909Y450069D02*
X929493Y432484D01*
X897457Y450069D02*
X911909D01*
X929493Y421469D02*
Y432484D01*
X776288Y633413D02*
Y669925D01*
Y633413D02*
X779463Y630238D01*
X758825Y598488D02*
X779463Y619125D01*
X758825Y554038D02*
Y598488D01*
X768350Y508000D02*
X779463Y496888D01*
X768350Y527050D02*
X773112Y531813D01*
X779463Y473075D02*
Y496888D01*
X773112Y531813D02*
Y539750D01*
X758825Y554038D02*
X773112Y539750D01*
X768350Y508000D02*
Y527050D01*
X347663Y411162D02*
X481012D01*
X490537Y401637D01*
X334963Y423862D02*
X347663Y411162D01*
X727075Y455612D02*
X739775Y468312D01*
X727075Y415925D02*
Y455612D01*
X719137Y407988D02*
X727075Y415925D01*
X515938Y407988D02*
X719137D01*
X509588Y401637D02*
X515938Y407988D01*
X773112Y631825D02*
Y668337D01*
X776288Y620713D02*
Y628650D01*
X773112Y631825D02*
X776288Y628650D01*
X755650Y600075D02*
X776288Y620713D01*
X755650Y536575D02*
Y600075D01*
Y536575D02*
X765175Y527050D01*
Y506413D02*
Y527050D01*
X776288Y461963D02*
Y495300D01*
X765175Y506413D02*
X776288Y495300D01*
Y461963D02*
X788988Y449263D01*
X865090D01*
X871358Y455530D02*
X884155D01*
X865090Y449263D02*
X871358Y455530D01*
X1897063Y454025D02*
X1909763D01*
X1919288Y444500D01*
X1892300Y449263D02*
X1897063Y454025D01*
X1892300Y428625D02*
Y449263D01*
Y428625D02*
X1905782Y415144D01*
X1905000Y387058D02*
X1905782Y387839D01*
X1905000Y358775D02*
Y387058D01*
X1905782Y387839D02*
Y415144D01*
X1968500Y303213D02*
Y330200D01*
X1927225Y371475D02*
X1968500Y330200D01*
X1900237Y425450D02*
X1927225Y398462D01*
Y371475D02*
Y398462D01*
X1900237Y425450D02*
Y447675D01*
X419100Y534987D02*
Y561975D01*
X439738Y582612D01*
X401637Y517525D02*
X419100Y534987D01*
X401637Y461963D02*
Y517525D01*
X412750Y455612D02*
X419100Y461963D01*
X396875Y455612D02*
X412750D01*
X390525Y461963D02*
X396875Y455612D01*
X419100Y511175D02*
X468312Y560387D01*
X419100Y461963D02*
Y511175D01*
X468312Y560387D02*
Y584200D01*
X993775Y901700D02*
X994095D01*
D225*
X223500Y25000D02*
D03*
X176500D02*
D03*
X1520000D02*
D03*
X1380000D02*
D03*
X1270000D02*
D03*
X380000D02*
D03*
X490000D02*
D03*
X600000D02*
D03*
X710000D02*
D03*
X820000D02*
D03*
X930000D02*
D03*
X1040000D02*
D03*
X1150000D02*
D03*
X1660000D02*
D03*
X1820000D02*
D03*
D228*
X260350Y590550D02*
Y598488D01*
X255588Y603250D02*
X260350Y598488D01*
X193675Y603250D02*
X255588D01*
D229*
X432834Y134150D02*
X496087D01*
X386550D02*
X432834D01*
Y187879D01*
X407988Y212725D02*
X432834Y187879D01*
X826288Y134150D02*
X935825D01*
X1046950D02*
X1156488D01*
X935825D02*
X1046950D01*
X716750D02*
X826288D01*
X605625D02*
X716750D01*
X496087D02*
X605625D01*
D230*
X1492851Y685699D02*
Y691036D01*
Y685699D02*
X1496625Y681925D01*
X1490150Y693737D02*
X1492851Y691036D01*
X1354138Y693737D02*
X1490150D01*
X1354138Y701675D02*
X1379538D01*
X1379561Y701699D01*
X1492851D01*
X1496625Y697925D01*
X1354138Y709699D02*
X1465736D01*
X1468851Y712814D01*
Y718151D01*
X1472625Y721925D01*
X1354138Y718151D02*
X1460851D01*
X1464625Y721925D01*
X1529200Y641350D02*
X1535112D01*
X1496625Y673925D02*
X1529200Y641350D01*
X1519238Y760413D02*
X1522468Y757182D01*
X1525643D01*
X1535112Y747712D01*
X1485811Y751112D02*
X1526951D01*
X1535112Y742950D01*
X1464625Y729925D02*
X1485811Y751112D01*
X1518249Y734414D02*
X1535112D01*
X1511300Y741363D02*
X1518249Y734414D01*
X1484062Y741363D02*
X1511300D01*
X1472625Y729925D02*
X1484062Y741363D01*
X1516062Y731837D02*
X1535112D01*
X1509713Y738187D02*
X1516062Y731837D01*
X1488887Y738187D02*
X1509713D01*
X1480625Y729925D02*
X1488887Y738187D01*
X1514475Y728662D02*
X1535112D01*
X1508125Y735013D02*
X1514475Y728662D01*
X1501712Y735013D02*
X1508125D01*
X1496625Y729925D02*
X1501712Y735013D01*
X1504625Y729925D02*
X1509062Y725488D01*
X1535112D01*
X1496625Y721925D02*
X1500399Y718151D01*
X1535112D01*
X1504625Y721925D02*
X1535112D01*
X1517650Y638175D02*
X1535112D01*
X1500399Y638151D02*
X1517626D01*
X1517650Y638175D01*
X1496625Y641925D02*
X1500399Y638151D01*
Y629699D02*
X1535112D01*
X1496625Y625925D02*
X1500399Y629699D01*
D232*
X1764300Y1118750D02*
D03*
D233*
X1835700Y1100950D02*
D03*
X1774500D02*
D03*
X1825500Y1118750D02*
D03*
X1784700D02*
D03*
X1815300Y1100950D02*
D03*
X1794900D02*
D03*
X1805100Y1118750D02*
D03*
X1868600Y1052750D02*
D03*
X1731400D02*
D03*
X1845700D02*
D03*
X1754300D02*
D03*
D234*
X1736500Y1144150D02*
D03*
X1863500D02*
D03*
D235*
X1718750Y1109850D02*
D03*
X1881250D02*
D03*
D236*
X1200000Y834300D02*
D03*
D237*
Y720000D02*
D03*
Y745400D02*
D03*
Y770800D02*
D03*
Y694600D02*
D03*
Y669200D02*
D03*
D238*
X1174000Y1135000D02*
D03*
X666000D02*
D03*
X1165000Y226000D02*
D03*
Y494000D02*
D03*
X1406000Y1135000D02*
D03*
X1594000D02*
D03*
D239*
X244960Y68180D02*
D03*
X214990D02*
D03*
X185010D02*
D03*
X155040D02*
D03*
Y98150D02*
D03*
X185010D02*
D03*
X214990D02*
D03*
X244960D02*
D03*
X1549840D02*
D03*
X1520000D02*
D03*
X1490160D02*
D03*
Y68180D02*
D03*
X1520000D02*
D03*
X1549840D02*
D03*
X1394990D02*
D03*
X1365010D02*
D03*
Y98150D02*
D03*
X1394990D02*
D03*
X1270000D02*
D03*
Y68180D02*
D03*
X394990D02*
D03*
X365010D02*
D03*
Y98150D02*
D03*
X394990D02*
D03*
X504990Y68180D02*
D03*
X475010D02*
D03*
Y98150D02*
D03*
X504990D02*
D03*
X614990Y68180D02*
D03*
X585010D02*
D03*
Y98150D02*
D03*
X614990D02*
D03*
X724990Y68180D02*
D03*
X695010D02*
D03*
Y98150D02*
D03*
X724990D02*
D03*
X834990Y68180D02*
D03*
X805010D02*
D03*
Y98150D02*
D03*
X834990D02*
D03*
X944990Y68180D02*
D03*
X915010D02*
D03*
Y98150D02*
D03*
X944990D02*
D03*
X1054990Y68180D02*
D03*
X1025010D02*
D03*
Y98150D02*
D03*
X1054990D02*
D03*
X1164990Y68180D02*
D03*
X1135010D02*
D03*
Y98150D02*
D03*
X1164990D02*
D03*
X1674990Y68180D02*
D03*
X1645010D02*
D03*
Y98150D02*
D03*
X1674990D02*
D03*
X1834990Y68180D02*
D03*
X1805010D02*
D03*
Y98150D02*
D03*
X1834990D02*
D03*
D240*
X377650Y1058863D02*
D03*
D241*
X582650D02*
D03*
D242*
X1950000Y1150000D02*
D03*
Y50000D02*
D03*
X50000D02*
D03*
Y1150000D02*
D03*
X1350000D02*
D03*
Y150000D02*
D03*
X1250000D02*
D03*
Y1150000D02*
D03*
D243*
X1476487Y186588D02*
D03*
Y197588D02*
D03*
X1487487Y186588D02*
D03*
Y197588D02*
D03*
X1498488Y186588D02*
D03*
Y197588D02*
D03*
X531575Y865900D02*
D03*
X541575D02*
D03*
X531575Y855900D02*
D03*
X541575D02*
D03*
X531575Y845900D02*
D03*
X541575D02*
D03*
X531575Y835900D02*
D03*
X541575D02*
D03*
X1220700Y994512D02*
D03*
Y983512D02*
D03*
X1209700Y994512D02*
D03*
Y983512D02*
D03*
X939575Y318237D02*
D03*
Y307237D02*
D03*
X928575Y318237D02*
D03*
Y307237D02*
D03*
X917575Y318237D02*
D03*
Y307237D02*
D03*
X906575Y318237D02*
D03*
Y307237D02*
D03*
X895575Y318237D02*
D03*
Y307237D02*
D03*
X907175Y538875D02*
D03*
X897175D02*
D03*
X887175D02*
D03*
X877175D02*
D03*
Y508875D02*
D03*
X887175D02*
D03*
X897175D02*
D03*
X907175D02*
D03*
Y518875D02*
D03*
X897175D02*
D03*
X887175D02*
D03*
X877175D02*
D03*
Y528875D02*
D03*
X887175D02*
D03*
X897175D02*
D03*
X907175D02*
D03*
X1641362Y416662D02*
D03*
Y405662D02*
D03*
X1630363Y416662D02*
D03*
Y405662D02*
D03*
X1619362Y416662D02*
D03*
Y405662D02*
D03*
X207738Y715850D02*
D03*
Y704850D02*
D03*
Y693850D02*
D03*
X196737Y715850D02*
D03*
Y704850D02*
D03*
Y693850D02*
D03*
X185737Y715850D02*
D03*
Y704850D02*
D03*
Y693850D02*
D03*
X174737Y715850D02*
D03*
Y704850D02*
D03*
Y693850D02*
D03*
X163738Y715850D02*
D03*
Y704850D02*
D03*
Y693850D02*
D03*
X1861087Y772063D02*
D03*
Y760912D02*
D03*
Y747213D02*
D03*
Y736062D02*
D03*
X1849937Y772063D02*
D03*
Y760912D02*
D03*
Y747213D02*
D03*
Y736062D02*
D03*
X1836237Y772063D02*
D03*
Y760912D02*
D03*
Y747213D02*
D03*
Y736062D02*
D03*
X1825087Y772063D02*
D03*
Y760912D02*
D03*
Y747213D02*
D03*
Y736062D02*
D03*
X505537Y538875D02*
D03*
X495537D02*
D03*
X485537D02*
D03*
X475537D02*
D03*
Y508875D02*
D03*
X485537D02*
D03*
X495537D02*
D03*
X505537D02*
D03*
Y518875D02*
D03*
X495537D02*
D03*
X485537D02*
D03*
X475537D02*
D03*
Y528875D02*
D03*
X485537D02*
D03*
X495537D02*
D03*
X505537D02*
D03*
X499837Y318237D02*
D03*
Y307237D02*
D03*
X488838Y318237D02*
D03*
Y307237D02*
D03*
X477837Y318237D02*
D03*
Y307237D02*
D03*
X466838Y318237D02*
D03*
Y307237D02*
D03*
X455838Y318237D02*
D03*
Y307237D02*
D03*
X760413Y401637D02*
D03*
X1287462Y280987D02*
D03*
X1343806Y292100D02*
D03*
X1393825Y214312D02*
D03*
X1368425Y311150D02*
D03*
X1298575Y196068D02*
D03*
X1322388Y223838D02*
D03*
Y236537D02*
D03*
Y249237D02*
D03*
X1330325Y276225D02*
D03*
X1303531Y321062D02*
D03*
X1319212Y320675D02*
D03*
X1382713Y298450D02*
D03*
X1301701Y239761D02*
D03*
X1290638Y220662D02*
D03*
X1292225Y234950D02*
D03*
X1395412Y298450D02*
D03*
X1402072Y276225D02*
D03*
X1409700Y265112D02*
D03*
X1411288Y342900D02*
D03*
X592137Y847725D02*
D03*
X606425Y889000D02*
D03*
X568325Y847725D02*
D03*
X562301Y853379D02*
D03*
X1894840Y1163320D02*
D03*
X1902460Y1148080D02*
D03*
X1894840Y1132840D02*
D03*
X1902460Y1117600D02*
D03*
X1879600Y1163320D02*
D03*
X1887220Y1148080D02*
D03*
X1871980Y1178560D02*
D03*
X1864360Y1102360D02*
D03*
X1856740Y1178560D02*
D03*
X1849120Y1163320D02*
D03*
X1856740Y1117600D02*
D03*
X1849120Y1102360D02*
D03*
X1841500Y1178560D02*
D03*
X1833880Y1163320D02*
D03*
X1841500Y1148080D02*
D03*
X1833880Y1132840D02*
D03*
X1841500Y1117600D02*
D03*
X1826260Y1178560D02*
D03*
X1818640Y1163320D02*
D03*
X1826260Y1148080D02*
D03*
X1818640Y1132840D02*
D03*
X1811020Y1178560D02*
D03*
X1803400Y1163320D02*
D03*
X1811020Y1148080D02*
D03*
X1803400Y1132840D02*
D03*
X1795780Y1178560D02*
D03*
X1788160Y1163320D02*
D03*
X1795780Y1148080D02*
D03*
X1788160Y1132840D02*
D03*
X1780540Y1178560D02*
D03*
X1772920Y1163320D02*
D03*
X1780540Y1148080D02*
D03*
X1772920Y1132840D02*
D03*
X1765300Y1178560D02*
D03*
X1757680Y1163320D02*
D03*
X1765300Y1148080D02*
D03*
X1757680Y1132840D02*
D03*
X1750060Y1178560D02*
D03*
Y1117600D02*
D03*
X1742440Y1102360D02*
D03*
X1734820Y1178560D02*
D03*
X1727200Y1163320D02*
D03*
X1719580Y1178560D02*
D03*
X1711960Y1163320D02*
D03*
Y1132840D02*
D03*
X1955800Y1026160D02*
D03*
X1963420Y1010920D02*
D03*
X1955800Y995680D02*
D03*
X1940560Y1026160D02*
D03*
X1925320Y1056640D02*
D03*
X1917700Y1071880D02*
D03*
X1910080Y1056640D02*
D03*
X1917700Y1041400D02*
D03*
X1902460Y1071880D02*
D03*
X1894840Y1026160D02*
D03*
X1902460Y1010920D02*
D03*
X1879600Y1056640D02*
D03*
X1887220Y1041400D02*
D03*
X1879600Y1026160D02*
D03*
X1887220Y1010920D02*
D03*
X1871980Y1071880D02*
D03*
Y1041400D02*
D03*
X1856740Y1071880D02*
D03*
Y1041400D02*
D03*
X1841500Y1071880D02*
D03*
X1833880Y1026160D02*
D03*
X1841500Y1010920D02*
D03*
X1833880Y995680D02*
D03*
X1818640Y1026160D02*
D03*
X1826260Y1010920D02*
D03*
X1818640Y995680D02*
D03*
X1803400Y1056640D02*
D03*
X1788160D02*
D03*
X1795780Y1041400D02*
D03*
X1780540D02*
D03*
X1772920Y1026160D02*
D03*
X1765300Y1071880D02*
D03*
X1757680Y1026160D02*
D03*
X1765300Y1010920D02*
D03*
X1750060Y1071880D02*
D03*
X1742440Y1056640D02*
D03*
X1750060Y1010920D02*
D03*
X1734820Y1071880D02*
D03*
Y1041400D02*
D03*
X1719580Y1071880D02*
D03*
X1711960Y1056640D02*
D03*
X1719580Y1041400D02*
D03*
X1711960Y1026160D02*
D03*
X1704340Y1071880D02*
D03*
Y1041400D02*
D03*
X1696720Y1026160D02*
D03*
X1704340Y1010920D02*
D03*
X1696720Y995680D02*
D03*
X1681480Y1026160D02*
D03*
X1689100Y1010920D02*
D03*
X1681480Y995680D02*
D03*
X1666240Y1026160D02*
D03*
X1673860Y1010920D02*
D03*
X1666240Y995680D02*
D03*
X1651000Y1026160D02*
D03*
X1658620Y1010920D02*
D03*
X1651000Y995680D02*
D03*
X1635760Y1026160D02*
D03*
X1643380Y1010920D02*
D03*
X1635760Y995680D02*
D03*
X1743075Y1006475D02*
D03*
X1717675D02*
D03*
X1943100D02*
D03*
X1917700D02*
D03*
X1854200D02*
D03*
X1879600D02*
D03*
X485775Y874713D02*
D03*
X430213Y912489D02*
D03*
X414338Y879475D02*
D03*
X153988Y161925D02*
D03*
Y373063D02*
D03*
X1281113Y1113619D02*
D03*
X1206500Y1150938D02*
D03*
X1371600Y1100137D02*
D03*
X1223962Y720000D02*
D03*
X1201738Y612775D02*
D03*
X1189037Y590550D02*
D03*
X1201738Y565150D02*
D03*
X1207441Y538906D02*
D03*
X1208087Y852487D02*
D03*
X1147763Y528638D02*
D03*
Y582612D02*
D03*
X1162050Y603250D02*
D03*
X1169987Y620713D02*
D03*
X1120766Y518307D02*
D03*
X1079500Y477837D02*
D03*
X1272833Y668800D02*
D03*
X1247775Y646113D02*
D03*
X1274762Y603250D02*
D03*
X1268412Y625475D02*
D03*
Y645331D02*
D03*
X1272259Y653476D02*
D03*
X1280331Y645331D02*
D03*
X1262063Y635000D02*
D03*
X1263650Y652462D02*
D03*
X1260475Y663575D02*
D03*
X1280331Y661084D02*
D03*
X1223962Y665911D02*
D03*
Y673443D02*
D03*
Y681600D02*
D03*
X1245494Y692850D02*
D03*
X1247775Y700088D02*
D03*
X1223962Y742950D02*
D03*
X1154112Y764800D02*
D03*
X1174750Y795338D02*
D03*
X1141413Y781050D02*
D03*
X1179512Y754062D02*
D03*
X1177925Y765175D02*
D03*
Y773112D02*
D03*
Y781050D02*
D03*
X1395412Y284163D02*
D03*
X730250Y249237D02*
D03*
Y225425D02*
D03*
Y273050D02*
D03*
X731837Y290513D02*
D03*
X730250Y323850D02*
D03*
X722312Y354012D02*
D03*
X733425Y379412D02*
D03*
X730250Y392113D02*
D03*
X676275Y249237D02*
D03*
Y225425D02*
D03*
Y273050D02*
D03*
Y296863D02*
D03*
Y320675D02*
D03*
X682625Y355600D02*
D03*
X676275Y368300D02*
D03*
Y392113D02*
D03*
X763587Y201612D02*
D03*
X782637Y192087D02*
D03*
X793750D02*
D03*
X804863D02*
D03*
X827087D02*
D03*
X838200D02*
D03*
X858838Y201612D02*
D03*
X1431925Y271462D02*
D03*
X1374775Y295275D02*
D03*
X1363663Y293687D02*
D03*
X1349375Y266700D02*
D03*
X1325562D02*
D03*
X1397000Y255588D02*
D03*
Y244475D02*
D03*
X1973262Y611188D02*
D03*
X1878013Y596900D02*
D03*
X590550Y1131888D02*
D03*
X609600Y996950D02*
D03*
X790575Y644525D02*
D03*
X781050Y417513D02*
D03*
X125413Y652462D02*
D03*
X1087438Y749300D02*
D03*
X690563Y595312D02*
D03*
X946150Y736600D02*
D03*
X933450D02*
D03*
X920750D02*
D03*
X908050D02*
D03*
X895350D02*
D03*
X552450D02*
D03*
X539750D02*
D03*
X527050D02*
D03*
X514350D02*
D03*
X501650D02*
D03*
X438150D02*
D03*
X431800Y723900D02*
D03*
X1168400Y1041400D02*
D03*
Y1033463D02*
D03*
X1303338Y1093788D02*
D03*
X1347787Y1087438D02*
D03*
Y1071562D02*
D03*
X1568000Y1119513D02*
D03*
X301625Y688340D02*
D03*
Y706120D02*
D03*
Y723900D02*
D03*
Y741680D02*
D03*
Y759460D02*
D03*
X940000Y1114425D02*
D03*
X930275Y1150938D02*
D03*
X921569Y1154066D02*
D03*
X1196975Y1122363D02*
D03*
X879393Y1141198D02*
D03*
X868363Y1144587D02*
D03*
X1031875Y1147763D02*
D03*
X1055687D02*
D03*
X972000Y1149950D02*
D03*
X1011925D02*
D03*
X1123950Y736600D02*
D03*
X1073150D02*
D03*
X1060450D02*
D03*
X1022350D02*
D03*
X1047750D02*
D03*
X1111250D02*
D03*
X1098550D02*
D03*
X1085850D02*
D03*
X1035050D02*
D03*
X1550988Y174625D02*
D03*
X1558925D02*
D03*
X1068388Y571500D02*
D03*
X773112Y747712D02*
D03*
X1450625Y794411D02*
D03*
Y784225D02*
D03*
X1450975Y845356D02*
D03*
X1719263Y812800D02*
D03*
X715800Y599425D02*
D03*
X639762Y1078311D02*
D03*
X647700Y1096963D02*
D03*
X996000Y1159475D02*
D03*
X980000D02*
D03*
X1116012Y976312D02*
D03*
X1581895Y1153270D02*
D03*
X1576145Y1159020D02*
D03*
X1557281Y1148437D02*
D03*
X1560000Y1154112D02*
D03*
X1116000Y1159411D02*
D03*
X1124000D02*
D03*
X1155936D02*
D03*
X1148000Y1159475D02*
D03*
X1156000Y1140425D02*
D03*
X1148000D02*
D03*
X1124000D02*
D03*
X1116000D02*
D03*
X1046500Y1159475D02*
D03*
X1052000Y1140425D02*
D03*
X1060000D02*
D03*
X1092000D02*
D03*
X1084000D02*
D03*
X1068000D02*
D03*
X1076000D02*
D03*
X1435906Y533400D02*
D03*
Y541338D02*
D03*
X1585912Y673100D02*
D03*
X1576387D02*
D03*
X1306512Y677862D02*
D03*
X1316037D02*
D03*
X1108000Y1140425D02*
D03*
X1100000D02*
D03*
X1568000Y1146175D02*
D03*
X1560000Y1141413D02*
D03*
X1585912Y347663D02*
D03*
X932669Y632274D02*
D03*
X555625Y612775D02*
D03*
X957262D02*
D03*
X855663Y620713D02*
D03*
X879475D02*
D03*
X903288D02*
D03*
X908050Y615950D02*
D03*
X896937D02*
D03*
X885825D02*
D03*
X849313Y614362D02*
D03*
X447675D02*
D03*
X484188Y615950D02*
D03*
X495300D02*
D03*
X506413D02*
D03*
X501650Y620713D02*
D03*
X477837D02*
D03*
X454025D02*
D03*
X603250Y698500D02*
D03*
X596900Y685800D02*
D03*
Y660400D02*
D03*
X603250Y647700D02*
D03*
X590550Y698500D02*
D03*
X584200Y685800D02*
D03*
X577850Y698500D02*
D03*
X571500Y685800D02*
D03*
X565150Y698500D02*
D03*
X558800Y685800D02*
D03*
X1009650Y698500D02*
D03*
X1003300Y685800D02*
D03*
Y660400D02*
D03*
X1009650Y647700D02*
D03*
X996950Y698500D02*
D03*
X990600Y685800D02*
D03*
X984250Y698500D02*
D03*
X977900Y685800D02*
D03*
X971550Y698500D02*
D03*
X965200Y685800D02*
D03*
X958850Y698500D02*
D03*
X730250Y736600D02*
D03*
X717550D02*
D03*
X704850D02*
D03*
X679450D02*
D03*
X666750D02*
D03*
X654050D02*
D03*
X641350D02*
D03*
X628650D02*
D03*
X615950D02*
D03*
X1003300Y774700D02*
D03*
X990600D02*
D03*
X977900D02*
D03*
X965200D02*
D03*
X889000D02*
D03*
X876300D02*
D03*
X863600D02*
D03*
X850900D02*
D03*
X838200D02*
D03*
X825500D02*
D03*
X812800D02*
D03*
Y749300D02*
D03*
X800100Y774700D02*
D03*
X806450Y762000D02*
D03*
X800100Y749300D02*
D03*
X806450Y736600D02*
D03*
X609600Y774700D02*
D03*
X596900D02*
D03*
X584200D02*
D03*
X571500D02*
D03*
X558800D02*
D03*
X482600D02*
D03*
X469900D02*
D03*
X457200D02*
D03*
X444500D02*
D03*
X431800D02*
D03*
X419100D02*
D03*
X406400D02*
D03*
X412750Y762000D02*
D03*
X406400Y749300D02*
D03*
X412750Y736600D02*
D03*
X406400Y723900D02*
D03*
X412750Y711200D02*
D03*
X393700Y774700D02*
D03*
X400050Y762000D02*
D03*
X393700Y749300D02*
D03*
X400050Y711200D02*
D03*
X381000Y774700D02*
D03*
X387350Y762000D02*
D03*
X381000Y749300D02*
D03*
X387350Y711200D02*
D03*
X368300Y774700D02*
D03*
X374650Y762000D02*
D03*
X368300Y749300D02*
D03*
X374650Y711200D02*
D03*
X368300Y698500D02*
D03*
X374650Y685800D02*
D03*
X368300Y673100D02*
D03*
X355600Y774700D02*
D03*
X361950Y762000D02*
D03*
X355600Y749300D02*
D03*
X361950Y711200D02*
D03*
X355600Y698500D02*
D03*
X361950Y685800D02*
D03*
X355600Y673100D02*
D03*
X261620Y875030D02*
D03*
X270510D02*
D03*
X301625Y795020D02*
D03*
Y830580D02*
D03*
X266065Y883920D02*
D03*
X301625Y812800D02*
D03*
X243840Y875030D02*
D03*
X274955Y866140D02*
D03*
X288290Y875030D02*
D03*
X301625Y848360D02*
D03*
X283845Y866140D02*
D03*
X279400Y875030D02*
D03*
X274955Y883920D02*
D03*
X283845D02*
D03*
X301625Y873125D02*
D03*
Y879475D02*
D03*
X246063Y906462D02*
D03*
X247650Y835025D02*
D03*
X244475Y673100D02*
D03*
Y681038D02*
D03*
Y720725D02*
D03*
Y688975D02*
D03*
Y696913D02*
D03*
Y704850D02*
D03*
Y728662D02*
D03*
Y712787D02*
D03*
Y736600D02*
D03*
X247650Y819150D02*
D03*
X325438Y782637D02*
D03*
X247650Y827087D02*
D03*
Y795338D02*
D03*
Y803275D02*
D03*
X750888Y666750D02*
D03*
X681038Y628650D02*
D03*
X677862Y676275D02*
D03*
Y684212D02*
D03*
Y692150D02*
D03*
Y700088D02*
D03*
Y668337D02*
D03*
Y660400D02*
D03*
X731837Y676275D02*
D03*
Y684212D02*
D03*
Y692150D02*
D03*
Y700088D02*
D03*
Y668337D02*
D03*
Y660400D02*
D03*
X1079500D02*
D03*
Y668337D02*
D03*
Y700088D02*
D03*
Y692150D02*
D03*
Y684212D02*
D03*
Y676275D02*
D03*
X1133475Y660400D02*
D03*
Y668337D02*
D03*
Y700088D02*
D03*
Y692150D02*
D03*
Y684212D02*
D03*
Y676275D02*
D03*
X1711325Y577850D02*
D03*
X1654175Y581025D02*
D03*
X1211263Y518307D02*
D03*
Y527050D02*
D03*
X1208087Y482600D02*
D03*
X1212850Y501650D02*
D03*
X1811337Y668337D02*
D03*
X1728788Y669925D02*
D03*
X1647825Y725488D02*
D03*
Y806450D02*
D03*
X1773237Y727075D02*
D03*
X811212Y976312D02*
D03*
X1495425Y400050D02*
D03*
X1927225Y660400D02*
D03*
X1689100Y812800D02*
D03*
X1672419Y588963D02*
D03*
X1431532Y802700D02*
D03*
X1636712Y476250D02*
D03*
X1606550Y479425D02*
D03*
X1582737Y528638D02*
D03*
X1579563Y455612D02*
D03*
X1546225Y384175D02*
D03*
X1141413Y404813D02*
D03*
X1138238Y417513D02*
D03*
X739775Y849313D02*
D03*
X1068388Y592137D02*
D03*
Y625475D02*
D03*
X1079500Y617395D02*
D03*
X1020762Y550863D02*
D03*
X948580Y369045D02*
D03*
X1704975Y827087D02*
D03*
Y719137D02*
D03*
X1693862Y720725D02*
D03*
X1135062Y787400D02*
D03*
X1169987Y788988D02*
D03*
X1339850Y842962D02*
D03*
X968375Y611188D02*
D03*
X1458913Y236537D02*
D03*
X1409700Y198438D02*
D03*
X1147763Y242887D02*
D03*
Y415925D02*
D03*
X1709738Y207962D02*
D03*
X895350Y230187D02*
D03*
X966787Y413531D02*
D03*
X892231Y420155D02*
D03*
X885825Y415925D02*
D03*
X946150Y413531D02*
D03*
X823913Y884238D02*
D03*
X833438Y901700D02*
D03*
X1055687D02*
D03*
X1670050Y876300D02*
D03*
X1685925D02*
D03*
X1654175D02*
D03*
X1638300D02*
D03*
X1662112Y884238D02*
D03*
X1677988D02*
D03*
X1646237D02*
D03*
X1670050Y892175D02*
D03*
X1685925D02*
D03*
X1654175D02*
D03*
X1638300D02*
D03*
X1662112Y900113D02*
D03*
X1677988D02*
D03*
X1646237D02*
D03*
X1638300Y908050D02*
D03*
X1654175D02*
D03*
X1685925D02*
D03*
X1670050D02*
D03*
X1673225Y782637D02*
D03*
X1666875Y596900D02*
D03*
X1735137Y801687D02*
D03*
X1747838Y798512D02*
D03*
X1734392Y677117D02*
D03*
X1747838Y661988D02*
D03*
X1755775Y785813D02*
D03*
X1771650Y788988D02*
D03*
X1778000Y619125D02*
D03*
X1768475D02*
D03*
X1903412D02*
D03*
X1898650Y612775D02*
D03*
X1763712Y782637D02*
D03*
X1169987Y939800D02*
D03*
X1177925Y931862D02*
D03*
X1138238Y942975D02*
D03*
X1146175Y941387D02*
D03*
X1152525Y933450D02*
D03*
X1157288Y927100D02*
D03*
X1152525Y920750D02*
D03*
X1157288Y914400D02*
D03*
X1743075Y479425D02*
D03*
X1751013Y417513D02*
D03*
X771525Y901700D02*
D03*
X1814512Y361950D02*
D03*
X1773237Y469907D02*
D03*
X771525Y890587D02*
D03*
Y879475D02*
D03*
Y868363D02*
D03*
X1665287Y412750D02*
D03*
X911225Y868363D02*
D03*
X1930400Y742950D02*
D03*
X911225Y846137D02*
D03*
X1692275Y230187D02*
D03*
X1673225Y719137D02*
D03*
X1703387Y282575D02*
D03*
X1267667Y854820D02*
D03*
X1238250Y946150D02*
D03*
X1270000Y998538D02*
D03*
X1163637Y908050D02*
D03*
X1185863Y1042988D02*
D03*
X1192213Y1036637D02*
D03*
X1235075D02*
D03*
X1255713Y969962D02*
D03*
X1257300Y982663D02*
D03*
X1587500Y755650D02*
D03*
X1606550Y747712D02*
D03*
X1625600Y763587D02*
D03*
X1728788Y661988D02*
D03*
X1747838Y671513D02*
D03*
X1776413Y668337D02*
D03*
X1795462Y649287D02*
D03*
X1770063Y657225D02*
D03*
X1757363Y700088D02*
D03*
X1517000Y762650D02*
D03*
X1608138Y674688D02*
D03*
X1909763Y695325D02*
D03*
X1785938Y636587D02*
D03*
X1779588Y642937D02*
D03*
X1914525Y603250D02*
D03*
X1892300D02*
D03*
X1779588Y655638D02*
D03*
Y681038D02*
D03*
X1781175Y693737D02*
D03*
X1785938Y700088D02*
D03*
X1395412Y306388D02*
D03*
X1387475Y314325D02*
D03*
X1395412Y317500D02*
D03*
X1512888Y288925D02*
D03*
X1554162D02*
D03*
X1531938D02*
D03*
X1487487D02*
D03*
X1345419Y749300D02*
D03*
X1147763Y469900D02*
D03*
X1435100Y963613D02*
D03*
X1438275Y861231D02*
D03*
X1406525Y354012D02*
D03*
X1427348Y352239D02*
D03*
X1438275Y354012D02*
D03*
X1428750Y365125D02*
D03*
X1438275Y366712D02*
D03*
X1420813Y379412D02*
D03*
X1576387Y500062D02*
D03*
X1570038Y495300D02*
D03*
X1562100Y492125D02*
D03*
X1177925Y385762D02*
D03*
X1185863Y384175D02*
D03*
X1177925Y369888D02*
D03*
X1185863Y368300D02*
D03*
X1177925Y354012D02*
D03*
X1185863Y352425D02*
D03*
X1177925Y338138D02*
D03*
X1185863Y336550D02*
D03*
X1385887Y1104900D02*
D03*
X1154112Y944563D02*
D03*
X498475Y371475D02*
D03*
X1084262Y339725D02*
D03*
X1076325Y344487D02*
D03*
X725488Y817562D02*
D03*
X688975Y874713D02*
D03*
X993775Y890587D02*
D03*
X1854200Y889000D02*
D03*
X1879600D02*
D03*
X1881187Y800100D02*
D03*
X1873250Y803275D02*
D03*
X1850587Y802838D02*
D03*
X1860550Y804863D02*
D03*
X1836738Y803275D02*
D03*
X1830388Y808037D02*
D03*
X1814512Y803275D02*
D03*
X1809750Y796925D02*
D03*
X1798638Y466725D02*
D03*
X1722437Y396875D02*
D03*
X1876425Y334963D02*
D03*
X1971675Y404813D02*
D03*
X658812Y868363D02*
D03*
Y854075D02*
D03*
X708025Y823913D02*
D03*
Y836612D02*
D03*
Y830263D02*
D03*
X1410482Y1042988D02*
D03*
X1411288Y1035050D02*
D03*
X1374775Y1022350D02*
D03*
X1393825Y1028700D02*
D03*
X1395412Y1044575D02*
D03*
X1341438Y1042988D02*
D03*
X1352550D02*
D03*
Y1062038D02*
D03*
X1368425D02*
D03*
Y1071562D02*
D03*
X1382713Y1052513D02*
D03*
X1368425Y1046162D02*
D03*
X1358900Y1093788D02*
D03*
X1363663Y1100137D02*
D03*
X1384300Y1087438D02*
D03*
X1400175Y1100137D02*
D03*
X1392238Y1116012D02*
D03*
X1384300Y1014413D02*
D03*
X1392238Y1011237D02*
D03*
X1400175Y1009650D02*
D03*
X763587Y1143000D02*
D03*
X755650D02*
D03*
X904950Y1146775D02*
D03*
X781050Y1045357D02*
D03*
X814463Y1142012D02*
D03*
X806525Y1146775D02*
D03*
X947812D02*
D03*
X939875Y1149950D02*
D03*
X844550Y994581D02*
D03*
X827087D02*
D03*
X679070Y862393D02*
D03*
X498475Y855663D02*
D03*
X573088Y889000D02*
D03*
X708025Y854075D02*
D03*
X761194Y1031094D02*
D03*
X749300Y1042988D02*
D03*
X868363Y982663D02*
D03*
Y992188D02*
D03*
X755650Y1058863D02*
D03*
X1427162Y931862D02*
D03*
X1417637Y985837D02*
D03*
Y998538D02*
D03*
X1282700Y901700D02*
D03*
Y931862D02*
D03*
X1190675Y1001281D02*
D03*
X1422400Y901700D02*
D03*
X1477962Y957262D02*
D03*
X1538288Y949325D02*
D03*
X1543050Y957262D02*
D03*
X1500188Y915987D02*
D03*
X1493837Y893763D02*
D03*
X1508125Y919163D02*
D03*
X1512888Y927100D02*
D03*
X1524000Y912812D02*
D03*
X1516062Y906462D02*
D03*
X1528763Y919163D02*
D03*
X1531938Y932571D02*
D03*
X1574800Y1109662D02*
D03*
X1522500Y1119187D02*
D03*
X1512888Y1112838D02*
D03*
X1508125Y1119187D02*
D03*
X1525500Y1109662D02*
D03*
X1533500D02*
D03*
X1758950Y482600D02*
D03*
X1814512Y401637D02*
D03*
X1808163Y407988D02*
D03*
X1463675Y338138D02*
D03*
X1458913Y1108075D02*
D03*
X1477962D02*
D03*
X1480000Y1120775D02*
D03*
X1439863Y1103313D02*
D03*
X1446212Y1108075D02*
D03*
X1452563Y1103313D02*
D03*
X1501775Y1106488D02*
D03*
X1477962Y1023938D02*
D03*
X1452563Y1065212D02*
D03*
X1456000Y1158875D02*
D03*
X1450500Y1143000D02*
D03*
X1512000D02*
D03*
X1439863Y1149350D02*
D03*
X1432000Y1120775D02*
D03*
X1424000D02*
D03*
X1488000D02*
D03*
X1133475Y901700D02*
D03*
Y879475D02*
D03*
Y857250D02*
D03*
Y835025D02*
D03*
X1601788Y712787D02*
D03*
X1548618Y409575D02*
D03*
X1497012Y1047750D02*
D03*
X1420813Y1036637D02*
D03*
X1431925Y1030287D02*
D03*
X1433513Y1020762D02*
D03*
X1609725Y712787D02*
D03*
X1457325Y1057275D02*
D03*
X1463675Y363537D02*
D03*
X1544000Y1158875D02*
D03*
X1536000D02*
D03*
X1528000D02*
D03*
X1520000D02*
D03*
X1504000D02*
D03*
X1496000D02*
D03*
X1488000D02*
D03*
X1424000D02*
D03*
X1432000D02*
D03*
X1440000D02*
D03*
X1464000D02*
D03*
X1472000D02*
D03*
X1480000D02*
D03*
X1133475Y890587D02*
D03*
X1384300Y1028700D02*
D03*
X683925Y1112838D02*
D03*
X718500Y1145188D02*
D03*
X748000Y1149950D02*
D03*
X935038Y969962D02*
D03*
X963613Y971550D02*
D03*
X979488Y992188D02*
D03*
X1008063Y996950D02*
D03*
X971550Y985837D02*
D03*
X1006475Y1004887D02*
D03*
X996950D02*
D03*
X987425D02*
D03*
X1017588Y1003300D02*
D03*
X954088Y1004887D02*
D03*
X944563D02*
D03*
X1016075Y1143600D02*
D03*
X1004000Y1140425D02*
D03*
X972000D02*
D03*
X738187Y1063625D02*
D03*
X887412Y998538D02*
D03*
X906462D02*
D03*
X731925Y1112838D02*
D03*
X699925D02*
D03*
X907925Y1114425D02*
D03*
X913650Y1147581D02*
D03*
X916000Y1140425D02*
D03*
X866775Y1007281D02*
D03*
X1028700Y1008868D02*
D03*
X836612Y1013631D02*
D03*
X820738Y1016806D02*
D03*
X812800Y1025525D02*
D03*
X808037Y1034268D02*
D03*
X766762Y1061256D02*
D03*
X747712Y1068388D02*
D03*
X833438Y1040619D02*
D03*
X860425D02*
D03*
X801687Y1052513D02*
D03*
X793750Y1058081D02*
D03*
X787400Y1063625D02*
D03*
X738187Y1085850D02*
D03*
X729425Y1087438D02*
D03*
X900113Y1049337D02*
D03*
X703037Y1081087D02*
D03*
X715963D02*
D03*
X894425Y1069975D02*
D03*
X707925Y1087438D02*
D03*
X715963Y1096181D02*
D03*
X881062Y1079500D02*
D03*
X873425Y1082675D02*
D03*
X784225Y1092200D02*
D03*
X771925Y1096181D02*
D03*
X857250Y1092200D02*
D03*
X843925Y1096181D02*
D03*
X691925Y1112838D02*
D03*
X755925D02*
D03*
X947925Y1109475D02*
D03*
X1020000Y1159475D02*
D03*
X1028000D02*
D03*
X932000D02*
D03*
X1639577Y343211D02*
D03*
X1560513Y342900D02*
D03*
X478582Y464296D02*
D03*
X412750Y440169D02*
D03*
X915987Y425450D02*
D03*
X920750Y401637D02*
D03*
X1808163Y568325D02*
D03*
X958850Y401637D02*
D03*
X942975Y355600D02*
D03*
X503237Y358775D02*
D03*
X404813Y254000D02*
D03*
Y338138D02*
D03*
X500062Y401637D02*
D03*
X481012D02*
D03*
X939800D02*
D03*
X1314450Y806450D02*
D03*
X1319212Y800100D02*
D03*
X1281113Y831850D02*
D03*
X1303338Y815975D02*
D03*
X1468438Y387350D02*
D03*
X1450975Y342900D02*
D03*
X1479550Y400050D02*
D03*
X1495425Y411162D02*
D03*
X1341438Y488950D02*
D03*
X1503362Y411162D02*
D03*
X1109662Y912812D02*
D03*
X1293813Y841375D02*
D03*
X1300163Y846137D02*
D03*
X1287462Y836612D02*
D03*
X1520825Y411162D02*
D03*
X1319212Y812800D02*
D03*
X1487487Y411162D02*
D03*
X1328737Y488950D02*
D03*
X1347787Y484188D02*
D03*
X1511300Y411162D02*
D03*
X1260475Y838200D02*
D03*
X804000Y1159475D02*
D03*
X796000D02*
D03*
X788000D02*
D03*
X780000D02*
D03*
X772000D02*
D03*
X684000D02*
D03*
X692000D02*
D03*
X700000D02*
D03*
X708000D02*
D03*
X716000D02*
D03*
X724000D02*
D03*
X732000D02*
D03*
X740000D02*
D03*
X748000D02*
D03*
X1274762Y827087D02*
D03*
X1293813Y808037D02*
D03*
X1552575Y390525D02*
D03*
X1549400Y398462D02*
D03*
X940000Y1159475D02*
D03*
X908000D02*
D03*
X892000D02*
D03*
X884000D02*
D03*
X820000D02*
D03*
X828000D02*
D03*
X836000D02*
D03*
X844000D02*
D03*
X852000D02*
D03*
X860000D02*
D03*
X876000D02*
D03*
X1520825Y325417D02*
D03*
X493713Y433387D02*
D03*
X814388Y440169D02*
D03*
X930275Y401637D02*
D03*
X949325D02*
D03*
X490537D02*
D03*
X509588D02*
D03*
X1808163Y558800D02*
D03*
X1684337Y554038D02*
D03*
X1336675Y536575D02*
D03*
X1282700Y527050D02*
D03*
X1279525Y595312D02*
D03*
X1004000Y1159475D02*
D03*
X956000D02*
D03*
X964000D02*
D03*
X988000D02*
D03*
X996903Y506525D02*
D03*
X884155Y455530D02*
D03*
X892175Y465137D02*
D03*
X889000Y473075D02*
D03*
X465137Y416707D02*
D03*
X1617663Y712787D02*
D03*
X1592263D02*
D03*
X1727200Y412750D02*
D03*
X1728788Y615950D02*
D03*
Y625475D02*
D03*
Y633413D02*
D03*
Y641350D02*
D03*
X1544000Y1141413D02*
D03*
X1552000Y1158875D02*
D03*
X1132000Y1140425D02*
D03*
X1140000D02*
D03*
Y1159475D02*
D03*
X1132000D02*
D03*
X1108000D02*
D03*
X1100000D02*
D03*
X1092000D02*
D03*
X1084000D02*
D03*
X1076000D02*
D03*
X1068000D02*
D03*
X1028000Y1140425D02*
D03*
X947812Y1159475D02*
D03*
X1490663Y1003300D02*
D03*
X1423987Y1027113D02*
D03*
X1471613Y1068388D02*
D03*
X1481138D02*
D03*
X1423987Y1071562D02*
D03*
X1279525Y679450D02*
D03*
X1339850Y823913D02*
D03*
X1408112Y847725D02*
D03*
X1514475Y866775D02*
D03*
X1479550Y874713D02*
D03*
X1482725Y884238D02*
D03*
X1485900Y893763D02*
D03*
X228600Y776288D02*
D03*
X1697038Y625475D02*
D03*
Y633413D02*
D03*
Y641350D02*
D03*
X1628775Y771525D02*
D03*
X1509713Y341312D02*
D03*
X1808163Y461963D02*
D03*
X1463675Y352425D02*
D03*
X1470025Y277812D02*
D03*
X1479550Y344487D02*
D03*
Y384175D02*
D03*
Y392113D02*
D03*
X1527175Y417513D02*
D03*
X1681163Y619125D02*
D03*
X1660525Y609600D02*
D03*
X1652587D02*
D03*
X1643062D02*
D03*
X1630363Y600075D02*
D03*
X1624012Y593725D02*
D03*
X1255713Y611188D02*
D03*
X1262063Y617537D02*
D03*
X1298575Y609600D02*
D03*
X1317625Y584200D02*
D03*
X1325562Y599294D02*
D03*
X1287462Y582612D02*
D03*
X1293813Y598488D02*
D03*
X1311275Y608013D02*
D03*
X1244600Y514350D02*
D03*
X1304925Y523875D02*
D03*
X1287462Y552450D02*
D03*
X1293813Y547687D02*
D03*
X1301750Y542925D02*
D03*
X1311275D02*
D03*
X1714500Y430213D02*
D03*
X1719263Y474663D02*
D03*
X1817688Y461963D02*
D03*
X1797050Y474663D02*
D03*
X1738313Y342900D02*
D03*
X1721387Y328075D02*
D03*
X1741487Y282575D02*
D03*
Y244475D02*
D03*
X1795462Y317500D02*
D03*
X1708150Y477837D02*
D03*
Y439738D02*
D03*
X1724025Y450850D02*
D03*
Y442912D02*
D03*
X1746250Y471488D02*
D03*
X1757363Y457200D02*
D03*
X1790700Y450850D02*
D03*
Y442912D02*
D03*
X1719263Y206375D02*
D03*
X1744662Y215900D02*
D03*
Y196850D02*
D03*
X1704975Y430213D02*
D03*
X1801812Y417513D02*
D03*
X1944688Y392113D02*
D03*
Y384175D02*
D03*
X1905000Y358775D02*
D03*
X1968500Y303213D02*
D03*
X1919288Y444500D02*
D03*
X1900237Y447675D02*
D03*
X1884362Y423862D02*
D03*
X1909763Y425450D02*
D03*
X1862137Y419100D02*
D03*
X1911350Y398462D02*
D03*
X1862137Y381000D02*
D03*
X1878013Y392113D02*
D03*
Y384175D02*
D03*
X1900237Y412750D02*
D03*
X1858963Y371475D02*
D03*
X1955800Y358775D02*
D03*
X763587Y644525D02*
D03*
X920750Y369888D02*
D03*
X684212Y454025D02*
D03*
X290513Y412750D02*
D03*
X377825Y490537D02*
D03*
X488950Y649287D02*
D03*
X439738Y660400D02*
D03*
Y647700D02*
D03*
X291814Y390262D02*
D03*
X288925Y204788D02*
D03*
X527050Y419100D02*
D03*
X388937Y401637D02*
D03*
Y357188D02*
D03*
X976312Y415925D02*
D03*
X1028700Y446087D02*
D03*
X1031875Y454025D02*
D03*
X869950Y425450D02*
D03*
X863600Y506413D02*
D03*
Y515938D02*
D03*
Y498475D02*
D03*
X846137Y439738D02*
D03*
X860425Y431800D02*
D03*
X733425Y401637D02*
D03*
X696913Y422275D02*
D03*
X490537Y420687D02*
D03*
X468312Y431800D02*
D03*
X528638Y628650D02*
D03*
X730250Y482600D02*
D03*
X485775Y414338D02*
D03*
X460375Y427038D02*
D03*
X524681Y620713D02*
D03*
X723900Y590550D02*
D03*
X877887Y379412D02*
D03*
X890587D02*
D03*
X903288D02*
D03*
X930275D02*
D03*
X920750Y352425D02*
D03*
X939800Y379412D02*
D03*
X949325D02*
D03*
X438150D02*
D03*
X450850D02*
D03*
X463550D02*
D03*
X509588D02*
D03*
X500062D02*
D03*
X490537D02*
D03*
X141287Y242887D02*
D03*
X133350D02*
D03*
X125413D02*
D03*
X117475D02*
D03*
X149225Y220662D02*
D03*
X141287D02*
D03*
X133350D02*
D03*
X125413D02*
D03*
X117475D02*
D03*
X77787Y242887D02*
D03*
X69850D02*
D03*
X61912D02*
D03*
X53975D02*
D03*
X85725Y220662D02*
D03*
X77787D02*
D03*
X69850D02*
D03*
X61912D02*
D03*
X53975D02*
D03*
X163512Y454025D02*
D03*
X141287D02*
D03*
X133350D02*
D03*
X125413D02*
D03*
X149225Y431800D02*
D03*
X141287D02*
D03*
X133350D02*
D03*
X125413D02*
D03*
X117475D02*
D03*
X77787Y454025D02*
D03*
X69850D02*
D03*
X61912D02*
D03*
Y431800D02*
D03*
X85725D02*
D03*
X77787D02*
D03*
X69850D02*
D03*
X1746250Y494665D02*
D03*
X1758950D02*
D03*
X1752600D02*
D03*
X1746250Y521335D02*
D03*
X1758950D02*
D03*
X1752600D02*
D03*
X1706562Y494665D02*
D03*
X1768475Y596900D02*
D03*
X1866900Y869950D02*
D03*
X1692275Y676275D02*
D03*
X1641475Y677862D02*
D03*
Y655638D02*
D03*
X1630363Y661988D02*
D03*
X1244600Y552450D02*
D03*
X1255713Y522287D02*
D03*
X1354138Y488950D02*
D03*
X1335087Y484188D02*
D03*
X1611313Y346075D02*
D03*
X1666875Y373063D02*
D03*
X1651000D02*
D03*
X1643062D02*
D03*
X1635125D02*
D03*
X1627188D02*
D03*
X1619362Y376237D02*
D03*
X1658938Y381000D02*
D03*
X1611313Y365125D02*
D03*
X1647863Y352425D02*
D03*
X1571625Y128588D02*
D03*
X1585912D02*
D03*
X1398587Y222250D02*
D03*
X1347787Y333375D02*
D03*
X1660525Y211138D02*
D03*
X1674812Y325438D02*
D03*
X1630363D02*
D03*
X1631950Y339388D02*
D03*
X1189037Y244000D02*
D03*
X1176338Y252000D02*
D03*
Y260000D02*
D03*
X1284288Y227013D02*
D03*
X1273175Y233363D02*
D03*
X1265238Y239713D02*
D03*
X1290638Y252412D02*
D03*
X1284288Y257175D02*
D03*
X1268412Y274638D02*
D03*
X1271588Y282575D02*
D03*
X1254125Y260350D02*
D03*
X1247775Y266700D02*
D03*
X1254125Y273050D02*
D03*
X1247775Y279400D02*
D03*
X1254125Y285750D02*
D03*
X1247775Y292000D02*
D03*
X1254125Y298450D02*
D03*
X1247775Y304800D02*
D03*
X1284288Y361950D02*
D03*
X1298575Y371475D02*
D03*
X1249362Y365125D02*
D03*
X1255648Y371475D02*
D03*
X1311275Y377825D02*
D03*
X1327150Y381000D02*
D03*
X1346200D02*
D03*
X1374775Y393700D02*
D03*
X1249362Y377825D02*
D03*
X1255648Y384175D02*
D03*
X1249362Y390525D02*
D03*
X1255648Y396875D02*
D03*
X1249362Y403225D02*
D03*
X1255713Y409575D02*
D03*
X1249362Y415925D02*
D03*
Y428625D02*
D03*
X1255648Y422275D02*
D03*
X1322388Y257175D02*
D03*
X1331913Y288925D02*
D03*
X1535112Y438150D02*
D03*
X1450975Y434975D02*
D03*
X1525587Y436562D02*
D03*
X1519238Y442912D02*
D03*
X1322388Y296863D02*
D03*
X1525587Y455612D02*
D03*
X1495425Y447675D02*
D03*
X1484312Y457200D02*
D03*
X1498600Y476250D02*
D03*
X1500188Y488950D02*
D03*
X1511300Y463550D02*
D03*
X1441450Y430213D02*
D03*
X1465262Y454025D02*
D03*
X1169987Y452000D02*
D03*
Y444000D02*
D03*
Y420000D02*
D03*
Y428000D02*
D03*
Y436000D02*
D03*
X1298575Y463550D02*
D03*
X1316037Y492125D02*
D03*
X1303338Y496888D02*
D03*
X1276350Y458787D02*
D03*
X1257300Y508000D02*
D03*
X1263650Y501650D02*
D03*
X1257300Y495300D02*
D03*
X1263650Y488950D02*
D03*
X1257300Y482600D02*
D03*
X1263650Y476250D02*
D03*
X1257300Y469900D02*
D03*
X1263650Y463550D02*
D03*
X1430338Y423862D02*
D03*
X1420813Y404813D02*
D03*
X1368425Y355600D02*
D03*
X1358900Y339725D02*
D03*
X1404937Y415925D02*
D03*
X1392238Y396875D02*
D03*
X1355725Y352425D02*
D03*
X1343025Y346075D02*
D03*
X1385887Y412750D02*
D03*
X1339850Y330200D02*
D03*
X1303338Y265112D02*
D03*
X1323975Y327025D02*
D03*
X1293813Y301625D02*
D03*
X1300163Y314325D02*
D03*
X1293813Y309562D02*
D03*
X1277937Y307975D02*
D03*
X1169987Y476000D02*
D03*
Y468000D02*
D03*
Y460000D02*
D03*
Y412000D02*
D03*
Y404000D02*
D03*
Y396000D02*
D03*
Y276000D02*
D03*
Y284000D02*
D03*
Y292000D02*
D03*
Y300000D02*
D03*
Y308000D02*
D03*
Y316000D02*
D03*
Y324000D02*
D03*
Y244000D02*
D03*
Y252000D02*
D03*
Y268000D02*
D03*
Y260000D02*
D03*
X1852612Y855663D02*
D03*
X1930400Y869950D02*
D03*
X1898650Y138112D02*
D03*
Y157163D02*
D03*
X1857375Y557088D02*
D03*
X1973262Y593725D02*
D03*
X1922462D02*
D03*
X1871662Y423862D02*
D03*
X1973262Y425450D02*
D03*
X1922462D02*
D03*
X1857375Y461963D02*
D03*
X1433450Y547687D02*
D03*
X1447737Y555625D02*
D03*
X1495425Y377825D02*
D03*
Y355600D02*
D03*
X1577975Y587375D02*
D03*
Y565150D02*
D03*
X1584325Y564981D02*
D03*
X1589088Y587375D02*
D03*
X1590675Y565150D02*
D03*
X1606550Y574675D02*
D03*
X1546225Y376237D02*
D03*
X1571625Y669925D02*
D03*
X1563687Y684212D02*
D03*
X1616075Y676275D02*
D03*
X1344612Y762000D02*
D03*
X1333500D02*
D03*
X1439863Y771525D02*
D03*
X1319212Y773112D02*
D03*
X1310054D02*
D03*
X1454150Y779463D02*
D03*
X1333500Y784225D02*
D03*
X1341438D02*
D03*
X1404937Y819150D02*
D03*
X1385887Y822325D02*
D03*
X1450975D02*
D03*
X1347787Y828675D02*
D03*
X1355725D02*
D03*
X1447800Y833438D02*
D03*
X1539875Y758825D02*
D03*
X1562100D02*
D03*
X1539875Y769938D02*
D03*
X1562100D02*
D03*
X1570038D02*
D03*
X1550988Y785813D02*
D03*
X1474787Y833438D02*
D03*
X1362075D02*
D03*
X1389062D02*
D03*
X1539875Y839788D02*
D03*
X1314450Y531813D02*
D03*
X1327150Y569912D02*
D03*
Y581025D02*
D03*
X1335087Y552450D02*
D03*
X1352012Y569912D02*
D03*
X1358900Y531813D02*
D03*
X1320800Y681038D02*
D03*
X1328737Y666750D02*
D03*
X358775Y620713D02*
D03*
X534987Y434975D02*
D03*
X287337Y158750D02*
D03*
X471223Y272270D02*
D03*
X319088Y617537D02*
D03*
X128588Y673100D02*
D03*
Y681038D02*
D03*
Y688975D02*
D03*
Y696913D02*
D03*
Y736600D02*
D03*
Y728662D02*
D03*
Y720725D02*
D03*
Y712787D02*
D03*
Y704850D02*
D03*
X220662Y828675D02*
D03*
Y836612D02*
D03*
Y860425D02*
D03*
Y852487D02*
D03*
Y844550D02*
D03*
X165100Y868363D02*
D03*
X157163D02*
D03*
X149225D02*
D03*
X141287D02*
D03*
X133350Y828675D02*
D03*
Y836612D02*
D03*
Y868363D02*
D03*
Y860425D02*
D03*
Y852487D02*
D03*
Y844550D02*
D03*
X190500Y584200D02*
D03*
Y558800D02*
D03*
X177800Y584200D02*
D03*
X184150Y571500D02*
D03*
X177800Y558800D02*
D03*
X165100Y584200D02*
D03*
X171450Y571500D02*
D03*
X165100Y558800D02*
D03*
X152400Y584200D02*
D03*
X158750Y571500D02*
D03*
X152400Y558800D02*
D03*
X139700Y584200D02*
D03*
X146050Y571500D02*
D03*
X139700Y558800D02*
D03*
X127000Y584200D02*
D03*
X133350Y571500D02*
D03*
X127000Y558800D02*
D03*
X114300Y584200D02*
D03*
X120650Y571500D02*
D03*
X114300Y558800D02*
D03*
X101600Y584200D02*
D03*
X107950Y571500D02*
D03*
X101600Y558800D02*
D03*
X88900Y584200D02*
D03*
X95250Y571500D02*
D03*
X88900Y558800D02*
D03*
X76200Y584200D02*
D03*
X82550Y571500D02*
D03*
X76200Y558800D02*
D03*
X63500Y838200D02*
D03*
X69850Y825500D02*
D03*
X63500Y812800D02*
D03*
X69850Y800100D02*
D03*
X63500Y787400D02*
D03*
X69850Y774700D02*
D03*
X63500Y762000D02*
D03*
X69850Y749300D02*
D03*
X63500Y736600D02*
D03*
X69850Y723900D02*
D03*
X63500Y711200D02*
D03*
X69850Y698500D02*
D03*
X63500Y685800D02*
D03*
X69850Y673100D02*
D03*
X63500Y660400D02*
D03*
X69850Y647700D02*
D03*
X63500Y635000D02*
D03*
X69850Y622300D02*
D03*
X63500Y609600D02*
D03*
X69850Y596900D02*
D03*
X63500Y584200D02*
D03*
X69850Y571500D02*
D03*
X63500Y558800D02*
D03*
X57150Y596900D02*
D03*
X50800Y584200D02*
D03*
X57150Y571500D02*
D03*
X50800Y558800D02*
D03*
X292100Y1066800D02*
D03*
X298450Y1054100D02*
D03*
X292100Y1041400D02*
D03*
X298450Y1028700D02*
D03*
X292100Y1016000D02*
D03*
X298450Y1003300D02*
D03*
X292100Y990600D02*
D03*
X298450Y977900D02*
D03*
X292100Y965200D02*
D03*
X298450Y952500D02*
D03*
X292100Y939800D02*
D03*
X298450Y927100D02*
D03*
X279400Y1066800D02*
D03*
X285750Y1054100D02*
D03*
X279400Y1041400D02*
D03*
X285750Y1028700D02*
D03*
X279400Y1016000D02*
D03*
X285750Y1003300D02*
D03*
X279400Y990600D02*
D03*
X285750Y977900D02*
D03*
X279400Y965200D02*
D03*
X285750Y952500D02*
D03*
X279400Y939800D02*
D03*
X285750Y927100D02*
D03*
X266700Y1066800D02*
D03*
X273050Y1054100D02*
D03*
X266700Y1041400D02*
D03*
X273050Y1028700D02*
D03*
X266700Y1016000D02*
D03*
X273050Y1003300D02*
D03*
X266700Y990600D02*
D03*
X273050Y977900D02*
D03*
X266700Y965200D02*
D03*
X273050Y952500D02*
D03*
X266700Y939800D02*
D03*
X273050Y927100D02*
D03*
X254000Y1066800D02*
D03*
X260350Y1054100D02*
D03*
X254000Y1041400D02*
D03*
X260350Y1028700D02*
D03*
X254000Y1016000D02*
D03*
X260350Y1003300D02*
D03*
X254000Y990600D02*
D03*
X260350Y977900D02*
D03*
X254000Y965200D02*
D03*
X260350Y952500D02*
D03*
X254000Y939800D02*
D03*
X260350Y927100D02*
D03*
X241300Y1066800D02*
D03*
X247650Y1054100D02*
D03*
X241300Y1041400D02*
D03*
X247650Y1028700D02*
D03*
X241300Y1016000D02*
D03*
X247650Y1003300D02*
D03*
X241300Y990600D02*
D03*
X247650Y977900D02*
D03*
X241300Y965200D02*
D03*
X247650Y952500D02*
D03*
X241300Y939800D02*
D03*
X247650Y927100D02*
D03*
X241300Y914400D02*
D03*
X228600Y1066800D02*
D03*
X234950Y1054100D02*
D03*
X228600Y1041400D02*
D03*
X234950Y1028700D02*
D03*
X228600Y1016000D02*
D03*
X234950Y1003300D02*
D03*
X228600Y990600D02*
D03*
X234950Y977900D02*
D03*
X228600Y965200D02*
D03*
X234950Y952500D02*
D03*
X215900Y1066800D02*
D03*
Y965200D02*
D03*
X222250Y952500D02*
D03*
X203200Y1066800D02*
D03*
Y965200D02*
D03*
X209550Y952500D02*
D03*
X190500Y1066800D02*
D03*
Y1041400D02*
D03*
Y1016000D02*
D03*
Y990600D02*
D03*
Y965200D02*
D03*
X196850Y952500D02*
D03*
X165100Y1066800D02*
D03*
X171450Y1054100D02*
D03*
X165100Y1041400D02*
D03*
X171450Y1028700D02*
D03*
X165100Y1016000D02*
D03*
X171450Y1003300D02*
D03*
X165100Y990600D02*
D03*
X171450Y977900D02*
D03*
X165100Y965200D02*
D03*
X171450Y952500D02*
D03*
X152400Y1066800D02*
D03*
Y965200D02*
D03*
X158750Y952500D02*
D03*
X139700Y1066800D02*
D03*
Y965200D02*
D03*
X146050Y952500D02*
D03*
X127000Y1066800D02*
D03*
Y1041400D02*
D03*
Y1016000D02*
D03*
Y990600D02*
D03*
Y965200D02*
D03*
X133350Y952500D02*
D03*
X114300Y1066800D02*
D03*
X120650Y1054100D02*
D03*
X114300Y1041400D02*
D03*
X120650Y1028700D02*
D03*
X114300Y1016000D02*
D03*
X120650Y1003300D02*
D03*
X114300Y990600D02*
D03*
X120650Y977900D02*
D03*
X114300Y965200D02*
D03*
X120650Y952500D02*
D03*
X114300Y939800D02*
D03*
Y914400D02*
D03*
X101600Y1066800D02*
D03*
X107950Y1054100D02*
D03*
X101600Y1041400D02*
D03*
X107950Y1028700D02*
D03*
X101600Y1016000D02*
D03*
X107950Y1003300D02*
D03*
X101600Y990600D02*
D03*
X107950Y977900D02*
D03*
X101600Y965200D02*
D03*
X107950Y952500D02*
D03*
X101600Y939800D02*
D03*
X107950Y927100D02*
D03*
X88900Y1066800D02*
D03*
X95250Y1054100D02*
D03*
X88900Y1041400D02*
D03*
X95250Y1028700D02*
D03*
X88900Y1016000D02*
D03*
X95250Y1003300D02*
D03*
X88900Y990600D02*
D03*
X95250Y977900D02*
D03*
X88900Y965200D02*
D03*
X95250Y952500D02*
D03*
X88900Y939800D02*
D03*
X95250Y927100D02*
D03*
X76200Y1066800D02*
D03*
X82550Y1054100D02*
D03*
X76200Y1041400D02*
D03*
X82550Y1028700D02*
D03*
X76200Y1016000D02*
D03*
X82550Y1003300D02*
D03*
X76200Y990600D02*
D03*
X82550Y977900D02*
D03*
X76200Y965200D02*
D03*
X82550Y952500D02*
D03*
X76200Y939800D02*
D03*
X82550Y927100D02*
D03*
X63500Y1066800D02*
D03*
X69850Y1054100D02*
D03*
X63500Y1041400D02*
D03*
X69850Y1028700D02*
D03*
X63500Y1016000D02*
D03*
X69850Y1003300D02*
D03*
X63500Y990600D02*
D03*
X69850Y977900D02*
D03*
X63500Y965200D02*
D03*
X69850Y952500D02*
D03*
X63500Y939800D02*
D03*
X69850Y927100D02*
D03*
X50800Y1066800D02*
D03*
X57150Y1054100D02*
D03*
X50800Y1041400D02*
D03*
X57150Y1028700D02*
D03*
X50800Y1016000D02*
D03*
X57150Y1003300D02*
D03*
X50800Y990600D02*
D03*
X57150Y977900D02*
D03*
X50800Y965200D02*
D03*
X57150Y952500D02*
D03*
X50800Y939800D02*
D03*
X57150Y927100D02*
D03*
X50800Y914400D02*
D03*
X766762Y292100D02*
D03*
X779463Y295275D02*
D03*
X755650Y290513D02*
D03*
X773112Y315912D02*
D03*
Y325438D02*
D03*
X784225Y327025D02*
D03*
X1150938Y185737D02*
D03*
X1041400D02*
D03*
X930275D02*
D03*
X895350Y255588D02*
D03*
X379412Y333375D02*
D03*
X349250Y201612D02*
D03*
X357188Y203200D02*
D03*
X381000Y185737D02*
D03*
X338138Y201612D02*
D03*
X282575Y382588D02*
D03*
X298450Y374650D02*
D03*
X236537Y130175D02*
D03*
X193675Y603250D02*
D03*
X174625Y617537D02*
D03*
X182563Y919163D02*
D03*
X228600Y874713D02*
D03*
X112712Y904875D02*
D03*
X173037Y884238D02*
D03*
X55563Y906462D02*
D03*
X241300Y309562D02*
D03*
X249237D02*
D03*
X273050D02*
D03*
X265112D02*
D03*
X257175D02*
D03*
X180975D02*
D03*
X188913D02*
D03*
X212725D02*
D03*
X204788D02*
D03*
X196850D02*
D03*
X122238Y788988D02*
D03*
X130175Y766762D02*
D03*
X162794Y744330D02*
D03*
X147900Y646375D02*
D03*
X136525Y623887D02*
D03*
Y604837D02*
D03*
X215900Y795338D02*
D03*
X176213Y777875D02*
D03*
X171450Y768350D02*
D03*
X228600D02*
D03*
X206375Y763587D02*
D03*
X188913Y744538D02*
D03*
X219075Y641350D02*
D03*
X196850Y639762D02*
D03*
X185737Y638175D02*
D03*
X169247Y632189D02*
D03*
X185737Y628650D02*
D03*
X168275Y623887D02*
D03*
X204788Y520700D02*
D03*
X180975D02*
D03*
X204788Y492125D02*
D03*
X188913D02*
D03*
X180975D02*
D03*
X265112D02*
D03*
X273050D02*
D03*
X257175Y520700D02*
D03*
X273050D02*
D03*
X241300D02*
D03*
X97643Y444500D02*
D03*
X250825Y455612D02*
D03*
Y439738D02*
D03*
Y431800D02*
D03*
X260350D02*
D03*
Y439738D02*
D03*
Y447675D02*
D03*
Y463550D02*
D03*
X269875D02*
D03*
Y455612D02*
D03*
Y447675D02*
D03*
Y439738D02*
D03*
Y431800D02*
D03*
X279400Y463550D02*
D03*
Y455612D02*
D03*
Y447675D02*
D03*
Y439738D02*
D03*
Y431800D02*
D03*
X196850Y454025D02*
D03*
Y461963D02*
D03*
Y441325D02*
D03*
Y433387D02*
D03*
X163512Y431800D02*
D03*
X109537D02*
D03*
X117475Y454025D02*
D03*
X109537D02*
D03*
X53975Y431800D02*
D03*
X46038D02*
D03*
X53975Y454025D02*
D03*
X46038D02*
D03*
X103188Y471488D02*
D03*
Y479425D02*
D03*
Y487363D02*
D03*
Y495300D02*
D03*
X52387Y512762D02*
D03*
X65087D02*
D03*
X77787D02*
D03*
X90487D02*
D03*
X115887D02*
D03*
X128588D02*
D03*
X141287D02*
D03*
X153988D02*
D03*
X103188D02*
D03*
Y520700D02*
D03*
X153988D02*
D03*
X141287D02*
D03*
X128588D02*
D03*
X115887D02*
D03*
X90487D02*
D03*
X77787D02*
D03*
X65087D02*
D03*
X52387D02*
D03*
X103188Y530225D02*
D03*
X153988D02*
D03*
X141287D02*
D03*
X128588D02*
D03*
X115887D02*
D03*
X90487D02*
D03*
X77787D02*
D03*
X65087D02*
D03*
X52387D02*
D03*
X103188Y539750D02*
D03*
X153988D02*
D03*
X141287D02*
D03*
X128588D02*
D03*
X115887D02*
D03*
X90487D02*
D03*
X77787D02*
D03*
X65087D02*
D03*
X52387D02*
D03*
X196850Y492125D02*
D03*
X212725D02*
D03*
Y520700D02*
D03*
X188913D02*
D03*
X196850D02*
D03*
X257175Y492125D02*
D03*
X249237D02*
D03*
X250825Y463550D02*
D03*
X260350Y455612D02*
D03*
X241300Y492125D02*
D03*
X249237Y520700D02*
D03*
X265112D02*
D03*
X209550Y422275D02*
D03*
X169862Y355600D02*
D03*
X97643Y414338D02*
D03*
X250825Y447675D02*
D03*
X161925Y444500D02*
D03*
X173037Y414338D02*
D03*
X114300Y365125D02*
D03*
X150813Y393963D02*
D03*
X195263Y382588D02*
D03*
X207962Y379412D02*
D03*
X204563Y393700D02*
D03*
X192087Y404813D02*
D03*
X182563Y414338D02*
D03*
X184150Y376237D02*
D03*
Y396875D02*
D03*
X52387Y328613D02*
D03*
X65087D02*
D03*
X77787D02*
D03*
X90487D02*
D03*
X115887D02*
D03*
X128588D02*
D03*
X141287D02*
D03*
X153988D02*
D03*
X103188D02*
D03*
X52387Y319088D02*
D03*
X65087D02*
D03*
X77787D02*
D03*
X90487D02*
D03*
X115887D02*
D03*
X128588D02*
D03*
X141287D02*
D03*
X153988D02*
D03*
X103188D02*
D03*
X52387Y309562D02*
D03*
X65087D02*
D03*
X77787D02*
D03*
X90487D02*
D03*
X115887D02*
D03*
X128588D02*
D03*
X141287D02*
D03*
X153988D02*
D03*
X103188D02*
D03*
Y301625D02*
D03*
X153988D02*
D03*
X141287D02*
D03*
X128588D02*
D03*
X115887D02*
D03*
X90487D02*
D03*
X77787D02*
D03*
X65087D02*
D03*
X52387D02*
D03*
X103188Y284163D02*
D03*
Y276225D02*
D03*
Y268288D02*
D03*
Y260350D02*
D03*
X46038Y242887D02*
D03*
Y220662D02*
D03*
X109537Y242887D02*
D03*
Y220662D02*
D03*
X163512Y222250D02*
D03*
Y241300D02*
D03*
X196850Y222250D02*
D03*
Y230187D02*
D03*
Y250825D02*
D03*
Y242887D02*
D03*
X279400Y220662D02*
D03*
Y228600D02*
D03*
Y236537D02*
D03*
Y244475D02*
D03*
Y252412D02*
D03*
X269875Y220662D02*
D03*
Y228600D02*
D03*
Y236537D02*
D03*
Y244475D02*
D03*
Y252412D02*
D03*
X260350D02*
D03*
Y244475D02*
D03*
Y236537D02*
D03*
Y228600D02*
D03*
Y220662D02*
D03*
X250825D02*
D03*
Y228600D02*
D03*
Y252412D02*
D03*
Y244475D02*
D03*
Y236537D02*
D03*
X173037Y203200D02*
D03*
X97643D02*
D03*
X161925Y233363D02*
D03*
X97643D02*
D03*
X273050Y280987D02*
D03*
X265112D02*
D03*
X241300D02*
D03*
X249237D02*
D03*
X257175D02*
D03*
X180975D02*
D03*
X188913D02*
D03*
X212725D02*
D03*
X204788D02*
D03*
X196850D02*
D03*
X1817688Y528638D02*
D03*
X979488Y287337D02*
D03*
X1087438Y239713D02*
D03*
X979488Y234950D02*
D03*
X869950Y238125D02*
D03*
X576263Y266700D02*
D03*
X666750Y255588D02*
D03*
X433387D02*
D03*
X542925Y231775D02*
D03*
X512762Y425965D02*
D03*
X1892300Y284163D02*
D03*
X915987Y603250D02*
D03*
X514350Y602938D02*
D03*
X1581150Y385762D02*
D03*
X1692275Y557212D02*
D03*
Y549275D02*
D03*
X1684337Y527050D02*
D03*
X522287Y819150D02*
D03*
X1706562Y504825D02*
D03*
X1784337Y530225D02*
D03*
X827087Y440169D02*
D03*
X862855Y416767D02*
D03*
X508000Y431800D02*
D03*
X485775D02*
D03*
X939553Y459132D02*
D03*
X923925Y430213D02*
D03*
X936524Y438150D02*
D03*
X538162Y469900D02*
D03*
X517525Y431800D02*
D03*
X582612Y889000D02*
D03*
X150813Y182825D02*
D03*
X749300Y517525D02*
D03*
X1738313Y771525D02*
D03*
X1785938Y736600D02*
D03*
X1774825D02*
D03*
X1754187Y739775D02*
D03*
X1738313Y733425D02*
D03*
X766762Y536575D02*
D03*
X749300Y454025D02*
D03*
X881062Y576263D02*
D03*
X869950Y584200D02*
D03*
X841375Y582612D02*
D03*
X468312Y584200D02*
D03*
X439738Y582612D02*
D03*
X347663Y476250D02*
D03*
X477837Y574675D02*
D03*
X365125Y536575D02*
D03*
X1651000Y460375D02*
D03*
X1581150Y447675D02*
D03*
X1797050Y736600D02*
D03*
X1930400Y731837D02*
D03*
X598488Y857250D02*
D03*
X379412Y814388D02*
D03*
X1192213Y914400D02*
D03*
X1487487Y254000D02*
D03*
X1474787D02*
D03*
X1565275Y188913D02*
D03*
X1543050Y204788D02*
D03*
X1498600Y265112D02*
D03*
X1520825D02*
D03*
X1543050D02*
D03*
X1565275D02*
D03*
X498475Y871537D02*
D03*
X1133475Y868363D02*
D03*
X911225Y857250D02*
D03*
X931862Y927100D02*
D03*
Y938213D02*
D03*
X823913Y895350D02*
D03*
X1046162D02*
D03*
X690563Y862012D02*
D03*
X887412Y920750D02*
D03*
Y912812D02*
D03*
X1109662Y920750D02*
D03*
X449263Y860425D02*
D03*
X947738Y498475D02*
D03*
X611188Y479425D02*
D03*
X950912Y488950D02*
D03*
X519313Y511375D02*
D03*
X519113Y498475D02*
D03*
X989013Y476250D02*
D03*
X584200Y463550D02*
D03*
X769938Y623887D02*
D03*
X1781175Y1006475D02*
D03*
X1806575D02*
D03*
X838200Y473075D02*
D03*
X681038Y482600D02*
D03*
X1611313Y355600D02*
D03*
X195263Y171450D02*
D03*
X192087Y193675D02*
D03*
X1609725Y446087D02*
D03*
X1868620Y771562D02*
D03*
X1893887Y764369D02*
D03*
X1895574Y752475D02*
D03*
X1909763Y795338D02*
D03*
X1893887Y775481D02*
D03*
X1927225Y714375D02*
D03*
X1922462Y752475D02*
D03*
X1930400Y1025525D02*
D03*
X1866900D02*
D03*
X1730375D02*
D03*
X1793875D02*
D03*
X1873250Y855663D02*
D03*
X1943100Y889000D02*
D03*
X1917700D02*
D03*
X1806575D02*
D03*
X1781175D02*
D03*
X1743075D02*
D03*
X1717675D02*
D03*
X1793875Y869950D02*
D03*
X1730375D02*
D03*
X1789113Y804863D02*
D03*
X1882775Y839788D02*
D03*
X1885950Y825500D02*
D03*
X1882775Y811212D02*
D03*
X1833562Y836612D02*
D03*
X1830388Y815975D02*
D03*
X1800225Y825500D02*
D03*
X1803400Y811212D02*
D03*
X1819275Y836612D02*
D03*
X1847850D02*
D03*
X1876425Y649287D02*
D03*
X1838325D02*
D03*
X1868488Y665163D02*
D03*
X1833562Y669925D02*
D03*
X1831849Y700213D02*
D03*
X1854326D02*
D03*
X1917700Y717550D02*
D03*
X1939925Y727075D02*
D03*
X1917700Y731837D02*
D03*
X1893887Y715963D02*
D03*
X1935163Y706438D02*
D03*
X1893887D02*
D03*
X1938338Y792162D02*
D03*
Y763587D02*
D03*
Y755650D02*
D03*
X1936750Y774700D02*
D03*
Y785813D02*
D03*
X1873250Y679450D02*
D03*
X1812925D02*
D03*
X1763788Y558875D02*
D03*
X1808163Y528638D02*
D03*
X1716087D02*
D03*
X1704975D02*
D03*
X1765300Y581025D02*
D03*
X379437Y906438D02*
D03*
X398438Y814413D02*
D03*
X434950D02*
D03*
X471463D02*
D03*
X485775Y863600D02*
D03*
Y847725D02*
D03*
Y833438D02*
D03*
X554038Y882650D02*
D03*
X563563Y873125D02*
D03*
X569912Y868363D02*
D03*
Y838200D02*
D03*
Y828675D02*
D03*
Y819150D02*
D03*
X508000Y871537D02*
D03*
X592137Y819150D02*
D03*
Y828675D02*
D03*
Y838200D02*
D03*
Y868363D02*
D03*
X574675Y898525D02*
D03*
X517525D02*
D03*
X508000Y841375D02*
D03*
Y855663D02*
D03*
X406400Y349250D02*
D03*
X369888D02*
D03*
X371475Y400050D02*
D03*
X184150Y165100D02*
D03*
X182563Y203200D02*
D03*
X207962Y168275D02*
D03*
X1273175Y973138D02*
D03*
Y922337D02*
D03*
Y909638D02*
D03*
X1431925Y919163D02*
D03*
X1430338Y955675D02*
D03*
Y946150D02*
D03*
X1198562Y1041400D02*
D03*
X1230312D02*
D03*
X792162Y461963D02*
D03*
X803275D02*
D03*
Y417513D02*
D03*
X792162D02*
D03*
X803275Y439869D02*
D03*
X792162Y439738D02*
D03*
X450850Y461963D02*
D03*
X438150D02*
D03*
X461963Y455612D02*
D03*
X390525Y461963D02*
D03*
X401637D02*
D03*
Y417513D02*
D03*
X390525D02*
D03*
X401637Y439869D02*
D03*
X390525Y439738D02*
D03*
X555625Y463550D02*
D03*
X617537Y438150D02*
D03*
X574675Y450850D02*
D03*
X533400Y425450D02*
D03*
X714375Y620713D02*
D03*
X450850Y439869D02*
D03*
Y417513D02*
D03*
X388937Y622300D02*
D03*
X714375Y628650D02*
D03*
X615950Y584200D02*
D03*
X722312Y620713D02*
D03*
X706438D02*
D03*
X698500D02*
D03*
X438150Y417513D02*
D03*
X414338Y622300D02*
D03*
X706438Y628650D02*
D03*
Y636587D02*
D03*
X588963Y595312D02*
D03*
X460375Y685800D02*
D03*
X454025D02*
D03*
X460375Y679450D02*
D03*
X454025D02*
D03*
X447675Y685800D02*
D03*
Y679450D02*
D03*
X412750Y417513D02*
D03*
X390525Y490537D02*
D03*
X365125D02*
D03*
X690563Y581025D02*
D03*
X649287Y595312D02*
D03*
X390525Y534987D02*
D03*
X379412D02*
D03*
X668337Y422275D02*
D03*
X612775Y571500D02*
D03*
X425450Y461963D02*
D03*
X439738Y630238D02*
D03*
X387350Y663575D02*
D03*
X585788Y554038D02*
D03*
X603250Y546100D02*
D03*
X365125Y587375D02*
D03*
X488950Y458787D02*
D03*
X498475Y455612D02*
D03*
X585788Y498475D02*
D03*
X603250Y526256D02*
D03*
Y506413D02*
D03*
X360363Y644525D02*
D03*
X649287Y584200D02*
D03*
X430213Y512762D02*
D03*
X402363Y530950D02*
D03*
X414338Y519113D02*
D03*
X441325Y547687D02*
D03*
X430213Y557212D02*
D03*
X657225Y422275D02*
D03*
X668337Y561975D02*
D03*
Y539750D02*
D03*
X650875Y547687D02*
D03*
X627062D02*
D03*
X542925Y601662D02*
D03*
X425450Y417513D02*
D03*
X576263Y463550D02*
D03*
X668337Y490537D02*
D03*
Y512762D02*
D03*
X627062Y504825D02*
D03*
X650875D02*
D03*
X347663Y498475D02*
D03*
X668337Y454025D02*
D03*
X630238D02*
D03*
X627062Y441325D02*
D03*
X654362Y636900D02*
D03*
X530225Y577850D02*
D03*
X407988Y622300D02*
D03*
X395288D02*
D03*
X401637D02*
D03*
X454025Y576263D02*
D03*
X488950Y550863D02*
D03*
X530225Y639762D02*
D03*
X501650Y585788D02*
D03*
X696650Y628913D02*
D03*
X515938Y550863D02*
D03*
X722050Y628913D02*
D03*
X542925Y571500D02*
D03*
X539750Y560387D02*
D03*
X536575Y627062D02*
D03*
X625475Y584200D02*
D03*
X520700Y536575D02*
D03*
X525462Y455612D02*
D03*
X519113Y461963D02*
D03*
X512762Y455612D02*
D03*
X487363Y471488D02*
D03*
X436562Y476250D02*
D03*
X463550Y498475D02*
D03*
Y508000D02*
D03*
X390525Y512762D02*
D03*
X463550Y515938D02*
D03*
X379412Y512762D02*
D03*
X461963Y525462D02*
D03*
X439738Y639762D02*
D03*
X444500Y569912D02*
D03*
X1049337Y935038D02*
D03*
X1077913D02*
D03*
X1016000Y901700D02*
D03*
Y890587D02*
D03*
Y879475D02*
D03*
Y868363D02*
D03*
Y857250D02*
D03*
Y846137D02*
D03*
Y835025D02*
D03*
Y823913D02*
D03*
X1111250D02*
D03*
Y835025D02*
D03*
Y846137D02*
D03*
Y857250D02*
D03*
Y868363D02*
D03*
Y879475D02*
D03*
Y890587D02*
D03*
Y901700D02*
D03*
X992188Y922337D02*
D03*
Y912812D02*
D03*
X993775Y901700D02*
D03*
X971550D02*
D03*
Y890587D02*
D03*
X993775Y879475D02*
D03*
X971550D02*
D03*
X993775Y868363D02*
D03*
X971550D02*
D03*
X993775Y857250D02*
D03*
X971550D02*
D03*
X993775Y846137D02*
D03*
X971550D02*
D03*
X993775Y835025D02*
D03*
X971550D02*
D03*
X993775Y823913D02*
D03*
X971550D02*
D03*
X1133344D02*
D03*
X1155700D02*
D03*
Y835025D02*
D03*
X1133475Y846137D02*
D03*
X1155700D02*
D03*
Y857250D02*
D03*
Y868363D02*
D03*
Y879475D02*
D03*
Y890587D02*
D03*
Y901700D02*
D03*
X1081087Y889000D02*
D03*
X1046162Y906462D02*
D03*
X911225Y879475D02*
D03*
Y901700D02*
D03*
X827087Y935038D02*
D03*
X855663D02*
D03*
X793750Y901700D02*
D03*
Y890587D02*
D03*
Y879475D02*
D03*
Y868363D02*
D03*
Y857250D02*
D03*
Y846137D02*
D03*
Y835025D02*
D03*
Y823913D02*
D03*
X889000D02*
D03*
Y835025D02*
D03*
Y846137D02*
D03*
Y857250D02*
D03*
Y868363D02*
D03*
Y879475D02*
D03*
Y890587D02*
D03*
Y901700D02*
D03*
X769938Y922337D02*
D03*
Y912812D02*
D03*
X749300Y901700D02*
D03*
Y890587D02*
D03*
Y879475D02*
D03*
Y868363D02*
D03*
X771525Y857250D02*
D03*
X749300D02*
D03*
X771525Y846137D02*
D03*
X749300D02*
D03*
X771525Y835025D02*
D03*
X749300D02*
D03*
X771525Y823913D02*
D03*
X749300D02*
D03*
X911094D02*
D03*
X933450D02*
D03*
X911225Y835025D02*
D03*
X933450D02*
D03*
Y846137D02*
D03*
Y857250D02*
D03*
Y868363D02*
D03*
Y879475D02*
D03*
Y890587D02*
D03*
Y901700D02*
D03*
X858838Y889000D02*
D03*
X823913Y906462D02*
D03*
X862012Y685800D02*
D03*
X855663D02*
D03*
X849313D02*
D03*
X815975Y622300D02*
D03*
X790575D02*
D03*
X796925D02*
D03*
X809625D02*
D03*
X803275D02*
D03*
X849313Y679450D02*
D03*
X862012D02*
D03*
X855663D02*
D03*
X766762Y587375D02*
D03*
X1014413Y571500D02*
D03*
X917575Y550863D02*
D03*
X1100137Y620713D02*
D03*
X1108075D02*
D03*
X1116012D02*
D03*
X1123950D02*
D03*
X1116012Y628650D02*
D03*
X1108075D02*
D03*
Y636587D02*
D03*
X1123688Y628913D02*
D03*
X1098288Y628913D02*
D03*
X841375Y639762D02*
D03*
Y660400D02*
D03*
X944563Y601662D02*
D03*
X935038Y425450D02*
D03*
X957262Y461963D02*
D03*
X976312Y450850D02*
D03*
X1050925Y595312D02*
D03*
Y584200D02*
D03*
X1027113D02*
D03*
X938213Y627062D02*
D03*
X1056000Y636900D02*
D03*
X931862Y639762D02*
D03*
Y577850D02*
D03*
X944563Y571500D02*
D03*
X941387Y560387D02*
D03*
X1069975Y454025D02*
D03*
X1101725Y422275D02*
D03*
X1069975D02*
D03*
X1058863D02*
D03*
X1092200Y581025D02*
D03*
X781050Y534987D02*
D03*
X792162D02*
D03*
X781050Y512762D02*
D03*
X792162D02*
D03*
X841375Y630238D02*
D03*
Y649287D02*
D03*
X814388Y417513D02*
D03*
X827087D02*
D03*
X839788D02*
D03*
X852487D02*
D03*
X863600Y455612D02*
D03*
X852487Y461963D02*
D03*
X839788D02*
D03*
X827087D02*
D03*
X792162Y490537D02*
D03*
X766762D02*
D03*
X749300Y498475D02*
D03*
X863600Y525462D02*
D03*
X842962Y547687D02*
D03*
X804000Y530950D02*
D03*
X815975Y519113D02*
D03*
X831850Y512762D02*
D03*
Y557212D02*
D03*
X927100Y455612D02*
D03*
X920750Y461963D02*
D03*
X914400Y455612D02*
D03*
X908050Y460375D02*
D03*
X909638Y431800D02*
D03*
X887412D02*
D03*
X900113Y455612D02*
D03*
X977900Y463550D02*
D03*
X1069975Y561975D02*
D03*
Y490537D02*
D03*
Y512762D02*
D03*
X1028700Y504825D02*
D03*
X1052513D02*
D03*
X1004887Y526256D02*
D03*
X987425Y498475D02*
D03*
X1004887Y506413D02*
D03*
X1069975Y539750D02*
D03*
X1052513Y547687D02*
D03*
X1028700D02*
D03*
X1004887Y546100D02*
D03*
X987425Y554038D02*
D03*
X922337Y536575D02*
D03*
X1017588Y584200D02*
D03*
X990600Y595312D02*
D03*
X846137Y569912D02*
D03*
X855663Y576263D02*
D03*
X903288Y585788D02*
D03*
X890587Y550863D02*
D03*
X1633013Y460900D02*
D03*
X1619250Y446087D02*
D03*
X1627188Y442912D02*
D03*
X1598613Y454025D02*
D03*
Y385762D02*
D03*
X1597333Y404408D02*
D03*
X1597081Y425071D02*
D03*
X1574800Y441325D02*
D03*
X1682750Y396875D02*
D03*
X1665287Y420687D02*
D03*
X1662112Y441325D02*
D03*
X1684337Y434975D02*
D03*
X1673225Y457200D02*
D03*
X1684337D02*
D03*
Y412750D02*
D03*
X1682750Y404813D02*
D03*
X1673225Y390525D02*
D03*
X1565275Y393700D02*
D03*
X1598613Y365125D02*
D03*
X1674812D02*
D03*
Y355600D02*
D03*
X1875375Y269338D02*
D03*
X1895475Y223838D02*
D03*
Y185737D02*
D03*
X1949450Y258762D02*
D03*
X1873250Y147638D02*
D03*
X849313Y357188D02*
D03*
X428625Y277812D02*
D03*
Y284163D02*
D03*
X452438Y295275D02*
D03*
X474663D02*
D03*
X482600D02*
D03*
X490537D02*
D03*
X498475Y265112D02*
D03*
X527050Y282575D02*
D03*
Y288925D02*
D03*
X428625Y341312D02*
D03*
Y347663D02*
D03*
X481012Y330200D02*
D03*
X527050Y342900D02*
D03*
Y336550D02*
D03*
X473569Y265112D02*
D03*
X431800Y358775D02*
D03*
X444500D02*
D03*
X457200D02*
D03*
X469900Y357188D02*
D03*
X431800Y401637D02*
D03*
X444500D02*
D03*
X457200D02*
D03*
X469900D02*
D03*
X615950Y244475D02*
D03*
X584200D02*
D03*
X485438Y371138D02*
D03*
X498475Y244475D02*
D03*
X476250D02*
D03*
X590550Y361950D02*
D03*
Y368300D02*
D03*
Y393700D02*
D03*
Y374650D02*
D03*
Y381000D02*
D03*
X622300Y361950D02*
D03*
Y368300D02*
D03*
Y374650D02*
D03*
Y381000D02*
D03*
Y387350D02*
D03*
X590550D02*
D03*
X622300Y393700D02*
D03*
X590550Y274638D02*
D03*
Y293687D02*
D03*
Y280987D02*
D03*
Y287337D02*
D03*
X622300Y280987D02*
D03*
Y274638D02*
D03*
Y287337D02*
D03*
Y293687D02*
D03*
X590550Y300037D02*
D03*
X622300D02*
D03*
X428625Y271462D02*
D03*
Y290513D02*
D03*
Y328613D02*
D03*
X527050Y330200D02*
D03*
Y349250D02*
D03*
X549275Y303213D02*
D03*
X590550Y268288D02*
D03*
Y306388D02*
D03*
Y349250D02*
D03*
Y400050D02*
D03*
X614362Y349250D02*
D03*
X606425D02*
D03*
X428625Y296863D02*
D03*
Y334963D02*
D03*
X527050Y295275D02*
D03*
Y276225D02*
D03*
X549275Y296863D02*
D03*
X542925D02*
D03*
X590550Y355600D02*
D03*
X434975Y271462D02*
D03*
Y328613D02*
D03*
X520700Y330200D02*
D03*
X622300Y268288D02*
D03*
Y306388D02*
D03*
Y349250D02*
D03*
X598488D02*
D03*
X622300Y400050D02*
D03*
X434975Y296863D02*
D03*
X536575D02*
D03*
X520700Y295275D02*
D03*
X622300Y355600D02*
D03*
X868363Y277812D02*
D03*
Y284163D02*
D03*
X904875Y295275D02*
D03*
X914400D02*
D03*
X922337D02*
D03*
X930275D02*
D03*
X938213Y265112D02*
D03*
X966787Y282575D02*
D03*
Y288925D02*
D03*
X868363Y341312D02*
D03*
Y347663D02*
D03*
X966787Y336550D02*
D03*
Y342900D02*
D03*
X913306Y265112D02*
D03*
X871537Y358775D02*
D03*
X884238D02*
D03*
X896937D02*
D03*
X909638Y357188D02*
D03*
X871537Y401637D02*
D03*
X884238D02*
D03*
X896937D02*
D03*
X909638D02*
D03*
X1046162Y244475D02*
D03*
X1023938D02*
D03*
X938213D02*
D03*
X915987D02*
D03*
X1030287Y361950D02*
D03*
X1062038D02*
D03*
X1030287Y374650D02*
D03*
Y387350D02*
D03*
Y393700D02*
D03*
Y368300D02*
D03*
Y381000D02*
D03*
X1062038D02*
D03*
Y387350D02*
D03*
Y393700D02*
D03*
Y368300D02*
D03*
Y374650D02*
D03*
X1030287Y274638D02*
D03*
Y293687D02*
D03*
Y280987D02*
D03*
Y287337D02*
D03*
X1062038Y274638D02*
D03*
Y287337D02*
D03*
Y280987D02*
D03*
X1030287Y300037D02*
D03*
X1062038Y293687D02*
D03*
Y300037D02*
D03*
X868363Y271462D02*
D03*
X874713D02*
D03*
X868363Y290513D02*
D03*
Y328613D02*
D03*
X874713D02*
D03*
X960437Y330200D02*
D03*
X989013Y303213D02*
D03*
X1030287Y268288D02*
D03*
Y306388D02*
D03*
X1038225Y349250D02*
D03*
X1030287D02*
D03*
Y400050D02*
D03*
X1062038Y268288D02*
D03*
Y306388D02*
D03*
X1054100Y349250D02*
D03*
X1062038D02*
D03*
Y400050D02*
D03*
X868363Y296863D02*
D03*
X874713D02*
D03*
X868363Y334963D02*
D03*
X960437Y295275D02*
D03*
X982663Y296863D02*
D03*
X976312D02*
D03*
X989013D02*
D03*
X1030287Y355600D02*
D03*
X1062038D02*
D03*
X966787Y330200D02*
D03*
Y349250D02*
D03*
X1046162D02*
D03*
X966787Y295275D02*
D03*
Y276225D02*
D03*
X771525Y357188D02*
D03*
X782637D02*
D03*
X793750D02*
D03*
X815975D02*
D03*
X849313Y261938D02*
D03*
X815975D02*
D03*
X804863D02*
D03*
X793750D02*
D03*
X782637D02*
D03*
X771525D02*
D03*
X1614487Y231775D02*
D03*
X1565013Y204525D02*
D03*
X1558925Y180975D02*
D03*
X1497012Y254000D02*
D03*
X1503737Y210763D02*
D03*
X1509713Y254000D02*
D03*
X1468438D02*
D03*
X1452563Y180975D02*
D03*
X1436687Y212725D02*
D03*
Y174625D02*
D03*
X1593925Y268213D02*
D03*
X1606550Y306388D02*
D03*
Y268288D02*
D03*
X1550988Y206375D02*
D03*
Y244475D02*
D03*
X1644650Y274638D02*
D03*
Y222250D02*
D03*
X1664037Y339388D02*
D03*
X1600200Y314587D02*
D03*
X1611313Y314325D02*
D03*
X1622425Y314587D02*
D03*
X1653837Y339388D02*
D03*
X1681163Y220662D02*
D03*
Y231775D02*
D03*
Y242887D02*
D03*
X1633537D02*
D03*
X1657188Y237319D02*
D03*
X1528763Y239713D02*
D03*
X760413Y238125D02*
D03*
X750888D02*
D03*
X488950Y192087D02*
D03*
X598488Y188913D02*
D03*
X711200Y185737D02*
D03*
X771525Y239713D02*
D03*
X782637D02*
D03*
X793750D02*
D03*
X804863D02*
D03*
X815975D02*
D03*
X827087D02*
D03*
X838200D02*
D03*
X849313D02*
D03*
Y379281D02*
D03*
X815975Y379412D02*
D03*
X827087D02*
D03*
X838200D02*
D03*
X849313Y401637D02*
D03*
X419100Y246063D02*
D03*
X204563Y182563D02*
D03*
X209550Y211138D02*
D03*
X184150Y185737D02*
D03*
X169862Y144462D02*
D03*
X114300Y153988D02*
D03*
X738187Y295275D02*
D03*
Y323850D02*
D03*
X771525Y217488D02*
D03*
X782637D02*
D03*
X793750D02*
D03*
X804863D02*
D03*
X849313D02*
D03*
X838200D02*
D03*
X827087D02*
D03*
X815975D02*
D03*
X838200Y261938D02*
D03*
X827087D02*
D03*
X771525Y401637D02*
D03*
X782637D02*
D03*
X793750D02*
D03*
X804863D02*
D03*
X838200D02*
D03*
X827087D02*
D03*
X815975D02*
D03*
X838200Y357188D02*
D03*
X827087D02*
D03*
X804863D02*
D03*
X669925Y817562D02*
D03*
Y842962D02*
D03*
X666750Y854075D02*
D03*
D244*
X1367437Y752475D02*
D03*
Y738187D02*
D03*
X1504625Y649925D02*
D03*
Y641925D02*
D03*
X1440625Y729925D02*
D03*
X1392625Y705925D02*
D03*
X1440625Y617925D02*
D03*
X1384625Y657925D02*
D03*
X1496625Y649925D02*
D03*
Y657925D02*
D03*
X1392625Y689925D02*
D03*
X1488625Y721925D02*
D03*
X1424625D02*
D03*
X1504625Y625925D02*
D03*
X1392625Y649925D02*
D03*
X1384625D02*
D03*
X1496625Y705925D02*
D03*
X1384625Y625925D02*
D03*
X1392625Y641925D02*
D03*
Y625925D02*
D03*
X1384625Y641925D02*
D03*
X1424625Y729925D02*
D03*
X1400625Y705925D02*
D03*
X1384625D02*
D03*
X1440625Y721925D02*
D03*
X1456625Y617925D02*
D03*
X1392625Y697925D02*
D03*
X1400625Y681925D02*
D03*
Y697925D02*
D03*
X1488625Y633925D02*
D03*
Y673925D02*
D03*
Y689925D02*
D03*
Y705925D02*
D03*
X1480625Y713925D02*
D03*
X1464625D02*
D03*
X1488625Y617925D02*
D03*
X1472625Y625925D02*
D03*
X1456625D02*
D03*
X1488625Y609925D02*
D03*
X1472625D02*
D03*
X1504625Y705925D02*
D03*
X1424625Y625925D02*
D03*
X1440625D02*
D03*
X1384625Y673925D02*
D03*
Y697925D02*
D03*
X1504625Y673925D02*
D03*
X1392625Y617925D02*
D03*
X1384625Y609600D02*
D03*
X1400625D02*
D03*
X1408625D02*
D03*
X1416625D02*
D03*
X1432625Y609925D02*
D03*
X1456625D02*
D03*
X1392625Y609600D02*
D03*
X1424625D02*
D03*
X1480625Y609925D02*
D03*
X1496625D02*
D03*
X1508625Y592637D02*
D03*
X1520825Y593725D02*
D03*
X1521325Y605925D02*
D03*
X1400625Y617925D02*
D03*
Y625925D02*
D03*
X1408625Y617925D02*
D03*
Y625925D02*
D03*
X1416625Y617925D02*
D03*
Y625925D02*
D03*
X1424625Y617925D02*
D03*
X1432625D02*
D03*
Y625925D02*
D03*
X1440625Y609925D02*
D03*
X1464625D02*
D03*
Y617925D02*
D03*
Y625925D02*
D03*
X1472625Y617925D02*
D03*
X1480625D02*
D03*
Y625925D02*
D03*
X1488625D02*
D03*
X1496625Y617925D02*
D03*
Y625925D02*
D03*
X1504625Y609925D02*
D03*
Y617925D02*
D03*
X1392625Y673925D02*
D03*
X1400625Y633925D02*
D03*
Y657925D02*
D03*
Y649925D02*
D03*
Y641925D02*
D03*
Y673925D02*
D03*
X1408625Y633925D02*
D03*
Y649925D02*
D03*
Y641925D02*
D03*
Y657925D02*
D03*
Y673925D02*
D03*
X1416625Y633925D02*
D03*
X1424625D02*
D03*
Y657925D02*
D03*
Y649925D02*
D03*
Y673925D02*
D03*
X1432625Y657925D02*
D03*
Y649925D02*
D03*
Y633925D02*
D03*
X1440625D02*
D03*
Y649925D02*
D03*
Y657925D02*
D03*
Y673925D02*
D03*
X1456625Y633925D02*
D03*
Y649925D02*
D03*
Y657925D02*
D03*
X1464625Y649925D02*
D03*
Y633925D02*
D03*
Y657925D02*
D03*
Y673925D02*
D03*
X1384625Y689925D02*
D03*
X1392625Y681925D02*
D03*
X1400625Y689925D02*
D03*
X1408625Y697925D02*
D03*
Y681925D02*
D03*
Y689925D02*
D03*
Y705925D02*
D03*
X1416625D02*
D03*
X1424625Y681925D02*
D03*
Y689925D02*
D03*
Y705925D02*
D03*
X1432625Y673925D02*
D03*
Y681925D02*
D03*
Y689925D02*
D03*
Y705925D02*
D03*
X1440625D02*
D03*
Y689925D02*
D03*
Y681925D02*
D03*
X1456625Y673925D02*
D03*
Y689925D02*
D03*
Y705925D02*
D03*
Y681925D02*
D03*
X1464625Y705925D02*
D03*
Y681925D02*
D03*
Y689925D02*
D03*
X1472625Y705925D02*
D03*
Y633925D02*
D03*
X1480625Y649925D02*
D03*
Y641925D02*
D03*
Y633925D02*
D03*
Y657925D02*
D03*
X1488625Y641925D02*
D03*
X1496625D02*
D03*
Y633925D02*
D03*
Y673925D02*
D03*
X1504625Y657925D02*
D03*
Y633925D02*
D03*
X1480625Y673925D02*
D03*
Y705925D02*
D03*
Y681925D02*
D03*
Y697925D02*
D03*
Y689925D02*
D03*
X1488625Y697925D02*
D03*
Y681925D02*
D03*
X1496625D02*
D03*
Y689925D02*
D03*
Y697925D02*
D03*
X1504625Y681925D02*
D03*
Y689925D02*
D03*
Y697925D02*
D03*
X1456625Y713925D02*
D03*
X1472625D02*
D03*
X1504625D02*
D03*
X1496625D02*
D03*
X1488625D02*
D03*
X1464625Y721925D02*
D03*
X1472625D02*
D03*
X1496625D02*
D03*
X1504625D02*
D03*
X1480625D02*
D03*
X1456625Y729925D02*
D03*
X1464625D02*
D03*
X1472625D02*
D03*
X1384625Y713925D02*
D03*
X1416625D02*
D03*
X1424625D02*
D03*
X1432625D02*
D03*
X1440625D02*
D03*
X1384625Y721925D02*
D03*
X1456625D02*
D03*
X1368425Y746125D02*
D03*
X1396625Y747337D02*
D03*
X1480625Y729925D02*
D03*
X1488625D02*
D03*
X1504625D02*
D03*
X1496625D02*
D03*
X1520825Y738187D02*
D03*
X1525587Y742950D02*
D03*
X1520825Y746125D02*
D03*
X1508625Y747213D02*
D03*
X1492625Y747337D02*
D03*
X1380625Y592518D02*
D03*
X1384625Y617925D02*
D03*
Y681925D02*
D03*
D245*
X407988Y212725D02*
D03*
X936625Y233363D02*
D03*
X915987D02*
D03*
X1038225D02*
D03*
X1062038D02*
D03*
X622300D02*
D03*
X598488Y234950D02*
D03*
X496888D02*
D03*
X476250D02*
D03*
X507088Y331113D02*
D03*
X946825D02*
D03*
X444500Y328613D02*
D03*
X530225Y244475D02*
D03*
X590550Y255588D02*
D03*
X884238Y328613D02*
D03*
X969962Y244475D02*
D03*
X1030287Y255588D02*
D03*
X1679575Y153988D02*
D03*
X1156488Y134150D02*
D03*
X1046950D02*
D03*
X935825D02*
D03*
X826288D02*
D03*
X716750D02*
D03*
X605625D02*
D03*
X496087D02*
D03*
X386550D02*
D03*
M02*
