G04*
G04 #@! TF.GenerationSoftware,Altium Limited,Altium Designer,23.4.1 (23)*
G04*
G04 Layer_Physical_Order=4*
G04 Layer_Color=16440176*
%FSLAX44Y44*%
%MOMM*%
G71*
G04*
G04 #@! TF.SameCoordinates,210523F5-4B5D-4388-949E-6639FD9C488E*
G04*
G04*
G04 #@! TF.FilePolarity,Positive*
G04*
G01*
G75*
%ADD16C,0.2540*%
%ADD17C,0.4064*%
%ADD220C,0.1524*%
%ADD225C,1.0000*%
%ADD229C,0.7112*%
%ADD230C,0.1016*%
G04:AMPARAMS|DCode=232|XSize=1.3mm|YSize=1.3mm|CornerRadius=0.325mm|HoleSize=0mm|Usage=FLASHONLY|Rotation=180.000|XOffset=0mm|YOffset=0mm|HoleType=Round|Shape=RoundedRectangle|*
%AMROUNDEDRECTD232*
21,1,1.3000,0.6500,0,0,180.0*
21,1,0.6500,1.3000,0,0,180.0*
1,1,0.6500,-0.3250,0.3250*
1,1,0.6500,0.3250,0.3250*
1,1,0.6500,0.3250,-0.3250*
1,1,0.6500,-0.3250,-0.3250*
%
%ADD232ROUNDEDRECTD232*%
%ADD233C,1.3000*%
%ADD234C,3.2500*%
%ADD235C,2.5000*%
%ADD236C,2.3900*%
%ADD237C,1.2000*%
%ADD238C,1.4500*%
%ADD239C,1.5240*%
G04:AMPARAMS|DCode=240|XSize=3.4mm|YSize=0.8mm|CornerRadius=0.2mm|HoleSize=0mm|Usage=FLASHONLY|Rotation=270.000|XOffset=0mm|YOffset=0mm|HoleType=Round|Shape=RoundedRectangle|*
%AMROUNDEDRECTD240*
21,1,3.4000,0.4000,0,0,270.0*
21,1,3.0000,0.8000,0,0,270.0*
1,1,0.4000,-0.2000,-1.5000*
1,1,0.4000,-0.2000,1.5000*
1,1,0.4000,0.2000,1.5000*
1,1,0.4000,0.2000,-1.5000*
%
%ADD240ROUNDEDRECTD240*%
G04:AMPARAMS|DCode=241|XSize=2.4mm|YSize=0.8mm|CornerRadius=0.2mm|HoleSize=0mm|Usage=FLASHONLY|Rotation=270.000|XOffset=0mm|YOffset=0mm|HoleType=Round|Shape=RoundedRectangle|*
%AMROUNDEDRECTD241*
21,1,2.4000,0.4000,0,0,270.0*
21,1,2.0000,0.8000,0,0,270.0*
1,1,0.4000,-0.2000,-1.0000*
1,1,0.4000,-0.2000,1.0000*
1,1,0.4000,0.2000,1.0000*
1,1,0.4000,0.2000,-1.0000*
%
%ADD241ROUNDEDRECTD241*%
%ADD242C,3.2000*%
%ADD243C,0.5500*%
%ADD244C,0.4500*%
%ADD245C,0.7500*%
G36*
X101600Y236528D02*
X100330Y236002D01*
X99777Y236555D01*
X98393Y237129D01*
X96894D01*
X95510Y236555D01*
X94451Y235496D01*
X93877Y234112D01*
Y232613D01*
X94451Y231229D01*
X95510Y230170D01*
X96894Y229597D01*
X98393D01*
X99777Y230170D01*
X100330Y230723D01*
X101600Y230197D01*
Y206366D01*
X100330Y205839D01*
X99777Y206393D01*
X98393Y206966D01*
X96894D01*
X95510Y206393D01*
X94451Y205333D01*
X93877Y203949D01*
Y202451D01*
X94451Y201067D01*
X95510Y200007D01*
X96894Y199434D01*
X98393D01*
X99777Y200007D01*
X100330Y200561D01*
X101600Y200035D01*
Y136525D01*
X230187D01*
Y47625D01*
X82550D01*
Y82550D01*
X21100D01*
Y246063D01*
X101600D01*
Y236528D01*
D02*
G37*
G36*
X1942160Y87605D02*
X1943367D01*
Y85966D01*
X1942160D01*
Y83998D01*
X1940344D01*
Y85966D01*
X1936356D01*
Y87592D01*
X1940573Y93802D01*
X1942160D01*
Y87605D01*
D02*
G37*
G36*
X1930781Y85649D02*
X1935683D01*
Y83998D01*
X1928813D01*
Y93688D01*
X1930781D01*
Y85649D01*
D02*
G37*
%LPC*%
G36*
X217022Y108124D02*
Y100182D01*
X224964D01*
X224458Y102072D01*
X223120Y104388D01*
X221228Y106280D01*
X218912Y107618D01*
X217022Y108124D01*
D02*
G37*
G36*
X212958Y108124D02*
X211068Y107618D01*
X208752Y106280D01*
X206860Y104388D01*
X205522Y102072D01*
X205016Y100182D01*
X212958D01*
Y108124D01*
D02*
G37*
G36*
X186147Y106786D02*
X183873D01*
X181677Y106198D01*
X179707Y105061D01*
X178099Y103453D01*
X176963Y101483D01*
X176374Y99287D01*
Y97013D01*
X176963Y94817D01*
X178099Y92847D01*
X179707Y91240D01*
X181677Y90103D01*
X183873Y89514D01*
X186147D01*
X188343Y90103D01*
X190313Y91240D01*
X191921Y92847D01*
X193057Y94817D01*
X193646Y97013D01*
Y99287D01*
X193057Y101483D01*
X191921Y103453D01*
X190313Y105061D01*
X188343Y106198D01*
X186147Y106786D01*
D02*
G37*
G36*
X156177D02*
X153903D01*
X151707Y106198D01*
X149737Y105061D01*
X148130Y103453D01*
X146993Y101483D01*
X146404Y99287D01*
Y97013D01*
X146993Y94817D01*
X148130Y92847D01*
X149737Y91240D01*
X151707Y90103D01*
X153903Y89514D01*
X156177D01*
X158373Y90103D01*
X160343Y91240D01*
X161950Y92847D01*
X163088Y94817D01*
X163676Y97013D01*
Y99287D01*
X163088Y101483D01*
X161950Y103453D01*
X160343Y105061D01*
X158373Y106198D01*
X156177Y106786D01*
D02*
G37*
G36*
X212958Y96118D02*
X205016D01*
X205522Y94228D01*
X206860Y91912D01*
X208752Y90020D01*
X211068Y88682D01*
X212958Y88176D01*
Y96118D01*
D02*
G37*
G36*
X224964D02*
X217022D01*
Y88176D01*
X218912Y88682D01*
X221228Y90020D01*
X223120Y91912D01*
X224458Y94228D01*
X224964Y96118D01*
D02*
G37*
G36*
X217022Y78154D02*
Y70212D01*
X224964D01*
X224458Y72102D01*
X223120Y74418D01*
X221228Y76310D01*
X218912Y77648D01*
X217022Y78154D01*
D02*
G37*
G36*
X212958Y78154D02*
X211068Y77648D01*
X208752Y76310D01*
X206860Y74418D01*
X205522Y72102D01*
X205016Y70212D01*
X212958D01*
Y78154D01*
D02*
G37*
G36*
X186147Y76816D02*
X183873D01*
X181677Y76227D01*
X179707Y75090D01*
X178099Y73483D01*
X176963Y71513D01*
X176374Y69317D01*
Y67043D01*
X176963Y64847D01*
X178099Y62877D01*
X179707Y61269D01*
X181677Y60132D01*
X183873Y59544D01*
X186147D01*
X188343Y60132D01*
X190313Y61269D01*
X191921Y62877D01*
X193057Y64847D01*
X193646Y67043D01*
Y69317D01*
X193057Y71513D01*
X191921Y73483D01*
X190313Y75090D01*
X188343Y76227D01*
X186147Y76816D01*
D02*
G37*
G36*
X156177D02*
X153903D01*
X151707Y76227D01*
X149737Y75090D01*
X148130Y73483D01*
X146993Y71513D01*
X146404Y69317D01*
Y67043D01*
X146993Y64847D01*
X148130Y62877D01*
X149737Y61269D01*
X151707Y60132D01*
X153903Y59544D01*
X156177D01*
X158373Y60132D01*
X160343Y61269D01*
X161950Y62877D01*
X163088Y64847D01*
X163676Y67043D01*
Y69317D01*
X163088Y71513D01*
X161950Y73483D01*
X160343Y75090D01*
X158373Y76227D01*
X156177Y76816D01*
D02*
G37*
G36*
X212958Y66148D02*
X205016D01*
X205522Y64258D01*
X206860Y61942D01*
X208752Y60050D01*
X211068Y58712D01*
X212958Y58206D01*
Y66148D01*
D02*
G37*
G36*
X224964D02*
X217022D01*
Y58206D01*
X218912Y58712D01*
X221228Y60050D01*
X223120Y61942D01*
X224458Y64258D01*
X224964Y66148D01*
D02*
G37*
G36*
X1940344Y90919D02*
X1938109Y87605D01*
X1940344D01*
Y90919D01*
D02*
G37*
%LPD*%
D16*
X1611313Y346075D02*
X1625600Y360363D01*
X1654175D02*
X1666875Y373063D01*
X1625600Y360363D02*
X1654175D01*
X1611313Y346075D02*
X1611313D01*
X1619362Y376237D02*
X1624125Y381000D01*
X1658938D01*
X868363Y563563D02*
X881062Y576263D01*
X793750Y563563D02*
X868363D01*
X766762Y536575D02*
X793750Y563563D01*
X365125Y536575D02*
X392113Y563563D01*
X454025D01*
X465137Y574675D01*
X477837D01*
D17*
X1147925Y1159475D02*
Y1176338D01*
X1155781Y1159411D02*
Y1176338D01*
X1232706Y1113619D02*
X1281113D01*
X1206500Y1139825D02*
X1232706Y1113619D01*
X1206500Y1139825D02*
Y1150938D01*
X1350992Y1113473D02*
X1366122D01*
X1158875Y1176338D02*
X1230312Y1104900D01*
X1342419D02*
X1350992Y1113473D01*
X1230312Y1104900D02*
X1342419D01*
X1155781Y1176338D02*
X1158875D01*
X1366122Y1113473D02*
X1428987Y1176338D01*
X1068776Y571500D02*
X1070364Y573088D01*
X1296876D02*
X1314803Y591014D01*
X1068388Y571500D02*
X1068776D01*
X1070364Y573088D02*
X1296876D01*
X1154112Y719137D02*
X1169987Y735013D01*
X1290749D02*
X1324550Y768814D01*
X1169987Y735013D02*
X1290749D01*
X1148000Y1125450D02*
X1179662Y1093788D01*
X1303338D01*
X1148000Y1125450D02*
Y1140425D01*
X320675Y898525D02*
X592137Y1169987D01*
X1046674D01*
X1065724Y1150938D01*
X1116006Y976319D02*
Y1140419D01*
Y976319D02*
X1116012Y976312D01*
X1116000Y1140425D02*
X1116006Y1140419D01*
X1148000Y1140425D02*
X1156000D01*
X1148000D02*
Y1147763D01*
X1144825Y1150938D02*
X1148000Y1147763D01*
X1065724Y1150938D02*
X1144825D01*
X1428987Y1176338D02*
X1558828D01*
X23812Y312738D02*
Y1052513D01*
X147638Y1176338D01*
X1147925D01*
X320675Y898525D02*
Y898525D01*
X1754975Y628650D02*
X1817688D01*
X1685813Y604837D02*
X1731163D01*
X1754975Y628650D01*
X1674237Y616414D02*
X1685813Y604837D01*
X1314803Y591014D02*
X1340750D01*
X1358677Y573088D01*
X1546225D01*
X1589552Y616414D02*
X1674237D01*
X1546225Y573088D02*
X1589552Y616414D01*
X1817688Y628650D02*
X1838325Y649287D01*
X1819275Y855663D02*
X1852612D01*
X1774825D02*
X1819275D01*
Y836612D02*
Y855663D01*
X773112Y747712D02*
X801687Y719137D01*
X1154112D01*
X1716087Y796925D02*
X1774825Y855663D01*
X1641573Y796925D02*
X1716087D01*
X1635223Y803275D02*
X1641573Y796925D01*
X1446212Y803275D02*
X1635223D01*
X1411752Y768814D02*
X1446212Y803275D01*
X1324550Y768814D02*
X1411752D01*
X1515257Y845356D02*
X1531938Y828675D01*
X1450975Y845356D02*
X1515257D01*
X1386240Y840251D02*
X1419540D01*
X1424645Y845356D01*
X1450975D01*
X1708150Y812800D02*
X1719263D01*
X1531938Y828675D02*
X1692275D01*
X1708150Y812800D01*
X1362075Y833438D02*
X1379426D01*
X1386240Y840251D01*
X1576145Y1159020D02*
Y1159020D01*
X1558828Y1176338D02*
X1576145Y1159020D01*
Y1159020D02*
X1581895Y1153270D01*
X1147925Y1176338D02*
X1155781D01*
X301625Y879475D02*
X320675Y898525D01*
X169862Y292100D02*
X180975Y280987D01*
X44450Y292100D02*
X169862D01*
X23812Y312738D02*
X44450Y292100D01*
D220*
X1835912Y1087374D02*
G03*
X1837944Y1089406I0J2032D01*
G01*
X1842008Y1090422D02*
G03*
X1837944Y1090422I-2032J0D01*
G01*
X1842008Y1087755D02*
G03*
X1846072Y1087755I2032J0D01*
G01*
X1850136Y1090422D02*
G03*
X1846072Y1090422I-2032J0D01*
G01*
X1850136Y1087755D02*
G03*
X1854200Y1087755I2032J0D01*
G01*
X1858264Y1090422D02*
G03*
X1854200Y1090422I-2032J0D01*
G01*
X1858264Y1087755D02*
G03*
X1862328Y1087755I2032J0D01*
G01*
X1866392Y1090422D02*
G03*
X1862328Y1090422I-2032J0D01*
G01*
X1866392Y1089406D02*
G03*
X1868424Y1087374I2032J0D01*
G01*
X1805622Y1075118D02*
G03*
X1807654Y1073086I2032J0D01*
G01*
X1805622Y1076134D02*
G03*
X1801558Y1076134I-2032J0D01*
G01*
X1797494Y1073467D02*
G03*
X1801558Y1073467I2032J0D01*
G01*
X1797494Y1075131D02*
G03*
X1793430Y1075131I-2032J0D01*
G01*
X1791398Y1073086D02*
G03*
X1793430Y1075118I0J2032D01*
G01*
X1158538Y895350D02*
G03*
X1152862Y895350I-2838J-4762D01*
G01*
X726425Y1113534D02*
G03*
X726425Y1112140I5500J-697D01*
G01*
X1238250Y320675D02*
X1303144D01*
X1303531Y321062D01*
X1296987Y244475D02*
X1301701Y239761D01*
X1169987Y316000D02*
X1239925Y246063D01*
X1277937Y244475D02*
X1296987D01*
X1276350Y246063D02*
X1277937Y244475D01*
X1239925Y246063D02*
X1276350D01*
X1225325Y220662D02*
X1290638D01*
X1276350Y227013D02*
X1284288Y234950D01*
X1292225D01*
X1234975Y227013D02*
X1276350D01*
X1169987Y292000D02*
X1234975Y227013D01*
X1395412Y298450D02*
X1401763D01*
X1411288Y288925D01*
X602504Y889000D02*
X606425D01*
X568325Y854821D02*
X602504Y889000D01*
X568325Y847725D02*
Y854821D01*
X1816092Y1081087D02*
X1876138D01*
X1876497Y1087374D02*
X1901825Y1062046D01*
X1897126Y1044153D02*
Y1060100D01*
X1876138Y1081087D02*
X1897126Y1060100D01*
X1873250Y1087374D02*
X1876497D01*
X1901825Y1046099D02*
Y1062046D01*
X1819429Y1087374D02*
X1827099D01*
X1835912D01*
X1837944Y1089406D02*
Y1090422D01*
X1842008Y1087755D02*
Y1090422D01*
X1846072Y1087755D02*
Y1090422D01*
X1850136Y1087755D02*
Y1090422D01*
X1854200Y1087755D02*
Y1090422D01*
X1858264Y1087755D02*
Y1090422D01*
X1862328Y1087755D02*
Y1090422D01*
X1866392Y1089406D02*
Y1090422D01*
X1868424Y1087374D02*
X1873250D01*
X1804987Y1092192D02*
X1816092Y1081087D01*
X1792968Y1110482D02*
X1800993D01*
X1804987Y1092192D02*
Y1106488D01*
X1800993Y1110482D02*
X1804987Y1106488D01*
X1815300Y1091503D02*
X1819429Y1087374D01*
X1815300Y1091503D02*
Y1100950D01*
X1769991Y1084334D02*
Y1094830D01*
X1774500Y1099339D02*
Y1100950D01*
X1769991Y1094830D02*
X1774500Y1099339D01*
X1932118Y1011869D02*
X1937512Y1006475D01*
X1943100D01*
X1901825Y1046099D02*
X1932118Y1015806D01*
Y1011869D02*
Y1015806D01*
X1897126Y1044153D02*
X1915754Y1025525D01*
X1917700Y1006475D02*
X1923288D01*
X1919076Y1022202D02*
X1927419Y1013859D01*
X1923288Y1006475D02*
X1927419Y1010606D01*
Y1013859D01*
X1915754Y1025525D02*
X1919076Y1022202D01*
X1915754Y1025525D02*
Y1025525D01*
X1784700Y1118750D02*
X1792968Y1110482D01*
X1761015Y1107263D02*
X1764609Y1110857D01*
X1761015Y1093209D02*
X1765292Y1088932D01*
X1769991Y1084334D02*
X1781239Y1073086D01*
X1839554Y1038225D02*
Y1038225D01*
X1809391Y1068388D02*
X1839554Y1038225D01*
Y1038225D02*
X1842876Y1034902D01*
X1863919Y1013859D01*
X1779292Y1068388D02*
X1809391D01*
X1854200Y1006475D02*
X1859788D01*
X1863919Y1010606D01*
Y1013859D01*
X1868618Y1011869D02*
X1874012Y1006475D01*
X1879600D01*
X1868618Y1011869D02*
Y1015806D01*
X1814512Y1069911D02*
X1868618Y1015806D01*
X1781239Y1073086D02*
X1787488D01*
X1811337D02*
X1814512Y1069911D01*
X1807654Y1073086D02*
X1811337D01*
X1805622Y1075118D02*
Y1076134D01*
X1801558Y1073467D02*
Y1076134D01*
X1797494Y1073467D02*
Y1075131D01*
X1793430Y1075118D02*
Y1075131D01*
X1787488Y1073086D02*
X1791398D01*
X1765292Y1082388D02*
Y1088932D01*
Y1082388D02*
X1779292Y1068388D01*
X1761015Y1093209D02*
Y1107263D01*
X1764300Y1118750D02*
X1764609Y1118441D01*
Y1110857D02*
Y1118441D01*
X1354138Y1108075D02*
X1382713D01*
X1385887Y1104900D01*
X1331913Y1085850D02*
X1354138Y1108075D01*
X1371600Y1074737D02*
Y1100137D01*
X1210400Y706438D02*
X1223962Y720000D01*
X790575Y706438D02*
X1210400D01*
X1274762Y860425D02*
X1283506Y851682D01*
X1255713Y852487D02*
X1263650Y860425D01*
X1274762D01*
X1208087Y852487D02*
X1255713D01*
X1126344Y518307D02*
X1128712Y515938D01*
X1120766Y518307D02*
X1126344D01*
X1128712Y515938D02*
X1190625D01*
X1208087Y533400D01*
X1275129Y674344D02*
X1278886Y670587D01*
X1263404Y674344D02*
X1275129D01*
X1247775Y658715D02*
X1263404Y674344D01*
X1247775Y646113D02*
Y658715D01*
X1239837Y646210D02*
X1245479Y640568D01*
X1239837Y646210D02*
Y695034D01*
X1244131Y699327D02*
X1247014D01*
X1247775Y700088D01*
X1239837Y695034D02*
X1244131Y699327D01*
X1265140Y639762D02*
X1281113D01*
X1245479Y640568D02*
X1264334D01*
X1265140Y639762D01*
X1278886Y670564D02*
X1300163Y649287D01*
X1278886Y670564D02*
Y670587D01*
X1272833Y660742D02*
Y668800D01*
X1275180Y603250D02*
X1292642Y620713D01*
X1349375D01*
X1274762Y603250D02*
X1275180D01*
X1268412Y625475D02*
X1271588Y622300D01*
X1281113D01*
X1280331Y645306D02*
Y645331D01*
Y645306D02*
X1285875Y639762D01*
X1339850D01*
X1262063Y635000D02*
X1281113D01*
X1282700Y633413D01*
X1281113Y639762D02*
X1284288Y636587D01*
X1282700Y633413D02*
X1343025D01*
X1280331Y661084D02*
X1280428D01*
X1272833Y660742D02*
X1290638Y642937D01*
X1300163Y649287D02*
X1333500D01*
X1182688Y728662D02*
X1354138D01*
X1163637Y709613D02*
X1182688Y728662D01*
X1158875Y795338D02*
X1174750D01*
X1123950Y788988D02*
X1131888Y781050D01*
X1141413D01*
X1166813Y765175D02*
X1177925D01*
X1166813Y773112D02*
X1177925D01*
X1141413Y798512D02*
X1166813Y773112D01*
X1163637Y781050D02*
X1177925D01*
X1163637Y830263D02*
X1206500Y873125D01*
X1139694Y817562D02*
X1157288D01*
X1163637Y823913D02*
Y830263D01*
X1157288Y817562D02*
X1163637Y823913D01*
X1206500Y873125D02*
X1462088D01*
X1162856Y862819D02*
X1185863Y885825D01*
X1139019Y862819D02*
X1162856D01*
X1157996Y851706D02*
X1188940Y882650D01*
X731837Y290513D02*
X739775Y282575D01*
X809625Y246063D02*
X815975Y239713D01*
X739775Y253555D02*
Y282575D01*
X747267Y246063D02*
X809625D01*
X739775Y253555D02*
X747267Y246063D01*
X736600Y234950D02*
X741363Y230187D01*
X817562D02*
X827087Y239713D01*
X741363Y230187D02*
X817562D01*
X730250Y273050D02*
X736600Y266700D01*
Y234950D02*
Y266700D01*
X730250Y236537D02*
X739775Y227013D01*
X730250Y236537D02*
Y249237D01*
X739775Y227013D02*
X825500D01*
X838200Y239713D01*
X730250Y225425D02*
X736600D01*
X738187Y223838D01*
X833438D01*
X849313Y239713D01*
X760413Y209550D02*
X862012D01*
X869950Y201612D02*
X1406525D01*
X862012Y209550D02*
X869950Y201612D01*
X392113D02*
X752475D01*
X760413Y209550D01*
X714375Y188913D02*
X773112D01*
X779463Y182563D02*
X795338D01*
X804863Y192087D01*
X773112Y188913D02*
X779463Y182563D01*
X787400Y185737D02*
X793750Y192087D01*
X781050Y185737D02*
X787400D01*
X774700Y192087D02*
X781050Y185737D01*
X601662Y192087D02*
X774700D01*
X779459Y195266D02*
X782637Y192087D01*
X492129Y195266D02*
X779459D01*
X393700Y198438D02*
X760413D01*
X763587Y201612D01*
X827087Y192087D02*
X833438Y185737D01*
X841375D01*
X847725Y192087D02*
X923925D01*
X841375Y185737D02*
X847725Y192087D01*
X873125Y195263D02*
X1031875Y195263D01*
X841375Y195263D02*
X873125D01*
X838200Y192087D02*
X841375Y195263D01*
X873125Y198438D02*
X1138238Y198438D01*
X862012Y198438D02*
X873125D01*
X858838Y201612D02*
X862012Y198438D01*
X868363Y261938D02*
X889000D01*
X822325Y300037D02*
X830263D01*
X868363Y261938D01*
X787400Y292100D02*
X828675D01*
X874713Y246063D02*
X901700D01*
X828675Y292100D02*
X874713Y246063D01*
X779463Y295275D02*
X830263D01*
X876300Y249237D01*
X900113D01*
X819150Y303213D02*
X822325Y300037D01*
X889000Y261938D02*
X895350Y255588D01*
X819150Y307975D02*
X823913Y303213D01*
X912812Y285750D02*
X922337Y295275D01*
X893763Y285750D02*
X912812D01*
X823913Y303213D02*
X876300D01*
X893763Y285750D01*
X877887Y306388D02*
X895350Y288925D01*
X908050D02*
X914400Y295275D01*
X895350Y288925D02*
X908050D01*
X798512Y333375D02*
X825500Y306388D01*
X877887D01*
X800100Y336550D02*
X827087Y309562D01*
X879374D02*
X893661Y295275D01*
X827087Y309562D02*
X879374D01*
X642145Y303213D02*
X819150D01*
X642937Y307975D02*
X819150D01*
X631825Y319088D02*
X642937Y307975D01*
X586541Y319088D02*
X631825D01*
X524482Y257029D02*
X586541Y319088D01*
X526586Y251949D02*
X588963Y314325D01*
X631032D02*
X642145Y303213D01*
X588963Y314325D02*
X631032D01*
X504825Y295275D02*
X542925Y333375D01*
X798512D01*
X506413Y301625D02*
X541338Y336550D01*
X800100D01*
X844550Y339725D02*
X871537Y366712D01*
X555625Y339725D02*
X844550D01*
X539750Y355600D02*
X555625Y339725D01*
X541338Y358775D02*
X557212Y342900D01*
X842962D02*
X869950Y369888D01*
X557212Y342900D02*
X842962D01*
X1431925Y271462D02*
X1481138D01*
X1917700Y596900D02*
X1931987Y611188D01*
X1973262D01*
X1878013Y596900D02*
X1917700D01*
X125413Y652462D02*
X363537D01*
X420687Y709613D02*
X1163637D01*
X363537Y652462D02*
X420687Y709613D01*
X958850Y749300D02*
X1087438D01*
X946150Y736600D02*
X958850Y749300D01*
X532458Y607206D02*
X678669D01*
X690563Y595312D01*
X528189Y602938D02*
X532458Y607206D01*
X514350Y602938D02*
X528189D01*
X1341438Y1042988D02*
Y1081087D01*
X1347787Y1087438D01*
X1017588Y1073537D02*
X1021619Y1077569D01*
X1020000Y1147515D02*
X1021619Y1145896D01*
Y1077569D02*
Y1145896D01*
X1020000Y1147515D02*
Y1159475D01*
X1009650Y1019975D02*
Y1143000D01*
X1012019Y1000907D02*
Y1017606D01*
X1009650Y1019975D02*
X1012019Y1017606D01*
X1004000Y1148650D02*
X1009650Y1143000D01*
X1004000Y1148650D02*
Y1159475D01*
X996475Y1005362D02*
X996950Y1004887D01*
X996000Y1159475D02*
X996475Y1159000D01*
Y1005362D02*
Y1159000D01*
X988000Y1013400D02*
Y1159475D01*
X979488Y1004887D02*
X988000Y1013400D01*
X963613Y1016000D02*
X980000Y1032387D01*
Y1159475D01*
X944563Y1004887D02*
X964000Y1024325D01*
Y1159475D01*
X887412Y1071562D02*
X892000Y1076150D01*
Y1159475D01*
X876000Y1152450D02*
X889000Y1139450D01*
X876000Y1152450D02*
Y1159475D01*
X851706Y1085044D02*
Y1159181D01*
Y1085044D02*
X860425Y1076325D01*
X851706Y1159181D02*
X852000Y1159475D01*
X836000Y1152450D02*
X839788Y1148662D01*
X836000Y1152450D02*
Y1159475D01*
X800100Y1148700D02*
X804000Y1152600D01*
Y1159475D01*
X796000Y1102650D02*
X801687Y1096963D01*
X796000Y1102650D02*
Y1159475D01*
X788000Y1152450D02*
Y1159475D01*
Y1152450D02*
X792162Y1148288D01*
X771963Y1096218D02*
Y1159437D01*
X771925Y1096181D02*
X771963Y1096218D01*
Y1159437D02*
X772000Y1159475D01*
X740000Y1141188D02*
X744538Y1136650D01*
X740000Y1141188D02*
Y1159475D01*
X732000Y1139662D02*
Y1159475D01*
Y1139662D02*
X738187Y1133475D01*
X726425Y1113534D02*
Y1150025D01*
X724000Y1152450D02*
X726425Y1150025D01*
X724000Y1152450D02*
Y1159475D01*
X710465Y1147065D02*
X716000Y1152600D01*
Y1159475D01*
X707925Y1100038D02*
Y1159400D01*
X708000Y1159475D01*
X700088Y1092200D02*
X707925Y1100038D01*
X750888Y666750D02*
X790575Y706438D01*
X1728788Y669925D02*
X1736433D01*
X1357312Y542925D02*
X1377950Y522287D01*
X1576387D02*
X1582737Y528638D01*
X1377950Y522287D02*
X1576387D01*
X1354138Y519113D02*
X1684337D01*
X1041948Y635000D02*
X1043848Y636900D01*
X1056000D01*
X932669Y632274D02*
X935395Y635000D01*
X1041948D01*
X396875Y673100D02*
X652462D01*
X681038Y628650D02*
Y644525D01*
X652462Y673100D02*
X681038Y644525D01*
X1630363Y590550D02*
Y600075D01*
X1620838Y581025D02*
X1630363Y590550D01*
X1576387Y581025D02*
X1620838D01*
X1644650Y596900D02*
X1654175Y587375D01*
Y581025D02*
Y587375D01*
X1644650Y596900D02*
Y596900D01*
X1589185Y606425D02*
X1635125D01*
X1644650Y596900D01*
X1439863Y565150D02*
X1547910D01*
X1589185Y606425D01*
X1436687Y561975D02*
X1439863Y565150D01*
X1312863Y561975D02*
X1436687D01*
X1309688Y565150D02*
X1312863Y561975D01*
X1268412Y565150D02*
X1309688D01*
X1441900Y561975D02*
X1557337D01*
X1311275Y558800D02*
X1438725D01*
X1441900Y561975D01*
X1308100D02*
X1311275Y558800D01*
X1270000Y561975D02*
X1308100D01*
X1271588Y558800D02*
X1306512D01*
X1322388Y542925D02*
X1357312D01*
X1306512Y558800D02*
X1322388Y542925D01*
X1236663Y533400D02*
X1268412Y565150D01*
X1208087Y533400D02*
X1236663D01*
X1557337Y561975D02*
X1576387Y581025D01*
X1235075Y527050D02*
X1270000Y561975D01*
X1211263Y527050D02*
X1235075D01*
X1162050Y482600D02*
X1208087D01*
X1154112Y474663D02*
X1162050Y482600D01*
X1128712Y506413D02*
X1208087D01*
X1212850Y501650D01*
X1784253Y668337D02*
X1811337D01*
X1775534Y677057D02*
X1784253Y668337D01*
X1743564Y677057D02*
X1775534D01*
X1736433Y669925D02*
X1743564Y677057D01*
X1562100Y725488D02*
X1647825D01*
X1644650Y809625D02*
X1647825Y806450D01*
X1336675Y809625D02*
X1644650D01*
X1535112Y698500D02*
X1562100Y725488D01*
X1930400Y731837D02*
X1939925Y741363D01*
Y744538D01*
X1935163Y749300D02*
X1939925Y744538D01*
X1923953Y746125D02*
X1927128Y749300D01*
X1870015Y746125D02*
X1923953D01*
X1927128Y749300D02*
X1935163D01*
X1862078Y754062D02*
X1870015Y746125D01*
X1814512Y754062D02*
X1862078D01*
X1808163Y747712D02*
X1814512Y754062D01*
X1739900Y747712D02*
X1808163D01*
X1738313Y750888D02*
X1790700D01*
X1858353Y782637D02*
X1868620Y772371D01*
Y771562D02*
Y772371D01*
X1822450Y782637D02*
X1858353D01*
X1790700Y750888D02*
X1822450Y782637D01*
X1773237Y727075D02*
X1776413Y730250D01*
X1873250D01*
X1722437Y735013D02*
X1738313Y750888D01*
X1558925Y735013D02*
X1722437D01*
X1550063Y726151D02*
X1558925Y735013D01*
X1535112Y726151D02*
X1550063D01*
X1724025Y731837D02*
X1739900Y747712D01*
X1546826Y718151D02*
X1560513Y731837D01*
X1724025D01*
X1535112Y718151D02*
X1546826D01*
X1924050Y657225D02*
X1927225Y660400D01*
X1690688Y649287D02*
X1783556D01*
X1791494Y657225D01*
X1924050D01*
X1671551Y630151D02*
X1690688Y649287D01*
X1535112Y630151D02*
X1671551D01*
X1336675Y812800D02*
X1689100D01*
X1583544Y473075D02*
X1633537D01*
X1636712Y476250D01*
X1581150D02*
X1603375D01*
X1606550Y479425D01*
X1225550Y512762D02*
X1271588Y558800D01*
X1100137Y512762D02*
X1225550D01*
X1346200Y496888D02*
X1354138Y488950D01*
X1323975Y496888D02*
X1346200D01*
X1303338Y517525D02*
X1323975Y496888D01*
X1273175Y517525D02*
X1303338D01*
X1262063Y528638D02*
X1273175Y517525D01*
X1246188Y528638D02*
X1262063D01*
X1227138Y509588D02*
X1246188Y528638D01*
X1101725Y509588D02*
X1227138D01*
X950912Y346075D02*
X1014413Y409575D01*
X1136650D02*
X1141413Y404813D01*
X1014413Y409575D02*
X1136650D01*
X984250Y412750D02*
X1133475D01*
X1138238Y417513D01*
X731837Y407988D02*
X979488D01*
X984250Y412750D01*
X927100Y346075D02*
X950912D01*
X920750Y352425D02*
X927100Y346075D01*
X1154112Y452438D02*
Y474663D01*
X1133475Y431800D02*
X1154112Y452438D01*
X924022Y422275D02*
X933547Y431800D01*
X1133475D01*
X915987Y425450D02*
X919163Y422275D01*
X924022D01*
X957262Y482600D02*
X1060450D01*
X1093788Y471488D02*
X1128712Y506413D01*
X1071562Y471488D02*
X1093788D01*
X1060450Y482600D02*
X1071562Y471488D01*
X1066800Y481012D02*
X1073150D01*
X1101725Y509588D01*
X962025Y485775D02*
X1062038D01*
X1066800Y481012D01*
X1014478Y488950D02*
X1063089D01*
X1072368Y484994D02*
X1100137Y512762D01*
X1067045Y484994D02*
X1072368D01*
X1063089Y488950D02*
X1067045Y484994D01*
X1054100Y577850D02*
X1068388Y592137D01*
X1071825Y628913D02*
X1098288D01*
X1068388Y625475D02*
X1071825Y628913D01*
X990600Y577850D02*
X1054100D01*
X963613Y550863D02*
X990600Y577850D01*
X917575Y550863D02*
X963613D01*
X1000125Y555625D02*
X1016000D01*
X1020762Y550863D01*
X349250Y788988D02*
X1123950D01*
X347663Y792162D02*
X1130300D01*
X1135062Y787400D01*
X1136650Y795338D02*
X1166813Y765175D01*
X533400Y795338D02*
X1136650D01*
X581025Y808037D02*
X1146175D01*
X1158875Y795338D01*
X1160462Y788988D02*
X1169987D01*
X569912Y804863D02*
X1144587D01*
X1160462Y788988D01*
X568325Y801687D02*
X1143000D01*
X1163637Y781050D01*
X542925Y798512D02*
X1141413D01*
X1314341Y818344D02*
X1331131D01*
X1336675Y812800D01*
X1320800Y793750D02*
X1336675Y809625D01*
X1282700Y811212D02*
X1300163Y793750D01*
X1320800D01*
X1057275Y811212D02*
X1282700D01*
X1306428Y810431D02*
X1314341Y818344D01*
X1299259Y810431D02*
X1306428D01*
X1295303Y814388D02*
X1299259Y810431D01*
X1454150Y231775D02*
X1458913Y236537D01*
X1377950Y231775D02*
X1454150D01*
X1360488Y214312D02*
X1377950Y231775D01*
X1222375Y214312D02*
X1360488D01*
X1198562Y238125D02*
X1222375Y214312D01*
X1152525Y238125D02*
X1198562D01*
X1147763Y242887D02*
X1152525Y238125D01*
X1406525Y201612D02*
X1409700Y198438D01*
X1530350Y204788D02*
X1534319Y208756D01*
X1706562Y204788D02*
X1709738Y207962D01*
X1655762Y204788D02*
X1706562D01*
X1648631Y211919D02*
X1655762Y204788D01*
X1542341Y211919D02*
X1648631D01*
X1539178Y208756D02*
X1542341Y211919D01*
X1534319Y208756D02*
X1539178D01*
X920750Y204788D02*
X1530350D01*
X895350Y230187D02*
X920750Y204788D01*
X898525Y415925D02*
X930275D01*
X889000Y412750D02*
X895350D01*
X885825Y415925D02*
X889000Y412750D01*
X895350D02*
X898525Y415925D01*
X904115Y428625D02*
X913640Y419100D01*
X893763Y428625D02*
X904115D01*
X869950Y425450D02*
X890587D01*
X893763Y428625D01*
X536575Y411162D02*
X728662D01*
X731837Y407988D01*
X973138Y419100D02*
X976312Y415925D01*
X933450Y419100D02*
X973138D01*
X930275Y415925D02*
X933450Y419100D01*
X800906Y907244D02*
X823913Y884238D01*
X660351Y907244D02*
X800906D01*
X657982Y904875D02*
X660351Y907244D01*
X493713Y904875D02*
X657982D01*
X449263Y860425D02*
X493713Y904875D01*
X1063625Y814388D02*
X1295303D01*
X1055687Y822325D02*
X1063625Y814388D01*
X1055687Y822325D02*
Y901700D01*
X1046162Y822325D02*
X1057275Y811212D01*
X1046162Y822325D02*
Y895350D01*
X884405Y907244D02*
X959632D01*
X981075Y928688D02*
X1033463D01*
X959632Y907244D02*
X981075Y928688D01*
X833438Y901700D02*
X878861D01*
X884405Y907244D01*
X823913Y895350D02*
X879353D01*
X880159Y896156D02*
X953306D01*
X879353Y895350D02*
X880159Y896156D01*
X953306D02*
X964394Y907244D01*
X1034268D01*
X1046162Y895350D01*
X1033463Y928688D02*
X1055687Y906462D01*
Y901700D02*
Y906462D01*
X1781175Y615950D02*
X1892300D01*
X1778000Y619125D02*
X1781175Y615950D01*
X1895475Y619125D02*
X1903412D01*
X1892300Y615950D02*
X1895475Y619125D01*
X1768475D02*
X1774825Y612775D01*
X1898650D01*
X1873250Y730250D02*
X1885950Y742950D01*
X1930400D01*
X1641475Y230187D02*
X1670348D01*
X1674304Y226231D02*
X1688318D01*
X1670348Y230187D02*
X1674304Y226231D01*
X1688318D02*
X1692275Y230187D01*
X1633537Y222250D02*
X1641475Y230187D01*
X1398587Y222250D02*
X1633537D01*
X1560513Y719137D02*
X1673225D01*
X1535112Y693737D02*
X1560513Y719137D01*
X1481138Y271462D02*
X1492250Y282575D01*
X1703387D01*
X1630363Y325438D02*
X1674812D01*
X1619250Y339725D02*
X1625600Y346075D01*
X1563687Y339725D02*
X1619250D01*
X1560513Y342900D02*
X1563687Y339725D01*
X1636712Y346075D02*
X1639577Y343211D01*
X1625600Y346075D02*
X1636712D01*
X1271588Y820738D02*
X1293813D01*
X1304925Y831850D01*
X1344612D01*
X1347787Y828675D01*
X1267667Y824658D02*
Y854820D01*
Y824658D02*
X1271588Y820738D01*
X1283506Y851682D02*
X1350473D01*
X1203325Y879475D02*
X1457325D01*
X1164444Y840593D02*
X1203325Y879475D01*
X1204156Y932619D02*
Y987800D01*
X1190675Y1001281D02*
X1204156Y987800D01*
X1257300Y982663D02*
X1401763D01*
X1266825Y958850D02*
X1390650D01*
X1255713Y969962D02*
X1266825Y958850D01*
X1235075Y901700D02*
X1282700D01*
X1204156Y932619D02*
X1235075Y901700D01*
X1139019Y885043D02*
X1175556D01*
X1182688Y892175D01*
X1412875D01*
X1184275Y889000D02*
X1452563D01*
X1169182Y873906D02*
X1184275Y889000D01*
X1188940Y882650D02*
X1455737D01*
X1157996Y829481D02*
X1204815Y876300D01*
X1458913D01*
X1892300Y603250D02*
X1914525D01*
X1398416Y314496D02*
X1401591D01*
X1395412Y317500D02*
X1398416Y314496D01*
X1401591D02*
X1414462Y301625D01*
X1541463D01*
X1388063Y314325D02*
X1390432Y311956D01*
X1387475Y314325D02*
X1388063D01*
X1390432Y311956D02*
X1399369D01*
X1412875Y298450D01*
X1411288Y295275D02*
X1506537D01*
X1400175Y306388D02*
X1411288Y295275D01*
X1395412Y306388D02*
X1400175D01*
X1411288Y288925D02*
X1487487D01*
X1541463Y301625D02*
X1554162Y288925D01*
X1412875Y298450D02*
X1522413D01*
X1531938Y288925D01*
X1506537Y295275D02*
X1512888Y288925D01*
X1279525Y679450D02*
X1306512Y652462D01*
X1331913D01*
X1337628Y658177D01*
X1354138D01*
X1339850Y655638D02*
X1354138D01*
X1333500Y649287D02*
X1339850Y655638D01*
X1336037Y646113D02*
X1342388Y652462D01*
X1354138D01*
X1295400Y646113D02*
X1336037D01*
X1280428Y661084D02*
X1295400Y646113D01*
X1338262Y642937D02*
X1344612Y649287D01*
X1354138D01*
X1290638Y642937D02*
X1338262D01*
X1339850Y639762D02*
X1346200Y646113D01*
X1354138D01*
X1284288Y636587D02*
X1341438D01*
X1347787Y642937D01*
X1354138D01*
X1349375Y639762D02*
X1354138D01*
X1343025Y633413D02*
X1349375Y639762D01*
X1350963Y636587D02*
X1354138D01*
X1345247Y630872D02*
X1350963Y636587D01*
X1289685Y630872D02*
X1345247D01*
X1281113Y622300D02*
X1289685Y630872D01*
X1290638Y627062D02*
X1346200D01*
X1353062Y633925D02*
X1354138D01*
X1281113Y617537D02*
X1290638Y627062D01*
X1262063Y617537D02*
X1281113D01*
X1346200Y627062D02*
X1353062Y633925D01*
X1292225Y623887D02*
X1347787D01*
X1354138Y630238D01*
X1255713Y611188D02*
X1279525D01*
X1292225Y623887D01*
X1350813Y622151D02*
X1354138D01*
X1349375Y620713D02*
X1350813Y622151D01*
X1354430Y847725D02*
X1408112D01*
X1350473Y851682D02*
X1354430Y847725D01*
X1143000Y465137D02*
X1147763Y469900D01*
X1000125Y465137D02*
X1143000D01*
X1422400Y963613D02*
X1435100D01*
X1390650Y931862D02*
X1422400Y963613D01*
X1282700Y931862D02*
X1390650D01*
X1200150Y358775D02*
X1238250Y320675D01*
X1182688Y358775D02*
X1200150D01*
X1177925Y354012D02*
X1182688Y358775D01*
X1193800Y374650D02*
X1235075Y333375D01*
X1182688Y374650D02*
X1193800D01*
X1177925Y369888D02*
X1182688Y374650D01*
X1187450Y390525D02*
X1238250Y339725D01*
X1182688Y390525D02*
X1187450D01*
X1177925Y385762D02*
X1182688Y390525D01*
X1189500Y384175D02*
X1237125Y336550D01*
X1185863Y384175D02*
X1189500D01*
X1195387Y368300D02*
X1236663Y327025D01*
X1185863Y368300D02*
X1195387D01*
X1201738Y352425D02*
X1206162Y348000D01*
X1185863Y352425D02*
X1201738D01*
X1206500Y342900D02*
X1209400Y340000D01*
X1182688Y342900D02*
X1206500D01*
X1177925Y338138D02*
X1182688Y342900D01*
X1208087Y336550D02*
X1233487Y311150D01*
X1185863Y336550D02*
X1208087D01*
X1331913Y1039812D02*
Y1085850D01*
X1314450Y1022350D02*
X1331913Y1039812D01*
X1154112Y985837D02*
X1190625Y1022350D01*
X1314450D01*
X1154112Y944563D02*
Y985837D01*
X1046162Y336550D02*
X1081087D01*
X1084262Y339725D01*
X1044575D02*
X1071562D01*
X1076325Y344487D01*
X965200Y255588D02*
X1046162Y336550D01*
X911225Y255588D02*
X965200D01*
X901700Y246063D02*
X911225Y255588D01*
X779463Y284163D02*
X787400Y292100D01*
X762000Y284163D02*
X779463D01*
X755650Y290513D02*
X762000Y284163D01*
X963613Y258762D02*
X1044575Y339725D01*
X909638Y258762D02*
X963613D01*
X900113Y249237D02*
X909638Y258762D01*
X725488Y817562D02*
X728662Y814388D01*
X973138D01*
X985837Y882650D02*
X993775Y890587D01*
X974725Y811212D02*
X985837Y822325D01*
Y882650D01*
X723900Y811212D02*
X974725D01*
X982663Y823913D02*
Y890587D01*
X973138Y814388D02*
X982663Y823913D01*
Y890587D02*
X993775Y901700D01*
X715963Y819150D02*
Y862012D01*
Y819150D02*
X723900Y811212D01*
X703262Y874713D02*
X715963Y862012D01*
X688975Y874713D02*
X703262D01*
X1823943Y458694D02*
Y466725D01*
X1817594Y473075D02*
X1823943Y466725D01*
X1804987Y473075D02*
X1817594D01*
X1798638Y466725D02*
X1804987Y473075D01*
X1793875Y428625D02*
X1823943Y458694D01*
X603250Y577850D02*
X676275D01*
X615950Y593725D02*
X625475Y584200D01*
X604837Y593725D02*
X615950D01*
X550863Y588963D02*
X600075D01*
X604837Y593725D01*
X531813Y569912D02*
X550863Y588963D01*
X531813Y547687D02*
Y569912D01*
X520700Y536575D02*
X531813Y547687D01*
X658812Y854075D02*
Y868363D01*
X508000Y820738D02*
X533400Y795338D01*
X508000Y820738D02*
Y841375D01*
X522287Y819150D02*
X542925Y798512D01*
X560387Y809625D02*
X568325Y801687D01*
X563563Y811212D02*
X569912Y804863D01*
Y819150D02*
X581025Y808037D01*
X563563Y811212D02*
Y822325D01*
X569912Y828675D01*
X560387Y809625D02*
Y828675D01*
X569912Y838200D01*
X1420813Y1036637D02*
Y1042988D01*
X1408112Y1055687D02*
Y1123516D01*
Y1055687D02*
X1420813Y1042988D01*
X1354138Y1022350D02*
X1374775D01*
X1347006Y1048054D02*
X1352550Y1053598D01*
X1347006Y1029482D02*
Y1048054D01*
X1352550Y1053598D02*
Y1062038D01*
X1347006Y1029482D02*
X1354138Y1022350D01*
X1363663Y1100137D02*
X1366837Y1096963D01*
Y1079500D02*
Y1096963D01*
X1362075Y1074737D02*
X1366837Y1079500D01*
X1362075Y1052513D02*
Y1074737D01*
X1352550Y1042988D02*
X1362075Y1052513D01*
X1368425Y1071562D02*
X1371600Y1074737D01*
X1368425Y1046162D02*
Y1062038D01*
X1376362Y1079500D02*
X1384300Y1087438D01*
X1376362Y1028797D02*
Y1079500D01*
Y1028797D02*
X1384300Y1020860D01*
Y1014413D02*
Y1020860D01*
X1392238Y1098550D02*
Y1116012D01*
Y1098550D02*
X1401763Y1089025D01*
X1392238Y1011237D02*
X1401763Y1020762D01*
Y1089025D01*
X1400175Y1009650D02*
X1404937Y1014413D01*
Y1095375D01*
X1400175Y1100137D02*
X1404937Y1095375D01*
X763587Y1143000D02*
X763734Y1142853D01*
Y1064285D02*
Y1142853D01*
Y1064285D02*
X766762Y1061256D01*
X755925Y1125813D02*
Y1142725D01*
X755650Y1143000D02*
X755925Y1142725D01*
X749300Y1119187D02*
X755925Y1125813D01*
X881062Y1079500D02*
X889000Y1087438D01*
Y1139450D01*
X792162Y1068388D02*
Y1148288D01*
X833438Y1104900D02*
X839788Y1111250D01*
Y1148662D01*
X800100Y1104900D02*
Y1148700D01*
Y1104900D02*
X815975Y1089025D01*
X679070Y862393D02*
Y862393D01*
X761194Y1031094D02*
Y1082726D01*
X749300Y1042988D02*
Y1060450D01*
X868363Y982663D02*
X873125D01*
X884238Y971550D01*
Y928688D02*
Y971550D01*
X881869Y918356D02*
Y926319D01*
Y918356D02*
X887412Y912812D01*
X881869Y926319D02*
X884238Y928688D01*
X868363Y992188D02*
X887412Y973138D01*
Y920750D02*
Y973138D01*
X753257Y1064407D02*
Y1092603D01*
X749300Y1060450D02*
X753257Y1064407D01*
X749300Y1096560D02*
X753257Y1092603D01*
X749300Y1096560D02*
Y1119187D01*
X755925Y1087995D02*
X761194Y1082726D01*
X755925Y1087995D02*
Y1112838D01*
X1390650Y958850D02*
X1417637Y985837D01*
X1401763Y982663D02*
X1417637Y998538D01*
X1158538Y895350D02*
X1398587D01*
X1460500Y957262D01*
X1477962D01*
X1412875Y892175D02*
X1422400Y901700D01*
X1158538Y895350D02*
X1158538D01*
X1139825D02*
X1152862D01*
X1531938Y955675D02*
X1538288Y949325D01*
X1531938Y955675D02*
Y1091250D01*
X1535112Y965200D02*
X1543050Y957262D01*
X1535112Y965200D02*
Y1089662D01*
X1479550Y915987D02*
X1500188D01*
X1452563Y889000D02*
X1479550Y915987D01*
X1484312Y868363D02*
X1493837Y877887D01*
Y893763D01*
X1503362Y923925D02*
Y936625D01*
Y923925D02*
X1508125Y919163D01*
X1503362Y936625D02*
X1512888Y946150D01*
Y927100D02*
Y941387D01*
X1516062Y944563D01*
X1519238Y922337D02*
Y1103400D01*
X1477962Y909638D02*
X1506537D01*
X1519238Y922337D01*
X1454150Y885825D02*
X1477962Y909638D01*
X1479550Y906462D02*
X1508125D01*
X1514475Y912812D02*
X1524000D01*
X1508125Y906462D02*
X1514475Y912812D01*
X1455737Y882650D02*
X1479550Y906462D01*
X1512888Y903288D02*
X1516062Y906462D01*
X1481138Y903288D02*
X1512888D01*
X1522413Y925512D02*
X1528763Y919163D01*
X1535112Y915987D02*
Y920750D01*
X1482725Y900113D02*
X1519238D01*
X1535112Y915987D01*
X1522413Y925512D02*
Y1098575D01*
X1525587Y930275D02*
X1535112Y920750D01*
X1525587Y930275D02*
Y1093875D01*
X1466850Y868363D02*
X1484312D01*
X1462088Y873125D02*
X1466850Y868363D01*
X1512888Y946150D02*
Y1112838D01*
X1516062Y944563D02*
Y1108065D01*
X1457325Y879475D02*
X1481138Y903288D01*
X1525587Y1093875D02*
X1539875Y1108163D01*
X1458913Y876300D02*
X1482725Y900113D01*
X1133475Y901700D02*
X1139825Y895350D01*
X1528763Y944563D02*
Y1092200D01*
X1531938Y932571D02*
Y941387D01*
X1528763Y944563D02*
X1531938Y941387D01*
X1535112Y1089662D02*
X1549400Y1103950D01*
Y1123950D01*
X1552000Y1126550D01*
Y1146750D01*
X1544000Y1154750D02*
Y1158875D01*
Y1154750D02*
X1552000Y1146750D01*
X1531938Y1091250D02*
X1546225Y1105537D01*
Y1120775D01*
X1536000Y1131000D02*
X1546225Y1120775D01*
X1536000Y1131000D02*
Y1158875D01*
X1528763Y1092200D02*
X1543050Y1106488D01*
Y1119187D01*
X1528000Y1134238D02*
X1543050Y1119187D01*
X1528000Y1134238D02*
Y1158875D01*
X1539875Y1108163D02*
Y1117600D01*
X1520000Y1137475D02*
X1539875Y1117600D01*
X1520000Y1137475D02*
Y1158875D01*
X1522413Y1098575D02*
X1533500Y1109662D01*
X1519238Y1103400D02*
X1525500Y1109662D01*
X1516062Y1108065D02*
X1522500Y1114503D01*
Y1119187D01*
X1574800Y1109662D02*
Y1147763D01*
X1557337Y1165225D02*
X1574800Y1147763D01*
X1518350Y1165225D02*
X1557337D01*
X1506456Y1153331D02*
X1518350Y1165225D01*
X1506456Y1133614D02*
Y1153331D01*
X1508125Y1119187D02*
Y1131945D01*
X1506456Y1133614D02*
X1508125Y1131945D01*
X1585912Y469900D02*
X1684337D01*
X1700213Y485775D02*
X1755775D01*
X1758950Y482600D01*
X1684337Y469900D02*
X1700213Y485775D01*
X1133344Y823913D02*
X1139694Y817562D01*
X1155724Y829481D02*
X1157996D01*
X1155700Y829456D02*
X1155724Y829481D01*
X1133475Y835025D02*
X1139044Y829456D01*
X1155700D01*
X1157288Y840569D02*
X1157312Y840593D01*
X1164444D01*
X1139044Y840569D02*
X1157288D01*
X1133475Y846137D02*
X1139044Y840569D01*
X1157312Y851706D02*
X1157996D01*
X1157288Y851682D02*
X1157312Y851706D01*
X1133475Y857250D02*
X1139044Y851682D01*
X1157288D01*
X1185863Y885825D02*
X1454150D01*
X1133475Y868363D02*
X1139019Y862819D01*
X1142341Y879475D02*
X1147910Y873906D01*
X1169182D01*
X1133475Y879475D02*
X1142341D01*
X1133475Y890587D02*
X1139019Y885043D01*
X1682750Y387350D02*
X1800225D01*
X1814512Y401637D01*
X1790700Y390525D02*
X1808163Y407988D01*
X1681065Y390525D02*
X1790700D01*
X1679575Y384175D02*
X1682750Y387350D01*
X1668463Y384175D02*
X1679575D01*
X1657350Y395288D02*
X1668463Y384175D01*
X1598515Y395288D02*
X1657350D01*
X1571528Y368300D02*
X1598515Y395288D01*
X1500285Y368300D02*
X1571528D01*
X1484312Y358775D02*
X1490760D01*
X1500285Y368300D01*
X1457325Y350143D02*
X1460587Y346881D01*
X1472419D02*
X1484312Y358775D01*
X1457325Y350143D02*
Y357188D01*
X1460587Y346881D02*
X1472419D01*
X1457325Y357188D02*
X1463675Y363537D01*
X1450975Y350838D02*
Y398462D01*
X1479550Y427038D01*
X1450975Y350838D02*
X1463675Y338138D01*
X1479550Y427038D02*
X1531938D01*
X1673128Y398462D02*
X1681065Y390525D01*
X1585912Y398462D02*
X1673128D01*
X1574800Y409575D02*
X1585912Y398462D01*
X1548618Y409575D02*
X1574800D01*
X1533525Y417513D02*
X1585912Y469900D01*
X1534331Y423862D02*
X1583544Y473075D01*
X1531938Y427038D02*
X1581150Y476250D01*
X1527175Y417513D02*
X1533525D01*
X1492250Y423862D02*
X1534331D01*
X1462088Y1111250D02*
Y1147763D01*
X1458913Y1108075D02*
X1462088Y1111250D01*
X1456000Y1153850D02*
X1462088Y1147763D01*
X1456000Y1153850D02*
Y1158875D01*
X1464000Y1152525D02*
Y1158875D01*
Y1152525D02*
X1465262Y1151263D01*
Y1103313D02*
Y1151263D01*
Y1103313D02*
X1468438Y1100137D01*
Y1084262D02*
Y1100137D01*
X1458913Y1074737D02*
X1468438Y1084262D01*
X1458913Y1059938D02*
Y1074737D01*
X1462088Y1060450D02*
Y1073150D01*
X1468438Y1155312D02*
X1472000Y1158875D01*
X1468438Y1104900D02*
X1471613Y1101725D01*
X1468438Y1104900D02*
Y1155312D01*
X1471613Y1082675D02*
Y1101725D01*
X1462088Y1073150D02*
X1471613Y1082675D01*
X1477962Y1074737D02*
Y1108075D01*
X1484312Y1092212D02*
Y1110662D01*
X1481138Y1089037D02*
X1484312Y1092212D01*
X1480000Y1114975D02*
X1484312Y1110662D01*
X1480000Y1114975D02*
Y1120775D01*
X1481138Y1068388D02*
Y1089037D01*
X1492250Y1052513D02*
Y1114425D01*
Y1052513D02*
X1497012Y1047750D01*
X1452563Y1065212D02*
Y1103313D01*
X1493837Y1116012D02*
Y1127125D01*
X1492250Y1114425D02*
X1493837Y1116012D01*
X1488000Y1132962D02*
Y1158875D01*
Y1132962D02*
X1493837Y1127125D01*
X1501775Y1155994D02*
X1504000Y1158219D01*
X1501775Y1106488D02*
Y1155994D01*
X1504000Y1158219D02*
Y1158875D01*
X1465262Y1036637D02*
Y1057275D01*
Y1036637D02*
X1477962Y1023938D01*
X1462088Y1060450D02*
X1465262Y1057275D01*
X1457325D02*
Y1058351D01*
X1458913Y1059938D01*
X1471613Y1068388D02*
X1477962Y1074737D01*
X1423987Y1020762D02*
Y1027113D01*
Y1020762D02*
X1430338Y1014413D01*
X1436687D01*
X1441450Y1019175D01*
Y1036637D01*
X1432000Y1046087D02*
X1441450Y1036637D01*
X1432000Y1046087D02*
Y1120775D01*
X1423994Y1071569D02*
Y1120769D01*
X1424000Y1120775D01*
X1423987Y1071562D02*
X1423994Y1071569D01*
X1438275Y1025525D02*
Y1035050D01*
X1433513Y1020762D02*
X1438275Y1025525D01*
X1414462Y1058863D02*
X1438275Y1035050D01*
X1414462Y1058863D02*
Y1120775D01*
X1422400Y1128712D01*
Y1141275D01*
X1440000Y1158875D01*
X1419225Y1130925D02*
Y1146100D01*
X1411127Y1057436D02*
X1431925Y1036637D01*
Y1030287D02*
Y1036637D01*
X1411127Y1057436D02*
Y1122827D01*
X1419225Y1130925D01*
X1416050Y1131454D02*
Y1150925D01*
X1408112Y1123516D02*
X1416050Y1131454D01*
X1419225Y1146100D02*
X1432000Y1158875D01*
X1416050Y1150925D02*
X1424000Y1158875D01*
X1488000Y1005963D02*
X1490663Y1003301D01*
Y1003300D02*
Y1003301D01*
X1488000Y1005963D02*
Y1120775D01*
X1595437Y706438D02*
X1601788Y712787D01*
X1585912Y709613D02*
X1589088Y706438D01*
X1595437D01*
X1535112Y684212D02*
X1560513Y709613D01*
X1585912D01*
X1600200Y703262D02*
X1609725Y712787D01*
X1587500Y703262D02*
X1600200D01*
X1562100Y706438D02*
X1584325D01*
X1587500Y703262D01*
X1535112Y679450D02*
X1562100Y706438D01*
X710465Y1101678D02*
X715963Y1096181D01*
X710465Y1101678D02*
Y1147065D01*
X715963Y1087438D02*
X726425Y1097900D01*
Y1112140D01*
X979488Y992188D02*
Y1004887D01*
X1008063Y996950D02*
X1012019Y1000907D01*
X963613Y971550D02*
Y1016000D01*
X1017588Y1003300D02*
Y1073537D01*
X738187Y1063625D02*
Y1069975D01*
X744538Y1076325D01*
Y1136650D01*
X738187Y1085850D02*
Y1133475D01*
X887412Y998538D02*
Y1071562D01*
X812800Y1025525D02*
X815975Y1028700D01*
Y1089025D01*
X801687Y1052513D02*
Y1096963D01*
X833438Y1040619D02*
Y1104900D01*
X860425Y1040619D02*
Y1076325D01*
X787400Y1063625D02*
X792162Y1068388D01*
X715963Y1081087D02*
Y1087438D01*
X700088Y1084037D02*
X703037Y1081087D01*
X700088Y1084037D02*
Y1092200D01*
X771925Y1096181D02*
Y1152525D01*
X923925Y376237D02*
X927100Y373063D01*
X914400Y376237D02*
X923925D01*
X942975Y355600D02*
Y368300D01*
X938213Y373063D02*
X942975Y368300D01*
X927100Y373063D02*
X938213D01*
X908050Y369888D02*
X914400Y376237D01*
X869950Y369888D02*
X908050D01*
X503237Y358775D02*
X541338D01*
X484188D02*
X503237D01*
X476250Y350838D02*
X484188Y358775D01*
X442167Y353206D02*
X444536Y350838D01*
X476250D01*
X419882Y353206D02*
X442167D01*
X404813Y338138D02*
X419882Y353206D01*
X1684337Y547687D02*
Y554038D01*
X1790700Y541338D02*
X1808163Y558800D01*
X1690688Y541338D02*
X1790700D01*
X1690688Y525462D02*
Y541338D01*
X1684337Y547687D02*
X1690688Y541338D01*
X1684337Y519113D02*
X1690688Y525462D01*
X1336675Y536575D02*
X1354138Y519113D01*
X1323034Y537381D02*
X1323840Y536575D01*
X1310493Y537381D02*
X1323034D01*
X1300163Y527050D02*
X1310493Y537381D01*
X1323840Y536575D02*
X1336675D01*
X1282700Y527050D02*
X1300163D01*
X862012Y446087D02*
X926636D01*
X934009Y453461D02*
Y499034D01*
X926636Y446087D02*
X934009Y453461D01*
Y499034D02*
X947738Y512762D01*
X1062011Y498501D02*
Y503166D01*
X1052415Y512762D02*
X1062011Y503166D01*
Y498501D02*
X1069975Y490537D01*
X947738Y512762D02*
X1052415D01*
X996903Y506525D02*
X1014478Y488950D01*
X792162Y449263D02*
X827087D01*
X787400Y454025D02*
X792162Y449263D01*
X749300Y454025D02*
X787400D01*
X827087Y449263D02*
X839788Y461963D01*
X901700Y488950D02*
X914400Y501650D01*
Y539750D02*
X922290Y547640D01*
X914400Y501650D02*
Y539750D01*
X852487Y455612D02*
X862012Y446087D01*
X852487Y455612D02*
Y461963D01*
X965153Y547640D02*
X979488Y561975D01*
X922290Y547640D02*
X965153D01*
X890587Y488950D02*
X901700D01*
X979488Y561975D02*
X1069975D01*
X863600Y461963D02*
X890587Y488950D01*
X863600Y455612D02*
Y461963D01*
X488853Y427038D02*
X501650D01*
X509588Y419100D02*
X515938D01*
X501650Y427038D02*
X509588Y419100D01*
X485678Y423862D02*
X488853Y427038D01*
X468312Y431800D02*
X482600Y446087D01*
X523875D02*
X534987Y434975D01*
X482600Y446087D02*
X523875D01*
X1604962Y700088D02*
X1617663Y712787D01*
X1585912Y700088D02*
X1604962D01*
X1582737Y703262D02*
X1585912Y700088D01*
X1535112Y674688D02*
X1563687Y703262D01*
X1582737D01*
X1535112Y688412D02*
X1559487Y712787D01*
X1592263D01*
X1677031Y557844D02*
X1682750Y563563D01*
X1684337Y527050D02*
Y539332D01*
X1682750Y563563D02*
X1698625D01*
X1763712Y558800D02*
X1763788Y558875D01*
X1698625Y563563D02*
X1703313Y558875D01*
X1763788D01*
X1677031Y546638D02*
X1684337Y539332D01*
X1677031Y546638D02*
Y557844D01*
X1725612Y619125D02*
X1728788Y615950D01*
X1681163Y619125D02*
X1725612D01*
X1697038Y625475D02*
X1728788D01*
X1697038Y633413D02*
X1728788D01*
X1697038Y641350D02*
X1728788D01*
X336550Y776288D02*
X349250Y788988D01*
X228600Y776288D02*
X336550D01*
X1479550Y344487D02*
X1506537D01*
X1509713Y341312D01*
X1474006Y405619D02*
X1492250Y423862D01*
X1474006Y362756D02*
Y405619D01*
X1463675Y352425D02*
X1474006Y362756D01*
X1676400Y420687D02*
X1736725D01*
X1744662Y428625D02*
X1793875D01*
X1736725Y420687D02*
X1744662Y428625D01*
X1735137Y423862D02*
X1743075Y431800D01*
X1677988Y423862D02*
X1735137D01*
X1743075Y431800D02*
X1791667D01*
X1665287D02*
X1676400Y420687D01*
X1558925Y431800D02*
X1665287D01*
X1516062Y388937D02*
X1558925Y431800D01*
X1484312Y388937D02*
X1516062D01*
X1479550Y384175D02*
X1484312Y388937D01*
X1808163Y448296D02*
Y461963D01*
X1791667Y431800D02*
X1808163Y448296D01*
X1666875Y434975D02*
X1677988Y423862D01*
X1557337Y434975D02*
X1666875D01*
X1514475Y392113D02*
X1557337Y434975D01*
X1479550Y392113D02*
X1514475D01*
X1321582Y486581D02*
Y494421D01*
X1244600Y514350D02*
X1301653D01*
X1321582Y494421D01*
Y486581D02*
X1327150Y481012D01*
X1331913D01*
X1335087Y484188D01*
X611188Y490537D02*
X668337D01*
X598488Y477837D02*
X611188Y490537D01*
X454025Y477837D02*
X598488D01*
X438150Y461963D02*
X454025Y477837D01*
X625475Y447675D02*
X677862D01*
X684212Y454025D01*
X543755Y457200D02*
X615950D01*
X625475Y447675D01*
X536624Y450069D02*
X543755Y457200D01*
X489829Y450069D02*
X536624D01*
X484285Y455612D02*
X489829Y450069D01*
X461963Y455612D02*
X484285D01*
X385762Y195263D02*
X392113Y201612D01*
X344487Y195263D02*
X385762D01*
X338138Y201612D02*
X344487Y195263D01*
X465137Y278355D02*
Y295275D01*
Y278355D02*
X471223Y272270D01*
X482600Y268288D02*
X493859Y257029D01*
X482600Y268288D02*
Y295275D01*
X490537D02*
X504825D01*
X893661D02*
X904875D01*
X471488Y301625D02*
X506413D01*
X478892Y251949D02*
X526586D01*
X465137Y295275D02*
X471488Y301625D01*
X452438Y278403D02*
Y295275D01*
Y278403D02*
X478892Y251949D01*
X493859Y257029D02*
X524482D01*
X481012Y330200D02*
X495300D01*
X920750Y352425D02*
Y358775D01*
X912812Y366712D02*
X920750Y358775D01*
X871537Y366712D02*
X912812D01*
X520700Y355600D02*
X539750D01*
X495300Y330200D02*
X520700Y355600D01*
X338138Y782637D02*
X347663Y792162D01*
X325438Y782637D02*
X338138D01*
X377825Y490537D02*
X385762Y498475D01*
X463550D01*
X488950Y649287D02*
Y657225D01*
X439738Y660400D02*
X485775D01*
X488950Y657225D01*
X295251Y393700D02*
X523875D01*
X291814Y390262D02*
X295251Y393700D01*
X523875D02*
X538162Y407988D01*
X727075D01*
X531813Y411162D02*
X536575Y415925D01*
X488950Y411162D02*
X531813D01*
X485775Y414338D02*
X488950Y411162D01*
X395288Y407988D02*
X533400D01*
X388937Y401637D02*
X395288Y407988D01*
X533400D02*
X536575Y411162D01*
X727075Y407988D02*
X733425Y401637D01*
X463550Y379412D02*
X490537D01*
X450850D02*
X457200Y385762D01*
X493713D01*
X500062Y379412D01*
X438150D02*
X449263Y390525D01*
X498475D01*
X509588Y379412D01*
X976312Y415925D02*
X1014469D01*
X1014413Y415982D02*
X1014469Y415925D01*
X1095375D01*
X913640Y419100D02*
X928688D01*
X852743Y508000D02*
X854331Y506413D01*
X863600D01*
X844550Y508000D02*
X852743D01*
X844550Y515938D02*
X863600D01*
X871537Y439738D02*
X873125Y438150D01*
X846137Y439738D02*
X871537D01*
X792162D02*
X800100Y431800D01*
X860425D01*
X617407Y415925D02*
X695325D01*
X536575D02*
X617407D01*
X617537Y416056D01*
Y438150D01*
X695325Y415925D02*
X696913Y417513D01*
Y422275D01*
X515938Y419100D02*
X522287Y425450D01*
X533400D01*
X468410Y423862D02*
X485678D01*
X460375Y427038D02*
X465235D01*
X468410Y423862D01*
X533400Y633413D02*
X650875D01*
X654362Y636900D01*
X528638Y628650D02*
X533400Y633413D01*
X584200Y463550D02*
X711200D01*
X730250Y482600D01*
X508000Y871537D02*
X546100D01*
X552450Y865188D01*
X566738D01*
X569912Y868363D01*
X554038Y882650D02*
X563563Y873125D01*
X1138238Y198438D02*
X1150938Y185737D01*
X923925Y192087D02*
X930275Y185737D01*
X1031875Y195263D02*
X1041400Y185737D01*
X381000Y185737D02*
X393700Y198438D01*
X381000Y185737D02*
Y185737D01*
X488950Y192087D02*
X492129Y195266D01*
X598488Y188913D02*
X601662Y192087D01*
X711200Y185737D02*
X714375Y188913D01*
X1095375Y415925D02*
X1101725Y422275D01*
X1031875Y454025D02*
X1069975D01*
X989013Y476250D02*
X1000125Y465137D01*
X922337Y536575D02*
X981075D01*
X1000125Y555625D01*
X1044575Y601662D02*
X1050925Y595312D01*
X944563Y601662D02*
X1044575D01*
X630238Y454025D02*
X668337D01*
X542925Y601662D02*
X642937D01*
X649287Y595312D01*
X387350Y663575D02*
X396875Y673100D01*
X442912Y515938D02*
X463550D01*
X433387Y525462D02*
X442912Y515938D01*
X409575Y525462D02*
X433387D01*
X404813Y520700D02*
X409575Y525462D01*
X387350Y520700D02*
X404813D01*
X379412Y512762D02*
X387350Y520700D01*
X390525Y512762D02*
X396875Y506413D01*
X441325D02*
X442912Y508000D01*
X396875Y506413D02*
X441325D01*
X442912Y508000D02*
X463550D01*
X792162Y512762D02*
X798512Y506413D01*
X842962D01*
X844550Y508000D01*
X781050Y512762D02*
X788988Y520700D01*
X806450D01*
X811212Y525462D01*
X835025D01*
X844550Y515938D01*
X873125Y438150D02*
X936524D01*
X928688Y419100D02*
X935038Y425450D01*
X524681Y620713D02*
X688450D01*
X696650Y628913D01*
X720725Y587375D02*
X723900Y590550D01*
X685800Y587375D02*
X720725D01*
X676275Y577850D02*
X685800Y587375D01*
X596900Y571500D02*
X603250Y577850D01*
X542925Y571500D02*
X596900D01*
X1344612Y336550D02*
X1347787Y333375D01*
X1230150Y223838D02*
X1281113D01*
X1284288Y227013D01*
X1169987Y300000D02*
X1236625Y233363D01*
X1273175D01*
X1169987Y284000D02*
X1230150Y223838D01*
X1169987Y276000D02*
X1225325Y220662D01*
X1169987Y308000D02*
X1238275Y239713D01*
X1265238D01*
X1287974Y250825D02*
X1289562Y252412D01*
X1169987Y324000D02*
X1243163Y250825D01*
X1289562Y252412D02*
X1290638D01*
X1243163Y250825D02*
X1287974D01*
X1262063Y260350D02*
X1265238Y257175D01*
X1284288D01*
X1300641D02*
X1322388D01*
X1262063Y266700D02*
X1265238Y263525D01*
X1294291D02*
X1300641Y257175D01*
X1265238Y263525D02*
X1294291D01*
X1254125Y260350D02*
X1262063D01*
X1247775Y266700D02*
X1262063D01*
X1300163Y268288D02*
X1303338Y265112D01*
X1265238Y268288D02*
X1300163D01*
X1254125Y273050D02*
X1260475D01*
X1265238Y268288D01*
X1247775Y279400D02*
X1263650D01*
X1268412Y274638D01*
Y285750D02*
X1271588Y282575D01*
X1254125Y285750D02*
X1268412D01*
X1247775Y292000D02*
X1288306D01*
X1291381Y288925D02*
X1331913D01*
X1288306Y292000D02*
X1291381Y288925D01*
X1254125Y298450D02*
X1285875D01*
X1290638Y293687D01*
X1247775Y304800D02*
X1270000D01*
X1236663Y327025D02*
X1323975D01*
X1235075Y333375D02*
X1336675D01*
X1237125Y336550D02*
X1344612D01*
X1238250Y339725D02*
X1358900D01*
X1186738Y396000D02*
X1236663Y346075D01*
X1343025D01*
X1184212Y404000D02*
X1235788Y352425D01*
X1355725D01*
X1181850Y412000D02*
X1238250Y355600D01*
X1338262D02*
X1341438Y358775D01*
X1238250Y355600D02*
X1338262D01*
X1249362Y365125D02*
X1281113D01*
X1284288Y361950D01*
X1255648Y371475D02*
X1298575D01*
X1249362Y377825D02*
X1311275D01*
X1255648Y384175D02*
X1323975D01*
X1327150Y381000D01*
X1371600Y396875D02*
X1374775Y393700D01*
X1255648Y396875D02*
X1371600D01*
X1336675Y390525D02*
X1346200Y381000D01*
X1249362Y390525D02*
X1336675D01*
X1249362Y403225D02*
X1377950D01*
X1384300Y396875D01*
X1392238D01*
X1383591Y404813D02*
X1420813D01*
X1378828Y409575D02*
X1383591Y404813D01*
X1255713Y409575D02*
X1378828D01*
X1249362Y415925D02*
X1382713D01*
X1385887Y412750D01*
X1398587Y422275D02*
X1404937Y415925D01*
X1255648Y422275D02*
X1398587D01*
X1249362Y428625D02*
X1425575D01*
X1430338Y423862D01*
X1303338Y296863D02*
X1322388D01*
X1300163Y293687D02*
X1303338Y296863D01*
X1290638Y293687D02*
X1300163D01*
X1490663Y438150D02*
X1514475D01*
X1522413Y430213D02*
X1527175D01*
X1514475Y438150D02*
X1522413Y430213D01*
X1487487Y441325D02*
X1490663Y438150D01*
X1527175Y430213D02*
X1535112Y438150D01*
X1506537Y471488D02*
X1513767D01*
X1519238Y466017D01*
Y452438D02*
X1525587Y446087D01*
X1519238Y452438D02*
Y466017D01*
X1525587Y436562D02*
Y446087D01*
X1504950Y474663D02*
X1519238D01*
X1525587Y468312D01*
Y455612D02*
Y468312D01*
X1175312Y441325D02*
X1487487D01*
X1447800Y438150D02*
X1450975Y434975D01*
X1180137Y438150D02*
X1447800D01*
X1170488Y444500D02*
X1489075D01*
X1501775Y442912D02*
X1519238D01*
X1492250Y441325D02*
X1500188D01*
X1501775Y442912D01*
X1489075Y444500D02*
X1492250Y441325D01*
X1174313Y447675D02*
X1495425D01*
X1312863Y460375D02*
X1481138D01*
X1484312Y457200D01*
X1316037Y466725D02*
X1501775D01*
X1506537Y471488D01*
X1317625Y469900D02*
X1500188D01*
X1504950Y474663D01*
X1492250Y476250D02*
X1498600D01*
X1489075Y473075D02*
X1492250Y476250D01*
X1319212Y473075D02*
X1489075D01*
X1487487Y476250D02*
X1500188Y488950D01*
X1320800Y476250D02*
X1487487D01*
X1314450Y463550D02*
X1511300D01*
X1184962Y434975D02*
X1436687D01*
X1441450Y430213D01*
X1169987Y436000D02*
X1175312Y441325D01*
X1169987Y420000D02*
X1184962Y434975D01*
X1169987Y452000D02*
X1174313Y447675D01*
X1169987Y428000D02*
X1180137Y438150D01*
X1169987Y444000D02*
X1170488Y444500D01*
X1304925Y485775D02*
X1311275D01*
X1320800Y476250D01*
X1309688Y482600D02*
X1319212Y473075D01*
X1303338Y482600D02*
X1309688D01*
X1301750Y479425D02*
X1308100D01*
X1317625Y469900D01*
X1306512Y476250D02*
X1316037Y466725D01*
X1263650Y476250D02*
X1306512D01*
X1270000Y473075D02*
X1304925D01*
X1314450Y463550D01*
X1274762Y469900D02*
X1303338D01*
X1312863Y460375D01*
X1462088Y450850D02*
X1465262Y454025D01*
X1179137Y450850D02*
X1462088D01*
X1188788Y457200D02*
X1266231D01*
X1275756Y466725D02*
X1295400D01*
X1298575Y463550D01*
X1266231Y457200D02*
X1275756Y466725D01*
X1268412Y463550D02*
X1274762Y469900D01*
X1263650Y463550D02*
X1268412D01*
X1257300Y469900D02*
X1266825D01*
X1270000Y473075D01*
X1298575Y482600D02*
X1301750Y479425D01*
X1257300Y482600D02*
X1298575D01*
X1263650Y488950D02*
X1296987D01*
X1303338Y482600D01*
X1295400Y495300D02*
X1304925Y485775D01*
X1257300Y495300D02*
X1295400D01*
X1298575Y501650D02*
X1303338Y496888D01*
X1263650Y501650D02*
X1298575D01*
X1300163Y508000D02*
X1316037Y492125D01*
X1257300Y508000D02*
X1300163D01*
X1183962Y454025D02*
X1271588D01*
X1276350Y458787D01*
X1341438Y358775D02*
X1365250D01*
X1368425Y355600D01*
X1336675Y333375D02*
X1339850Y330200D01*
X1273175Y301625D02*
X1293813D01*
X1270000Y304800D02*
X1273175Y301625D01*
X1296987Y317500D02*
X1300163Y314325D01*
X1237833Y317500D02*
X1296987D01*
X1237198Y318135D02*
X1237833Y317500D01*
X1289050Y314325D02*
X1293813Y309562D01*
X1236245Y314325D02*
X1289050D01*
X1206162Y348000D02*
X1237198Y318135D01*
X1235610Y314960D02*
X1236245Y314325D01*
X1209400Y340000D02*
X1235610Y314960D01*
X1274762Y311150D02*
X1277937Y307975D01*
X1233487Y311150D02*
X1274762D01*
X1169987Y468000D02*
X1183962Y454025D01*
X1169987Y396000D02*
X1186738D01*
X1169987Y404000D02*
X1184212D01*
X1169987Y412000D02*
X1181850D01*
X1169987Y476000D02*
X1188788Y457200D01*
X1169987Y460000D02*
X1179137Y450850D01*
X950912Y488950D02*
X957262Y482600D01*
X949325Y498475D02*
X962025Y485775D01*
X947738Y498475D02*
X949325D01*
X1123688Y628913D02*
X1130300Y622300D01*
Y615950D02*
Y622300D01*
X1125537Y611188D02*
X1130300Y615950D01*
X968375Y611188D02*
X1125537Y611188D01*
D225*
X223500Y25000D02*
D03*
X176500D02*
D03*
X1520000D02*
D03*
X1380000D02*
D03*
X1270000D02*
D03*
X380000D02*
D03*
X490000D02*
D03*
X600000D02*
D03*
X710000D02*
D03*
X820000D02*
D03*
X930000D02*
D03*
X1040000D02*
D03*
X1150000D02*
D03*
X1660000D02*
D03*
X1820000D02*
D03*
D229*
X444100Y328212D02*
X444500Y328613D01*
D230*
X1354138Y728662D02*
X1386025D01*
X1393963Y736600D01*
X1476851Y725699D02*
Y731036D01*
X1471287Y736600D02*
X1476851Y731036D01*
Y725699D02*
X1480625Y721925D01*
X1393963Y736600D02*
X1471287D01*
X1500437Y693737D02*
X1530350D01*
X1535112Y698500D01*
X1496625Y689925D02*
X1500437Y693737D01*
X1488625Y729925D02*
X1492399Y726151D01*
X1535112D01*
X1460399Y718151D02*
X1535112D01*
X1456625Y721925D02*
X1460399Y718151D01*
X1496625Y633925D02*
X1500399Y630151D01*
X1535112D01*
X1531300Y689925D02*
X1535112Y693737D01*
X1504625Y689925D02*
X1531300D01*
X1412851Y701699D02*
Y710151D01*
X1412875Y687387D02*
Y701675D01*
X1355090Y658177D02*
X1382713Y685800D01*
X1412851Y710151D02*
X1416625Y713925D01*
X1382713Y685800D02*
X1411288D01*
X1412851Y701699D02*
X1412875Y701675D01*
X1354138Y658177D02*
X1355090D01*
X1411288Y685800D02*
X1412875Y687387D01*
X1417637Y677862D02*
X1420813Y681038D01*
Y710113D02*
X1424625Y713925D01*
X1420813Y681038D02*
Y710113D01*
X1382713Y677862D02*
X1417637D01*
X1360488Y655638D02*
X1382713Y677862D01*
X1354138Y655638D02*
X1360488D01*
X1428750Y669925D02*
Y710050D01*
X1354138Y652462D02*
X1365250D01*
X1428750Y710050D02*
X1432625Y713925D01*
X1427162Y668337D02*
X1428750Y669925D01*
X1365250Y652462D02*
X1381125Y668337D01*
X1427162D01*
X1436687Y709987D02*
X1440625Y713925D01*
X1434655Y665163D02*
X1436687Y667195D01*
Y709987D01*
X1354138Y649287D02*
X1366837D01*
X1382713Y665163D02*
X1434655D01*
X1366837Y649287D02*
X1382713Y665163D01*
X1444625D02*
Y701925D01*
X1354138Y646113D02*
X1366837D01*
X1441450Y661988D02*
X1444625Y665163D01*
X1366837Y646113D02*
X1382713Y661988D01*
X1444625Y701925D02*
X1456625Y713925D01*
X1382713Y661988D02*
X1441450D01*
X1382713Y654050D02*
X1396750D01*
X1400625Y657925D01*
X1371600Y642937D02*
X1382713Y654050D01*
X1354138Y642937D02*
X1371600D01*
X1380712Y645699D02*
X1396399D01*
X1354138Y639762D02*
X1374775D01*
X1396399Y645699D02*
X1400625Y649925D01*
X1374775Y639762D02*
X1380712Y645699D01*
X1395287Y636587D02*
X1400625Y641925D01*
X1354138Y636587D02*
X1395287D01*
X1354138Y633925D02*
X1400625D01*
X1396313Y630238D02*
X1400625Y625925D01*
X1354138Y630238D02*
X1396313D01*
X1354138Y622151D02*
X1404851D01*
X1408625Y625925D01*
X1509713Y658812D02*
X1535112Y684212D01*
X1509713Y655013D02*
Y658812D01*
X1504625Y649925D02*
X1509713Y655013D01*
X1512888Y657225D02*
X1535112Y679450D01*
X1512888Y650188D02*
Y657225D01*
X1504625Y641925D02*
X1512888Y650188D01*
X1516062Y655638D02*
X1535112Y674688D01*
X1516062Y645362D02*
Y655638D01*
X1504625Y633925D02*
X1516062Y645362D01*
X1504625Y657925D02*
X1535112Y688412D01*
D232*
X1764300Y1118750D02*
D03*
D233*
X1835700Y1100950D02*
D03*
X1774500D02*
D03*
X1825500Y1118750D02*
D03*
X1784700D02*
D03*
X1815300Y1100950D02*
D03*
X1794900D02*
D03*
X1805100Y1118750D02*
D03*
X1868600Y1052750D02*
D03*
X1731400D02*
D03*
X1845700D02*
D03*
X1754300D02*
D03*
D234*
X1736500Y1144150D02*
D03*
X1863500D02*
D03*
D235*
X1718750Y1109850D02*
D03*
X1881250D02*
D03*
D236*
X1200000Y834300D02*
D03*
D237*
Y720000D02*
D03*
Y745400D02*
D03*
Y770800D02*
D03*
Y694600D02*
D03*
Y669200D02*
D03*
D238*
X1174000Y1135000D02*
D03*
X666000D02*
D03*
X1165000Y226000D02*
D03*
Y494000D02*
D03*
X1406000Y1135000D02*
D03*
X1594000D02*
D03*
D239*
X244960Y68180D02*
D03*
X214990D02*
D03*
X185010D02*
D03*
X155040D02*
D03*
Y98150D02*
D03*
X185010D02*
D03*
X214990D02*
D03*
X244960D02*
D03*
X1549840D02*
D03*
X1520000D02*
D03*
X1490160D02*
D03*
Y68180D02*
D03*
X1520000D02*
D03*
X1549840D02*
D03*
X1394990D02*
D03*
X1365010D02*
D03*
Y98150D02*
D03*
X1394990D02*
D03*
X1270000D02*
D03*
Y68180D02*
D03*
X394990D02*
D03*
X365010D02*
D03*
Y98150D02*
D03*
X394990D02*
D03*
X504990Y68180D02*
D03*
X475010D02*
D03*
Y98150D02*
D03*
X504990D02*
D03*
X614990Y68180D02*
D03*
X585010D02*
D03*
Y98150D02*
D03*
X614990D02*
D03*
X724990Y68180D02*
D03*
X695010D02*
D03*
Y98150D02*
D03*
X724990D02*
D03*
X834990Y68180D02*
D03*
X805010D02*
D03*
Y98150D02*
D03*
X834990D02*
D03*
X944990Y68180D02*
D03*
X915010D02*
D03*
Y98150D02*
D03*
X944990D02*
D03*
X1054990Y68180D02*
D03*
X1025010D02*
D03*
Y98150D02*
D03*
X1054990D02*
D03*
X1164990Y68180D02*
D03*
X1135010D02*
D03*
Y98150D02*
D03*
X1164990D02*
D03*
X1674990Y68180D02*
D03*
X1645010D02*
D03*
Y98150D02*
D03*
X1674990D02*
D03*
X1834990Y68180D02*
D03*
X1805010D02*
D03*
Y98150D02*
D03*
X1834990D02*
D03*
D240*
X377650Y1058863D02*
D03*
D241*
X582650D02*
D03*
D242*
X1950000Y1150000D02*
D03*
Y50000D02*
D03*
X50000D02*
D03*
Y1150000D02*
D03*
X1350000D02*
D03*
Y150000D02*
D03*
X1250000D02*
D03*
Y1150000D02*
D03*
D243*
X1476487Y186588D02*
D03*
Y197588D02*
D03*
X1487487Y186588D02*
D03*
Y197588D02*
D03*
X1498488Y186588D02*
D03*
Y197588D02*
D03*
X531575Y865900D02*
D03*
X541575D02*
D03*
X531575Y855900D02*
D03*
X541575D02*
D03*
X531575Y845900D02*
D03*
X541575D02*
D03*
X531575Y835900D02*
D03*
X541575D02*
D03*
X1220700Y994512D02*
D03*
Y983512D02*
D03*
X1209700Y994512D02*
D03*
Y983512D02*
D03*
X939575Y318237D02*
D03*
Y307237D02*
D03*
X928575Y318237D02*
D03*
Y307237D02*
D03*
X917575Y318237D02*
D03*
Y307237D02*
D03*
X906575Y318237D02*
D03*
Y307237D02*
D03*
X895575Y318237D02*
D03*
Y307237D02*
D03*
X907175Y538875D02*
D03*
X897175D02*
D03*
X887175D02*
D03*
X877175D02*
D03*
Y508875D02*
D03*
X887175D02*
D03*
X897175D02*
D03*
X907175D02*
D03*
Y518875D02*
D03*
X897175D02*
D03*
X887175D02*
D03*
X877175D02*
D03*
Y528875D02*
D03*
X887175D02*
D03*
X897175D02*
D03*
X907175D02*
D03*
X1641362Y416662D02*
D03*
Y405662D02*
D03*
X1630363Y416662D02*
D03*
Y405662D02*
D03*
X1619362Y416662D02*
D03*
Y405662D02*
D03*
X207738Y715850D02*
D03*
Y704850D02*
D03*
Y693850D02*
D03*
X196737Y715850D02*
D03*
Y704850D02*
D03*
Y693850D02*
D03*
X185737Y715850D02*
D03*
Y704850D02*
D03*
Y693850D02*
D03*
X174737Y715850D02*
D03*
Y704850D02*
D03*
Y693850D02*
D03*
X163738Y715850D02*
D03*
Y704850D02*
D03*
Y693850D02*
D03*
X1861087Y772063D02*
D03*
Y760912D02*
D03*
Y747213D02*
D03*
Y736062D02*
D03*
X1849937Y772063D02*
D03*
Y760912D02*
D03*
Y747213D02*
D03*
Y736062D02*
D03*
X1836237Y772063D02*
D03*
Y760912D02*
D03*
Y747213D02*
D03*
Y736062D02*
D03*
X1825087Y772063D02*
D03*
Y760912D02*
D03*
Y747213D02*
D03*
Y736062D02*
D03*
X505537Y538875D02*
D03*
X495537D02*
D03*
X485537D02*
D03*
X475537D02*
D03*
Y508875D02*
D03*
X485537D02*
D03*
X495537D02*
D03*
X505537D02*
D03*
Y518875D02*
D03*
X495537D02*
D03*
X485537D02*
D03*
X475537D02*
D03*
Y528875D02*
D03*
X485537D02*
D03*
X495537D02*
D03*
X505537D02*
D03*
X499837Y318237D02*
D03*
Y307237D02*
D03*
X488838Y318237D02*
D03*
Y307237D02*
D03*
X477837Y318237D02*
D03*
Y307237D02*
D03*
X466838Y318237D02*
D03*
Y307237D02*
D03*
X455838Y318237D02*
D03*
Y307237D02*
D03*
X760413Y401637D02*
D03*
X1287462Y280987D02*
D03*
X1343806Y292100D02*
D03*
X1393825Y214312D02*
D03*
X1368425Y311150D02*
D03*
X1298575Y196068D02*
D03*
X1322388Y223838D02*
D03*
Y236537D02*
D03*
Y249237D02*
D03*
X1330325Y276225D02*
D03*
X1303531Y321062D02*
D03*
X1319212Y320675D02*
D03*
X1382713Y298450D02*
D03*
X1301701Y239761D02*
D03*
X1290638Y220662D02*
D03*
X1292225Y234950D02*
D03*
X1395412Y298450D02*
D03*
X1402072Y276225D02*
D03*
X1409700Y265112D02*
D03*
X1411288Y342900D02*
D03*
X592137Y847725D02*
D03*
X606425Y889000D02*
D03*
X568325Y847725D02*
D03*
X562301Y853379D02*
D03*
X1894840Y1163320D02*
D03*
X1902460Y1148080D02*
D03*
X1894840Y1132840D02*
D03*
X1902460Y1117600D02*
D03*
X1879600Y1163320D02*
D03*
X1887220Y1148080D02*
D03*
X1871980Y1178560D02*
D03*
X1864360Y1102360D02*
D03*
X1856740Y1178560D02*
D03*
X1849120Y1163320D02*
D03*
X1856740Y1117600D02*
D03*
X1849120Y1102360D02*
D03*
X1841500Y1178560D02*
D03*
X1833880Y1163320D02*
D03*
X1841500Y1148080D02*
D03*
X1833880Y1132840D02*
D03*
X1841500Y1117600D02*
D03*
X1826260Y1178560D02*
D03*
X1818640Y1163320D02*
D03*
X1826260Y1148080D02*
D03*
X1818640Y1132840D02*
D03*
X1811020Y1178560D02*
D03*
X1803400Y1163320D02*
D03*
X1811020Y1148080D02*
D03*
X1803400Y1132840D02*
D03*
X1795780Y1178560D02*
D03*
X1788160Y1163320D02*
D03*
X1795780Y1148080D02*
D03*
X1788160Y1132840D02*
D03*
X1780540Y1178560D02*
D03*
X1772920Y1163320D02*
D03*
X1780540Y1148080D02*
D03*
X1772920Y1132840D02*
D03*
X1765300Y1178560D02*
D03*
X1757680Y1163320D02*
D03*
X1765300Y1148080D02*
D03*
X1757680Y1132840D02*
D03*
X1750060Y1178560D02*
D03*
Y1117600D02*
D03*
X1742440Y1102360D02*
D03*
X1734820Y1178560D02*
D03*
X1727200Y1163320D02*
D03*
X1719580Y1178560D02*
D03*
X1711960Y1163320D02*
D03*
Y1132840D02*
D03*
X1955800Y1026160D02*
D03*
X1963420Y1010920D02*
D03*
X1955800Y995680D02*
D03*
X1940560Y1026160D02*
D03*
X1925320Y1056640D02*
D03*
X1917700Y1071880D02*
D03*
X1910080Y1056640D02*
D03*
X1917700Y1041400D02*
D03*
X1902460Y1071880D02*
D03*
X1894840Y1026160D02*
D03*
X1902460Y1010920D02*
D03*
X1879600Y1056640D02*
D03*
X1887220Y1041400D02*
D03*
X1879600Y1026160D02*
D03*
X1887220Y1010920D02*
D03*
X1871980Y1071880D02*
D03*
Y1041400D02*
D03*
X1856740Y1071880D02*
D03*
Y1041400D02*
D03*
X1841500Y1071880D02*
D03*
X1833880Y1026160D02*
D03*
X1841500Y1010920D02*
D03*
X1833880Y995680D02*
D03*
X1818640Y1026160D02*
D03*
X1826260Y1010920D02*
D03*
X1818640Y995680D02*
D03*
X1803400Y1056640D02*
D03*
X1788160D02*
D03*
X1795780Y1041400D02*
D03*
X1780540D02*
D03*
X1772920Y1026160D02*
D03*
X1765300Y1071880D02*
D03*
X1757680Y1026160D02*
D03*
X1765300Y1010920D02*
D03*
X1750060Y1071880D02*
D03*
X1742440Y1056640D02*
D03*
X1750060Y1010920D02*
D03*
X1734820Y1071880D02*
D03*
Y1041400D02*
D03*
X1719580Y1071880D02*
D03*
X1711960Y1056640D02*
D03*
X1719580Y1041400D02*
D03*
X1711960Y1026160D02*
D03*
X1704340Y1071880D02*
D03*
Y1041400D02*
D03*
X1696720Y1026160D02*
D03*
X1704340Y1010920D02*
D03*
X1696720Y995680D02*
D03*
X1681480Y1026160D02*
D03*
X1689100Y1010920D02*
D03*
X1681480Y995680D02*
D03*
X1666240Y1026160D02*
D03*
X1673860Y1010920D02*
D03*
X1666240Y995680D02*
D03*
X1651000Y1026160D02*
D03*
X1658620Y1010920D02*
D03*
X1651000Y995680D02*
D03*
X1635760Y1026160D02*
D03*
X1643380Y1010920D02*
D03*
X1635760Y995680D02*
D03*
X1743075Y1006475D02*
D03*
X1717675D02*
D03*
X1943100D02*
D03*
X1917700D02*
D03*
X1854200D02*
D03*
X1879600D02*
D03*
X485775Y874713D02*
D03*
X430213Y912489D02*
D03*
X414338Y879475D02*
D03*
X153988Y161925D02*
D03*
Y373063D02*
D03*
X1281113Y1113619D02*
D03*
X1206500Y1150938D02*
D03*
X1371600Y1100137D02*
D03*
X1223962Y720000D02*
D03*
X1201738Y612775D02*
D03*
X1189037Y590550D02*
D03*
X1201738Y565150D02*
D03*
X1207441Y538906D02*
D03*
X1208087Y852487D02*
D03*
X1147763Y528638D02*
D03*
Y582612D02*
D03*
X1162050Y603250D02*
D03*
X1169987Y620713D02*
D03*
X1120766Y518307D02*
D03*
X1079500Y477837D02*
D03*
X1272833Y668800D02*
D03*
X1247775Y646113D02*
D03*
X1274762Y603250D02*
D03*
X1268412Y625475D02*
D03*
Y645331D02*
D03*
X1272259Y653476D02*
D03*
X1280331Y645331D02*
D03*
X1262063Y635000D02*
D03*
X1263650Y652462D02*
D03*
X1260475Y663575D02*
D03*
X1280331Y661084D02*
D03*
X1223962Y665911D02*
D03*
Y673443D02*
D03*
Y681600D02*
D03*
X1245494Y692850D02*
D03*
X1247775Y700088D02*
D03*
X1223962Y742950D02*
D03*
X1154112Y764800D02*
D03*
X1174750Y795338D02*
D03*
X1141413Y781050D02*
D03*
X1179512Y754062D02*
D03*
X1177925Y765175D02*
D03*
Y773112D02*
D03*
Y781050D02*
D03*
X1395412Y284163D02*
D03*
X730250Y249237D02*
D03*
Y225425D02*
D03*
Y273050D02*
D03*
X731837Y290513D02*
D03*
X730250Y323850D02*
D03*
X722312Y354012D02*
D03*
X733425Y379412D02*
D03*
X730250Y392113D02*
D03*
X676275Y249237D02*
D03*
Y225425D02*
D03*
Y273050D02*
D03*
Y296863D02*
D03*
Y320675D02*
D03*
X682625Y355600D02*
D03*
X676275Y368300D02*
D03*
Y392113D02*
D03*
X763587Y201612D02*
D03*
X782637Y192087D02*
D03*
X793750D02*
D03*
X804863D02*
D03*
X827087D02*
D03*
X838200D02*
D03*
X858838Y201612D02*
D03*
X1431925Y271462D02*
D03*
X1374775Y295275D02*
D03*
X1363663Y293687D02*
D03*
X1349375Y266700D02*
D03*
X1325562D02*
D03*
X1397000Y255588D02*
D03*
Y244475D02*
D03*
X1973262Y611188D02*
D03*
X1878013Y596900D02*
D03*
X590550Y1131888D02*
D03*
X609600Y996950D02*
D03*
X790575Y644525D02*
D03*
X781050Y417513D02*
D03*
X125413Y652462D02*
D03*
X1087438Y749300D02*
D03*
X690563Y595312D02*
D03*
X946150Y736600D02*
D03*
X933450D02*
D03*
X920750D02*
D03*
X908050D02*
D03*
X895350D02*
D03*
X552450D02*
D03*
X539750D02*
D03*
X527050D02*
D03*
X514350D02*
D03*
X501650D02*
D03*
X438150D02*
D03*
X431800Y723900D02*
D03*
X1168400Y1041400D02*
D03*
Y1033463D02*
D03*
X1303338Y1093788D02*
D03*
X1347787Y1087438D02*
D03*
Y1071562D02*
D03*
X1568000Y1119513D02*
D03*
X301625Y688340D02*
D03*
Y706120D02*
D03*
Y723900D02*
D03*
Y741680D02*
D03*
Y759460D02*
D03*
X940000Y1114425D02*
D03*
X930275Y1150938D02*
D03*
X921569Y1154066D02*
D03*
X1196975Y1122363D02*
D03*
X879393Y1141198D02*
D03*
X868363Y1144587D02*
D03*
X1031875Y1147763D02*
D03*
X1055687D02*
D03*
X972000Y1149950D02*
D03*
X1011925D02*
D03*
X1123950Y736600D02*
D03*
X1073150D02*
D03*
X1060450D02*
D03*
X1022350D02*
D03*
X1047750D02*
D03*
X1111250D02*
D03*
X1098550D02*
D03*
X1085850D02*
D03*
X1035050D02*
D03*
X1550988Y174625D02*
D03*
X1558925D02*
D03*
X1068388Y571500D02*
D03*
X773112Y747712D02*
D03*
X1450625Y794411D02*
D03*
Y784225D02*
D03*
X1450975Y845356D02*
D03*
X1719263Y812800D02*
D03*
X715800Y599425D02*
D03*
X639762Y1078311D02*
D03*
X647700Y1096963D02*
D03*
X996000Y1159475D02*
D03*
X980000D02*
D03*
X1116012Y976312D02*
D03*
X1581895Y1153270D02*
D03*
X1576145Y1159020D02*
D03*
X1557281Y1148437D02*
D03*
X1560000Y1154112D02*
D03*
X1116000Y1159411D02*
D03*
X1124000D02*
D03*
X1155936D02*
D03*
X1148000Y1159475D02*
D03*
X1156000Y1140425D02*
D03*
X1148000D02*
D03*
X1124000D02*
D03*
X1116000D02*
D03*
X1046500Y1159475D02*
D03*
X1052000Y1140425D02*
D03*
X1060000D02*
D03*
X1092000D02*
D03*
X1084000D02*
D03*
X1068000D02*
D03*
X1076000D02*
D03*
X1435906Y533400D02*
D03*
Y541338D02*
D03*
X1585912Y673100D02*
D03*
X1576387D02*
D03*
X1306512Y677862D02*
D03*
X1316037D02*
D03*
X1108000Y1140425D02*
D03*
X1100000D02*
D03*
X1568000Y1146175D02*
D03*
X1560000Y1141413D02*
D03*
X1585912Y347663D02*
D03*
X932669Y632274D02*
D03*
X555625Y612775D02*
D03*
X957262D02*
D03*
X855663Y620713D02*
D03*
X879475D02*
D03*
X903288D02*
D03*
X908050Y615950D02*
D03*
X896937D02*
D03*
X885825D02*
D03*
X849313Y614362D02*
D03*
X447675D02*
D03*
X484188Y615950D02*
D03*
X495300D02*
D03*
X506413D02*
D03*
X501650Y620713D02*
D03*
X477837D02*
D03*
X454025D02*
D03*
X603250Y698500D02*
D03*
X596900Y685800D02*
D03*
Y660400D02*
D03*
X603250Y647700D02*
D03*
X590550Y698500D02*
D03*
X584200Y685800D02*
D03*
X577850Y698500D02*
D03*
X571500Y685800D02*
D03*
X565150Y698500D02*
D03*
X558800Y685800D02*
D03*
X1009650Y698500D02*
D03*
X1003300Y685800D02*
D03*
Y660400D02*
D03*
X1009650Y647700D02*
D03*
X996950Y698500D02*
D03*
X990600Y685800D02*
D03*
X984250Y698500D02*
D03*
X977900Y685800D02*
D03*
X971550Y698500D02*
D03*
X965200Y685800D02*
D03*
X958850Y698500D02*
D03*
X730250Y736600D02*
D03*
X717550D02*
D03*
X704850D02*
D03*
X679450D02*
D03*
X666750D02*
D03*
X654050D02*
D03*
X641350D02*
D03*
X628650D02*
D03*
X615950D02*
D03*
X1003300Y774700D02*
D03*
X990600D02*
D03*
X977900D02*
D03*
X965200D02*
D03*
X889000D02*
D03*
X876300D02*
D03*
X863600D02*
D03*
X850900D02*
D03*
X838200D02*
D03*
X825500D02*
D03*
X812800D02*
D03*
Y749300D02*
D03*
X800100Y774700D02*
D03*
X806450Y762000D02*
D03*
X800100Y749300D02*
D03*
X806450Y736600D02*
D03*
X609600Y774700D02*
D03*
X596900D02*
D03*
X584200D02*
D03*
X571500D02*
D03*
X558800D02*
D03*
X482600D02*
D03*
X469900D02*
D03*
X457200D02*
D03*
X444500D02*
D03*
X431800D02*
D03*
X419100D02*
D03*
X406400D02*
D03*
X412750Y762000D02*
D03*
X406400Y749300D02*
D03*
X412750Y736600D02*
D03*
X406400Y723900D02*
D03*
X412750Y711200D02*
D03*
X393700Y774700D02*
D03*
X400050Y762000D02*
D03*
X393700Y749300D02*
D03*
X400050Y711200D02*
D03*
X381000Y774700D02*
D03*
X387350Y762000D02*
D03*
X381000Y749300D02*
D03*
X387350Y711200D02*
D03*
X368300Y774700D02*
D03*
X374650Y762000D02*
D03*
X368300Y749300D02*
D03*
X374650Y711200D02*
D03*
X368300Y698500D02*
D03*
X374650Y685800D02*
D03*
X368300Y673100D02*
D03*
X355600Y774700D02*
D03*
X361950Y762000D02*
D03*
X355600Y749300D02*
D03*
X361950Y711200D02*
D03*
X355600Y698500D02*
D03*
X361950Y685800D02*
D03*
X355600Y673100D02*
D03*
X261620Y875030D02*
D03*
X270510D02*
D03*
X301625Y795020D02*
D03*
Y830580D02*
D03*
X266065Y883920D02*
D03*
X301625Y812800D02*
D03*
X243840Y875030D02*
D03*
X274955Y866140D02*
D03*
X288290Y875030D02*
D03*
X301625Y848360D02*
D03*
X283845Y866140D02*
D03*
X279400Y875030D02*
D03*
X274955Y883920D02*
D03*
X283845D02*
D03*
X301625Y873125D02*
D03*
Y879475D02*
D03*
X246063Y906462D02*
D03*
X247650Y835025D02*
D03*
X244475Y673100D02*
D03*
Y681038D02*
D03*
Y720725D02*
D03*
Y688975D02*
D03*
Y696913D02*
D03*
Y704850D02*
D03*
Y728662D02*
D03*
Y712787D02*
D03*
Y736600D02*
D03*
X247650Y819150D02*
D03*
X325438Y782637D02*
D03*
X247650Y827087D02*
D03*
Y795338D02*
D03*
Y803275D02*
D03*
X750888Y666750D02*
D03*
X681038Y628650D02*
D03*
X677862Y676275D02*
D03*
Y684212D02*
D03*
Y692150D02*
D03*
Y700088D02*
D03*
Y668337D02*
D03*
Y660400D02*
D03*
X731837Y676275D02*
D03*
Y684212D02*
D03*
Y692150D02*
D03*
Y700088D02*
D03*
Y668337D02*
D03*
Y660400D02*
D03*
X1079500D02*
D03*
Y668337D02*
D03*
Y700088D02*
D03*
Y692150D02*
D03*
Y684212D02*
D03*
Y676275D02*
D03*
X1133475Y660400D02*
D03*
Y668337D02*
D03*
Y700088D02*
D03*
Y692150D02*
D03*
Y684212D02*
D03*
Y676275D02*
D03*
X1711325Y577850D02*
D03*
X1654175Y581025D02*
D03*
X1211263Y518307D02*
D03*
Y527050D02*
D03*
X1208087Y482600D02*
D03*
X1212850Y501650D02*
D03*
X1811337Y668337D02*
D03*
X1728788Y669925D02*
D03*
X1647825Y725488D02*
D03*
Y806450D02*
D03*
X1773237Y727075D02*
D03*
X811212Y976312D02*
D03*
X1495425Y400050D02*
D03*
X1927225Y660400D02*
D03*
X1689100Y812800D02*
D03*
X1672419Y588963D02*
D03*
X1431532Y802700D02*
D03*
X1636712Y476250D02*
D03*
X1606550Y479425D02*
D03*
X1582737Y528638D02*
D03*
X1579563Y455612D02*
D03*
X1546225Y384175D02*
D03*
X1141413Y404813D02*
D03*
X1138238Y417513D02*
D03*
X739775Y849313D02*
D03*
X1068388Y592137D02*
D03*
Y625475D02*
D03*
X1079500Y617395D02*
D03*
X1020762Y550863D02*
D03*
X948580Y369045D02*
D03*
X1704975Y827087D02*
D03*
Y719137D02*
D03*
X1693862Y720725D02*
D03*
X1135062Y787400D02*
D03*
X1169987Y788988D02*
D03*
X1339850Y842962D02*
D03*
X968375Y611188D02*
D03*
X1458913Y236537D02*
D03*
X1409700Y198438D02*
D03*
X1147763Y242887D02*
D03*
Y415925D02*
D03*
X1709738Y207962D02*
D03*
X895350Y230187D02*
D03*
X966787Y413531D02*
D03*
X892231Y420155D02*
D03*
X885825Y415925D02*
D03*
X946150Y413531D02*
D03*
X823913Y884238D02*
D03*
X833438Y901700D02*
D03*
X1055687D02*
D03*
X1670050Y876300D02*
D03*
X1685925D02*
D03*
X1654175D02*
D03*
X1638300D02*
D03*
X1662112Y884238D02*
D03*
X1677988D02*
D03*
X1646237D02*
D03*
X1670050Y892175D02*
D03*
X1685925D02*
D03*
X1654175D02*
D03*
X1638300D02*
D03*
X1662112Y900113D02*
D03*
X1677988D02*
D03*
X1646237D02*
D03*
X1638300Y908050D02*
D03*
X1654175D02*
D03*
X1685925D02*
D03*
X1670050D02*
D03*
X1673225Y782637D02*
D03*
X1666875Y596900D02*
D03*
X1735137Y801687D02*
D03*
X1747838Y798512D02*
D03*
X1734392Y677117D02*
D03*
X1747838Y661988D02*
D03*
X1755775Y785813D02*
D03*
X1771650Y788988D02*
D03*
X1778000Y619125D02*
D03*
X1768475D02*
D03*
X1903412D02*
D03*
X1898650Y612775D02*
D03*
X1763712Y782637D02*
D03*
X1169987Y939800D02*
D03*
X1177925Y931862D02*
D03*
X1138238Y942975D02*
D03*
X1146175Y941387D02*
D03*
X1152525Y933450D02*
D03*
X1157288Y927100D02*
D03*
X1152525Y920750D02*
D03*
X1157288Y914400D02*
D03*
X1743075Y479425D02*
D03*
X1751013Y417513D02*
D03*
X771525Y901700D02*
D03*
X1814512Y361950D02*
D03*
X1773237Y469907D02*
D03*
X771525Y890587D02*
D03*
Y879475D02*
D03*
Y868363D02*
D03*
X1665287Y412750D02*
D03*
X911225Y868363D02*
D03*
X1930400Y742950D02*
D03*
X911225Y846137D02*
D03*
X1692275Y230187D02*
D03*
X1673225Y719137D02*
D03*
X1703387Y282575D02*
D03*
X1267667Y854820D02*
D03*
X1238250Y946150D02*
D03*
X1270000Y998538D02*
D03*
X1163637Y908050D02*
D03*
X1185863Y1042988D02*
D03*
X1192213Y1036637D02*
D03*
X1235075D02*
D03*
X1255713Y969962D02*
D03*
X1257300Y982663D02*
D03*
X1587500Y755650D02*
D03*
X1606550Y747712D02*
D03*
X1625600Y763587D02*
D03*
X1728788Y661988D02*
D03*
X1747838Y671513D02*
D03*
X1776413Y668337D02*
D03*
X1795462Y649287D02*
D03*
X1770063Y657225D02*
D03*
X1757363Y700088D02*
D03*
X1517000Y762650D02*
D03*
X1608138Y674688D02*
D03*
X1909763Y695325D02*
D03*
X1785938Y636587D02*
D03*
X1779588Y642937D02*
D03*
X1914525Y603250D02*
D03*
X1892300D02*
D03*
X1779588Y655638D02*
D03*
Y681038D02*
D03*
X1781175Y693737D02*
D03*
X1785938Y700088D02*
D03*
X1395412Y306388D02*
D03*
X1387475Y314325D02*
D03*
X1395412Y317500D02*
D03*
X1512888Y288925D02*
D03*
X1554162D02*
D03*
X1531938D02*
D03*
X1487487D02*
D03*
X1345419Y749300D02*
D03*
X1147763Y469900D02*
D03*
X1435100Y963613D02*
D03*
X1438275Y861231D02*
D03*
X1406525Y354012D02*
D03*
X1427348Y352239D02*
D03*
X1438275Y354012D02*
D03*
X1428750Y365125D02*
D03*
X1438275Y366712D02*
D03*
X1420813Y379412D02*
D03*
X1576387Y500062D02*
D03*
X1570038Y495300D02*
D03*
X1562100Y492125D02*
D03*
X1177925Y385762D02*
D03*
X1185863Y384175D02*
D03*
X1177925Y369888D02*
D03*
X1185863Y368300D02*
D03*
X1177925Y354012D02*
D03*
X1185863Y352425D02*
D03*
X1177925Y338138D02*
D03*
X1185863Y336550D02*
D03*
X1385887Y1104900D02*
D03*
X1154112Y944563D02*
D03*
X498475Y371475D02*
D03*
X1084262Y339725D02*
D03*
X1076325Y344487D02*
D03*
X725488Y817562D02*
D03*
X688975Y874713D02*
D03*
X993775Y890587D02*
D03*
X1854200Y889000D02*
D03*
X1879600D02*
D03*
X1881187Y800100D02*
D03*
X1873250Y803275D02*
D03*
X1850587Y802838D02*
D03*
X1860550Y804863D02*
D03*
X1836738Y803275D02*
D03*
X1830388Y808037D02*
D03*
X1814512Y803275D02*
D03*
X1809750Y796925D02*
D03*
X1798638Y466725D02*
D03*
X1722437Y396875D02*
D03*
X1876425Y334963D02*
D03*
X1971675Y404813D02*
D03*
X658812Y868363D02*
D03*
Y854075D02*
D03*
X708025Y823913D02*
D03*
Y836612D02*
D03*
Y830263D02*
D03*
X1410482Y1042988D02*
D03*
X1411288Y1035050D02*
D03*
X1374775Y1022350D02*
D03*
X1393825Y1028700D02*
D03*
X1395412Y1044575D02*
D03*
X1341438Y1042988D02*
D03*
X1352550D02*
D03*
Y1062038D02*
D03*
X1368425D02*
D03*
Y1071562D02*
D03*
X1382713Y1052513D02*
D03*
X1368425Y1046162D02*
D03*
X1358900Y1093788D02*
D03*
X1363663Y1100137D02*
D03*
X1384300Y1087438D02*
D03*
X1400175Y1100137D02*
D03*
X1392238Y1116012D02*
D03*
X1384300Y1014413D02*
D03*
X1392238Y1011237D02*
D03*
X1400175Y1009650D02*
D03*
X763587Y1143000D02*
D03*
X755650D02*
D03*
X904950Y1146775D02*
D03*
X781050Y1045357D02*
D03*
X814463Y1142012D02*
D03*
X806525Y1146775D02*
D03*
X947812D02*
D03*
X939875Y1149950D02*
D03*
X844550Y994581D02*
D03*
X827087D02*
D03*
X679070Y862393D02*
D03*
X498475Y855663D02*
D03*
X573088Y889000D02*
D03*
X708025Y854075D02*
D03*
X761194Y1031094D02*
D03*
X749300Y1042988D02*
D03*
X868363Y982663D02*
D03*
Y992188D02*
D03*
X755650Y1058863D02*
D03*
X1427162Y931862D02*
D03*
X1417637Y985837D02*
D03*
Y998538D02*
D03*
X1282700Y901700D02*
D03*
Y931862D02*
D03*
X1190675Y1001281D02*
D03*
X1422400Y901700D02*
D03*
X1477962Y957262D02*
D03*
X1538288Y949325D02*
D03*
X1543050Y957262D02*
D03*
X1500188Y915987D02*
D03*
X1493837Y893763D02*
D03*
X1508125Y919163D02*
D03*
X1512888Y927100D02*
D03*
X1524000Y912812D02*
D03*
X1516062Y906462D02*
D03*
X1528763Y919163D02*
D03*
X1531938Y932571D02*
D03*
X1574800Y1109662D02*
D03*
X1522500Y1119187D02*
D03*
X1512888Y1112838D02*
D03*
X1508125Y1119187D02*
D03*
X1525500Y1109662D02*
D03*
X1533500D02*
D03*
X1758950Y482600D02*
D03*
X1814512Y401637D02*
D03*
X1808163Y407988D02*
D03*
X1463675Y338138D02*
D03*
X1458913Y1108075D02*
D03*
X1477962D02*
D03*
X1480000Y1120775D02*
D03*
X1439863Y1103313D02*
D03*
X1446212Y1108075D02*
D03*
X1452563Y1103313D02*
D03*
X1501775Y1106488D02*
D03*
X1477962Y1023938D02*
D03*
X1452563Y1065212D02*
D03*
X1456000Y1158875D02*
D03*
X1450500Y1143000D02*
D03*
X1512000D02*
D03*
X1439863Y1149350D02*
D03*
X1432000Y1120775D02*
D03*
X1424000D02*
D03*
X1488000D02*
D03*
X1133475Y901700D02*
D03*
Y879475D02*
D03*
Y857250D02*
D03*
Y835025D02*
D03*
X1601788Y712787D02*
D03*
X1548618Y409575D02*
D03*
X1497012Y1047750D02*
D03*
X1420813Y1036637D02*
D03*
X1431925Y1030287D02*
D03*
X1433513Y1020762D02*
D03*
X1609725Y712787D02*
D03*
X1457325Y1057275D02*
D03*
X1463675Y363537D02*
D03*
X1544000Y1158875D02*
D03*
X1536000D02*
D03*
X1528000D02*
D03*
X1520000D02*
D03*
X1504000D02*
D03*
X1496000D02*
D03*
X1488000D02*
D03*
X1424000D02*
D03*
X1432000D02*
D03*
X1440000D02*
D03*
X1464000D02*
D03*
X1472000D02*
D03*
X1480000D02*
D03*
X1133475Y890587D02*
D03*
X1384300Y1028700D02*
D03*
X683925Y1112838D02*
D03*
X718500Y1145188D02*
D03*
X748000Y1149950D02*
D03*
X935038Y969962D02*
D03*
X963613Y971550D02*
D03*
X979488Y992188D02*
D03*
X1008063Y996950D02*
D03*
X971550Y985837D02*
D03*
X1006475Y1004887D02*
D03*
X996950D02*
D03*
X987425D02*
D03*
X1017588Y1003300D02*
D03*
X954088Y1004887D02*
D03*
X944563D02*
D03*
X1016075Y1143600D02*
D03*
X1004000Y1140425D02*
D03*
X972000D02*
D03*
X738187Y1063625D02*
D03*
X887412Y998538D02*
D03*
X906462D02*
D03*
X731925Y1112838D02*
D03*
X699925D02*
D03*
X907925Y1114425D02*
D03*
X913650Y1147581D02*
D03*
X916000Y1140425D02*
D03*
X866775Y1007281D02*
D03*
X1028700Y1008868D02*
D03*
X836612Y1013631D02*
D03*
X820738Y1016806D02*
D03*
X812800Y1025525D02*
D03*
X808037Y1034268D02*
D03*
X766762Y1061256D02*
D03*
X747712Y1068388D02*
D03*
X833438Y1040619D02*
D03*
X860425D02*
D03*
X801687Y1052513D02*
D03*
X793750Y1058081D02*
D03*
X787400Y1063625D02*
D03*
X738187Y1085850D02*
D03*
X729425Y1087438D02*
D03*
X900113Y1049337D02*
D03*
X703037Y1081087D02*
D03*
X715963D02*
D03*
X894425Y1069975D02*
D03*
X707925Y1087438D02*
D03*
X715963Y1096181D02*
D03*
X881062Y1079500D02*
D03*
X873425Y1082675D02*
D03*
X784225Y1092200D02*
D03*
X771925Y1096181D02*
D03*
X857250Y1092200D02*
D03*
X843925Y1096181D02*
D03*
X691925Y1112838D02*
D03*
X755925D02*
D03*
X947925Y1109475D02*
D03*
X1020000Y1159475D02*
D03*
X1028000D02*
D03*
X932000D02*
D03*
X1639577Y343211D02*
D03*
X1560513Y342900D02*
D03*
X478582Y464296D02*
D03*
X412750Y440169D02*
D03*
X915987Y425450D02*
D03*
X920750Y401637D02*
D03*
X1808163Y568325D02*
D03*
X958850Y401637D02*
D03*
X942975Y355600D02*
D03*
X503237Y358775D02*
D03*
X404813Y254000D02*
D03*
Y338138D02*
D03*
X500062Y401637D02*
D03*
X481012D02*
D03*
X939800D02*
D03*
X1314450Y806450D02*
D03*
X1319212Y800100D02*
D03*
X1281113Y831850D02*
D03*
X1303338Y815975D02*
D03*
X1468438Y387350D02*
D03*
X1450975Y342900D02*
D03*
X1479550Y400050D02*
D03*
X1495425Y411162D02*
D03*
X1341438Y488950D02*
D03*
X1503362Y411162D02*
D03*
X1109662Y912812D02*
D03*
X1293813Y841375D02*
D03*
X1300163Y846137D02*
D03*
X1287462Y836612D02*
D03*
X1520825Y411162D02*
D03*
X1319212Y812800D02*
D03*
X1487487Y411162D02*
D03*
X1328737Y488950D02*
D03*
X1347787Y484188D02*
D03*
X1511300Y411162D02*
D03*
X1260475Y838200D02*
D03*
X804000Y1159475D02*
D03*
X796000D02*
D03*
X788000D02*
D03*
X780000D02*
D03*
X772000D02*
D03*
X684000D02*
D03*
X692000D02*
D03*
X700000D02*
D03*
X708000D02*
D03*
X716000D02*
D03*
X724000D02*
D03*
X732000D02*
D03*
X740000D02*
D03*
X748000D02*
D03*
X1274762Y827087D02*
D03*
X1293813Y808037D02*
D03*
X1552575Y390525D02*
D03*
X1549400Y398462D02*
D03*
X940000Y1159475D02*
D03*
X908000D02*
D03*
X892000D02*
D03*
X884000D02*
D03*
X820000D02*
D03*
X828000D02*
D03*
X836000D02*
D03*
X844000D02*
D03*
X852000D02*
D03*
X860000D02*
D03*
X876000D02*
D03*
X1520825Y325417D02*
D03*
X493713Y433387D02*
D03*
X814388Y440169D02*
D03*
X930275Y401637D02*
D03*
X949325D02*
D03*
X490537D02*
D03*
X509588D02*
D03*
X1808163Y558800D02*
D03*
X1684337Y554038D02*
D03*
X1336675Y536575D02*
D03*
X1282700Y527050D02*
D03*
X1279525Y595312D02*
D03*
X1004000Y1159475D02*
D03*
X956000D02*
D03*
X964000D02*
D03*
X988000D02*
D03*
X996903Y506525D02*
D03*
X884155Y455530D02*
D03*
X892175Y465137D02*
D03*
X889000Y473075D02*
D03*
X465137Y416707D02*
D03*
X1617663Y712787D02*
D03*
X1592263D02*
D03*
X1727200Y412750D02*
D03*
X1728788Y615950D02*
D03*
Y625475D02*
D03*
Y633413D02*
D03*
Y641350D02*
D03*
X1544000Y1141413D02*
D03*
X1552000Y1158875D02*
D03*
X1132000Y1140425D02*
D03*
X1140000D02*
D03*
Y1159475D02*
D03*
X1132000D02*
D03*
X1108000D02*
D03*
X1100000D02*
D03*
X1092000D02*
D03*
X1084000D02*
D03*
X1076000D02*
D03*
X1068000D02*
D03*
X1028000Y1140425D02*
D03*
X947812Y1159475D02*
D03*
X1490663Y1003300D02*
D03*
X1423987Y1027113D02*
D03*
X1471613Y1068388D02*
D03*
X1481138D02*
D03*
X1423987Y1071562D02*
D03*
X1279525Y679450D02*
D03*
X1339850Y823913D02*
D03*
X1408112Y847725D02*
D03*
X1514475Y866775D02*
D03*
X1479550Y874713D02*
D03*
X1482725Y884238D02*
D03*
X1485900Y893763D02*
D03*
X228600Y776288D02*
D03*
X1697038Y625475D02*
D03*
Y633413D02*
D03*
Y641350D02*
D03*
X1628775Y771525D02*
D03*
X1509713Y341312D02*
D03*
X1808163Y461963D02*
D03*
X1463675Y352425D02*
D03*
X1470025Y277812D02*
D03*
X1479550Y344487D02*
D03*
Y384175D02*
D03*
Y392113D02*
D03*
X1527175Y417513D02*
D03*
X1681163Y619125D02*
D03*
X1660525Y609600D02*
D03*
X1652587D02*
D03*
X1643062D02*
D03*
X1630363Y600075D02*
D03*
X1624012Y593725D02*
D03*
X1255713Y611188D02*
D03*
X1262063Y617537D02*
D03*
X1298575Y609600D02*
D03*
X1317625Y584200D02*
D03*
X1325562Y599294D02*
D03*
X1287462Y582612D02*
D03*
X1293813Y598488D02*
D03*
X1311275Y608013D02*
D03*
X1244600Y514350D02*
D03*
X1304925Y523875D02*
D03*
X1287462Y552450D02*
D03*
X1293813Y547687D02*
D03*
X1301750Y542925D02*
D03*
X1311275D02*
D03*
X1714500Y430213D02*
D03*
X1719263Y474663D02*
D03*
X1817688Y461963D02*
D03*
X1797050Y474663D02*
D03*
X1738313Y342900D02*
D03*
X1721387Y328075D02*
D03*
X1741487Y282575D02*
D03*
Y244475D02*
D03*
X1795462Y317500D02*
D03*
X1708150Y477837D02*
D03*
Y439738D02*
D03*
X1724025Y450850D02*
D03*
Y442912D02*
D03*
X1746250Y471488D02*
D03*
X1757363Y457200D02*
D03*
X1790700Y450850D02*
D03*
Y442912D02*
D03*
X1719263Y206375D02*
D03*
X1744662Y215900D02*
D03*
Y196850D02*
D03*
X1704975Y430213D02*
D03*
X1801812Y417513D02*
D03*
X1944688Y392113D02*
D03*
Y384175D02*
D03*
X1905000Y358775D02*
D03*
X1968500Y303213D02*
D03*
X1919288Y444500D02*
D03*
X1900237Y447675D02*
D03*
X1884362Y423862D02*
D03*
X1909763Y425450D02*
D03*
X1862137Y419100D02*
D03*
X1911350Y398462D02*
D03*
X1862137Y381000D02*
D03*
X1878013Y392113D02*
D03*
Y384175D02*
D03*
X1900237Y412750D02*
D03*
X1858963Y371475D02*
D03*
X1955800Y358775D02*
D03*
X763587Y644525D02*
D03*
X920750Y369888D02*
D03*
X684212Y454025D02*
D03*
X290513Y412750D02*
D03*
X377825Y490537D02*
D03*
X488950Y649287D02*
D03*
X439738Y660400D02*
D03*
Y647700D02*
D03*
X291814Y390262D02*
D03*
X288925Y204788D02*
D03*
X527050Y419100D02*
D03*
X388937Y401637D02*
D03*
Y357188D02*
D03*
X976312Y415925D02*
D03*
X1028700Y446087D02*
D03*
X1031875Y454025D02*
D03*
X869950Y425450D02*
D03*
X863600Y506413D02*
D03*
Y515938D02*
D03*
Y498475D02*
D03*
X846137Y439738D02*
D03*
X860425Y431800D02*
D03*
X733425Y401637D02*
D03*
X696913Y422275D02*
D03*
X490537Y420687D02*
D03*
X468312Y431800D02*
D03*
X528638Y628650D02*
D03*
X730250Y482600D02*
D03*
X485775Y414338D02*
D03*
X460375Y427038D02*
D03*
X524681Y620713D02*
D03*
X723900Y590550D02*
D03*
X877887Y379412D02*
D03*
X890587D02*
D03*
X903288D02*
D03*
X930275D02*
D03*
X920750Y352425D02*
D03*
X939800Y379412D02*
D03*
X949325D02*
D03*
X438150D02*
D03*
X450850D02*
D03*
X463550D02*
D03*
X509588D02*
D03*
X500062D02*
D03*
X490537D02*
D03*
X141287Y242887D02*
D03*
X133350D02*
D03*
X125413D02*
D03*
X117475D02*
D03*
X149225Y220662D02*
D03*
X141287D02*
D03*
X133350D02*
D03*
X125413D02*
D03*
X117475D02*
D03*
X77787Y242887D02*
D03*
X69850D02*
D03*
X61912D02*
D03*
X53975D02*
D03*
X85725Y220662D02*
D03*
X77787D02*
D03*
X69850D02*
D03*
X61912D02*
D03*
X53975D02*
D03*
X163512Y454025D02*
D03*
X141287D02*
D03*
X133350D02*
D03*
X125413D02*
D03*
X149225Y431800D02*
D03*
X141287D02*
D03*
X133350D02*
D03*
X125413D02*
D03*
X117475D02*
D03*
X77787Y454025D02*
D03*
X69850D02*
D03*
X61912D02*
D03*
Y431800D02*
D03*
X85725D02*
D03*
X77787D02*
D03*
X69850D02*
D03*
X1746250Y494665D02*
D03*
X1758950D02*
D03*
X1752600D02*
D03*
X1746250Y521335D02*
D03*
X1758950D02*
D03*
X1752600D02*
D03*
X1706562Y494665D02*
D03*
X1768475Y596900D02*
D03*
X1866900Y869950D02*
D03*
X1692275Y676275D02*
D03*
X1641475Y677862D02*
D03*
Y655638D02*
D03*
X1630363Y661988D02*
D03*
X1244600Y552450D02*
D03*
X1255713Y522287D02*
D03*
X1354138Y488950D02*
D03*
X1335087Y484188D02*
D03*
X1611313Y346075D02*
D03*
X1666875Y373063D02*
D03*
X1651000D02*
D03*
X1643062D02*
D03*
X1635125D02*
D03*
X1627188D02*
D03*
X1619362Y376237D02*
D03*
X1658938Y381000D02*
D03*
X1611313Y365125D02*
D03*
X1647863Y352425D02*
D03*
X1571625Y128588D02*
D03*
X1585912D02*
D03*
X1398587Y222250D02*
D03*
X1347787Y333375D02*
D03*
X1660525Y211138D02*
D03*
X1674812Y325438D02*
D03*
X1630363D02*
D03*
X1631950Y339388D02*
D03*
X1189037Y244000D02*
D03*
X1176338Y252000D02*
D03*
Y260000D02*
D03*
X1284288Y227013D02*
D03*
X1273175Y233363D02*
D03*
X1265238Y239713D02*
D03*
X1290638Y252412D02*
D03*
X1284288Y257175D02*
D03*
X1268412Y274638D02*
D03*
X1271588Y282575D02*
D03*
X1254125Y260350D02*
D03*
X1247775Y266700D02*
D03*
X1254125Y273050D02*
D03*
X1247775Y279400D02*
D03*
X1254125Y285750D02*
D03*
X1247775Y292000D02*
D03*
X1254125Y298450D02*
D03*
X1247775Y304800D02*
D03*
X1284288Y361950D02*
D03*
X1298575Y371475D02*
D03*
X1249362Y365125D02*
D03*
X1255648Y371475D02*
D03*
X1311275Y377825D02*
D03*
X1327150Y381000D02*
D03*
X1346200D02*
D03*
X1374775Y393700D02*
D03*
X1249362Y377825D02*
D03*
X1255648Y384175D02*
D03*
X1249362Y390525D02*
D03*
X1255648Y396875D02*
D03*
X1249362Y403225D02*
D03*
X1255713Y409575D02*
D03*
X1249362Y415925D02*
D03*
Y428625D02*
D03*
X1255648Y422275D02*
D03*
X1322388Y257175D02*
D03*
X1331913Y288925D02*
D03*
X1535112Y438150D02*
D03*
X1450975Y434975D02*
D03*
X1525587Y436562D02*
D03*
X1519238Y442912D02*
D03*
X1322388Y296863D02*
D03*
X1525587Y455612D02*
D03*
X1495425Y447675D02*
D03*
X1484312Y457200D02*
D03*
X1498600Y476250D02*
D03*
X1500188Y488950D02*
D03*
X1511300Y463550D02*
D03*
X1441450Y430213D02*
D03*
X1465262Y454025D02*
D03*
X1169987Y452000D02*
D03*
Y444000D02*
D03*
Y420000D02*
D03*
Y428000D02*
D03*
Y436000D02*
D03*
X1298575Y463550D02*
D03*
X1316037Y492125D02*
D03*
X1303338Y496888D02*
D03*
X1276350Y458787D02*
D03*
X1257300Y508000D02*
D03*
X1263650Y501650D02*
D03*
X1257300Y495300D02*
D03*
X1263650Y488950D02*
D03*
X1257300Y482600D02*
D03*
X1263650Y476250D02*
D03*
X1257300Y469900D02*
D03*
X1263650Y463550D02*
D03*
X1430338Y423862D02*
D03*
X1420813Y404813D02*
D03*
X1368425Y355600D02*
D03*
X1358900Y339725D02*
D03*
X1404937Y415925D02*
D03*
X1392238Y396875D02*
D03*
X1355725Y352425D02*
D03*
X1343025Y346075D02*
D03*
X1385887Y412750D02*
D03*
X1339850Y330200D02*
D03*
X1303338Y265112D02*
D03*
X1323975Y327025D02*
D03*
X1293813Y301625D02*
D03*
X1300163Y314325D02*
D03*
X1293813Y309562D02*
D03*
X1277937Y307975D02*
D03*
X1169987Y476000D02*
D03*
Y468000D02*
D03*
Y460000D02*
D03*
Y412000D02*
D03*
Y404000D02*
D03*
Y396000D02*
D03*
Y276000D02*
D03*
Y284000D02*
D03*
Y292000D02*
D03*
Y300000D02*
D03*
Y308000D02*
D03*
Y316000D02*
D03*
Y324000D02*
D03*
Y244000D02*
D03*
Y252000D02*
D03*
Y268000D02*
D03*
Y260000D02*
D03*
X1852612Y855663D02*
D03*
X1930400Y869950D02*
D03*
X1898650Y138112D02*
D03*
Y157163D02*
D03*
X1857375Y557088D02*
D03*
X1973262Y593725D02*
D03*
X1922462D02*
D03*
X1871662Y423862D02*
D03*
X1973262Y425450D02*
D03*
X1922462D02*
D03*
X1857375Y461963D02*
D03*
X1433450Y547687D02*
D03*
X1447737Y555625D02*
D03*
X1495425Y377825D02*
D03*
Y355600D02*
D03*
X1577975Y587375D02*
D03*
Y565150D02*
D03*
X1584325Y564981D02*
D03*
X1589088Y587375D02*
D03*
X1590675Y565150D02*
D03*
X1606550Y574675D02*
D03*
X1546225Y376237D02*
D03*
X1571625Y669925D02*
D03*
X1563687Y684212D02*
D03*
X1616075Y676275D02*
D03*
X1344612Y762000D02*
D03*
X1333500D02*
D03*
X1439863Y771525D02*
D03*
X1319212Y773112D02*
D03*
X1310054D02*
D03*
X1454150Y779463D02*
D03*
X1333500Y784225D02*
D03*
X1341438D02*
D03*
X1404937Y819150D02*
D03*
X1385887Y822325D02*
D03*
X1450975D02*
D03*
X1347787Y828675D02*
D03*
X1355725D02*
D03*
X1447800Y833438D02*
D03*
X1539875Y758825D02*
D03*
X1562100D02*
D03*
X1539875Y769938D02*
D03*
X1562100D02*
D03*
X1570038D02*
D03*
X1550988Y785813D02*
D03*
X1474787Y833438D02*
D03*
X1362075D02*
D03*
X1389062D02*
D03*
X1539875Y839788D02*
D03*
X1314450Y531813D02*
D03*
X1327150Y569912D02*
D03*
Y581025D02*
D03*
X1335087Y552450D02*
D03*
X1352012Y569912D02*
D03*
X1358900Y531813D02*
D03*
X1320800Y681038D02*
D03*
X1328737Y666750D02*
D03*
X358775Y620713D02*
D03*
X534987Y434975D02*
D03*
X287337Y158750D02*
D03*
X471223Y272270D02*
D03*
X319088Y617537D02*
D03*
X128588Y673100D02*
D03*
Y681038D02*
D03*
Y688975D02*
D03*
Y696913D02*
D03*
Y736600D02*
D03*
Y728662D02*
D03*
Y720725D02*
D03*
Y712787D02*
D03*
Y704850D02*
D03*
X220662Y828675D02*
D03*
Y836612D02*
D03*
Y860425D02*
D03*
Y852487D02*
D03*
Y844550D02*
D03*
X165100Y868363D02*
D03*
X157163D02*
D03*
X149225D02*
D03*
X141287D02*
D03*
X133350Y828675D02*
D03*
Y836612D02*
D03*
Y868363D02*
D03*
Y860425D02*
D03*
Y852487D02*
D03*
Y844550D02*
D03*
X190500Y584200D02*
D03*
Y558800D02*
D03*
X177800Y584200D02*
D03*
X184150Y571500D02*
D03*
X177800Y558800D02*
D03*
X165100Y584200D02*
D03*
X171450Y571500D02*
D03*
X165100Y558800D02*
D03*
X152400Y584200D02*
D03*
X158750Y571500D02*
D03*
X152400Y558800D02*
D03*
X139700Y584200D02*
D03*
X146050Y571500D02*
D03*
X139700Y558800D02*
D03*
X127000Y584200D02*
D03*
X133350Y571500D02*
D03*
X127000Y558800D02*
D03*
X114300Y584200D02*
D03*
X120650Y571500D02*
D03*
X114300Y558800D02*
D03*
X101600Y584200D02*
D03*
X107950Y571500D02*
D03*
X101600Y558800D02*
D03*
X88900Y584200D02*
D03*
X95250Y571500D02*
D03*
X88900Y558800D02*
D03*
X76200Y584200D02*
D03*
X82550Y571500D02*
D03*
X76200Y558800D02*
D03*
X63500Y838200D02*
D03*
X69850Y825500D02*
D03*
X63500Y812800D02*
D03*
X69850Y800100D02*
D03*
X63500Y787400D02*
D03*
X69850Y774700D02*
D03*
X63500Y762000D02*
D03*
X69850Y749300D02*
D03*
X63500Y736600D02*
D03*
X69850Y723900D02*
D03*
X63500Y711200D02*
D03*
X69850Y698500D02*
D03*
X63500Y685800D02*
D03*
X69850Y673100D02*
D03*
X63500Y660400D02*
D03*
X69850Y647700D02*
D03*
X63500Y635000D02*
D03*
X69850Y622300D02*
D03*
X63500Y609600D02*
D03*
X69850Y596900D02*
D03*
X63500Y584200D02*
D03*
X69850Y571500D02*
D03*
X63500Y558800D02*
D03*
X57150Y596900D02*
D03*
X50800Y584200D02*
D03*
X57150Y571500D02*
D03*
X50800Y558800D02*
D03*
X292100Y1066800D02*
D03*
X298450Y1054100D02*
D03*
X292100Y1041400D02*
D03*
X298450Y1028700D02*
D03*
X292100Y1016000D02*
D03*
X298450Y1003300D02*
D03*
X292100Y990600D02*
D03*
X298450Y977900D02*
D03*
X292100Y965200D02*
D03*
X298450Y952500D02*
D03*
X292100Y939800D02*
D03*
X298450Y927100D02*
D03*
X279400Y1066800D02*
D03*
X285750Y1054100D02*
D03*
X279400Y1041400D02*
D03*
X285750Y1028700D02*
D03*
X279400Y1016000D02*
D03*
X285750Y1003300D02*
D03*
X279400Y990600D02*
D03*
X285750Y977900D02*
D03*
X279400Y965200D02*
D03*
X285750Y952500D02*
D03*
X279400Y939800D02*
D03*
X285750Y927100D02*
D03*
X266700Y1066800D02*
D03*
X273050Y1054100D02*
D03*
X266700Y1041400D02*
D03*
X273050Y1028700D02*
D03*
X266700Y1016000D02*
D03*
X273050Y1003300D02*
D03*
X266700Y990600D02*
D03*
X273050Y977900D02*
D03*
X266700Y965200D02*
D03*
X273050Y952500D02*
D03*
X266700Y939800D02*
D03*
X273050Y927100D02*
D03*
X254000Y1066800D02*
D03*
X260350Y1054100D02*
D03*
X254000Y1041400D02*
D03*
X260350Y1028700D02*
D03*
X254000Y1016000D02*
D03*
X260350Y1003300D02*
D03*
X254000Y990600D02*
D03*
X260350Y977900D02*
D03*
X254000Y965200D02*
D03*
X260350Y952500D02*
D03*
X254000Y939800D02*
D03*
X260350Y927100D02*
D03*
X241300Y1066800D02*
D03*
X247650Y1054100D02*
D03*
X241300Y1041400D02*
D03*
X247650Y1028700D02*
D03*
X241300Y1016000D02*
D03*
X247650Y1003300D02*
D03*
X241300Y990600D02*
D03*
X247650Y977900D02*
D03*
X241300Y965200D02*
D03*
X247650Y952500D02*
D03*
X241300Y939800D02*
D03*
X247650Y927100D02*
D03*
X241300Y914400D02*
D03*
X228600Y1066800D02*
D03*
X234950Y1054100D02*
D03*
X228600Y1041400D02*
D03*
X234950Y1028700D02*
D03*
X228600Y1016000D02*
D03*
X234950Y1003300D02*
D03*
X228600Y990600D02*
D03*
X234950Y977900D02*
D03*
X228600Y965200D02*
D03*
X234950Y952500D02*
D03*
X215900Y1066800D02*
D03*
Y965200D02*
D03*
X222250Y952500D02*
D03*
X203200Y1066800D02*
D03*
Y965200D02*
D03*
X209550Y952500D02*
D03*
X190500Y1066800D02*
D03*
Y1041400D02*
D03*
Y1016000D02*
D03*
Y990600D02*
D03*
Y965200D02*
D03*
X196850Y952500D02*
D03*
X165100Y1066800D02*
D03*
X171450Y1054100D02*
D03*
X165100Y1041400D02*
D03*
X171450Y1028700D02*
D03*
X165100Y1016000D02*
D03*
X171450Y1003300D02*
D03*
X165100Y990600D02*
D03*
X171450Y977900D02*
D03*
X165100Y965200D02*
D03*
X171450Y952500D02*
D03*
X152400Y1066800D02*
D03*
Y965200D02*
D03*
X158750Y952500D02*
D03*
X139700Y1066800D02*
D03*
Y965200D02*
D03*
X146050Y952500D02*
D03*
X127000Y1066800D02*
D03*
Y1041400D02*
D03*
Y1016000D02*
D03*
Y990600D02*
D03*
Y965200D02*
D03*
X133350Y952500D02*
D03*
X114300Y1066800D02*
D03*
X120650Y1054100D02*
D03*
X114300Y1041400D02*
D03*
X120650Y1028700D02*
D03*
X114300Y1016000D02*
D03*
X120650Y1003300D02*
D03*
X114300Y990600D02*
D03*
X120650Y977900D02*
D03*
X114300Y965200D02*
D03*
X120650Y952500D02*
D03*
X114300Y939800D02*
D03*
Y914400D02*
D03*
X101600Y1066800D02*
D03*
X107950Y1054100D02*
D03*
X101600Y1041400D02*
D03*
X107950Y1028700D02*
D03*
X101600Y1016000D02*
D03*
X107950Y1003300D02*
D03*
X101600Y990600D02*
D03*
X107950Y977900D02*
D03*
X101600Y965200D02*
D03*
X107950Y952500D02*
D03*
X101600Y939800D02*
D03*
X107950Y927100D02*
D03*
X88900Y1066800D02*
D03*
X95250Y1054100D02*
D03*
X88900Y1041400D02*
D03*
X95250Y1028700D02*
D03*
X88900Y1016000D02*
D03*
X95250Y1003300D02*
D03*
X88900Y990600D02*
D03*
X95250Y977900D02*
D03*
X88900Y965200D02*
D03*
X95250Y952500D02*
D03*
X88900Y939800D02*
D03*
X95250Y927100D02*
D03*
X76200Y1066800D02*
D03*
X82550Y1054100D02*
D03*
X76200Y1041400D02*
D03*
X82550Y1028700D02*
D03*
X76200Y1016000D02*
D03*
X82550Y1003300D02*
D03*
X76200Y990600D02*
D03*
X82550Y977900D02*
D03*
X76200Y965200D02*
D03*
X82550Y952500D02*
D03*
X76200Y939800D02*
D03*
X82550Y927100D02*
D03*
X63500Y1066800D02*
D03*
X69850Y1054100D02*
D03*
X63500Y1041400D02*
D03*
X69850Y1028700D02*
D03*
X63500Y1016000D02*
D03*
X69850Y1003300D02*
D03*
X63500Y990600D02*
D03*
X69850Y977900D02*
D03*
X63500Y965200D02*
D03*
X69850Y952500D02*
D03*
X63500Y939800D02*
D03*
X69850Y927100D02*
D03*
X50800Y1066800D02*
D03*
X57150Y1054100D02*
D03*
X50800Y1041400D02*
D03*
X57150Y1028700D02*
D03*
X50800Y1016000D02*
D03*
X57150Y1003300D02*
D03*
X50800Y990600D02*
D03*
X57150Y977900D02*
D03*
X50800Y965200D02*
D03*
X57150Y952500D02*
D03*
X50800Y939800D02*
D03*
X57150Y927100D02*
D03*
X50800Y914400D02*
D03*
X766762Y292100D02*
D03*
X779463Y295275D02*
D03*
X755650Y290513D02*
D03*
X773112Y315912D02*
D03*
Y325438D02*
D03*
X784225Y327025D02*
D03*
X1150938Y185737D02*
D03*
X1041400D02*
D03*
X930275D02*
D03*
X895350Y255588D02*
D03*
X379412Y333375D02*
D03*
X349250Y201612D02*
D03*
X357188Y203200D02*
D03*
X381000Y185737D02*
D03*
X338138Y201612D02*
D03*
X282575Y382588D02*
D03*
X298450Y374650D02*
D03*
X236537Y130175D02*
D03*
X193675Y603250D02*
D03*
X174625Y617537D02*
D03*
X182563Y919163D02*
D03*
X228600Y874713D02*
D03*
X112712Y904875D02*
D03*
X173037Y884238D02*
D03*
X55563Y906462D02*
D03*
X241300Y309562D02*
D03*
X249237D02*
D03*
X273050D02*
D03*
X265112D02*
D03*
X257175D02*
D03*
X180975D02*
D03*
X188913D02*
D03*
X212725D02*
D03*
X204788D02*
D03*
X196850D02*
D03*
X122238Y788988D02*
D03*
X130175Y766762D02*
D03*
X162794Y744330D02*
D03*
X147900Y646375D02*
D03*
X136525Y623887D02*
D03*
Y604837D02*
D03*
X215900Y795338D02*
D03*
X176213Y777875D02*
D03*
X171450Y768350D02*
D03*
X228600D02*
D03*
X206375Y763587D02*
D03*
X188913Y744538D02*
D03*
X219075Y641350D02*
D03*
X196850Y639762D02*
D03*
X185737Y638175D02*
D03*
X169247Y632189D02*
D03*
X185737Y628650D02*
D03*
X168275Y623887D02*
D03*
X204788Y520700D02*
D03*
X180975D02*
D03*
X204788Y492125D02*
D03*
X188913D02*
D03*
X180975D02*
D03*
X265112D02*
D03*
X273050D02*
D03*
X257175Y520700D02*
D03*
X273050D02*
D03*
X241300D02*
D03*
X97643Y444500D02*
D03*
X250825Y455612D02*
D03*
Y439738D02*
D03*
Y431800D02*
D03*
X260350D02*
D03*
Y439738D02*
D03*
Y447675D02*
D03*
Y463550D02*
D03*
X269875D02*
D03*
Y455612D02*
D03*
Y447675D02*
D03*
Y439738D02*
D03*
Y431800D02*
D03*
X279400Y463550D02*
D03*
Y455612D02*
D03*
Y447675D02*
D03*
Y439738D02*
D03*
Y431800D02*
D03*
X196850Y454025D02*
D03*
Y461963D02*
D03*
Y441325D02*
D03*
Y433387D02*
D03*
X163512Y431800D02*
D03*
X109537D02*
D03*
X117475Y454025D02*
D03*
X109537D02*
D03*
X53975Y431800D02*
D03*
X46038D02*
D03*
X53975Y454025D02*
D03*
X46038D02*
D03*
X103188Y471488D02*
D03*
Y479425D02*
D03*
Y487363D02*
D03*
Y495300D02*
D03*
X52387Y512762D02*
D03*
X65087D02*
D03*
X77787D02*
D03*
X90487D02*
D03*
X115887D02*
D03*
X128588D02*
D03*
X141287D02*
D03*
X153988D02*
D03*
X103188D02*
D03*
Y520700D02*
D03*
X153988D02*
D03*
X141287D02*
D03*
X128588D02*
D03*
X115887D02*
D03*
X90487D02*
D03*
X77787D02*
D03*
X65087D02*
D03*
X52387D02*
D03*
X103188Y530225D02*
D03*
X153988D02*
D03*
X141287D02*
D03*
X128588D02*
D03*
X115887D02*
D03*
X90487D02*
D03*
X77787D02*
D03*
X65087D02*
D03*
X52387D02*
D03*
X103188Y539750D02*
D03*
X153988D02*
D03*
X141287D02*
D03*
X128588D02*
D03*
X115887D02*
D03*
X90487D02*
D03*
X77787D02*
D03*
X65087D02*
D03*
X52387D02*
D03*
X196850Y492125D02*
D03*
X212725D02*
D03*
Y520700D02*
D03*
X188913D02*
D03*
X196850D02*
D03*
X257175Y492125D02*
D03*
X249237D02*
D03*
X250825Y463550D02*
D03*
X260350Y455612D02*
D03*
X241300Y492125D02*
D03*
X249237Y520700D02*
D03*
X265112D02*
D03*
X209550Y422275D02*
D03*
X169862Y355600D02*
D03*
X97643Y414338D02*
D03*
X250825Y447675D02*
D03*
X161925Y444500D02*
D03*
X173037Y414338D02*
D03*
X114300Y365125D02*
D03*
X150813Y393963D02*
D03*
X195263Y382588D02*
D03*
X207962Y379412D02*
D03*
X204563Y393700D02*
D03*
X192087Y404813D02*
D03*
X182563Y414338D02*
D03*
X184150Y376237D02*
D03*
Y396875D02*
D03*
X52387Y328613D02*
D03*
X65087D02*
D03*
X77787D02*
D03*
X90487D02*
D03*
X115887D02*
D03*
X128588D02*
D03*
X141287D02*
D03*
X153988D02*
D03*
X103188D02*
D03*
X52387Y319088D02*
D03*
X65087D02*
D03*
X77787D02*
D03*
X90487D02*
D03*
X115887D02*
D03*
X128588D02*
D03*
X141287D02*
D03*
X153988D02*
D03*
X103188D02*
D03*
X52387Y309562D02*
D03*
X65087D02*
D03*
X77787D02*
D03*
X90487D02*
D03*
X115887D02*
D03*
X128588D02*
D03*
X141287D02*
D03*
X153988D02*
D03*
X103188D02*
D03*
Y301625D02*
D03*
X153988D02*
D03*
X141287D02*
D03*
X128588D02*
D03*
X115887D02*
D03*
X90487D02*
D03*
X77787D02*
D03*
X65087D02*
D03*
X52387D02*
D03*
X103188Y284163D02*
D03*
Y276225D02*
D03*
Y268288D02*
D03*
Y260350D02*
D03*
X46038Y242887D02*
D03*
Y220662D02*
D03*
X109537Y242887D02*
D03*
Y220662D02*
D03*
X163512Y222250D02*
D03*
Y241300D02*
D03*
X196850Y222250D02*
D03*
Y230187D02*
D03*
Y250825D02*
D03*
Y242887D02*
D03*
X279400Y220662D02*
D03*
Y228600D02*
D03*
Y236537D02*
D03*
Y244475D02*
D03*
Y252412D02*
D03*
X269875Y220662D02*
D03*
Y228600D02*
D03*
Y236537D02*
D03*
Y244475D02*
D03*
Y252412D02*
D03*
X260350D02*
D03*
Y244475D02*
D03*
Y236537D02*
D03*
Y228600D02*
D03*
Y220662D02*
D03*
X250825D02*
D03*
Y228600D02*
D03*
Y252412D02*
D03*
Y244475D02*
D03*
Y236537D02*
D03*
X173037Y203200D02*
D03*
X97643D02*
D03*
X161925Y233363D02*
D03*
X97643D02*
D03*
X273050Y280987D02*
D03*
X265112D02*
D03*
X241300D02*
D03*
X249237D02*
D03*
X257175D02*
D03*
X180975D02*
D03*
X188913D02*
D03*
X212725D02*
D03*
X204788D02*
D03*
X196850D02*
D03*
X1817688Y528638D02*
D03*
X979488Y287337D02*
D03*
X1087438Y239713D02*
D03*
X979488Y234950D02*
D03*
X869950Y238125D02*
D03*
X576263Y266700D02*
D03*
X666750Y255588D02*
D03*
X433387D02*
D03*
X542925Y231775D02*
D03*
X512762Y425965D02*
D03*
X1892300Y284163D02*
D03*
X915987Y603250D02*
D03*
X514350Y602938D02*
D03*
X1581150Y385762D02*
D03*
X1692275Y557212D02*
D03*
Y549275D02*
D03*
X1684337Y527050D02*
D03*
X522287Y819150D02*
D03*
X1706562Y504825D02*
D03*
X1784337Y530225D02*
D03*
X827087Y440169D02*
D03*
X862855Y416767D02*
D03*
X508000Y431800D02*
D03*
X485775D02*
D03*
X939553Y459132D02*
D03*
X923925Y430213D02*
D03*
X936524Y438150D02*
D03*
X538162Y469900D02*
D03*
X517525Y431800D02*
D03*
X582612Y889000D02*
D03*
X150813Y182825D02*
D03*
X749300Y517525D02*
D03*
X1738313Y771525D02*
D03*
X1785938Y736600D02*
D03*
X1774825D02*
D03*
X1754187Y739775D02*
D03*
X1738313Y733425D02*
D03*
X766762Y536575D02*
D03*
X749300Y454025D02*
D03*
X881062Y576263D02*
D03*
X869950Y584200D02*
D03*
X841375Y582612D02*
D03*
X468312Y584200D02*
D03*
X439738Y582612D02*
D03*
X347663Y476250D02*
D03*
X477837Y574675D02*
D03*
X365125Y536575D02*
D03*
X1651000Y460375D02*
D03*
X1581150Y447675D02*
D03*
X1797050Y736600D02*
D03*
X1930400Y731837D02*
D03*
X598488Y857250D02*
D03*
X379412Y814388D02*
D03*
X1192213Y914400D02*
D03*
X1487487Y254000D02*
D03*
X1474787D02*
D03*
X1565275Y188913D02*
D03*
X1543050Y204788D02*
D03*
X1498600Y265112D02*
D03*
X1520825D02*
D03*
X1543050D02*
D03*
X1565275D02*
D03*
X498475Y871537D02*
D03*
X1133475Y868363D02*
D03*
X911225Y857250D02*
D03*
X931862Y927100D02*
D03*
Y938213D02*
D03*
X823913Y895350D02*
D03*
X1046162D02*
D03*
X690563Y862012D02*
D03*
X887412Y920750D02*
D03*
Y912812D02*
D03*
X1109662Y920750D02*
D03*
X449263Y860425D02*
D03*
X947738Y498475D02*
D03*
X611188Y479425D02*
D03*
X950912Y488950D02*
D03*
X519313Y511375D02*
D03*
X519113Y498475D02*
D03*
X989013Y476250D02*
D03*
X584200Y463550D02*
D03*
X769938Y623887D02*
D03*
X1781175Y1006475D02*
D03*
X1806575D02*
D03*
X838200Y473075D02*
D03*
X681038Y482600D02*
D03*
X1611313Y355600D02*
D03*
X195263Y171450D02*
D03*
X192087Y193675D02*
D03*
X1609725Y446087D02*
D03*
X1868620Y771562D02*
D03*
X1893887Y764369D02*
D03*
X1895574Y752475D02*
D03*
X1909763Y795338D02*
D03*
X1893887Y775481D02*
D03*
X1927225Y714375D02*
D03*
X1922462Y752475D02*
D03*
X1930400Y1025525D02*
D03*
X1866900D02*
D03*
X1730375D02*
D03*
X1793875D02*
D03*
X1873250Y855663D02*
D03*
X1943100Y889000D02*
D03*
X1917700D02*
D03*
X1806575D02*
D03*
X1781175D02*
D03*
X1743075D02*
D03*
X1717675D02*
D03*
X1793875Y869950D02*
D03*
X1730375D02*
D03*
X1789113Y804863D02*
D03*
X1882775Y839788D02*
D03*
X1885950Y825500D02*
D03*
X1882775Y811212D02*
D03*
X1833562Y836612D02*
D03*
X1830388Y815975D02*
D03*
X1800225Y825500D02*
D03*
X1803400Y811212D02*
D03*
X1819275Y836612D02*
D03*
X1847850D02*
D03*
X1876425Y649287D02*
D03*
X1838325D02*
D03*
X1868488Y665163D02*
D03*
X1833562Y669925D02*
D03*
X1831849Y700213D02*
D03*
X1854326D02*
D03*
X1917700Y717550D02*
D03*
X1939925Y727075D02*
D03*
X1917700Y731837D02*
D03*
X1893887Y715963D02*
D03*
X1935163Y706438D02*
D03*
X1893887D02*
D03*
X1938338Y792162D02*
D03*
Y763587D02*
D03*
Y755650D02*
D03*
X1936750Y774700D02*
D03*
Y785813D02*
D03*
X1873250Y679450D02*
D03*
X1812925D02*
D03*
X1763788Y558875D02*
D03*
X1808163Y528638D02*
D03*
X1716087D02*
D03*
X1704975D02*
D03*
X1765300Y581025D02*
D03*
X379437Y906438D02*
D03*
X398438Y814413D02*
D03*
X434950D02*
D03*
X471463D02*
D03*
X485775Y863600D02*
D03*
Y847725D02*
D03*
Y833438D02*
D03*
X554038Y882650D02*
D03*
X563563Y873125D02*
D03*
X569912Y868363D02*
D03*
Y838200D02*
D03*
Y828675D02*
D03*
Y819150D02*
D03*
X508000Y871537D02*
D03*
X592137Y819150D02*
D03*
Y828675D02*
D03*
Y838200D02*
D03*
Y868363D02*
D03*
X574675Y898525D02*
D03*
X517525D02*
D03*
X508000Y841375D02*
D03*
Y855663D02*
D03*
X406400Y349250D02*
D03*
X369888D02*
D03*
X371475Y400050D02*
D03*
X184150Y165100D02*
D03*
X182563Y203200D02*
D03*
X207962Y168275D02*
D03*
X1273175Y973138D02*
D03*
Y922337D02*
D03*
Y909638D02*
D03*
X1431925Y919163D02*
D03*
X1430338Y955675D02*
D03*
Y946150D02*
D03*
X1198562Y1041400D02*
D03*
X1230312D02*
D03*
X792162Y461963D02*
D03*
X803275D02*
D03*
Y417513D02*
D03*
X792162D02*
D03*
X803275Y439869D02*
D03*
X792162Y439738D02*
D03*
X450850Y461963D02*
D03*
X438150D02*
D03*
X461963Y455612D02*
D03*
X390525Y461963D02*
D03*
X401637D02*
D03*
Y417513D02*
D03*
X390525D02*
D03*
X401637Y439869D02*
D03*
X390525Y439738D02*
D03*
X555625Y463550D02*
D03*
X617537Y438150D02*
D03*
X574675Y450850D02*
D03*
X533400Y425450D02*
D03*
X714375Y620713D02*
D03*
X450850Y439869D02*
D03*
Y417513D02*
D03*
X388937Y622300D02*
D03*
X714375Y628650D02*
D03*
X615950Y584200D02*
D03*
X722312Y620713D02*
D03*
X706438D02*
D03*
X698500D02*
D03*
X438150Y417513D02*
D03*
X414338Y622300D02*
D03*
X706438Y628650D02*
D03*
Y636587D02*
D03*
X588963Y595312D02*
D03*
X460375Y685800D02*
D03*
X454025D02*
D03*
X460375Y679450D02*
D03*
X454025D02*
D03*
X447675Y685800D02*
D03*
Y679450D02*
D03*
X412750Y417513D02*
D03*
X390525Y490537D02*
D03*
X365125D02*
D03*
X690563Y581025D02*
D03*
X649287Y595312D02*
D03*
X390525Y534987D02*
D03*
X379412D02*
D03*
X668337Y422275D02*
D03*
X612775Y571500D02*
D03*
X425450Y461963D02*
D03*
X439738Y630238D02*
D03*
X387350Y663575D02*
D03*
X585788Y554038D02*
D03*
X603250Y546100D02*
D03*
X365125Y587375D02*
D03*
X488950Y458787D02*
D03*
X498475Y455612D02*
D03*
X585788Y498475D02*
D03*
X603250Y526256D02*
D03*
Y506413D02*
D03*
X360363Y644525D02*
D03*
X649287Y584200D02*
D03*
X430213Y512762D02*
D03*
X402363Y530950D02*
D03*
X414338Y519113D02*
D03*
X441325Y547687D02*
D03*
X430213Y557212D02*
D03*
X657225Y422275D02*
D03*
X668337Y561975D02*
D03*
Y539750D02*
D03*
X650875Y547687D02*
D03*
X627062D02*
D03*
X542925Y601662D02*
D03*
X425450Y417513D02*
D03*
X576263Y463550D02*
D03*
X668337Y490537D02*
D03*
Y512762D02*
D03*
X627062Y504825D02*
D03*
X650875D02*
D03*
X347663Y498475D02*
D03*
X668337Y454025D02*
D03*
X630238D02*
D03*
X627062Y441325D02*
D03*
X654362Y636900D02*
D03*
X530225Y577850D02*
D03*
X407988Y622300D02*
D03*
X395288D02*
D03*
X401637D02*
D03*
X454025Y576263D02*
D03*
X488950Y550863D02*
D03*
X530225Y639762D02*
D03*
X501650Y585788D02*
D03*
X696650Y628913D02*
D03*
X515938Y550863D02*
D03*
X722050Y628913D02*
D03*
X542925Y571500D02*
D03*
X539750Y560387D02*
D03*
X536575Y627062D02*
D03*
X625475Y584200D02*
D03*
X520700Y536575D02*
D03*
X525462Y455612D02*
D03*
X519113Y461963D02*
D03*
X512762Y455612D02*
D03*
X487363Y471488D02*
D03*
X436562Y476250D02*
D03*
X463550Y498475D02*
D03*
Y508000D02*
D03*
X390525Y512762D02*
D03*
X463550Y515938D02*
D03*
X379412Y512762D02*
D03*
X461963Y525462D02*
D03*
X439738Y639762D02*
D03*
X444500Y569912D02*
D03*
X1049337Y935038D02*
D03*
X1077913D02*
D03*
X1016000Y901700D02*
D03*
Y890587D02*
D03*
Y879475D02*
D03*
Y868363D02*
D03*
Y857250D02*
D03*
Y846137D02*
D03*
Y835025D02*
D03*
Y823913D02*
D03*
X1111250D02*
D03*
Y835025D02*
D03*
Y846137D02*
D03*
Y857250D02*
D03*
Y868363D02*
D03*
Y879475D02*
D03*
Y890587D02*
D03*
Y901700D02*
D03*
X992188Y922337D02*
D03*
Y912812D02*
D03*
X993775Y901700D02*
D03*
X971550D02*
D03*
Y890587D02*
D03*
X993775Y879475D02*
D03*
X971550D02*
D03*
X993775Y868363D02*
D03*
X971550D02*
D03*
X993775Y857250D02*
D03*
X971550D02*
D03*
X993775Y846137D02*
D03*
X971550D02*
D03*
X993775Y835025D02*
D03*
X971550D02*
D03*
X993775Y823913D02*
D03*
X971550D02*
D03*
X1133344D02*
D03*
X1155700D02*
D03*
Y835025D02*
D03*
X1133475Y846137D02*
D03*
X1155700D02*
D03*
Y857250D02*
D03*
Y868363D02*
D03*
Y879475D02*
D03*
Y890587D02*
D03*
Y901700D02*
D03*
X1081087Y889000D02*
D03*
X1046162Y906462D02*
D03*
X911225Y879475D02*
D03*
Y901700D02*
D03*
X827087Y935038D02*
D03*
X855663D02*
D03*
X793750Y901700D02*
D03*
Y890587D02*
D03*
Y879475D02*
D03*
Y868363D02*
D03*
Y857250D02*
D03*
Y846137D02*
D03*
Y835025D02*
D03*
Y823913D02*
D03*
X889000D02*
D03*
Y835025D02*
D03*
Y846137D02*
D03*
Y857250D02*
D03*
Y868363D02*
D03*
Y879475D02*
D03*
Y890587D02*
D03*
Y901700D02*
D03*
X769938Y922337D02*
D03*
Y912812D02*
D03*
X749300Y901700D02*
D03*
Y890587D02*
D03*
Y879475D02*
D03*
Y868363D02*
D03*
X771525Y857250D02*
D03*
X749300D02*
D03*
X771525Y846137D02*
D03*
X749300D02*
D03*
X771525Y835025D02*
D03*
X749300D02*
D03*
X771525Y823913D02*
D03*
X749300D02*
D03*
X911094D02*
D03*
X933450D02*
D03*
X911225Y835025D02*
D03*
X933450D02*
D03*
Y846137D02*
D03*
Y857250D02*
D03*
Y868363D02*
D03*
Y879475D02*
D03*
Y890587D02*
D03*
Y901700D02*
D03*
X858838Y889000D02*
D03*
X823913Y906462D02*
D03*
X862012Y685800D02*
D03*
X855663D02*
D03*
X849313D02*
D03*
X815975Y622300D02*
D03*
X790575D02*
D03*
X796925D02*
D03*
X809625D02*
D03*
X803275D02*
D03*
X849313Y679450D02*
D03*
X862012D02*
D03*
X855663D02*
D03*
X766762Y587375D02*
D03*
X1014413Y571500D02*
D03*
X917575Y550863D02*
D03*
X1100137Y620713D02*
D03*
X1108075D02*
D03*
X1116012D02*
D03*
X1123950D02*
D03*
X1116012Y628650D02*
D03*
X1108075D02*
D03*
Y636587D02*
D03*
X1123688Y628913D02*
D03*
X1098288Y628913D02*
D03*
X841375Y639762D02*
D03*
Y660400D02*
D03*
X944563Y601662D02*
D03*
X935038Y425450D02*
D03*
X957262Y461963D02*
D03*
X976312Y450850D02*
D03*
X1050925Y595312D02*
D03*
Y584200D02*
D03*
X1027113D02*
D03*
X938213Y627062D02*
D03*
X1056000Y636900D02*
D03*
X931862Y639762D02*
D03*
Y577850D02*
D03*
X944563Y571500D02*
D03*
X941387Y560387D02*
D03*
X1069975Y454025D02*
D03*
X1101725Y422275D02*
D03*
X1069975D02*
D03*
X1058863D02*
D03*
X1092200Y581025D02*
D03*
X781050Y534987D02*
D03*
X792162D02*
D03*
X781050Y512762D02*
D03*
X792162D02*
D03*
X841375Y630238D02*
D03*
Y649287D02*
D03*
X814388Y417513D02*
D03*
X827087D02*
D03*
X839788D02*
D03*
X852487D02*
D03*
X863600Y455612D02*
D03*
X852487Y461963D02*
D03*
X839788D02*
D03*
X827087D02*
D03*
X792162Y490537D02*
D03*
X766762D02*
D03*
X749300Y498475D02*
D03*
X863600Y525462D02*
D03*
X842962Y547687D02*
D03*
X804000Y530950D02*
D03*
X815975Y519113D02*
D03*
X831850Y512762D02*
D03*
Y557212D02*
D03*
X927100Y455612D02*
D03*
X920750Y461963D02*
D03*
X914400Y455612D02*
D03*
X908050Y460375D02*
D03*
X909638Y431800D02*
D03*
X887412D02*
D03*
X900113Y455612D02*
D03*
X977900Y463550D02*
D03*
X1069975Y561975D02*
D03*
Y490537D02*
D03*
Y512762D02*
D03*
X1028700Y504825D02*
D03*
X1052513D02*
D03*
X1004887Y526256D02*
D03*
X987425Y498475D02*
D03*
X1004887Y506413D02*
D03*
X1069975Y539750D02*
D03*
X1052513Y547687D02*
D03*
X1028700D02*
D03*
X1004887Y546100D02*
D03*
X987425Y554038D02*
D03*
X922337Y536575D02*
D03*
X1017588Y584200D02*
D03*
X990600Y595312D02*
D03*
X846137Y569912D02*
D03*
X855663Y576263D02*
D03*
X903288Y585788D02*
D03*
X890587Y550863D02*
D03*
X1633013Y460900D02*
D03*
X1619250Y446087D02*
D03*
X1627188Y442912D02*
D03*
X1598613Y454025D02*
D03*
Y385762D02*
D03*
X1597333Y404408D02*
D03*
X1597081Y425071D02*
D03*
X1574800Y441325D02*
D03*
X1682750Y396875D02*
D03*
X1665287Y420687D02*
D03*
X1662112Y441325D02*
D03*
X1684337Y434975D02*
D03*
X1673225Y457200D02*
D03*
X1684337D02*
D03*
Y412750D02*
D03*
X1682750Y404813D02*
D03*
X1673225Y390525D02*
D03*
X1565275Y393700D02*
D03*
X1598613Y365125D02*
D03*
X1674812D02*
D03*
Y355600D02*
D03*
X1875375Y269338D02*
D03*
X1895475Y223838D02*
D03*
Y185737D02*
D03*
X1949450Y258762D02*
D03*
X1873250Y147638D02*
D03*
X849313Y357188D02*
D03*
X428625Y277812D02*
D03*
Y284163D02*
D03*
X452438Y295275D02*
D03*
X474663D02*
D03*
X482600D02*
D03*
X490537D02*
D03*
X498475Y265112D02*
D03*
X527050Y282575D02*
D03*
Y288925D02*
D03*
X428625Y341312D02*
D03*
Y347663D02*
D03*
X481012Y330200D02*
D03*
X527050Y342900D02*
D03*
Y336550D02*
D03*
X473569Y265112D02*
D03*
X431800Y358775D02*
D03*
X444500D02*
D03*
X457200D02*
D03*
X469900Y357188D02*
D03*
X431800Y401637D02*
D03*
X444500D02*
D03*
X457200D02*
D03*
X469900D02*
D03*
X615950Y244475D02*
D03*
X584200D02*
D03*
X485438Y371138D02*
D03*
X498475Y244475D02*
D03*
X476250D02*
D03*
X590550Y361950D02*
D03*
Y368300D02*
D03*
Y393700D02*
D03*
Y374650D02*
D03*
Y381000D02*
D03*
X622300Y361950D02*
D03*
Y368300D02*
D03*
Y374650D02*
D03*
Y381000D02*
D03*
Y387350D02*
D03*
X590550D02*
D03*
X622300Y393700D02*
D03*
X590550Y274638D02*
D03*
Y293687D02*
D03*
Y280987D02*
D03*
Y287337D02*
D03*
X622300Y280987D02*
D03*
Y274638D02*
D03*
Y287337D02*
D03*
Y293687D02*
D03*
X590550Y300037D02*
D03*
X622300D02*
D03*
X428625Y271462D02*
D03*
Y290513D02*
D03*
Y328613D02*
D03*
X527050Y330200D02*
D03*
Y349250D02*
D03*
X549275Y303213D02*
D03*
X590550Y268288D02*
D03*
Y306388D02*
D03*
Y349250D02*
D03*
Y400050D02*
D03*
X614362Y349250D02*
D03*
X606425D02*
D03*
X428625Y296863D02*
D03*
Y334963D02*
D03*
X527050Y295275D02*
D03*
Y276225D02*
D03*
X549275Y296863D02*
D03*
X542925D02*
D03*
X590550Y355600D02*
D03*
X434975Y271462D02*
D03*
Y328613D02*
D03*
X520700Y330200D02*
D03*
X622300Y268288D02*
D03*
Y306388D02*
D03*
Y349250D02*
D03*
X598488D02*
D03*
X622300Y400050D02*
D03*
X434975Y296863D02*
D03*
X536575D02*
D03*
X520700Y295275D02*
D03*
X622300Y355600D02*
D03*
X868363Y277812D02*
D03*
Y284163D02*
D03*
X904875Y295275D02*
D03*
X914400D02*
D03*
X922337D02*
D03*
X930275D02*
D03*
X938213Y265112D02*
D03*
X966787Y282575D02*
D03*
Y288925D02*
D03*
X868363Y341312D02*
D03*
Y347663D02*
D03*
X966787Y336550D02*
D03*
Y342900D02*
D03*
X913306Y265112D02*
D03*
X871537Y358775D02*
D03*
X884238D02*
D03*
X896937D02*
D03*
X909638Y357188D02*
D03*
X871537Y401637D02*
D03*
X884238D02*
D03*
X896937D02*
D03*
X909638D02*
D03*
X1046162Y244475D02*
D03*
X1023938D02*
D03*
X938213D02*
D03*
X915987D02*
D03*
X1030287Y361950D02*
D03*
X1062038D02*
D03*
X1030287Y374650D02*
D03*
Y387350D02*
D03*
Y393700D02*
D03*
Y368300D02*
D03*
Y381000D02*
D03*
X1062038D02*
D03*
Y387350D02*
D03*
Y393700D02*
D03*
Y368300D02*
D03*
Y374650D02*
D03*
X1030287Y274638D02*
D03*
Y293687D02*
D03*
Y280987D02*
D03*
Y287337D02*
D03*
X1062038Y274638D02*
D03*
Y287337D02*
D03*
Y280987D02*
D03*
X1030287Y300037D02*
D03*
X1062038Y293687D02*
D03*
Y300037D02*
D03*
X868363Y271462D02*
D03*
X874713D02*
D03*
X868363Y290513D02*
D03*
Y328613D02*
D03*
X874713D02*
D03*
X960437Y330200D02*
D03*
X989013Y303213D02*
D03*
X1030287Y268288D02*
D03*
Y306388D02*
D03*
X1038225Y349250D02*
D03*
X1030287D02*
D03*
Y400050D02*
D03*
X1062038Y268288D02*
D03*
Y306388D02*
D03*
X1054100Y349250D02*
D03*
X1062038D02*
D03*
Y400050D02*
D03*
X868363Y296863D02*
D03*
X874713D02*
D03*
X868363Y334963D02*
D03*
X960437Y295275D02*
D03*
X982663Y296863D02*
D03*
X976312D02*
D03*
X989013D02*
D03*
X1030287Y355600D02*
D03*
X1062038D02*
D03*
X966787Y330200D02*
D03*
Y349250D02*
D03*
X1046162D02*
D03*
X966787Y295275D02*
D03*
Y276225D02*
D03*
X771525Y357188D02*
D03*
X782637D02*
D03*
X793750D02*
D03*
X815975D02*
D03*
X849313Y261938D02*
D03*
X815975D02*
D03*
X804863D02*
D03*
X793750D02*
D03*
X782637D02*
D03*
X771525D02*
D03*
X1614487Y231775D02*
D03*
X1565013Y204525D02*
D03*
X1558925Y180975D02*
D03*
X1497012Y254000D02*
D03*
X1503737Y210763D02*
D03*
X1509713Y254000D02*
D03*
X1468438D02*
D03*
X1452563Y180975D02*
D03*
X1436687Y212725D02*
D03*
Y174625D02*
D03*
X1593925Y268213D02*
D03*
X1606550Y306388D02*
D03*
Y268288D02*
D03*
X1550988Y206375D02*
D03*
Y244475D02*
D03*
X1644650Y274638D02*
D03*
Y222250D02*
D03*
X1664037Y339388D02*
D03*
X1600200Y314587D02*
D03*
X1611313Y314325D02*
D03*
X1622425Y314587D02*
D03*
X1653837Y339388D02*
D03*
X1681163Y220662D02*
D03*
Y231775D02*
D03*
Y242887D02*
D03*
X1633537D02*
D03*
X1657188Y237319D02*
D03*
X1528763Y239713D02*
D03*
X760413Y238125D02*
D03*
X750888D02*
D03*
X488950Y192087D02*
D03*
X598488Y188913D02*
D03*
X711200Y185737D02*
D03*
X771525Y239713D02*
D03*
X782637D02*
D03*
X793750D02*
D03*
X804863D02*
D03*
X815975D02*
D03*
X827087D02*
D03*
X838200D02*
D03*
X849313D02*
D03*
Y379281D02*
D03*
X815975Y379412D02*
D03*
X827087D02*
D03*
X838200D02*
D03*
X849313Y401637D02*
D03*
X419100Y246063D02*
D03*
X204563Y182563D02*
D03*
X209550Y211138D02*
D03*
X184150Y185737D02*
D03*
X169862Y144462D02*
D03*
X114300Y153988D02*
D03*
X738187Y295275D02*
D03*
Y323850D02*
D03*
X771525Y217488D02*
D03*
X782637D02*
D03*
X793750D02*
D03*
X804863D02*
D03*
X849313D02*
D03*
X838200D02*
D03*
X827087D02*
D03*
X815975D02*
D03*
X838200Y261938D02*
D03*
X827087D02*
D03*
X771525Y401637D02*
D03*
X782637D02*
D03*
X793750D02*
D03*
X804863D02*
D03*
X838200D02*
D03*
X827087D02*
D03*
X815975D02*
D03*
X838200Y357188D02*
D03*
X827087D02*
D03*
X804863D02*
D03*
X669925Y817562D02*
D03*
Y842962D02*
D03*
X666750Y854075D02*
D03*
D244*
X1367437Y752475D02*
D03*
Y738187D02*
D03*
X1504625Y649925D02*
D03*
Y641925D02*
D03*
X1440625Y729925D02*
D03*
X1392625Y705925D02*
D03*
X1440625Y617925D02*
D03*
X1384625Y657925D02*
D03*
X1496625Y649925D02*
D03*
Y657925D02*
D03*
X1392625Y689925D02*
D03*
X1488625Y721925D02*
D03*
X1424625D02*
D03*
X1504625Y625925D02*
D03*
X1392625Y649925D02*
D03*
X1384625D02*
D03*
X1496625Y705925D02*
D03*
X1384625Y625925D02*
D03*
X1392625Y641925D02*
D03*
Y625925D02*
D03*
X1384625Y641925D02*
D03*
X1424625Y729925D02*
D03*
X1400625Y705925D02*
D03*
X1384625D02*
D03*
X1440625Y721925D02*
D03*
X1456625Y617925D02*
D03*
X1392625Y697925D02*
D03*
X1400625Y681925D02*
D03*
Y697925D02*
D03*
X1488625Y633925D02*
D03*
Y673925D02*
D03*
Y689925D02*
D03*
Y705925D02*
D03*
X1480625Y713925D02*
D03*
X1464625D02*
D03*
X1488625Y617925D02*
D03*
X1472625Y625925D02*
D03*
X1456625D02*
D03*
X1488625Y609925D02*
D03*
X1472625D02*
D03*
X1504625Y705925D02*
D03*
X1424625Y625925D02*
D03*
X1440625D02*
D03*
X1384625Y673925D02*
D03*
Y697925D02*
D03*
X1504625Y673925D02*
D03*
X1392625Y617925D02*
D03*
X1384625Y609600D02*
D03*
X1400625D02*
D03*
X1408625D02*
D03*
X1416625D02*
D03*
X1432625Y609925D02*
D03*
X1456625D02*
D03*
X1392625Y609600D02*
D03*
X1424625D02*
D03*
X1480625Y609925D02*
D03*
X1496625D02*
D03*
X1508625Y592637D02*
D03*
X1520825Y593725D02*
D03*
X1521325Y605925D02*
D03*
X1400625Y617925D02*
D03*
Y625925D02*
D03*
X1408625Y617925D02*
D03*
Y625925D02*
D03*
X1416625Y617925D02*
D03*
Y625925D02*
D03*
X1424625Y617925D02*
D03*
X1432625D02*
D03*
Y625925D02*
D03*
X1440625Y609925D02*
D03*
X1464625D02*
D03*
Y617925D02*
D03*
Y625925D02*
D03*
X1472625Y617925D02*
D03*
X1480625D02*
D03*
Y625925D02*
D03*
X1488625D02*
D03*
X1496625Y617925D02*
D03*
Y625925D02*
D03*
X1504625Y609925D02*
D03*
Y617925D02*
D03*
X1392625Y673925D02*
D03*
X1400625Y633925D02*
D03*
Y657925D02*
D03*
Y649925D02*
D03*
Y641925D02*
D03*
Y673925D02*
D03*
X1408625Y633925D02*
D03*
Y649925D02*
D03*
Y641925D02*
D03*
Y657925D02*
D03*
Y673925D02*
D03*
X1416625Y633925D02*
D03*
X1424625D02*
D03*
Y657925D02*
D03*
Y649925D02*
D03*
Y673925D02*
D03*
X1432625Y657925D02*
D03*
Y649925D02*
D03*
Y633925D02*
D03*
X1440625D02*
D03*
Y649925D02*
D03*
Y657925D02*
D03*
Y673925D02*
D03*
X1456625Y633925D02*
D03*
Y649925D02*
D03*
Y657925D02*
D03*
X1464625Y649925D02*
D03*
Y633925D02*
D03*
Y657925D02*
D03*
Y673925D02*
D03*
X1384625Y689925D02*
D03*
X1392625Y681925D02*
D03*
X1400625Y689925D02*
D03*
X1408625Y697925D02*
D03*
Y681925D02*
D03*
Y689925D02*
D03*
Y705925D02*
D03*
X1416625D02*
D03*
X1424625Y681925D02*
D03*
Y689925D02*
D03*
Y705925D02*
D03*
X1432625Y673925D02*
D03*
Y681925D02*
D03*
Y689925D02*
D03*
Y705925D02*
D03*
X1440625D02*
D03*
Y689925D02*
D03*
Y681925D02*
D03*
X1456625Y673925D02*
D03*
Y689925D02*
D03*
Y705925D02*
D03*
Y681925D02*
D03*
X1464625Y705925D02*
D03*
Y681925D02*
D03*
Y689925D02*
D03*
X1472625Y705925D02*
D03*
Y633925D02*
D03*
X1480625Y649925D02*
D03*
Y641925D02*
D03*
Y633925D02*
D03*
Y657925D02*
D03*
X1488625Y641925D02*
D03*
X1496625D02*
D03*
Y633925D02*
D03*
Y673925D02*
D03*
X1504625Y657925D02*
D03*
Y633925D02*
D03*
X1480625Y673925D02*
D03*
Y705925D02*
D03*
Y681925D02*
D03*
Y697925D02*
D03*
Y689925D02*
D03*
X1488625Y697925D02*
D03*
Y681925D02*
D03*
X1496625D02*
D03*
Y689925D02*
D03*
Y697925D02*
D03*
X1504625Y681925D02*
D03*
Y689925D02*
D03*
Y697925D02*
D03*
X1456625Y713925D02*
D03*
X1472625D02*
D03*
X1504625D02*
D03*
X1496625D02*
D03*
X1488625D02*
D03*
X1464625Y721925D02*
D03*
X1472625D02*
D03*
X1496625D02*
D03*
X1504625D02*
D03*
X1480625D02*
D03*
X1456625Y729925D02*
D03*
X1464625D02*
D03*
X1472625D02*
D03*
X1384625Y713925D02*
D03*
X1416625D02*
D03*
X1424625D02*
D03*
X1432625D02*
D03*
X1440625D02*
D03*
X1384625Y721925D02*
D03*
X1456625D02*
D03*
X1368425Y746125D02*
D03*
X1396625Y747337D02*
D03*
X1480625Y729925D02*
D03*
X1488625D02*
D03*
X1504625D02*
D03*
X1496625D02*
D03*
X1520825Y738187D02*
D03*
X1525587Y742950D02*
D03*
X1520825Y746125D02*
D03*
X1508625Y747213D02*
D03*
X1492625Y747337D02*
D03*
X1380625Y592518D02*
D03*
X1384625Y617925D02*
D03*
Y681925D02*
D03*
D245*
X407988Y212725D02*
D03*
X936625Y233363D02*
D03*
X915987D02*
D03*
X1038225D02*
D03*
X1062038D02*
D03*
X622300D02*
D03*
X598488Y234950D02*
D03*
X496888D02*
D03*
X476250D02*
D03*
X507088Y331113D02*
D03*
X946825D02*
D03*
X444500Y328613D02*
D03*
X530225Y244475D02*
D03*
X590550Y255588D02*
D03*
X884238Y328613D02*
D03*
X969962Y244475D02*
D03*
X1030287Y255588D02*
D03*
X1679575Y153988D02*
D03*
X1156488Y134150D02*
D03*
X1046950D02*
D03*
X935825D02*
D03*
X826288D02*
D03*
X716750D02*
D03*
X605625D02*
D03*
X496087D02*
D03*
X386550D02*
D03*
M02*
