M48
;Layer_Color=9474304
;FILE_FORMAT=4:4
METRIC,LZ
;TYPE=PLATED
T1F00S00C0.2000
T2F00S00C0.3000
T4F00S00C0.5000
T5F00S00C0.8000
T6F00S00C0.8100
T7F00S00C1.0160
T8F00S00C1.7000
;TYPE=NON_PLATED
T9F00S00C1.4500
T10F00S00C2.3900
T11F00S00C2.9970
T12F00S00C3.2000
T13F00S00C3.2500
%
T01
X01380625Y00592518
X01384625Y006096
X01392625
X01400625
X01408625
X01416625
X01424625
X01432625Y00609925
X01440625
Y00617925
X01432625
X01424625
Y00625925
Y00633925
X01416625
Y00625925
X01408625
Y00633925
X01400625
Y00625925
X01392625
X01384625
Y00617925
X01392625
X01400625
X01408625
X01416625
X01432625Y00625925
X01440625
Y00633925
X01432625
Y00649925
X01440625
Y00657925
X01432625
X01424625
Y00649925
X01408625
Y00641925
X01400625
X01392625
Y00649925
X01400625
Y00657925
X01408625
Y00673925
Y00681925
X01400625
Y00673925
X01392625
Y00681925
Y00689925
X01400625
Y00697925
Y00705925
X01392625
Y00697925
X01384625
Y00705925
Y00713925
Y00721925
Y00689925
Y00681925
Y00673925
Y00657925
Y00649925
Y00641925
X01424625Y00673925
Y00681925
Y00689925
X01432625
X01440625
Y00681925
Y00673925
X01432625
Y00681925
X01456625
Y00673925
X01464625
Y00681925
Y00689925
X01456625
Y00705925
X01464625
X01472625
X01480625
X01488625
Y00697925
X01480625
Y00689925
X01488625
Y00681925
Y00673925
X01480625
Y00681925
X01496625
Y00673925
X01504625
Y00681925
Y00689925
X01496625
Y00697925
Y00705925
X01504625
Y00697925
Y00713925
Y00721925
X01496625
Y00713925
X01488625
Y00721925
X01480625
Y00713925
X01472625
X01464625
Y00721925
X01472625
Y00729925
X01464625
X01456625
Y00721925
Y00713925
X01440625
Y00721925
Y00729925
X01424625
Y00721925
Y00713925
Y00705925
X01416625
X01408625
Y00697925
Y00689925
X01416625Y00713925
X01432625
Y00705925
X01440625
X01456625Y00657925
Y00649925
X01464625
Y00657925
X01480625
Y00649925
Y00641925
X01488625
Y00633925
Y00625925
X01480625
Y00633925
X01472625
Y00625925
X01464625
Y00633925
X01456625
Y00625925
Y00617925
Y00609925
X01464625
X01472625
X01480625
X01488625
Y00617925
X01480625
X01472625
X01464625
X01496625
Y00609925
X01504625
Y00617925
Y00625925
Y00633925
Y00641925
Y00649925
X01496625
Y00641925
Y00633925
Y00625925
Y00657925
X01504625
X01521325Y00605925
X01520825Y00593725
X01508625Y00592637
X01504625Y00729925
X01496625
X01488625
X01480625
X01492625Y00747337
X01508625Y00747213
X01520825Y00746125
X01525587Y0074295
X01520825Y00738187
X01396625Y00747337
X01368425Y00746125
X01367437Y00752475
Y00738187
T02
X00236537Y00130175
X01571625Y00128588
X01585912
X0189865Y00138112
Y00157163
X01895475Y00185737
Y00223838
X018923Y00284163
X01875375Y00269338
X01876425Y00334963
X01878013Y00384175
Y00392113
X01862137Y00381
X01858963Y00371475
X01862137Y004191
X01871662Y00423862
X01884362
X01909763Y0042545
X01922462
X01919288Y004445
X01900237Y00447675
Y0041275
X0191135Y00398462
X01944688Y00392113
Y00384175
X019558Y00358775
X01905
X01814512Y0036195
Y00401637
X01808163Y00407988
X01801812Y00417513
X017907Y00442912
Y0045085
X01798638Y00466725
X0179705Y00474663
X01808163Y00461963
X01817688
X01857375
X01773237Y00469907
X0175895Y004826
Y00494665
X017526
X0174625
X01743075Y00479425
X0174625Y00471488
X01757363Y004572
X01751013Y00417513
X01738313Y003429
X01741487Y00282575
Y00244475
X01744662Y002159
Y0019685
X01795462Y003175
X019685Y00303213
X0194945Y00258762
X01971675Y00404813
X01973262Y0042545
X01817688Y00528638
X01808163
X01784337Y00530225
X0175895Y00521335
X017526
X0174625
X0187325Y00147638
X01719263Y00206375
X01709738Y00207962
X01692275Y00230187
X01681163Y00231775
Y00220662
Y00242887
X01657188Y00237319
X0164465Y0022225
X01660525Y00211138
X01633537Y00242887
X01614487Y00231775
X0160655Y00268288
X01593925Y00268213
X01565275Y00265112
X0154305
X01520825
X014986
X01497012Y00254
X01487487
X01474787
X01468438
X01470025Y00277812
X01487487Y00288925
X01512888
X01531938
X01554162
X01550988Y00244475
X01528763Y00239713
X01509713Y00254
X01503737Y00210763
X01498488Y00197588
X01487487
X01476487
Y00186588
X01487487
X01498488
X01452563Y00180975
X01436687Y00174625
Y00212725
X014097Y00198438
X01393825Y00214312
X01398587Y0022225
X01397Y00244475
Y00255588
X014097Y00265112
X01402072Y00276225
X01395412Y00284163
Y0029845
Y00306388
Y003175
X01387475Y00314325
X01382713Y0029845
X01374775Y00295275
X01363663Y00293687
X01343806Y002921
X01349375Y002667
X01368425Y0031115
X013589Y00339725
X01355725Y00352425
X01368425Y003556
X01343025Y00346075
X01347787Y00333375
X0133985Y003302
X013462Y00381
X01374775Y003937
X01392238Y00396875
X01385887Y0041275
X01404937Y00415925
X01420813Y00404813
Y00379412
X0142875Y00365125
X01438275Y00366712
Y00354012
X01427348Y00352239
X01406525Y00354012
X01411288Y003429
X01450975
X01463675Y00338138
Y00352425
Y00363537
X01468438Y0038735
X0147955Y00384175
Y00392113
Y0040005
X01495425
Y00411162
X01503362
X015113
X01520825
X01527175Y00417513
X01525587Y00436562
X01535112Y0043815
X01519238Y00442912
X01525587Y00455612
X015113Y0046355
X014986Y0047625
X01500188Y0048895
X01495425Y00447675
X01484312Y004572
X01465262Y00454025
X01450975Y00434975
X0144145Y00430213
X01430338Y00423862
X01487487Y00411162
X01495425Y00377825
Y003556
X0147955Y00344487
X01509713Y00341312
X01520825Y00325417
X01560513Y003429
X01585912Y00347663
X01611313Y00346075
Y003556
Y00365125
X01598613
Y00385762
X0158115
X01565275Y003937
X01552575Y00390525
X015494Y00398462
X01548618Y00409575
X01546225Y00384175
Y00376237
X01619362
X01627188Y00373063
X01635125
X01643062
X01651
X01666875
X01658938Y00381
X01673225Y00390525
X0168275Y00396875
Y00404813
X01684337Y0041275
X01665287
Y00420687
X01662112Y00441325
X01673225Y004572
X01684337
Y00434975
X01704975Y00430213
X017145
X0170815Y00439738
X01724025Y00442912
Y0045085
X01719263Y00474663
X0170815Y00477837
X01706562Y00494665
Y00504825
X01704975Y00528638
X01716087
X01684337Y0052705
X01636712Y0047625
X01633013Y004609
X01651Y00460375
X01627188Y00442912
X0161925Y00446087
X01609725
X01598613Y00454025
X01579563Y00455612
X0158115Y00447675
X015748Y00441325
X01597081Y00425071
X01597333Y00404408
X01619362Y00405662
Y00416662
X01630363
X01641362
Y00405662
X01630363
X0163195Y00339388
X01639577Y00343211
X01647863Y00352425
X01653837Y00339388
X01664037Y00339388
X01674812Y00325438
Y003556
Y00365125
X01722437Y00396875
X017272Y0041275
X01721387Y00328075
X01703387Y00282575
X0164465Y00274638
X01622425Y00314587
X01611313Y00314325
X016002Y00314587
X0160655Y00306388
X01630363Y00325438
X0160655Y00479425
X01576387Y00500062
X01570038Y004953
X015621Y00492125
X01582737Y00528638
X01435906Y005334
X013589Y00531813
X01336675Y00536575
X01341438Y0048895
X01347787Y00484188
X01354138Y0048895
X01335087Y00484188
X01431925Y00271462
X01458913Y00236537
X0154305Y00204788
X01550988Y00206375
X01565013Y00204525
X01565275Y00188913
X01558925Y00180975
Y00174625
X01550988
X01298575Y00196068
X01290638Y00220662
X01284288Y00227013
X01292225Y0023495
X01301701Y00239761
X01290638Y00252412
X01284288Y00257175
X01287462Y00280987
X01271588Y00282575
X01268412Y00274638
X01254125Y0027305
Y0026035
X01247775Y002667
Y002794
Y00292
X01254125Y0028575
Y0029845
X01247775Y003048
X01277937Y00307975
X01293813Y00309562
Y00301625
X01300163Y00314325
X01303531Y00321062
X01319212Y00320675
X01323975Y00327025
X01322388Y00296863
X01331913Y00288925
X01330325Y00276225
X01325562Y002667
X01322388Y00257175
Y00249237
Y00236537
Y00223838
X01273175Y00233363
X01265238Y00239713
X01303338Y00265112
X01298575Y00371475
X01311275Y00377825
X0132715Y00381
X01284288Y0036195
X01249362Y00365125
X01255648Y00371475
X01249362Y00377825
X01255648Y00384175
X01249362Y00390525
X01255648Y00396875
X01249362Y00403225
X01255713Y00409575
X01249362Y00415925
X01255648Y00422275
X01249362Y00428625
X012573Y004699
Y004826
Y004953
Y00508
X0126365Y0050165
Y0048895
Y0047625
Y0046355
X0127635Y00458787
X01298575Y0046355
X01303338Y00496888
X01316037Y00492125
X01328737Y0048895
X0131445Y00531813
X01304925Y00523875
X012827Y0052705
X01255713Y00522287
X012446Y0051435
X01211263Y00518307
Y0052705
X01207441Y00538906
X0121285Y0050165
X01208087Y004826
X01169987Y00476
Y00468
Y0046
Y00452
Y00444
Y00436
Y00428
Y0042
Y00412
Y00404
Y00396
X01177925Y00385762
X01185863Y00384175
Y003683
X01177925Y00369888
Y00354012
X01185863Y00352425
Y0033655
X01177925Y00338138
X01169987Y00324
Y00316
Y00308
Y003
Y00292
Y00284
Y00276
Y00268
Y0026
X01176338
Y00252
X01169987
Y00244
X01189037
X01147763Y00242887
X01150938Y00185737
X010414
X01046162Y00244475
X01023938
X01030287Y00268288
Y00274638
Y00280987
Y00287337
Y00293687
Y00300037
Y00306388
X01062038
Y00300037
Y00293687
Y00287337
Y00280987
Y00274638
Y00268288
X01087438Y00239713
X01084262Y00339725
X01076325Y00344487
X01062038Y0034925
Y003556
Y0036195
Y003683
Y0037465
Y00381
Y0038735
Y003937
Y0040005
X01058863Y00422275
X01069975
Y00454025
X010795Y00477837
X01069975Y00490537
Y00512762
X01052513Y00504825
X010287
X01004887Y00506413
X00996903Y00506525
X00987425Y00498475
X00989013Y0047625
X009779Y0046355
X00976312Y0045085
X00957262Y00461963
X00939553Y00459132
X00950912Y0048895
X00947738Y00498475
X01004887Y00526256
X01031875Y00454025
X010287Y00446087
X01030287Y0040005
Y003937
Y0038735
Y00381
Y0037465
Y003683
Y0036195
Y003556
Y0034925
X01038225
X01046162
X010541
X00966787
Y003429
Y0033655
Y003302
X00960437
X00939575Y00318237
Y00307237
X00960437Y00295275
X00966787
Y00288925
Y00282575
Y00276225
X00979488Y00287337
X00982663Y00296863
X00976312
X00989013
Y00303213
X00979488Y0023495
X00938213Y00244475
Y00265112
X00942975Y003556
X0094858Y00369045
X00949325Y00379412
X009398
Y00401637
X00949325
X0095885
X00966787Y00413531
X00976312Y00415925
X0094615Y00413531
X01101725Y00422275
X01138238Y00417513
X01147763Y00415925
X01141413Y00404813
X01147763Y004699
Y00528638
X01120766Y00518307
X00907175Y00518875
Y00528875
Y00538875
X00897175
X00887175
X00877175
Y00528875
Y00518875
Y00508875
X00887175
X00897175
X00907175
X00897175Y00518875
X00887175
Y00528875
X00897175
X00922337Y00536575
X008636Y00525462
Y00515938
Y00506413
Y00498475
Y00455612
X00852487Y00461963
X00839788
X008382Y00473075
X00827087Y00461963
Y00440169
X00814388
X00803275Y00439869
X00792162Y00439738
Y00461963
X00803275
X00792162Y00490537
Y00512762
X0078105
Y00534987
X00792162
X00804Y0053095
X00815975Y00519113
X0083185Y00512762
X00846137Y00439738
X00860425Y004318
X0086995Y0042545
X00862855Y00416767
X00852487Y00417513
X00839788
X00827087
X00814388
X00803275
X00792162
X0078105
X00782637Y00401637
X00771525
X00760413
X00733425
X0073025Y00392113
X00733425Y00379412
X00722312Y00354012
X0073025Y0032385
X00738187
Y00295275
X00731837Y00290513
X0073025Y0027305
Y00249237
Y00225425
X00750888Y00238125
X00760413
X00771525Y00239713
X00782637
X0079375
X00804863
X00815975
X00827087
X008382
X00849313
Y00261938
X008382
X00827087
X00815975
X00804863
X0079375
X00782637
X00771525
X00766762Y002921
X0075565Y00290513
X00779463Y00295275
X00773112Y00315912
Y00325438
X00784225Y00327025
X00782637Y00357188
X00771525
X0079375
X00804863
X00815975
X00827087
X008382
X00849313
Y00379281
X008382Y00379412
X00827087
X00815975
Y00401637
X00804863
X0079375
X00827087
X008382
X00849313
X00871537
X00884238
X00896937
X00909638
X0092075
X00930275
Y00379412
X0092075Y00369888
Y00352425
X00909638Y00357188
X00896937Y00358775
X00884238
X00871537
X00868363Y00347663
Y00341312
Y00334963
Y00328613
X00874713
X00895575Y00318237
X00906575
X00917575
X00928575
Y00307237
X00917575
X00906575
X00895575
X00904875Y00295275
X009144
X00922337
X00930275
X00913306Y00265112
X00915987Y00244475
X0089535Y00255588
Y00230187
X0086995Y00238125
X00868363Y00271462
Y00277812
Y00284163
Y00290513
Y00296863
X00874713
Y00271462
X00849313Y00217488
X008382
X00827087
X00815975
X00804863
X0079375
X00782637
X00771525
X00763587Y00201612
X00782637Y00192087
X0079375
X00804863
X00827087
X008382
X00858838Y00201612
X00930275Y00185737
X007112
X00676275Y00225425
Y00249237
X0066675Y00255588
X00676275Y0027305
Y00296863
Y00320675
X00682625Y003556
X00676275Y003683
Y00392113
X00668337Y00422275
X00657225
X00696913
X00684212Y00454025
X00668337
Y00490537
X00681038Y004826
X00668337Y00512762
X00650875Y00504825
X00627062
X0060325Y00506413
Y00526256
X00585788Y00498475
X005842Y0046355
X00576263
X00574675Y0045085
X00555625Y0046355
X00611188Y00479425
X00630238Y00454025
X00627062Y00441325
X00617537Y0043815
X006223Y0040005
Y003937
Y0038735
Y00381
Y0037465
Y003683
Y0036195
Y003556
Y0034925
X00614362
X00606425
X00598488
X0059055
Y003556
Y0036195
Y003683
Y0037465
Y00381
Y0038735
Y003937
Y0040005
Y00306388
Y00300037
Y00293687
Y00287337
Y00280987
Y00274638
Y00268288
X00576263Y002667
X005842Y00244475
X0061595
X006223Y00268288
Y00274638
Y00280987
Y00287337
Y00293687
Y00300037
Y00306388
X00549275Y00303213
Y00296863
X00542925
Y00231775
X00598488Y00188913
X007493Y00454025
Y00498475
Y00517525
X00766762Y00536575
Y00490537
X0073025Y004826
X00889Y00473075
X00892175Y00465137
X00900113Y00455612
X0090805Y00460375
X009144Y00455612
X009271
X0092075Y00461963
X00923925Y00430213
X00915987Y0042545
X00909638Y004318
X00887412
X00892231Y00420155
X00885825Y00415925
X00884155Y0045553
X00936524Y0043815
X00935038Y0042545
X00903288Y00379412
X00890587
X00877887
X00509588
X00500062
X00498475Y00371475
X00485438Y00371138
X00490537Y00379412
Y00401637
X00500062
X00509588
X00512762Y00425965
X00508Y004318
X00517525
X00534987Y00434975
X005334Y0042545
X0052705Y004191
X00490537Y00420687
X00485775Y00414338
X00481012Y00401637
X004699
X004572
X004445
X004318
X0043815Y00417513
X0045085
X00465137Y00416707
X00460375Y00427038
X00468312Y004318
X00485775
X00493713Y00433387
X00498475Y00455612
X0048895Y00458787
X00487363Y00471488
X00478582Y00464296
X00461963Y00455612
X0045085Y00461963
X0043815
X0042545
X00401637
X00390525
Y00439738
X00401637Y00439869
X0041275Y00440169
Y00417513
X00401637
X00390525
X00388937Y00401637
X00371475Y0040005
X00369888Y0034925
X00379412Y00333375
X00404813Y00338138
X004064Y0034925
X00428625Y00347663
Y00341312
Y00334963
Y00328613
X00434975
X00455838Y00318237
X00466838
X00477837
X00488838
X00499837
Y00307237
X00488838
X00477837
X00466838
X00455838
X00452438Y00295275
X00434975Y00296863
X00428625
Y00290513
Y00284163
Y00277812
Y00271462
X00434975
X00433387Y00255588
X004191Y00246063
X00404813Y00254
X00473569Y00265112
X00471223Y0027227
X00474663Y00295275
X004826
X00490537
X005207
X0052705
Y00288925
Y00282575
Y00276225
X00536575Y00296863
X0052705Y003302
Y0033655
Y003429
Y0034925
X005207Y003302
X00481012
X004699Y00357188
X004572Y00358775
X004445
X004318
X0043815Y00379412
X0045085
X0046355
X00503237Y00358775
X00498475Y00265112
Y00244475
X0047625
X0048895Y00192087
X00381Y00185737
X00357188Y002032
X0034925Y00201612
X00338138
X00288925Y00204788
X002794Y00220662
Y002286
Y00236537
Y00244475
Y00252412
X00269875
Y00244475
Y00236537
Y002286
Y00220662
X0026035
Y002286
Y00236537
Y00244475
Y00252412
X00250825
Y00244475
Y00236537
Y002286
Y00220662
X0020955Y00211138
X0019685Y0022225
Y00230187
Y00242887
Y00250825
Y00280987
X00188913
X00180975
X00204788
X00212725
Y00309562
X00204788
X0019685
X00188913
X00180975
X00153988
Y00301625
Y00319088
Y00328613
X00169862Y003556
X00153988Y00373063
X00150813Y00393963
X0018415Y00396875
X00192087Y00404813
X00182563Y00414338
X00173037
X00163512Y004318
X00149225
X00161925Y004445
X00163512Y00454025
X0019685
Y00461963
Y00441325
Y00433387
X0020955Y00422275
X00204563Y003937
X00207962Y00379412
X00195263Y00382588
X0018415Y00376237
X00282575Y00382588
X00291814Y00390262
X0029845Y0037465
X00290513Y0041275
X002794Y004318
Y00439738
Y00447675
Y00455612
Y0046355
X00269875
Y00455612
Y00447675
Y00439738
Y004318
X0026035
Y00439738
Y00447675
Y00455612
Y0046355
X00250825
Y00455612
Y00447675
Y00439738
Y004318
X00249237Y00492125
X00257175
X00265112
X0027305
Y005207
X00265112
X00257175
X00249237
X002413
X00212725
X00204788
X0019685
X00188913
X00180975
X00153988
Y00512762
Y00530225
X00180975Y00492125
X00188913
X0019685
X00204788
X00212725
X002413
X00347663Y00498475
Y0047625
X00365125Y00490537
X00377825
X00390525
Y00512762
X00379412
Y00534987
X00390525
X00402363Y0053095
X00414338Y00519113
X00430213Y00512762
X0046355Y00515938
Y00508
Y00498475
X00475537Y00508875
X00485537
X00495537
X00505537
Y00518875
Y00528875
Y00538875
X00495537
X00485537
X00475537
Y00528875
Y00518875
X00485537
X00495537
Y00528875
X00485537
X00461963Y00525462
X005207Y00536575
X00519313Y00511375
X00519113Y00498475
Y00461963
X00525462Y00455612
X00512762
X00538162Y004699
X00436562Y0047625
X0045085Y00439869
X0042545Y00417513
X00388937Y00357188
X0027305Y00309562
X00265112
X00257175
X00249237
X002413
Y00280987
X00249237
X00257175
X00265112
X0027305
X00287337Y0015875
X00207962Y00168275
X00195263Y0017145
X0018415Y001651
Y00185737
X00192087Y00193675
X00182563Y002032
X00173037
X00163512Y0022225
X00161925Y00233363
X00163512Y002413
X00149225Y00220662
X00150813Y00182825
X00153988Y00161925
X00169862Y00144462
X00204563Y00182563
X00365125Y00536575
X00141287Y00530225
Y005207
Y00512762
X00128588
Y005207
Y00530225
X00115887
Y005207
Y00512762
X00103188
Y005207
Y00530225
X00090487
Y005207
Y00512762
X00077787
Y005207
Y00530225
X00065087
Y005207
Y00512762
X00052387
Y005207
Y00530225
X00053975Y00454025
X00061912
X0006985
X00077787
Y004318
X00085725
X0006985
X00061912
X00053975
X00046038
Y00454025
X00097643Y004445
X00109537Y00454025
X00117475
X00125413
X0013335
X00141287
Y004318
X0013335
X00125413
X00117475
X00109537
X00097643Y00414338
X00103188Y00471488
Y00479425
Y00487363
Y004953
X001143Y00365125
X00115887Y00328613
Y00319088
Y00309562
Y00301625
X00103188
Y00309562
Y00319088
Y00328613
X00090487
Y00319088
Y00309562
Y00301625
X00077787
Y00309562
Y00319088
Y00328613
X00065087
Y00319088
Y00309562
Y00301625
X00052387
Y00309562
Y00319088
Y00328613
X00128588
Y00319088
Y00309562
Y00301625
X00141287
Y00309562
Y00319088
Y00328613
X00103188Y00284163
Y00276225
Y00268288
Y0026035
X00109537Y00242887
X00117475
X00125413
X0013335
X00141287
Y00220662
X0013335
X00125413
X00117475
X00109537
X00085725
X00077787
X0006985
X00061912
X00053975
X00046038
Y00242887
X00053975
X00061912
X0006985
X00077787
X00097643Y00233363
Y002032
X001143Y00153988
X00115887Y0053975
X00103188
X00090487
X00077787
X00065087
X00052387
X000508Y005588
X000635
X000762
X000889
X001016
X001143
X00127
X001397
X0013335Y005715
X0012065
X0010795
X0009525
X0008255
X0006985
X0005715
X000635Y005842
X000762
X000889
X001016
X001143
X00127
X001397
X00136525Y00604837
Y00623887
X00125413Y00652462
X00128588Y006731
Y00681038
Y00688975
Y00696913
Y0070485
Y00712787
Y00720725
Y00728662
Y007366
X00130175Y00766762
X00122238Y00788988
X0013335Y00828675
Y00836612
Y0084455
Y00852487
Y00860425
Y00868363
X00141287
X00112712Y00904875
X001143Y009144
X0010795Y009271
X0009525
X0008255
X0006985
X0005715
X000508Y009144
X00055563Y00906462
X000635Y008382
X0006985Y008255
X000635Y008128
X0006985Y008001
X000635Y007874
X0006985Y007747
X000635Y00762
X0006985Y007493
X000635Y007366
X0006985Y007239
X000635Y007112
X0006985Y006985
X000635Y006858
X0006985Y006731
X000635Y006604
X0006985Y006477
X000635Y00635
X0006985Y006223
X000635Y006096
X0006985Y005969
X0005715
X000508Y005842
X00128588Y0053975
X00141287
X00153988
X001524Y005588
X001651
X001778
X001905
X0018415Y005715
X0017145
X0015875
X0014605
X001524Y005842
X001651
X001778
X001905
X00193675Y0060325
X00174625Y00617537
X00168275Y00623887
X00169247Y00632189
X00185737Y0062865
Y00638175
X0019685Y00639762
X00219075Y0064135
X00244475Y006731
Y00681038
Y00688975
Y00696913
Y0070485
Y00712787
Y00720725
Y00728662
Y007366
X002286Y0076835
Y00776288
X002159Y00795338
X0024765
Y00803275
Y0081915
Y00827087
Y00835025
X00220662Y00836612
Y00828675
Y0084455
Y00852487
Y00860425
X002286Y00874713
X0024384Y0087503
X0026162
X0027051
X002794
X0028829
X00283845Y0086614
X00274955
Y0088392
X00266065
X00283845
X00301625Y00879475
Y00873125
Y0084836
Y0083058
Y008128
Y0079502
Y0075946
Y0074168
Y007239
Y0070612
Y0068834
X0036195Y006858
X0037465
X003683Y006985
X003556
X0036195Y007112
X0037465
X0038735
X0040005
X0041275
X004064Y007239
X0041275Y007366
X004064Y007493
X003937
X00381
X003683
X003556
X0036195Y00762
X0037465
X0038735
X0040005
X0041275
X004191Y007747
X004318
X004445
X004572
X004699
X004826
X00471463Y00814413
X00485775Y00833438
Y00847725
Y008636
Y00874713
X00498475Y00871537
X00508
Y00855663
X00498475
X00508Y00841375
X00531575Y008459
Y008559
Y008659
Y008359
X00522287Y0081915
X00517525Y00898525
X00430213Y00912489
X00414338Y00879475
X00449263Y00860425
X0043495Y00814413
X00398438
X00379412Y00814388
X00381Y007747
X003937
X004064
X003683
X003556
X00325438Y00782637
X00206375Y00763587
X00188913Y00744538
X00162794Y0074433
X00163738Y0071585
X00174737
X00185737
X00196737
X00207738
Y0070485
Y0069385
X00196737
Y0070485
X00185737
Y0069385
X00174737
Y0070485
X00163738
Y0069385
X001479Y00646375
X0017145Y0076835
X00176213Y00777875
X001651Y00868363
X00157163
X00149225
X00173037Y00884238
X00182563Y00919163
X002413Y009144
X00246063Y00906462
X0024765Y009271
X0026035
X0027305
X0028575
X0029845
X00379437Y00906438
X0043815Y007366
X004318Y007239
X00447675Y006858
X00454025
X00460375
Y0067945
X00454025
X00447675
X00439738Y006604
Y006477
Y00639762
Y00630238
X00447675Y00614362
X00454025Y00620713
X00477837
X00484188Y0061595
X004953
X00506413
X0050165Y00620713
X00524681
X00528638Y0062865
X00536575Y00627062
X00530225Y00639762
X0048895Y00649287
X0051435Y00602938
X0050165Y00585788
X00468312Y005842
X00477837Y00574675
X00454025Y00576263
X004445Y00569912
X00439738Y00582612
X00430213Y00557212
X00441325Y00547687
X0048895Y00550863
X00515938
X00530225Y0057785
X00414338Y006223
X00407988
X00401637
X00395288
X00388937
X00358775Y00620713
X00360363Y00644525
X003556Y006731
X003683
X0038735Y00663575
X00365125Y00587375
X00319088Y00617537
X0050165Y007366
X0051435
X0052705
X0053975
X0055245
X005588Y007747
X005715
X005842
X005969
X006096
X0061595Y007366
X0062865
X0064135
X0065405
X0066675
X0067945
X0070485
X0071755
X0073025
X00731837Y00700088
Y0069215
Y00684212
Y00676275
Y00668337
Y006604
X00750888Y0066675
X00763587Y00644525
X00790575
Y006223
X00796925
X00803275
X00809625
X00815975
X00841375Y00630238
Y00639762
Y00649287
Y006604
X00849313Y0067945
Y006858
X00855663
X00862012
Y0067945
X00855663
Y00620713
X00849313Y00614362
X00879475Y00620713
X00885825Y0061595
X00896937
X00903288Y00620713
X0090805Y0061595
X00915987Y0060325
X00903288Y00585788
X00881062Y00576263
X0086995Y005842
X00855663Y00576263
X00846137Y00569912
X00841375Y00582612
X0083185Y00557212
X00842962Y00547687
X00890587Y00550863
X00917575
X00931862Y0057785
X00932669Y00632274
X00931862Y00639762
X0093345Y007366
X0092075
X0090805
X0089535
X00889Y007747
X008763
X008636
X008509
X008382
X008255
X008128
X008001
X0080645Y00762
X008128Y007493
X008001
X0080645Y007366
X00773112Y00747712
X00771525Y00823913
Y00835025
Y00846137
Y0085725
Y00868363
Y00879475
Y00890587
Y009017
X00769938Y00912812
Y00922337
X007493Y009017
Y00890587
Y00879475
Y00868363
Y0085725
Y00846137
Y00835025
Y00823913
X00725488Y00817562
X00708025Y00823913
Y00830263
Y00836612
Y00854075
X00690563Y00862012
X0067907Y00862393
X0066675Y00854075
X00658812
Y00868363
X00688975Y00874713
X00669925Y00842962
Y00817562
X00592137Y0081915
Y00828675
Y008382
Y00847725
X00598488Y0085725
X00592137Y00868363
X00569912
X00563563Y00873125
X00554038Y0088265
X00573088Y00889
X00582612
X00574675Y00898525
X00606425Y00889
X00568325Y00847725
X00569912Y008382
Y00828675
Y0081915
X00562301Y00853379
X00541575Y008559
Y008659
Y008459
Y008359
X0056515Y006985
X0057785
X0059055
X0060325
X005969Y006858
X005842
X005715
X005588
X005969Y006604
X0060325Y006477
X00654362Y006369
X00681038Y0062865
X0069665Y00628913
X006985Y00620713
X00706438
X00714375
Y0062865
X00706438
Y00636587
X0072205Y00628913
X00722312Y00620713
X007158Y00599425
X007239Y0059055
X00690563Y00595312
Y00581025
X00668337Y00561975
Y0053975
X00650875Y00547687
X00627062
X0060325Y005461
X00585788Y00554038
X00588963Y00595312
X0061595Y005842
X00625475
X00649287
Y00595312
X00612775Y005715
X00542925
X0053975Y00560387
X00542925Y00601662
X00555625Y00612775
X00677862Y006604
Y00668337
Y00676275
Y00684212
Y0069215
Y00700088
X00769938Y00623887
X00766762Y00587375
X0079375Y00823913
Y00835025
Y00846137
Y0085725
Y00868363
Y00879475
Y00890587
Y009017
X00823913Y00906462
Y0089535
Y00884238
X00833438Y009017
X00858838Y00889
X00889Y00890587
Y00879475
Y00868363
Y0085725
Y00846137
Y00835025
Y00823913
X00911094
X00911225Y00835025
Y00846137
Y0085725
Y00868363
Y00879475
Y009017
X00889
X00887412Y00912812
Y0092075
X00855663Y00935038
X00827087
X00931862Y009271
X0093345Y009017
Y00890587
Y00879475
Y00868363
Y0085725
Y00846137
Y00835025
Y00823913
X00739775Y00849313
X0097155Y00846137
Y0085725
Y00868363
Y00879475
Y00890587
Y009017
X00993775
Y00890587
Y00879475
Y00868363
Y0085725
Y00846137
Y00835025
Y00823913
X01016
Y00835025
Y00846137
Y0085725
Y00868363
Y00879475
Y00890587
Y009017
X00992188Y00912812
Y00922337
X01049337Y00935038
X01077913
X01109662Y0092075
Y00912812
X0111125Y009017
Y00890587
Y00879475
Y00868363
Y0085725
Y00846137
Y00835025
Y00823913
X01133344
X01133475Y00835025
Y00846137
Y0085725
Y00868363
Y00879475
Y00890587
Y009017
X011557
Y00890587
Y00879475
Y00868363
Y0085725
Y00846137
Y00835025
Y00823913
X0117475Y00795338
X01169987Y00788988
X01177925Y0078105
Y00773112
Y00765175
X01179512Y00754062
X01154112Y007648
X01141413Y0078105
X01135062Y007874
X0112395Y007366
X0111125
X0109855
X0108585
X0107315
X0106045
X0104775
X0103505
X0102235
X0100965Y006985
X0099695
X0098425
X0097155
X0095885
X009652Y006858
X009779
X009906
X010033
Y006604
X0100965Y006477
X01056Y006369
X01068388Y00625475
X010795Y00617395
X01100137Y00620713
X01108075
X01116012
X0112395
X01123688Y00628913
X01116012Y0062865
X01108075
Y00636587
X01098288Y00628913
X010795Y006604
Y00668337
Y00676275
Y00684212
Y0069215
Y00700088
X01133475
Y0069215
Y00684212
Y00676275
Y00668337
Y006604
X01169987Y00620713
X0116205Y0060325
X01147763Y00582612
X01189037Y0059055
X01201738Y00612775
Y0056515
X012446Y0055245
X01287462
X01293813Y00547687
X0130175Y00542925
X01311275
X0132715Y00569912
Y00581025
X01317625Y005842
X01325562Y00599294
X01311275Y00608013
X01298575Y006096
X01293813Y00598488
X01279525Y00595312
X01274762Y0060325
X01255713Y00611188
X01262063Y00617537
X01268412Y00625475
X01262063Y00635
X01268412Y00645331
X0126365Y00652462
X01272259Y00653476
X01280331Y00661084
X01272833Y006688
X01279525Y0067945
X01306512Y00677862
X01316037
X013208Y00681038
X01328737Y0066675
X01280331Y00645331
X01247775Y00646113
X01260475Y00663575
X01223962Y00665911
Y00673443
Y006816
X01245494Y0069285
X01247775Y00700088
X01223962Y0072
Y0074295
X01310054Y00773112
X01319212
Y008001
X0131445Y0080645
X01319212Y008128
X01303338Y00815975
X01293813Y00808037
Y00841375
X01300163Y00846137
X01287462Y00836612
X01281113Y0083185
X01274762Y00827087
X01260475Y008382
X01267667Y0085482
X01273175Y00909638
Y00922337
X012827Y00931862
Y009017
X01192213Y009144
X01177925Y00931862
X01157288Y009271
X01152525Y0093345
Y0092075
X01157288Y009144
X01163637Y0090805
X01208087Y00852487
X01081087Y00889
X01055687Y009017
X01046162Y00906462
Y0089535
X0097155Y00835025
Y00823913
X009779Y007747
X009906
X010033
X009652
X0094615Y007366
X00938213Y00627062
X00944563Y00601662
X00957262Y00612775
X00968375Y00611188
X009906Y00595312
X01017588Y005842
X01027113
X01050925
Y00595312
X01068388Y00592137
Y005715
X01069975Y00561975
Y0053975
X01052513Y00547687
X010287
X01020762Y00550863
X01004887Y005461
X00987425Y00554038
X01014413Y005715
X00944563
X00941387Y00560387
X010922Y00581025
X01087438Y007493
X01287462Y00582612
X01352012Y00569912
X01335087Y0055245
X0143345Y00547687
X01435906Y00541338
X01447737Y00555625
X01577975Y0056515
X01584325Y00564981
X01590675Y0056515
X01589088Y00587375
X01577975
X0160655Y00574675
X01624012Y00593725
X01630363Y00600075
X01643062Y006096
X01652587
X01660525
X01666875Y005969
X01672419Y00588963
X01654175Y00581025
X01684337Y00554038
X01692275Y00557212
Y00549275
X01711325Y0057785
X01728788Y0061595
Y00625475
Y00633413
Y0064135
Y00661988
Y00669925
X01692275Y00676275
X01697038Y0064135
Y00633413
Y00625475
X01681163Y00619125
X01641475Y00655638
X01630363Y00661988
X01641475Y00677862
X01616075Y00676275
X01608138Y00674688
X01585912Y006731
X01576387
X01571625Y00669925
X01563687Y00684212
X01592263Y00712787
X01601788
X01609725
X01617663
X01647825Y00725488
X01673225Y00719137
X01693862Y00720725
X01704975Y00719137
X01673225Y00782637
X016891Y008128
X01719263
X01704975Y00827087
X01685925Y008763
X0167005
X01654175
X016383
X01646237Y00884238
X01662112
X01677988
X0167005Y00892175
X01685925
X01677988Y00900113
X01662112
X01654175Y00892175
X016383
X01646237Y00900113
X016383Y0090805
X01654175
X0167005
X01685925
X01717675Y00889
X01647825Y0080645
X01628775Y00771525
X016256Y00763587
X0160655Y00747712
X015875Y0075565
X015621Y00758825
Y00769938
X01570038
X01539875
Y00758825
X01517Y0076265
X01550988Y00785813
X01539875Y00839788
X01514475Y00866775
X01516062Y00906462
X01524Y00912812
X01528763Y00919163
X01531938Y00932571
X01512888Y009271
X01508125Y00919163
X01500188Y00915987
X01493837Y00893763
X014859
X01482725Y00884238
X0147955Y00874713
X01474787Y00833438
X014478
X01450975Y00822325
Y00845356
X01438275Y00861231
X01408112Y00847725
X01404937Y0081915
X01385887Y00822325
X01389062Y00833438
X01362075
X01355725Y00828675
X01347787
X0133985Y00823913
Y00842962
X01341438Y00784225
X013335
Y00762
X01344612
X01345419Y007493
X01439863Y00771525
X0145415Y00779463
X01450625Y00784225
Y00794411
X01431532Y008027
X014224Y009017
X01431925Y00919163
X01427162Y00931862
X01743075Y00889
X01730375Y0086995
X01793875
X01806575Y00889
X01781175
X018542
X018796
X018669Y0086995
X0187325Y00855663
X01852612
X0184785Y00836612
X01833562
X01819275
X01800225Y008255
X018034Y00811212
X01814512Y00803275
X0180975Y00796925
X01789113Y00804863
X0177165Y00788988
X01763712Y00782637
X01755775Y00785813
X01747838Y00798512
X01735137Y00801687
X01738313Y00771525
Y00733425
X01754187Y00739775
X01774825Y007366
X01773237Y00727075
X01785938Y007366
X0179705
X01825087Y00736062
X01836237
Y00747213
X01825087
Y00760912
X01836237
Y00772063
X01825087
X01849937
X01861087
X0186862Y00771562
X01861087Y00760912
X01849937
Y00747213
X01861087
Y00736062
X01849937
X01854326Y00700213
X01831849
X01833562Y00669925
X01811337Y00668337
X01812925Y0067945
X01779588Y00681038
X01781175Y00693737
X01785938Y00700088
X01757363
X01747838Y00671513
Y00661988
X01770063Y00657225
X01779588Y00655638
Y00642937
X01785938Y00636587
X01795462Y00649287
X01776413Y00668337
X01734392Y00677117
X01768475Y00619125
X01778
X01768475Y005969
X017653Y00581025
X01763788Y00558875
X01808163Y005588
Y00568325
X01857375Y00557088
X01878013Y005969
X018923Y0060325
X0189865Y00612775
X01903412Y00619125
X01914525Y0060325
X01922462Y00593725
X01973262
Y00611188
X01927225Y006604
X01909763Y00695325
X01893887Y00706438
Y00715963
X019177Y0071755
X01927225Y00714375
X01935163Y00706438
X01939925Y00727075
X019304Y00731837
Y0074295
X01922462Y00752475
X01938338Y0075565
Y00763587
X0193675Y007747
Y00785813
X01938338Y00792162
X01909763Y00795338
X01881187Y008001
X0187325Y00803275
X0186055Y00804863
X01850587Y00802838
X01836738Y00803275
X01830388Y00808037
Y00815975
X01882775Y00811212
X0188595Y008255
X01882775Y00839788
X01893887Y00775481
Y00764369
X01895574Y00752475
X019177Y00731837
X0187325Y0067945
X01868488Y00665163
X01876425Y00649287
X01838325
X019304Y0086995
X019431Y00889
X019177
Y01006475
X0190246Y0101092
X0188722
X018796Y01006475
Y0102616
X018669Y01025525
X0187198Y010414
X0188722
X0189484Y0102616
X019304Y01025525
X0194056Y0102616
X019558
X0196342Y0101092
X019558Y0099568
X019431Y01006475
X019177Y010414
X0192532Y0105664
X0191008
X019177Y0107188
X0190246
X0187198
X0185674
X018415
X0184912Y0110236
X0186436
X0185674Y011176
X018415
X0183388Y0113284
X0181864
X018034
X0178816
X0177292
X0175768
X017653Y0114808
X0178054
X0179578
X0181102
X0182626
X018415
X0184912Y0116332
X0183388
X0181864
X018034
X0178816
X0177292
X0175768
X017653Y0117856
X0178054
X0179578
X0181102
X0182626
X018415
X0185674
X0187198
X018796Y0116332
X0189484
X0190246Y0114808
X0188722
X0189484Y0113284
X0190246Y011176
X018796Y0105664
X0185674Y010414
X018542Y01006475
X018415Y0101092
X0182626
X0183388Y0102616
X0181864
X01793875Y01025525
X0179578Y010414
X0178054
X0178816Y0105664
X018034
X017653Y0107188
X0175006
X0173482
X0174244Y0105664
X0173482Y010414
X01730375Y01025525
X0175768Y0102616
X0177292
X017653Y0101092
X0175006
X01743075Y01006475
X01781175
X01806575
X0181864Y0099568
X0183388
X0174244Y0110236
X0175006Y011176
Y0117856
X0173482
X0171958
X017272Y0116332
X0171196
Y0113284
X0171958Y0107188
X0170434
X0171196Y0105664
X0171958Y010414
X0170434
X0171196Y0102616
X0169672
X0168148
X0166624
X01651
X0163576
X0164338Y0101092
X0165862
X0167386
X016891
X0170434
X01717675Y01006475
X0169672Y0099568
X0168148
X0166624
X01651
X0163576
X0154305Y00957262
X01538288Y00949325
X01477962Y00957262
X014351Y00963613
X01430338Y00955675
Y0094615
X01417637Y00985837
Y00998538
X01400175Y0100965
X01392238Y01011237
X013843Y01014413
Y010287
X01393825
X01395412Y01044575
X01410482Y01042988
X01411288Y0103505
X01420813Y01036637
X01423987Y01027113
X01431925Y01030287
X01433513Y01020762
X01477962Y01023938
X01490663Y010033
X01497012Y0104775
X01481138Y01068388
X01471613
X01452563Y01065212
X01457325Y01057275
X01423987Y01071562
X01439863Y01103313
X01446212Y01108075
X01452563Y01103313
X01458913Y01108075
X01477962
X0148Y01120775
X01488
X01508125Y01119187
X01512888Y01112838
X015255Y01109662
X015335
X015225Y01119187
X01501775Y01106488
X01512Y01143
X01504Y01158875
X01496
X01488
X0148
X01472
X01464
X01456
X0144
X01432
X01424
X01439863Y0114935
X014505Y01143
X01432Y01120775
X01424
X01392238Y01116012
X01385887Y011049
X013716Y01100137
X01363663
X013589Y01093788
X01347787Y01087438
Y01071562
X0135255Y01062038
X01368425
Y01071562
Y01046162
X0135255Y01042988
X01341438
X01382713Y01052513
X013843Y01087438
X01400175Y01100137
X01374775Y0102235
X0152Y01158875
X01528
X01536
X01544
X01552
X0156Y01154112
X01557281Y01148437
X0156Y01141413
X01568Y01146175
X01581895Y0115327
X01576145Y0115902
X01568Y01119513
X015748Y01109662
X01544Y01141413
X01303338Y01093788
X01281113Y01113619
X01196975Y01122363
X012065Y01150938
X01155936Y01159411
X01148Y01159475
X0114
X01132
X01124Y01159411
X01116
X01108Y01159475
X011
X01092
X01084
X01076
X01068
Y01140425
X0106
X01052
X01055687Y01147763
X010465Y01159475
X01028
X0102
X01004
X00996
X00988
X0098
X00964
X00956
X00947812
X0094
X00939875Y0114995
X00947812Y01146775
X00972Y0114995
Y01140425
X01004
X01016075Y011436
X01011925Y0114995
X01031875Y01147763
X01028Y01140425
X01076
X01084
X01092
X011
X01108
X01116
X01124
X01132
X0114
X01148
X01156
X011684Y010414
Y01033463
X01185863Y01042988
X01192213Y01036637
X01198562Y010414
X01230312
X01235075Y01036637
X012207Y00994512
Y00983512
X012097
Y00994512
X01190675Y01001281
X0127Y00998538
X012573Y00982663
X01255713Y00969962
X01273175Y00973138
X0123825Y0094615
X01169987Y009398
X01154112Y00944563
X01146175Y00941387
X01138238Y00942975
X01116012Y00976312
X010287Y01008868
X01017588Y010033
X01006475Y01004887
X01008063Y0099695
X0099695Y01004887
X00987425
X00979488Y00992188
X0097155Y00985837
X00963613Y0097155
X00954088Y01004887
X00944563
X00947925Y01109475
X0094Y01114425
X00907925
X00916Y01140425
X0091365Y01147581
X0090495Y01146775
X00908Y01159475
X00892
X00884
X00876
X0086
X00852
X00844
X00836
X00828
X0082
X00804
X00796
X00788
X0078
X00772
X00748
X0074
X00732
X00724
X00716
X00708
X007
X00692
X00684
X00683925Y01112838
X00691925
X00699925
X00731925
X00755925
X0075565Y01143
X00763587
X00748Y0114995
X007185Y01145188
X00715963Y01096181
Y01081087
X00703037
X00707925Y01087438
X00729425
X00738187Y0108585
Y01063625
X00747712Y01068388
X0075565Y01058863
X00766762Y01061256
X007874Y01063625
X0079375Y01058081
X00801687Y01052513
X00808037Y01034268
X008128Y01025525
X00820738Y01016806
X00836612Y01013631
X0084455Y00994581
X00827087
X00811212Y00976312
X00868363Y00982663
Y00992188
X00866775Y01007281
X00887412Y00998538
X00906462
X00935038Y00969962
X00931862Y00938213
X00900113Y01049337
X00894425Y01069975
X00881062Y010795
X00873425Y01082675
X0085725Y010922
X00843925Y01096181
X00784225Y010922
X00771925Y01096181
X0078105Y01045357
X00761194Y01031094
X007493Y01042988
X00833438Y01040619
X00860425
X00868363Y01144587
X00879393Y01141198
X00921569Y01154066
X00930275Y01150938
X00932Y01159475
X00814463Y01142012
X00806525Y01146775
X006477Y01096963
X00639762Y01078311
X0059055Y01131888
X006096Y0099695
X0029845Y010033
X0028575
X0027305
X0026035
X0024765
X0023495
X002413Y01016
X00254
X002667
X002794
X002921
X0029845Y010287
X0028575
X0027305
X0026035
X0024765
X0023495
X002413Y010414
X00254
X002667
X002794
X002921
X0029845Y010541
X0028575
X0027305
X0026035
X0024765
X0023495
X002413Y010668
X00254
X002667
X002794
X002921
X002286
X002159
X002032
X001905
Y010414
Y01016
Y009906
Y009652
X002032
X002159
X002286
X002413
X00254
X002667
X002794
X002921
X0029845Y009779
X0028575
X0027305
X0026035
X0024765
X0023495
X002413Y009906
X00254
X002667
X002794
X002921
X0029845Y009525
X0028575
X0027305
X0026035
X0024765
X0023495
X0022225
X0020955
X0019685
X0017145
X0015875
X0014605
X001524Y009652
X001651
X0017145Y009779
X001651Y009906
X0017145Y010033
X001651Y01016
X0017145Y010287
X001651Y010414
X0017145Y010541
X001651Y010668
X001524
X002286Y010414
Y01016
Y009906
X002413Y009398
X00254
X002667
X002794
X002921
X0013335Y009525
X0012065
X0010795
X0009525
X0008255
X0006985
X0005715
X000635Y009652
X000762
X000889
X001016
X001143
X00127
X001397
X0012065Y009779
X0010795
X0009525
X0008255
X0006985
X0005715
X000635Y009906
X000762
X000889
X001016
X001143
X00127
X0012065Y010033
X0010795
X0009525
X0008255
X0006985
X0005715
X000635Y01016
X000762
X000889
X001016
X001143
X00127
X0012065Y010287
X0010795
X0009525
X0008255
X0006985
X0005715
X000635Y010414
X000762
X000889
X001016
X001143
X00127
X0012065Y010541
X0010795
X0009525
X0008255
X0006985
X0005715
X000635Y010668
X000762
X000889
X001016
X001143
X00127
X001397
X000508
Y010414
Y01016
Y009906
Y009652
Y009398
X000635
X000762
X000889
X001016
X001143
T04
X0038655Y0013415
X00496087
X00605625
X0071675
X00826288
X00935825
X0104695
X01156488
X01679575Y00153988
X01062038Y00233363
X01038225
X01030287Y00255588
X00969962Y00244475
X00936625Y00233363
X00946825Y00331113
X00884238Y00328613
X00915987Y00233363
X006223
X00598488Y0023495
X0059055Y00255588
X00530225Y00244475
X00496888Y0023495
X0047625
X00407988Y00212725
X004445Y00328613
X00507088Y00331113
T05
X017314Y0105275
X017543
X017745Y0110095
X017949
X018153
X018357
X018255Y0111875
X018051
X017847
X017643
X018457Y0105275
X018686
T06
X012Y006692
Y006946
Y0072
Y007454
Y007708
T07
X0015504Y0006818
Y0009815
X0018501
Y0006818
X0021499
Y0009815
X0024496
Y0006818
X0036501
Y0009815
X0039499
Y0006818
X0047501
Y0009815
X0050499
Y0006818
X0058501
Y0009815
X0061499
Y0006818
X0069501
Y0009815
X0072499
Y0006818
X0080501
Y0009815
X0083499
Y0006818
X0091501
Y0009815
X0094499
Y0006818
X0102501
Y0009815
X0105499
Y0006818
X0113501
Y0009815
X0116499
Y0006818
X0127
Y0009815
X0136501
Y0006818
X0139499
Y0009815
X0149016
X0152
X0154984
Y0006818
X0152
X0149016
X0164501
Y0009815
X0167499
Y0006818
X0180501
Y0009815
X0183499
Y0006818
T08
X0188125Y0110985
X0171875
T09
X01165Y00226
Y00494
X01406Y01135
X01594
X01174
X00666
T10
X012Y008343
T11
X001765Y00025
X002235
X0038
X0049
X006
X0071
X0082
X0093
X0104
X0115
X0127
X0138
X0152
X0166
X0182
T12
X0005Y0005
X0195
X0135Y0015
X0125
X0195Y0115
X0135
X0125
X0005
T13
X017365Y0114415
X018635
M30
